<svg width="189" height="38" viewBox="0 0 189 38" fill="none" xmlns="http://www.w3.org/2000/svg">
<rect width="38" height="38" rx="10.1724" fill="#0331FC"/>
<path d="M32.187 20.0015L32.187 20.0035C32.187 22.8953 29.3742 25.187 26.0091 25.187C25.7282 25.187 25.4564 25.0834 25.253 24.8954C25.0496 24.7073 24.9306 24.4492 24.9259 24.1758M32.187 20.0015L25.1128 24.1714M32.187 20.0015C32.1598 17.3399 29.8137 15.2106 26.8364 14.8656C26.4899 13.5885 25.751 12.4358 24.7124 11.5511C23.6396 10.6374 22.2975 10.0525 20.8646 9.87228C19.4316 9.6921 17.9737 9.92492 16.684 10.5406C15.4337 11.1375 14.3976 12.0676 13.7057 13.2151C13.3734 13.1711 13.0382 13.1495 12.7025 13.1503C8.92723 13.1504 5.81301 15.8262 5.81301 19.1686C5.81301 22.2408 8.45131 24.7889 11.9125 25.1427L11.9126 25.1427C12.1916 25.1712 12.4728 25.0947 12.6943 24.9276C12.9162 24.7602 13.0612 24.5143 13.0927 24.2423C13.1242 23.9702 13.0388 23.6992 12.8588 23.4892C12.6792 23.2796 12.4208 23.148 12.1416 23.1196L12.1417 23.1194L12.1333 23.1189C11.0368 23.0566 10.006 22.615 9.23952 21.8827C8.47436 21.1517 8.02689 20.1831 7.97964 19.1644C7.98238 17.0036 10.0812 15.188 12.7219 15.1877C13.172 15.1901 13.6198 15.2464 14.0544 15.3553L14.0546 15.3553C14.305 15.4179 14.5713 15.3922 14.8038 15.2825C15.0362 15.1728 15.2208 14.9855 15.3195 14.7532C15.7363 13.8015 16.4781 13.0035 17.4319 12.4857C18.3861 11.9677 19.4975 11.7601 20.5921 11.8966C21.6866 12.0331 22.7004 12.5056 23.4758 13.238C24.251 13.9703 24.7443 14.9209 24.8813 15.9407M32.187 20.0015L26.0032 23.131C28.2692 23.1307 30.0335 21.6735 30.0335 19.9849C30.0335 18.2967 28.2909 16.8422 26.05 16.8388C25.7752 16.8614 25.5001 16.7837 25.2822 16.6193C25.0618 16.4531 24.9164 16.2102 24.8813 15.9407M24.9259 24.1758C24.9258 24.1753 24.9258 24.1748 24.9258 24.1743L25.1128 24.1714M24.9259 24.1758C24.9259 24.1763 24.9259 24.1768 24.9259 24.1773L25.1128 24.1714M24.9259 24.1758C24.9217 24.038 24.9471 23.9011 25.0003 23.7734L25.1729 23.8452C25.1297 23.949 25.1093 24.06 25.1128 24.1714M24.8813 15.9407C24.8813 15.9404 24.8813 15.9402 24.8812 15.9399L25.0667 15.9159L24.8813 15.9408C24.8813 15.9408 24.8813 15.9408 24.8813 15.9407Z" fill="white" stroke="white" stroke-width="0.373984"/>
<rect width="3.43618" height="7.491" rx="1.71809" transform="matrix(0.96733 0.253522 -0.264211 0.964465 20.793 19.7227)" fill="white"/>
<rect opacity="0.5" width="3.43618" height="5.2437" rx="1.71809" transform="matrix(0.96733 0.253522 -0.264211 0.964465 15.7969 20.8457)" fill="white"/>
<path d="M50 19.1521C50 17.1973 50.3765 15.4822 51.1296 14.0069C51.9011 12.5131 52.9848 11.3605 54.3808 10.5491C55.7952 9.71922 57.4392 9.30429 59.3127 9.30429C60.7638 9.30429 62.068 9.58091 63.2252 10.1342C64.4007 10.6874 65.3559 11.4804 66.0906 12.5131C66.8253 13.5274 67.2937 14.7077 67.4958 16.0539H64.3273C64.015 14.8183 63.4088 13.8502 62.5088 13.1494C61.6088 12.4486 60.4975 12.0982 59.175 12.0982C57.981 12.0982 56.934 12.4025 56.034 13.0111C55.1339 13.6012 54.4451 14.4311 53.9675 15.5007C53.49 16.5519 53.2512 17.769 53.2512 19.1521C53.2512 20.5168 53.49 21.734 53.9675 22.8036C54.4451 23.8732 55.1339 24.7123 56.034 25.3209C56.934 25.911 57.981 26.2061 59.175 26.2061C60.4975 26.2061 61.5996 25.8557 62.4812 25.1549C63.3813 24.4541 63.9874 23.4859 64.2997 22.2503H67.4682C67.2662 23.615 66.7978 24.8045 66.0631 25.8188C65.3467 26.8331 64.4099 27.6169 63.2527 28.1701C62.0955 28.7234 60.7822 29 59.3127 29C57.4392 29 55.7952 28.5943 54.3808 27.7829C52.9848 26.9714 51.9011 25.828 51.1296 24.3527C50.3765 22.8589 50 21.1254 50 19.1521Z" fill="currentColor"/>
<path d="M76.011 29C74.5966 29 73.3384 28.7049 72.2363 28.1148C71.1526 27.5062 70.3076 26.6579 69.7015 25.5698C69.1137 24.4633 68.8198 23.1909 68.8198 21.7524C68.8198 20.3324 69.1137 19.0784 69.7015 17.9903C70.3076 16.8838 71.1526 16.0263 72.2363 15.4177C73.3384 14.8091 74.5966 14.5048 76.011 14.5048C77.4253 14.5048 78.6744 14.8091 79.7581 15.4177C80.8602 16.0263 81.7052 16.8838 82.2929 17.9903C82.8991 19.0784 83.2022 20.3324 83.2022 21.7524C83.2022 23.1909 82.8991 24.4633 82.2929 25.5698C81.7052 26.6579 80.8602 27.5062 79.7581 28.1148C78.6744 28.7049 77.4253 29 76.011 29ZM76.011 26.455C77.26 26.455 78.2611 26.0217 79.0142 25.1549C79.7857 24.2697 80.1714 23.1355 80.1714 21.7524C80.1714 20.3693 79.7857 19.2444 79.0142 18.3776C78.2611 17.4924 77.26 17.0498 76.011 17.0498C74.7619 17.0498 73.7609 17.4924 73.0078 18.3776C72.2547 19.2444 71.8781 20.3693 71.8781 21.7524C71.8781 23.1355 72.2547 24.2697 73.0078 25.1549C73.7609 26.0217 74.7619 26.455 76.011 26.455Z" fill="currentColor"/>
<path d="M92.483 14.5048C94.1545 14.5048 95.5138 15.0212 96.5608 16.0539C97.6261 17.0867 98.1588 18.7464 98.1588 21.0332V28.834H95.1556V21.1992C95.1556 19.8529 94.8709 18.8294 94.3015 18.1286C93.7321 17.4278 92.8963 17.0775 91.7942 17.0775C90.6187 17.0775 89.6911 17.4924 89.0114 18.3223C88.3502 19.1337 88.0195 20.2586 88.0195 21.6971V28.834H85.0439V14.6708H87.6338L87.9644 16.5242C89.0298 15.178 90.536 14.5048 92.483 14.5048Z" fill="currentColor"/>
<path d="M101.223 17.2988H98.771V14.6708H101.223V10.7151H104.226V14.6708H107.615V17.2988H104.226V24.6846C104.226 25.2379 104.337 25.6344 104.557 25.8741C104.777 26.0954 105.154 26.2061 105.687 26.2061H107.946V28.834H105.081C103.74 28.834 102.757 28.5205 102.132 27.8935C101.526 27.2665 101.223 26.2983 101.223 24.9889V17.2988Z" fill="currentColor"/>
<path d="M108.172 21.7801C108.172 20.3232 108.457 19.0507 109.027 17.9627C109.614 16.8562 110.423 16.0078 111.451 15.4177C112.498 14.8091 113.692 14.5048 115.033 14.5048C116.392 14.5048 117.586 14.7815 118.615 15.3347C119.662 15.888 120.479 16.6717 121.067 17.686C121.673 18.7003 121.985 19.8898 122.004 21.2545C122.004 21.6233 121.976 22.0014 121.921 22.3887H111.286V22.5546C111.359 23.7902 111.745 24.7676 112.443 25.4869C113.141 26.2061 114.069 26.5657 115.226 26.5657C116.144 26.5657 116.916 26.3536 117.54 25.9295C118.165 25.4869 118.578 24.8691 118.78 24.0761H121.756C121.499 25.5145 120.801 26.6948 119.662 27.6169C118.541 28.539 117.136 29 115.446 29C113.977 29 112.691 28.7049 111.589 28.1148C110.505 27.5062 109.66 26.6579 109.054 25.5698C108.466 24.4818 108.172 23.2185 108.172 21.7801ZM118.973 20.2033C118.844 19.1706 118.431 18.3684 117.733 17.7967C117.053 17.2065 116.19 16.9115 115.143 16.9115C114.17 16.9115 113.325 17.2158 112.608 17.8243C111.91 18.4145 111.506 19.2075 111.396 20.2033H118.973Z" fill="currentColor"/>
<path d="M131.297 14.5048C132.969 14.5048 134.328 15.0212 135.375 16.0539C136.441 17.0867 136.973 18.7464 136.973 21.0332V28.834H133.97V21.1992C133.97 19.8529 133.685 18.8294 133.116 18.1286C132.547 17.4278 131.711 17.0775 130.609 17.0775C129.433 17.0775 128.506 17.4924 127.826 18.3223C127.165 19.1337 126.834 20.2586 126.834 21.6971V28.834H123.858V14.6708H126.448L126.779 16.5242C127.844 15.178 129.35 14.5048 131.297 14.5048Z" fill="currentColor"/>
<path d="M140.038 17.2988H137.585V14.6708H140.038V10.7151H143.041V14.6708H146.43V17.2988H143.041V24.6846C143.041 25.2379 143.151 25.6344 143.371 25.8741C143.592 26.0954 143.968 26.2061 144.501 26.2061H146.76V28.834H143.895C142.554 28.834 141.571 28.5205 140.947 27.8935C140.341 27.2665 140.038 26.2983 140.038 24.9889V17.2988Z" fill="currentColor"/>
<path d="M155.604 14.6708V17.4647H154.281C153.05 17.4647 152.16 17.8704 151.609 18.6819C151.058 19.4749 150.782 20.4892 150.782 21.7248V28.834H147.806V14.6708H150.451L150.782 16.8008C151.186 16.1369 151.71 15.6206 152.353 15.2517C152.995 14.8645 153.859 14.6708 154.942 14.6708H155.604Z" fill="currentColor"/>
<path d="M162.465 14.5048C164.357 14.5048 165.817 14.9474 166.846 15.8326C167.875 16.7178 168.389 17.9811 168.389 19.6224V28.834H165.799L165.551 26.8147C165.018 27.5154 164.385 28.0595 163.65 28.4468C162.933 28.8156 162.052 29 161.005 29C159.444 29 158.194 28.6312 157.258 27.8935C156.321 27.1558 155.853 26.1415 155.853 24.8506C155.853 23.3937 156.367 22.278 157.395 21.5035C158.442 20.7105 159.949 20.314 161.914 20.314H165.441V19.4564C165.441 18.6634 165.165 18.0456 164.614 17.603C164.063 17.142 163.301 16.9115 162.327 16.9115C161.464 16.9115 160.748 17.0959 160.178 17.4647C159.627 17.8336 159.297 18.3407 159.186 18.9862H156.266C156.413 17.5662 157.037 16.4689 158.139 15.6943C159.241 14.9013 160.683 14.5048 162.465 14.5048ZM161.501 26.6763C162.731 26.6763 163.687 26.3444 164.366 25.6805C165.064 25.0166 165.422 24.1314 165.441 23.0249V22.527H161.749C160.83 22.527 160.123 22.7114 159.627 23.0802C159.131 23.4306 158.883 23.9562 158.883 24.657C158.883 25.2656 159.113 25.7543 159.572 26.1231C160.05 26.4919 160.693 26.6763 161.501 26.6763Z" fill="currentColor"/>
<path d="M172.031 9C172.546 9 172.977 9.1752 173.326 9.52559C173.675 9.85754 173.85 10.2817 173.85 10.7981C173.85 11.3144 173.675 11.7478 173.326 12.0982C172.977 12.4302 172.546 12.5961 172.031 12.5961C171.517 12.5961 171.085 12.4302 170.736 12.0982C170.387 11.7478 170.213 11.3144 170.213 10.7981C170.213 10.2817 170.387 9.85754 170.736 9.52559C171.085 9.1752 171.517 9 172.031 9ZM170.544 14.6708H173.519V28.834H170.544V14.6708Z" fill="currentColor"/>
<path d="M183.324 14.5048C184.996 14.5048 186.355 15.0212 187.402 16.0539C188.467 17.0867 189 18.7464 189 21.0332V28.834H185.997V21.1992C185.997 19.8529 185.712 18.8294 185.143 18.1286C184.573 17.4278 183.737 17.0775 182.635 17.0775C181.46 17.0775 180.532 17.4924 179.853 18.3223C179.191 19.1337 178.861 20.2586 178.861 21.6971V28.834H175.885V14.6708H178.475L178.806 16.5242C179.871 15.178 181.377 14.5048 183.324 14.5048Z" fill="currentColor"/>
</svg>
