<svg width="496" height="300" viewBox="0 0 496 300" fill="none" xmlns="http://www.w3.org/2000/svg">
<g clip-path="url(#clip0_13529_52595)">
<rect width="496" height="300" rx="12" fill="#F8FAFC"/>
<path fill-rule="evenodd" clip-rule="evenodd" d="M-196.996 -191.875C-196.72 -191.875 -196.496 -191.651 -196.496 -191.375V272.875C-196.496 273.151 -196.72 273.375 -196.996 273.375C-197.272 273.375 -197.496 273.151 -197.496 272.875V-191.375C-197.496 -191.651 -197.272 -191.875 -196.996 -191.875ZM-173.526 -191.875C-173.249 -191.875 -173.026 -191.651 -173.026 -191.375V272.875C-173.026 273.151 -173.249 273.375 -173.526 273.375C-173.802 273.375 -174.026 273.151 -174.026 272.875V-191.375C-174.026 -191.651 -173.802 -191.875 -173.526 -191.875ZM-149.556 -191.375C-149.556 -191.651 -149.78 -191.875 -150.056 -191.875C-150.332 -191.875 -150.556 -191.651 -150.556 -191.375V272.875C-150.556 273.151 -150.332 273.375 -150.056 273.375C-149.78 273.375 -149.556 273.151 -149.556 272.875V-191.375ZM-126.585 -191.875C-126.309 -191.875 -126.085 -191.651 -126.085 -191.375V272.875C-126.085 273.151 -126.309 273.375 -126.585 273.375C-126.861 273.375 -127.085 273.151 -127.085 272.875V-191.375C-127.085 -191.651 -126.861 -191.875 -126.585 -191.875ZM-102.616 -191.375C-102.616 -191.651 -102.84 -191.875 -103.116 -191.875C-103.392 -191.875 -103.616 -191.651 -103.616 -191.375V272.875C-103.616 273.151 -103.392 273.375 -103.116 273.375C-102.84 273.375 -102.616 273.151 -102.616 272.875V-191.375ZM-79.6455 -191.875C-79.3693 -191.875 -79.1455 -191.651 -79.1455 -191.375V272.875C-79.1455 273.151 -79.3693 273.375 -79.6455 273.375C-79.9216 273.375 -80.1455 273.151 -80.1455 272.875V-191.375C-80.1455 -191.651 -79.9216 -191.875 -79.6455 -191.875ZM-55.6751 -191.375C-55.6751 -191.651 -55.8989 -191.875 -56.1751 -191.875C-56.4512 -191.875 -56.6751 -191.651 -56.6751 -191.375V272.875C-56.6751 273.151 -56.4512 273.375 -56.1751 273.375C-55.8989 273.375 -55.6751 273.151 -55.6751 272.875V-191.375ZM-32.7054 -191.875C-32.4293 -191.875 -32.2054 -191.651 -32.2054 -191.375V272.875C-32.2054 273.151 -32.4293 273.375 -32.7054 273.375C-32.9815 273.375 -33.2054 273.151 -33.2054 272.875V-191.375C-33.2054 -191.651 -32.9815 -191.875 -32.7054 -191.875ZM-8.73502 -191.375C-8.73502 -191.651 -8.95888 -191.875 -9.23502 -191.875C-9.51115 -191.875 -9.73502 -191.651 -9.73502 -191.375V272.875C-9.73502 273.151 -9.51115 273.375 -9.23502 273.375C-8.95888 273.375 -8.73502 273.151 -8.73502 272.875V-191.375ZM14.2342 -191.875C14.5103 -191.875 14.7342 -191.651 14.7342 -191.375V272.875C14.7342 273.151 14.5103 273.375 14.2342 273.375C13.9581 273.375 13.7342 273.151 13.7342 272.875V-191.375C13.7342 -191.651 13.9581 -191.875 14.2342 -191.875ZM38.2048 -191.375C38.2048 -191.651 37.981 -191.875 37.7048 -191.875C37.4287 -191.875 37.2048 -191.651 37.2048 -191.375V272.875C37.2048 273.151 37.4287 273.375 37.7048 273.375C37.981 273.375 38.2048 273.151 38.2048 272.875V-191.375ZM61.1747 -191.875C61.4509 -191.875 61.6747 -191.651 61.6747 -191.375V272.875C61.6747 273.151 61.4509 273.375 61.1747 273.375C60.8986 273.375 60.6747 273.151 60.6747 272.875V-191.375C60.6747 -191.651 60.8986 -191.875 61.1747 -191.875ZM85.1444 -191.375C85.1444 -191.651 84.9206 -191.875 84.6444 -191.875C84.3683 -191.875 84.1444 -191.651 84.1444 -191.375V272.875C84.1444 273.151 84.3683 273.375 84.6444 273.375C84.9206 273.375 85.1444 273.151 85.1444 272.875V-191.375ZM108.114 -191.875C108.391 -191.875 108.614 -191.651 108.614 -191.375V272.875C108.614 273.151 108.391 273.375 108.114 273.375C107.838 273.375 107.614 273.151 107.614 272.875V-191.375C107.614 -191.651 107.838 -191.875 108.114 -191.875ZM132.084 -191.375C132.084 -191.651 131.86 -191.875 131.584 -191.875C131.308 -191.875 131.084 -191.651 131.084 -191.375V272.875C131.084 273.151 131.308 273.375 131.584 273.375C131.86 273.375 132.084 273.151 132.084 272.875V-191.375ZM155.055 -191.875C155.331 -191.875 155.555 -191.651 155.555 -191.375V272.875C155.555 273.151 155.331 273.375 155.055 273.375C154.779 273.375 154.555 273.151 154.555 272.875V-191.375C154.555 -191.651 154.779 -191.875 155.055 -191.875ZM179.025 -191.375C179.025 -191.651 178.801 -191.875 178.525 -191.875C178.249 -191.875 178.025 -191.651 178.025 -191.375V272.875C178.025 273.151 178.249 273.375 178.525 273.375C178.801 273.375 179.025 273.151 179.025 272.875V-191.375ZM201.997 -191.875C202.273 -191.875 202.497 -191.651 202.497 -191.375V272.875C202.497 273.151 202.273 273.375 201.997 273.375C201.72 273.375 201.497 273.151 201.497 272.875V-191.375C201.497 -191.651 201.72 -191.875 201.997 -191.875ZM225.967 -191.375C225.967 -191.651 225.743 -191.875 225.467 -191.875C225.191 -191.875 224.967 -191.651 224.967 -191.375V272.875C224.967 273.151 225.191 273.375 225.467 273.375C225.743 273.375 225.967 273.151 225.967 272.875V-191.375ZM248.936 -191.875C249.212 -191.875 249.436 -191.651 249.436 -191.375V272.875C249.436 273.151 249.212 273.375 248.936 273.375C248.66 273.375 248.436 273.151 248.436 272.875V-191.375C248.436 -191.651 248.66 -191.875 248.936 -191.875ZM272.906 -191.375C272.906 -191.651 272.682 -191.875 272.406 -191.875C272.13 -191.875 271.906 -191.651 271.906 -191.375V272.875C271.906 273.151 272.13 273.375 272.406 273.375C272.682 273.375 272.906 273.151 272.906 272.875V-191.375ZM295.877 -191.875C296.153 -191.875 296.377 -191.651 296.377 -191.375V272.875C296.377 273.151 296.153 273.375 295.877 273.375C295.601 273.375 295.377 273.151 295.377 272.875V-191.375C295.377 -191.651 295.601 -191.875 295.877 -191.875ZM319.847 -191.375C319.847 -191.651 319.623 -191.875 319.347 -191.875C319.071 -191.875 318.847 -191.651 318.847 -191.375V272.875C318.847 273.151 319.071 273.375 319.347 273.375C319.623 273.375 319.847 273.151 319.847 272.875V-191.375ZM342.817 -191.875C343.093 -191.875 343.317 -191.651 343.317 -191.375V272.875C343.317 273.151 343.093 273.375 342.817 273.375C342.541 273.375 342.317 273.151 342.317 272.875V-191.375C342.317 -191.651 342.541 -191.875 342.817 -191.875ZM366.786 -191.375C366.786 -191.651 366.562 -191.875 366.286 -191.875C366.01 -191.875 365.786 -191.651 365.786 -191.375V272.875C365.786 273.151 366.01 273.375 366.286 273.375C366.562 273.375 366.786 273.151 366.786 272.875V-191.375ZM389.757 -191.875C390.033 -191.875 390.257 -191.651 390.257 -191.375V272.875C390.257 273.151 390.033 273.375 389.757 273.375C389.481 273.375 389.257 273.151 389.257 272.875V-191.375C389.257 -191.651 389.481 -191.875 389.757 -191.875ZM413.728 -191.375C413.728 -191.651 413.504 -191.875 413.228 -191.875C412.952 -191.875 412.728 -191.651 412.728 -191.375V272.875C412.728 273.151 412.952 273.375 413.228 273.375C413.504 273.375 413.728 273.151 413.728 272.875V-191.375ZM436.697 -191.875C436.973 -191.875 437.197 -191.651 437.197 -191.375V272.875C437.197 273.151 436.973 273.375 436.697 273.375C436.421 273.375 436.197 273.151 436.197 272.875V-191.375C436.197 -191.651 436.421 -191.875 436.697 -191.875ZM460.668 -191.375C460.668 -191.651 460.444 -191.875 460.168 -191.875C459.892 -191.875 459.668 -191.651 459.668 -191.375V272.875C459.668 273.151 459.892 273.375 460.168 273.375C460.444 273.375 460.668 273.151 460.668 272.875V-191.375ZM483.637 -191.875C483.913 -191.875 484.137 -191.651 484.137 -191.375V272.875C484.137 273.151 483.913 273.375 483.637 273.375C483.361 273.375 483.137 273.151 483.137 272.875V-191.375C483.137 -191.651 483.361 -191.875 483.637 -191.875ZM507.607 -191.375C507.607 -191.651 507.383 -191.875 507.107 -191.875C506.831 -191.875 506.607 -191.651 506.607 -191.375V272.875C506.607 273.151 506.831 273.375 507.107 273.375C507.383 273.375 507.607 273.151 507.607 272.875V-191.375ZM530.577 -191.875C530.854 -191.875 531.077 -191.651 531.077 -191.375V272.875C531.077 273.151 530.854 273.375 530.577 273.375C530.301 273.375 530.077 273.151 530.077 272.875V-191.375C530.077 -191.651 530.301 -191.875 530.577 -191.875ZM554.547 -191.375C554.547 -191.651 554.323 -191.875 554.047 -191.875C553.771 -191.875 553.547 -191.651 553.547 -191.375V272.875C553.547 273.151 553.771 273.375 554.047 273.375C554.323 273.375 554.547 273.151 554.547 272.875V-191.375ZM577.517 -191.875C577.794 -191.875 578.017 -191.651 578.017 -191.375V272.875C578.017 273.151 577.794 273.375 577.517 273.375C577.241 273.375 577.017 273.151 577.017 272.875V-191.375C577.017 -191.651 577.241 -191.875 577.517 -191.875ZM601.487 -191.375C601.487 -191.651 601.263 -191.875 600.987 -191.875C600.711 -191.875 600.487 -191.651 600.487 -191.375V272.875C600.487 273.151 600.711 273.375 600.987 273.375C601.263 273.375 601.487 273.151 601.487 272.875V-191.375ZM624.457 -191.875C624.733 -191.875 624.957 -191.651 624.957 -191.375V272.875C624.957 273.151 624.733 273.375 624.457 273.375C624.18 273.375 623.957 273.151 623.957 272.875V-191.375C623.957 -191.651 624.18 -191.875 624.457 -191.875ZM648.427 -191.375C648.427 -191.651 648.204 -191.875 647.927 -191.875C647.651 -191.875 647.427 -191.651 647.427 -191.375V272.875C647.427 273.151 647.651 273.375 647.927 273.375C648.204 273.375 648.427 273.151 648.427 272.875V-191.375ZM671.398 -191.875C671.674 -191.875 671.898 -191.651 671.898 -191.375V272.875C671.898 273.151 671.674 273.375 671.398 273.375C671.122 273.375 670.898 273.151 670.898 272.875V-191.375C670.898 -191.651 671.122 -191.875 671.398 -191.875ZM695.368 -191.375C695.368 -191.651 695.144 -191.875 694.868 -191.875C694.592 -191.875 694.368 -191.651 694.368 -191.375V272.875C694.368 273.151 694.592 273.375 694.868 273.375C695.144 273.375 695.368 273.151 695.368 272.875V-191.375Z" fill="url(#paint0_linear_13529_52595)"/>
<g clip-path="url(#clip1_13529_52595)">
<mask id="mask0_13529_52595" style="mask-type:luminance" maskUnits="userSpaceOnUse" x="146" y="86" width="203" height="38">
<path d="M348.2 86H146.8V124H348.2V86Z" fill="white"/>
</mask>
<g mask="url(#mask0_13529_52595)">
<path d="M146.8 100.592C146.8 95.4842 146.8 92.9287 147.794 90.978C148.668 89.2617 150.065 87.8683 151.781 86.9912C153.729 86 156.284 86 161.392 86H170.208C175.316 86 177.871 86 179.822 86.9943C181.538 87.8683 182.932 89.2648 183.809 90.9812C184.803 92.9318 184.803 95.4842 184.803 100.595V109.411C184.803 114.519 184.803 117.074 183.809 119.025C182.935 120.741 181.538 122.135 179.822 123.012C177.871 124.006 175.319 124.006 170.208 124.006H161.392C156.284 124.006 153.729 124.006 151.778 123.012C150.062 122.138 148.668 120.741 147.791 119.025C146.797 117.074 146.797 114.519 146.797 109.411V100.595H146.8V100.592Z" fill="#0331FC"/>
<path d="M173.821 101.365L173.454 101.453L173.517 101.713L173.783 101.738L173.821 101.358V101.365ZM172.254 110.621L172.634 110.615V110.608L172.254 110.621ZM173.175 103.002V102.622H173.14L173.175 103.002ZM162.348 101.004L162 100.855V100.861L162.352 101.007H162.348V101.004ZM155.04 105.551H154.66V105.567L155.04 105.551ZM159.343 109.744L159.381 109.367H159.362L159.34 109.744H159.343ZM161.015 99.7243L160.958 100.101L161.218 100.139L161.348 99.9112L161.018 99.7243H161.015ZM174.189 101.276C173.85 99.8922 173.08 98.6413 171.985 97.6913L171.487 98.2645C172.469 99.1163 173.153 100.228 173.451 101.457L174.189 101.276ZM179.477 106.393C179.448 103.537 176.95 101.295 173.856 100.988L173.78 101.745C176.592 102.023 178.695 104.031 178.717 106.403L179.477 106.397V106.393ZM173.144 111.84C176.567 111.84 179.477 109.459 179.477 106.397H178.717C178.717 108.927 176.269 111.08 173.144 111.08V111.84ZM172.257 111.492C172.498 111.717 172.814 111.84 173.144 111.84V111.08C173.004 111.08 172.874 111.026 172.779 110.938L172.257 111.492ZM171.871 110.627C171.877 110.957 172.016 111.267 172.257 111.492L172.779 110.938C172.684 110.849 172.634 110.732 172.634 110.615L171.874 110.627H171.871ZM171.959 110.146C171.896 110.301 171.867 110.466 171.871 110.634L172.631 110.608C172.631 110.548 172.64 110.488 172.662 110.434L171.959 110.146ZM172.235 109.734C172.114 109.851 172.023 109.991 171.959 110.146L172.662 110.434C172.684 110.377 172.719 110.326 172.767 110.282L172.235 109.737V109.734ZM172.65 109.465C172.494 109.528 172.352 109.617 172.235 109.734L172.767 110.279C172.811 110.235 172.868 110.197 172.931 110.171L172.65 109.465ZM173.137 109.373C172.969 109.373 172.805 109.402 172.65 109.465L172.931 110.171C172.995 110.146 173.064 110.133 173.131 110.133L173.137 109.373ZM176.947 106.378C176.947 107.951 175.316 109.373 173.134 109.373V110.133C175.576 110.133 177.707 108.512 177.707 106.378H176.947ZM173.175 103.382C175.335 103.382 176.947 104.804 176.947 106.378H177.707C177.707 104.243 175.601 102.622 173.175 102.622V103.382ZM172.301 103.119C172.561 103.319 172.887 103.41 173.21 103.379L173.14 102.622C173.001 102.635 172.868 102.597 172.764 102.514L172.301 103.116V103.119ZM171.829 102.305C171.871 102.628 172.042 102.92 172.301 103.119L172.764 102.517C172.659 102.438 172.599 102.327 172.583 102.21L171.829 102.305ZM170.49 99.68C171.231 100.393 171.7 101.317 171.829 102.308L172.583 102.21C172.431 101.045 171.877 99.965 171.016 99.1353L170.49 99.6832V99.68ZM167.735 98.3753C168.78 98.5083 169.749 98.9707 170.49 99.68L171.016 99.1322C170.154 98.3025 169.033 97.7737 167.83 97.6185L167.735 98.3722V98.3753ZM164.714 98.9485C165.626 98.445 166.687 98.2423 167.735 98.3753L167.83 97.6217C166.627 97.4697 165.401 97.7008 164.347 98.2835L164.714 98.9485ZM162.697 101.156C163.096 100.231 163.802 99.452 164.714 98.9485L164.347 98.2835C163.292 98.8662 162.466 99.7718 162 100.855L162.697 101.156ZM162.092 101.789C162.364 101.656 162.583 101.431 162.7 101.153L161.997 100.861C161.956 100.963 161.873 101.051 161.763 101.105L162.092 101.789ZM161.212 101.878C161.506 101.954 161.816 101.922 162.092 101.789L161.763 101.105C161.652 101.159 161.522 101.172 161.402 101.14L161.215 101.875L161.212 101.878ZM159.935 101.713C160.366 101.713 160.797 101.77 161.212 101.878L161.398 101.143C160.923 101.023 160.429 100.959 159.939 100.956V101.716L159.935 101.713ZM155.42 105.557C155.42 103.493 157.396 101.713 159.939 101.713V100.953C157.085 100.953 154.66 102.97 154.66 105.557H155.42ZM156.614 108.173C155.885 107.464 155.461 106.526 155.417 105.542L154.657 105.576C154.707 106.761 155.217 107.879 156.082 108.718L156.614 108.173ZM159.365 109.37C158.32 109.31 157.342 108.882 156.614 108.173L156.082 108.718C156.943 109.557 158.096 110.06 159.318 110.13L159.362 109.37H159.365ZM160.224 109.813C160.011 109.56 159.707 109.405 159.381 109.37L159.302 110.127C159.438 110.14 159.562 110.206 159.641 110.304L160.224 109.817V109.813ZM160.499 110.719C160.537 110.39 160.436 110.067 160.224 109.813L159.641 110.301C159.72 110.396 159.755 110.516 159.742 110.63L160.496 110.716L160.499 110.719ZM160.03 111.542C160.29 111.343 160.461 111.045 160.499 110.719L159.745 110.634C159.733 110.751 159.669 110.862 159.568 110.941L160.03 111.542ZM159.112 111.799C159.438 111.834 159.768 111.742 160.03 111.542L159.568 110.941C159.464 111.02 159.331 111.058 159.194 111.045L159.115 111.802H159.112V111.799ZM152.877 105.554C152.877 108.781 155.591 111.432 159.112 111.799L159.191 111.042C155.98 110.706 153.637 108.319 153.637 105.554H152.877ZM159.92 99.2652C156.078 99.2652 152.877 102.046 152.877 105.554H153.637C153.637 102.546 156.411 100.025 159.92 100.025V99.2652ZM161.072 99.3507C160.692 99.2937 160.306 99.262 159.92 99.2652V100.025C160.268 100.025 160.616 100.051 160.958 100.101L161.072 99.3507ZM163.792 96.64C162.475 97.2797 161.392 98.2898 160.686 99.5407L161.348 99.9143C161.975 98.8028 162.944 97.9003 164.128 97.324L163.796 96.64H163.792ZM168.058 95.9433C166.595 95.7565 165.107 95.9972 163.792 96.64L164.125 97.324C165.306 96.7477 166.646 96.5292 167.963 96.7002L168.058 95.9465V95.9433ZM171.985 97.6913C170.889 96.7413 169.518 96.1302 168.058 95.9433L167.963 96.697C169.28 96.8648 170.509 97.4127 171.491 98.2645L171.988 97.6913H171.985Z" fill="white"/>
<path d="M171.738 97.9764C172.776 98.8789 173.501 100.06 173.821 101.365C176.776 101.659 179.075 103.784 179.1 106.397C179.1 109.19 176.421 111.46 173.147 111.46C172.912 111.46 172.688 111.371 172.52 111.213C172.352 111.055 172.257 110.843 172.254 110.618C172.251 110.504 172.27 110.393 172.314 110.288C172.358 110.184 172.422 110.086 172.504 110.007C172.586 109.924 172.684 109.861 172.795 109.82C172.903 109.775 173.02 109.753 173.14 109.756C175.452 109.756 177.333 108.233 177.333 106.381C177.333 104.528 175.471 103.005 173.182 103.005C172.95 103.027 172.719 102.961 172.539 102.821C172.358 102.682 172.241 102.479 172.213 102.261C172.07 101.184 171.56 100.18 170.759 99.4109C169.961 98.6414 168.916 98.1442 167.789 98.0017C166.661 97.8592 165.518 98.0777 164.537 98.6192C163.555 99.1639 162.785 100.003 162.355 101.007C162.276 101.197 162.127 101.355 161.934 101.447C161.74 101.539 161.522 101.561 161.313 101.507C160.866 101.393 160.407 101.333 159.945 101.33C157.247 101.33 155.046 103.23 155.046 105.554C155.094 106.637 155.559 107.666 156.357 108.442C157.155 109.218 158.219 109.68 159.353 109.747C159.584 109.772 159.796 109.883 159.942 110.057C160.087 110.231 160.157 110.453 160.132 110.675C160.106 110.896 159.989 111.099 159.809 111.238C159.625 111.378 159.394 111.444 159.163 111.419C155.797 111.067 153.266 108.55 153.266 105.554C153.266 102.296 156.253 99.6452 159.929 99.6452C160.296 99.6452 160.661 99.6706 161.025 99.7276C161.693 98.5496 162.719 97.5901 163.967 96.9821C165.214 96.3741 166.63 96.1429 168.02 96.3234C169.41 96.5007 170.708 97.0802 171.747 97.9827L171.738 97.9764Z" fill="white"/>
<path d="M167.523 107.793C167.767 106.881 168.704 106.34 169.616 106.583C170.528 106.827 171.069 107.765 170.826 108.677L169.743 112.714C169.499 113.626 168.561 114.168 167.649 113.924C166.737 113.68 166.196 112.743 166.44 111.831L167.523 107.793Z" fill="white"/>
<path opacity="0.5" d="M162.554 108.933C162.798 108.021 163.735 107.479 164.647 107.723C165.559 107.967 166.101 108.904 165.857 109.816L165.366 111.653C165.122 112.565 164.185 113.107 163.273 112.863C162.361 112.619 161.819 111.682 162.063 110.77L162.554 108.933Z" fill="white"/>
</g>
<mask id="mask1_13529_52595" style="mask-type:luminance" maskUnits="userSpaceOnUse" x="146" y="86" width="203" height="38">
<path d="M348.2 86H146.8V124H348.2V86Z" fill="white"/>
</mask>
<g mask="url(#mask1_13529_52595)">
<path d="M194.933 105.168C194.933 103.002 195.348 101.102 196.178 99.4648C197.03 97.8086 198.224 96.5324 199.763 95.6331C201.321 94.7148 203.135 94.2524 205.2 94.2524C206.799 94.2524 208.237 94.5596 209.513 95.1708C210.808 95.7851 211.862 96.6623 212.673 97.8086C213.484 98.9328 214 100.241 214.222 101.732H210.729C210.384 100.364 209.715 99.2906 208.724 98.5116C207.733 97.7358 206.508 97.3463 205.048 97.3463C203.73 97.3463 202.578 97.6851 201.583 98.3596C200.592 99.0151 199.832 99.9334 199.303 101.118C198.778 102.283 198.515 103.632 198.515 105.165C198.515 106.697 198.778 108.027 199.303 109.212C199.829 110.396 200.589 111.327 201.583 112.002C202.575 112.657 203.73 112.983 205.048 112.983C206.508 112.983 207.72 112.594 208.693 111.818C209.684 111.042 210.352 109.969 210.697 108.597H214.19C213.968 110.111 213.452 111.428 212.641 112.553C211.853 113.677 210.817 114.544 209.541 115.159C208.265 115.773 206.818 116.077 205.197 116.077C203.132 116.077 201.317 115.627 199.759 114.728C198.22 113.829 197.027 112.562 196.175 110.925C195.345 109.269 194.93 107.347 194.93 105.162V105.168H194.933Z" fill="#0F172A"/>
<path d="M223.614 116.083C222.056 116.083 220.666 115.757 219.453 115.102C218.259 114.427 217.325 113.487 216.657 112.28C216.008 111.055 215.685 109.642 215.685 108.049C215.685 106.457 216.008 105.085 216.657 103.879C217.325 102.653 218.256 101.703 219.453 101.029C220.669 100.354 222.056 100.016 223.614 100.016C225.172 100.016 226.549 100.354 227.746 101.029C228.962 101.703 229.893 102.653 230.543 103.879C231.211 105.085 231.546 106.476 231.546 108.049C231.546 109.623 231.211 111.055 230.543 112.28C229.893 113.487 228.962 114.427 227.746 115.102C226.553 115.757 225.175 116.083 223.614 116.083ZM223.614 113.262C224.991 113.262 226.093 112.78 226.926 111.821C227.778 110.839 228.202 109.582 228.202 108.049C228.202 106.517 227.778 105.269 226.926 104.31C226.097 103.328 224.991 102.837 223.614 102.837C222.236 102.837 221.134 103.328 220.302 104.31C219.472 105.269 219.057 106.517 219.057 108.049C219.057 109.582 219.472 110.839 220.302 111.821C221.131 112.78 222.236 113.262 223.614 113.262Z" fill="#0F172A"/>
<path d="M241.778 100.019C243.621 100.019 245.119 100.592 246.275 101.735C247.449 102.878 248.035 104.718 248.035 107.255V115.9H244.723V107.438C244.723 105.947 244.409 104.813 243.782 104.034C243.155 103.258 242.234 102.869 241.018 102.869C239.723 102.869 238.7 103.328 237.949 104.249C237.221 105.149 236.857 106.396 236.857 107.989V115.9H233.576V100.202H236.433L236.797 102.258C237.972 100.766 239.631 100.019 241.778 100.019Z" fill="#0F172A"/>
<path d="M251.414 103.116H248.71V100.202H251.414V95.8167H254.726V100.202H258.463V103.116H254.726V111.302C254.726 111.916 254.847 112.353 255.091 112.619C255.334 112.863 255.749 112.986 256.335 112.986H258.827V115.9H255.667C254.188 115.9 253.105 115.551 252.415 114.858C251.747 114.164 251.411 113.091 251.411 111.637V103.113H251.414V103.116Z" fill="#0F172A"/>
<path d="M259.074 108.081C259.074 106.466 259.388 105.057 260.015 103.85C260.664 102.625 261.554 101.684 262.687 101.029C263.843 100.354 265.157 100.016 266.636 100.016C268.115 100.016 269.451 100.323 270.585 100.934C271.741 101.548 272.64 102.416 273.289 103.54C273.958 104.664 274.303 105.982 274.322 107.495C274.322 107.904 274.29 108.322 274.23 108.752H262.504V108.936C262.586 110.304 263.01 111.39 263.78 112.185C264.549 112.983 265.572 113.382 266.848 113.382C267.862 113.382 268.71 113.148 269.401 112.676C270.088 112.185 270.544 111.501 270.769 110.621H274.049C273.764 112.214 272.995 113.525 271.741 114.544C270.506 115.567 268.957 116.077 267.092 116.077C265.471 116.077 264.055 115.751 262.839 115.095C261.646 114.421 260.711 113.48 260.043 112.274C259.394 111.067 259.071 109.668 259.071 108.075V108.081H259.074ZM270.984 106.333C270.842 105.19 270.386 104.3 269.616 103.667C268.866 103.011 267.916 102.685 266.76 102.685C265.686 102.685 264.755 103.024 263.964 103.698C263.194 104.354 262.748 105.231 262.627 106.336H270.984V106.333Z" fill="#0F172A"/>
<path d="M284.575 100.019C286.418 100.019 287.916 100.592 289.072 101.735C290.247 102.878 290.833 104.718 290.833 107.255V115.9H287.52V107.438C287.52 105.947 287.207 104.813 286.58 104.034C285.953 103.258 285.031 102.869 283.815 102.869C282.52 102.869 281.497 103.328 280.747 104.249C280.019 105.149 279.654 106.396 279.654 107.989V115.9H276.374V100.202H279.23L279.594 102.258C280.769 100.766 282.428 100.019 284.575 100.019Z" fill="#0F172A"/>
<path d="M294.211 103.116H291.507V100.202H294.211V95.8167H297.524V100.202H301.26V103.116H297.524V111.302C297.524 111.916 297.644 112.353 297.888 112.619C298.132 112.863 298.547 112.986 299.132 112.986H301.625V115.9H298.464C296.985 115.9 295.902 115.551 295.212 114.858C294.544 114.164 294.208 113.091 294.208 111.637V103.113H294.211V103.116Z" fill="#0F172A"/>
<path d="M311.375 100.203V103.3H309.915C308.556 103.3 307.575 103.749 306.967 104.649C306.359 105.529 306.055 106.653 306.055 108.021V115.9H302.774V100.203H305.691L306.055 102.565C306.501 101.83 307.078 101.257 307.787 100.849C308.496 100.418 309.446 100.206 310.643 100.206H311.375V100.203Z" fill="#0F172A"/>
<path d="M318.943 100.019C321.03 100.019 322.639 100.51 323.772 101.491C324.906 102.473 325.473 103.873 325.473 105.69V115.9H322.617L322.344 113.661C321.758 114.437 321.059 115.041 320.248 115.469C319.459 115.877 318.487 116.083 317.331 116.083C315.609 116.083 314.231 115.675 313.199 114.858C312.167 114.041 311.65 112.917 311.65 111.485C311.65 109.87 312.217 108.635 313.351 107.774C314.507 106.894 316.166 106.457 318.332 106.457H322.221V105.507C322.221 104.626 321.917 103.942 321.309 103.451C320.701 102.942 319.862 102.685 318.788 102.685C317.835 102.685 317.046 102.891 316.419 103.299C315.811 103.708 315.447 104.272 315.327 104.987H312.106C312.268 103.413 312.958 102.197 314.171 101.339C315.387 100.459 316.977 100.022 318.94 100.022H318.943V100.019ZM317.879 113.509C319.238 113.509 320.289 113.141 321.04 112.404C321.809 111.669 322.205 110.687 322.224 109.462V108.911H318.152C317.138 108.911 316.359 109.117 315.811 109.525C315.264 109.915 314.991 110.497 314.991 111.273C314.991 111.948 315.245 112.489 315.751 112.898C316.277 113.306 316.986 113.512 317.879 113.512V113.509Z" fill="#0F172A"/>
<path d="M329.488 93.9167C330.055 93.9167 330.53 94.1099 330.916 94.4994C331.303 94.8667 331.493 95.3386 331.493 95.9086C331.493 96.4786 331.299 96.9599 330.916 97.3494C330.53 97.7167 330.055 97.9004 329.488 97.9004C328.921 97.9004 328.446 97.7167 328.06 97.3494C327.674 96.9599 327.484 96.4817 327.484 95.9086C327.484 95.3354 327.677 94.8667 328.06 94.4994C328.446 94.1099 328.921 93.9167 329.488 93.9167ZM327.848 100.203H331.128V115.9H327.848V100.203Z" fill="#0F172A"/>
<path d="M341.943 100.019C343.786 100.019 345.283 100.592 346.439 101.735C347.614 102.878 348.2 104.718 348.2 107.255V115.9H344.888V107.438C344.888 105.947 344.574 104.813 343.947 104.034C343.32 103.258 342.399 102.869 341.183 102.869C339.887 102.869 338.865 103.328 338.114 104.249C337.386 105.149 337.022 106.396 337.022 107.989V115.9H333.741V100.202H336.597L336.961 102.258C338.136 100.766 339.796 100.019 341.943 100.019Z" fill="#0F172A"/>
</g>
</g>
<path d="M153.621 170.4C157.173 170.4 159.909 171.168 161.829 172.704C163.781 174.24 164.757 176.368 164.757 179.088C164.757 181.072 164.245 182.72 163.221 184.032C162.197 185.312 160.709 186.208 158.757 186.72C163.685 187.648 166.149 190.32 166.149 194.736C166.149 197.616 165.093 199.888 162.981 201.552C160.901 203.184 157.893 204 153.957 204H141.717V170.4H153.621ZM145.893 184.992H153.813C155.957 184.992 157.621 184.512 158.805 183.552C159.989 182.592 160.581 181.264 160.581 179.568C160.581 177.872 159.989 176.56 158.805 175.632C157.653 174.672 155.989 174.192 153.813 174.192H145.893V184.992ZM145.893 200.208H153.957C156.517 200.208 158.469 199.712 159.813 198.72C161.189 197.728 161.877 196.352 161.877 194.592C161.877 192.704 161.189 191.264 159.813 190.272C158.437 189.248 156.485 188.736 153.957 188.736H145.893V200.208ZM170.087 170.4H174.023V204H170.087V170.4ZM189.735 204.288C187.367 204.288 185.255 203.76 183.399 202.704C181.575 201.648 180.151 200.176 179.127 198.288C178.103 196.4 177.591 194.224 177.591 191.76C177.591 189.296 178.103 187.12 179.127 185.232C180.151 183.344 181.575 181.872 183.399 180.816C185.255 179.76 187.367 179.232 189.735 179.232C192.103 179.232 194.199 179.76 196.023 180.816C197.879 181.872 199.319 183.344 200.343 185.232C201.367 187.12 201.879 189.296 201.879 191.76C201.879 194.224 201.367 196.4 200.343 198.288C199.319 200.176 197.879 201.648 196.023 202.704C194.199 203.76 192.103 204.288 189.735 204.288ZM189.735 200.784C191.335 200.784 192.743 200.4 193.959 199.632C195.207 198.864 196.167 197.792 196.839 196.416C197.511 195.04 197.847 193.488 197.847 191.76C197.847 190.032 197.511 188.48 196.839 187.104C196.167 185.728 195.207 184.656 193.959 183.888C192.743 183.12 191.335 182.736 189.735 182.736C188.135 182.736 186.711 183.12 185.463 183.888C184.247 184.656 183.303 185.728 182.631 187.104C181.959 188.48 181.623 190.032 181.623 191.76C181.623 193.488 181.959 195.04 182.631 196.416C183.303 197.792 184.247 198.864 185.463 199.632C186.711 200.4 188.135 200.784 189.735 200.784ZM228.665 179.52V202.8C228.665 210.192 224.617 213.888 216.521 213.888C213.353 213.888 210.761 213.168 208.745 211.728C206.761 210.288 205.609 208.24 205.289 205.584H209.321C209.641 207.12 210.457 208.304 211.769 209.136C213.081 209.968 214.761 210.384 216.809 210.384C222.089 210.384 224.729 207.808 224.729 202.656V199.776C222.969 202.784 220.169 204.288 216.329 204.288C214.057 204.288 212.025 203.792 210.233 202.8C208.473 201.808 207.081 200.368 206.057 198.48C205.065 196.592 204.569 194.352 204.569 191.76C204.569 189.296 205.065 187.12 206.057 185.232C207.081 183.344 208.489 181.872 210.281 180.816C212.073 179.76 214.089 179.232 216.329 179.232C218.313 179.232 220.009 179.632 221.417 180.432C222.825 181.2 223.929 182.304 224.729 183.744L225.257 179.52H228.665ZM216.713 200.784C218.281 200.784 219.673 200.416 220.889 199.68C222.137 198.912 223.097 197.856 223.769 196.512C224.441 195.136 224.777 193.584 224.777 191.856C224.777 190.096 224.441 188.528 223.769 187.152C223.097 185.744 222.137 184.656 220.889 183.888C219.673 183.12 218.281 182.736 216.713 182.736C214.281 182.736 212.313 183.584 210.809 185.28C209.337 186.944 208.601 189.104 208.601 191.76C208.601 194.416 209.337 196.592 210.809 198.288C212.313 199.952 214.281 200.784 216.713 200.784ZM266.509 195.552C265.997 198.272 264.797 200.416 262.909 201.984C261.021 203.52 258.621 204.288 255.709 204.288C253.341 204.288 251.261 203.76 249.469 202.704C247.677 201.648 246.285 200.176 245.293 198.288C244.301 196.368 243.805 194.176 243.805 191.712C243.805 189.248 244.301 187.072 245.293 185.184C246.317 183.296 247.741 181.84 249.565 180.816C251.389 179.76 253.485 179.232 255.853 179.232C258.733 179.232 261.101 180 262.957 181.536C264.845 183.072 266.029 185.184 266.509 187.872H262.525C262.141 186.304 261.341 185.056 260.125 184.128C258.909 183.2 257.437 182.736 255.709 182.736C253.373 182.736 251.469 183.568 249.997 185.232C248.557 186.896 247.837 189.056 247.837 191.712C247.837 194.4 248.557 196.592 249.997 198.288C251.469 199.952 253.373 200.784 255.709 200.784C257.501 200.784 259.005 200.32 260.221 199.392C261.437 198.464 262.221 197.184 262.573 195.552H266.509ZM280.864 204.288C278.496 204.288 276.384 203.76 274.528 202.704C272.704 201.648 271.28 200.176 270.256 198.288C269.232 196.4 268.72 194.224 268.72 191.76C268.72 189.296 269.232 187.12 270.256 185.232C271.28 183.344 272.704 181.872 274.528 180.816C276.384 179.76 278.496 179.232 280.864 179.232C283.232 179.232 285.328 179.76 287.152 180.816C289.008 181.872 290.448 183.344 291.472 185.232C292.496 187.12 293.008 189.296 293.008 191.76C293.008 194.224 292.496 196.4 291.472 198.288C290.448 200.176 289.008 201.648 287.152 202.704C285.328 203.76 283.232 204.288 280.864 204.288ZM280.864 200.784C282.464 200.784 283.872 200.4 285.088 199.632C286.336 198.864 287.296 197.792 287.968 196.416C288.64 195.04 288.976 193.488 288.976 191.76C288.976 190.032 288.64 188.48 287.968 187.104C287.296 185.728 286.336 184.656 285.088 183.888C283.872 183.12 282.464 182.736 280.864 182.736C279.264 182.736 277.84 183.12 276.592 183.888C275.376 184.656 274.432 185.728 273.76 187.104C273.088 188.48 272.752 190.032 272.752 191.76C272.752 193.488 273.088 195.04 273.76 196.416C274.432 197.792 275.376 198.864 276.592 199.632C277.84 200.4 279.264 200.784 280.864 200.784ZM293.176 179.52H297.4L304.792 199.536L312.136 179.52H316.264L307.096 204H302.344L293.176 179.52ZM316.441 191.76C316.441 189.264 316.921 187.072 317.881 185.184C318.873 183.296 320.249 181.84 322.009 180.816C323.769 179.76 325.785 179.232 328.057 179.232C330.297 179.232 332.281 179.696 334.009 180.624C335.737 181.552 337.097 182.896 338.089 184.656C339.081 186.416 339.609 188.48 339.673 190.848C339.673 191.2 339.641 191.76 339.577 192.528H320.569V192.864C320.633 195.264 321.369 197.184 322.777 198.624C324.185 200.064 326.025 200.784 328.297 200.784C330.057 200.784 331.545 200.352 332.761 199.488C334.009 198.592 334.841 197.36 335.257 195.792H339.241C338.761 198.288 337.561 200.336 335.641 201.936C333.721 203.504 331.369 204.288 328.585 204.288C326.153 204.288 324.025 203.776 322.201 202.752C320.377 201.696 318.953 200.224 317.929 198.336C316.937 196.416 316.441 194.224 316.441 191.76ZM335.593 189.264C335.401 187.184 334.617 185.568 333.241 184.416C331.897 183.264 330.185 182.688 328.105 182.688C326.249 182.688 324.617 183.296 323.209 184.512C321.801 185.728 321.001 187.312 320.809 189.264H335.593ZM355.636 179.52V183.36H353.668C351.332 183.36 349.652 184.144 348.628 185.712C347.636 187.28 347.14 189.216 347.14 191.52V204H343.204V179.52H346.612L347.14 183.216C347.844 182.096 348.756 181.2 349.876 180.528C350.996 179.856 352.548 179.52 354.532 179.52H355.636Z" fill="#475569"/>
</g>
<rect x="0.5" y="0.5" width="495" height="299" rx="11.5" stroke="#E9F0F9"/>
<defs>
<linearGradient id="paint0_linear_13529_52595" x1="248.952" y1="-115.119" x2="249.044" y2="223.06" gradientUnits="userSpaceOnUse">
<stop offset="0.131735" stop-color="white"/>
<stop offset="0.292707" stop-color="#E6ECF2"/>
<stop offset="0.787248" stop-color="#E6ECF2"/>
<stop offset="1" stop-color="#F8FAFC"/>
</linearGradient>
<clipPath id="clip0_13529_52595">
<rect width="496" height="300" rx="12" fill="white"/>
</clipPath>
<clipPath id="clip1_13529_52595">
<rect width="201.4" height="38" fill="white" transform="translate(146.8 86)"/>
</clipPath>
</defs>
</svg>
