<svg width="80" height="80" viewBox="0 0 80 80" fill="none" xmlns="http://www.w3.org/2000/svg">
<g clip-path="url(#clip0_1431_11647)">
<mask id="mask0_1431_11647" style="mask-type:luminance" maskUnits="userSpaceOnUse" x="0" y="0" width="80" height="80">
<path d="M80 0H0V80H80V0Z" fill="white"/>
</mask>
<g mask="url(#mask0_1431_11647)">
<path d="M0 30.72C0 19.968 0 14.5893 2.09333 10.4827C3.93333 6.86933 6.872 3.93333 10.4853 2.09067C14.5893 0 19.968 0 30.72 0H49.28C60.032 0 65.4107 0 69.5173 2.09333C73.1307 3.93333 76.0667 6.872 77.9093 10.4853C80.0027 14.592 80.0027 19.968 80.0027 30.7227V49.2827C80.0027 60.0347 80.0027 65.4133 77.9093 69.52C76.0693 73.1333 73.1307 76.0693 69.5173 77.912C65.4107 80.0053 60.0347 80.0053 49.28 80.0053H30.72C19.968 80.0053 14.5893 80.0053 10.4827 77.912C6.86933 76.072 3.93333 73.1333 2.09067 69.52C0 65.4107 0 60.032 0 49.28V30.72Z" fill="#0331FC"/>
<path d="M53.0248 24.608C50.7181 22.6053 47.8328 21.3227 44.7554 20.928L44.5528 22.5147C47.3235 22.8693 49.9128 24.024 51.9768 25.8133L53.0248 24.6053V24.608ZM44.7554 20.928C41.6781 20.5333 38.5448 21.0427 35.7741 22.392L36.4754 23.8293C38.9634 22.6187 41.7821 22.1573 44.5528 22.5147L44.7554 20.928ZM35.7741 22.392C33.0034 23.7413 30.7181 25.8667 29.2328 28.496L30.6248 29.2853C31.9474 26.9467 33.9874 25.0453 36.4754 23.832L35.7741 22.3947V22.392ZM30.0488 28.0987C29.2461 27.976 28.4354 27.9147 27.6221 27.9173L27.6274 29.5173C28.3581 29.5173 29.0861 29.5707 29.8088 29.68L30.0488 28.0987ZM27.6248 27.9173C19.5394 27.9173 12.8008 33.768 12.8008 41.1573H14.4008C14.4008 34.8267 20.2381 29.5173 27.6248 29.5173V27.9173ZM12.8008 41.1573C12.8008 47.9493 18.5128 53.528 25.9288 54.3013L26.0941 52.7093C19.3341 52.0053 14.4008 46.9787 14.4008 41.1573H12.8008ZM25.9288 54.3013C26.6168 54.3733 27.3101 54.1813 27.8594 53.76L26.8834 52.4907C26.6648 52.6587 26.3821 52.7387 26.0941 52.7093L25.9288 54.3013ZM27.8594 53.76C28.4088 53.3387 28.7688 52.7147 28.8461 52.0267L27.2568 51.8453C27.2301 52.0907 27.0994 52.3253 26.8834 52.4907L27.8594 53.76ZM28.8461 52.0267C28.9234 51.336 28.7128 50.6507 28.2648 50.12L27.0408 51.1493C27.2088 51.352 27.2834 51.6 27.2568 51.8453L28.8461 52.0267ZM28.2648 50.12C27.8194 49.5893 27.1794 49.2587 26.4914 49.1867L26.3261 50.7787C26.6141 50.808 26.8701 50.9467 27.0408 51.1493L28.2648 50.12ZM26.4568 49.184C24.2594 49.056 22.1981 48.1547 20.6648 46.6613L19.5474 47.808C21.3608 49.576 23.7901 50.632 26.3608 50.7813L26.4541 49.184H26.4568ZM20.6648 46.6613C19.1341 45.1707 18.2408 43.1947 18.1474 41.12L16.5501 41.192C16.6594 43.6827 17.7314 46.04 19.5474 47.808L20.6648 46.6613ZM18.1501 41.1547C18.1501 36.8107 22.3101 33.064 27.6648 33.064V31.464C21.6568 31.464 16.5501 35.712 16.5501 41.1547H18.1501ZM27.6594 33.064C28.5688 33.0693 29.4701 33.184 30.3475 33.408L30.7421 31.8587C29.7394 31.6027 28.7048 31.4693 27.6674 31.464L27.6594 33.064ZM30.3475 33.408C30.9661 33.5653 31.6221 33.5013 32.1981 33.224L31.5048 31.7813C31.2701 31.8933 30.9981 31.92 30.7421 31.856L30.3475 33.4053V33.408ZM32.1981 33.224C32.7741 32.9467 33.2328 32.472 33.4754 31.8827L31.9981 31.2693C31.9101 31.4853 31.7368 31.6693 31.5021 31.7813L32.1954 33.224H32.1981ZM33.4728 31.8933C34.3101 29.9467 35.7981 28.3093 37.7181 27.248L36.9421 25.848C34.7208 27.0773 32.9821 28.9787 32.0008 31.2613L33.4701 31.8933H33.4728ZM37.7181 27.248C39.6381 26.1867 41.8728 25.76 44.0781 26.04L44.2808 24.4533C41.7448 24.1307 39.1661 24.6213 36.9448 25.848L37.7208 27.248H37.7181ZM44.0781 26.04C46.2808 26.32 48.3208 27.2907 49.8781 28.7893L50.9874 27.6373C49.1768 25.8933 46.8168 24.776 44.2781 24.4533L44.0754 26.04H44.0781ZM49.8781 28.7893C51.4354 30.2907 52.4248 32.2347 52.6994 34.32L54.2861 34.112C53.9635 31.6587 52.8008 29.384 50.9874 27.6373L49.8781 28.7893ZM52.6994 34.3173C52.7848 35 53.1474 35.6133 53.6914 36.032L54.6674 34.7627C54.4488 34.5947 54.3181 34.36 54.2861 34.1147L52.6994 34.3147V34.3173ZM53.6914 36.032C54.2355 36.4507 54.9235 36.6453 55.6061 36.5813L55.4594 34.9893C55.1688 35.016 54.8835 34.9333 54.6648 34.7653L53.6888 36.0347H53.6914V36.032ZM55.5341 36.5867C60.0781 36.5867 63.4754 39.5787 63.4754 42.896H65.0755C65.0755 38.4053 60.6408 34.9867 55.5341 34.9867V36.5867ZM63.4754 42.896C63.4754 46.208 60.0434 49.2053 55.4488 49.2053V50.8053C60.5901 50.8053 65.0755 47.392 65.0755 42.896H63.4754ZM55.4568 49.2053C55.1048 49.2053 54.7555 49.2667 54.4301 49.3973L55.0221 50.8827C55.1554 50.8293 55.2994 50.8027 55.4435 50.8027L55.4568 49.2027V49.2053ZM54.4301 49.3973C54.1048 49.528 53.8061 49.72 53.5555 49.9653L54.6754 51.1093C54.7715 51.0133 54.8914 50.9387 55.0221 50.8853L54.4301 49.4V49.3973ZM53.5555 49.9653C53.3048 50.2107 53.1074 50.504 52.9741 50.8293L54.4568 51.4347C54.5048 51.3173 54.5794 51.2053 54.6754 51.112L53.5555 49.968V49.9653ZM52.9741 50.8293C52.8408 51.1547 52.7795 51.5013 52.7901 51.8533L54.3901 51.8027C54.3901 51.6773 54.4088 51.552 54.4568 51.4347L52.9741 50.8293ZM52.7901 51.84C52.8008 52.5333 53.0968 53.1867 53.6008 53.6613L54.6994 52.496C54.5021 52.3093 54.3955 52.064 54.3928 51.8133L52.7928 51.8373L52.7901 51.84ZM53.6008 53.6613C54.1048 54.136 54.7741 54.3947 55.4648 54.3947V52.7947C55.1715 52.7947 54.8968 52.6827 54.6968 52.496L53.5981 53.6613H53.6008ZM55.4648 54.3947C62.6728 54.3947 68.8008 49.3787 68.8008 42.936H67.2008C67.2008 48.2613 62.0461 52.7947 55.4648 52.7947V54.3947ZM68.8008 42.928C68.7395 36.9173 63.4834 32.1973 56.9661 31.5467L56.8061 33.1387C62.7288 33.728 67.1501 37.952 67.2008 42.944L68.8008 42.928ZM57.6648 32.152C56.9528 29.2373 55.3314 26.608 53.0248 24.6027L51.9768 25.8107C54.0408 27.6027 55.4808 29.9467 56.1101 32.5307L57.6648 32.1493V32.152ZM29.9288 28.8853L29.8088 29.6773L30.3528 29.76L30.6248 29.28L29.9288 28.8853ZM26.4114 49.9813L26.4941 49.1867H26.4568L26.4114 49.9813ZM17.3501 41.1573H16.5501V41.192L17.3501 41.1573ZM27.6648 32.2667L27.6701 31.4667V32.2667H27.6648ZM32.7394 31.584L32.0035 31.2693V31.28L32.7394 31.5867V31.584ZM53.4914 34.224L54.2861 34.1227L53.4941 34.224H53.4914ZM55.5315 35.792V34.992H55.4594L55.5315 35.792ZM55.4488 50.0133L55.4435 50.8133H55.4488V50.0133ZM53.5874 51.832L54.3875 51.8187V51.808L53.5874 51.832ZM68.0008 42.9413H68.8008V42.9333L68.0008 42.9413ZM56.8861 32.3467L56.1101 32.536L56.2435 33.0853L56.8061 33.1413L56.8861 32.344V32.3467Z" fill="white"/>
<path d="M52.4976 25.2133C54.6816 27.112 56.2122 29.6 56.8842 32.3467C63.1029 32.968 67.9429 37.44 67.9989 42.9387C67.9989 48.8213 62.3589 53.5973 55.4629 53.5973C54.9696 53.5973 54.4976 53.4107 54.1456 53.08C53.7936 52.7493 53.5936 52.2987 53.5856 51.8293C53.5776 51.592 53.6202 51.3547 53.7109 51.1333C53.8016 50.912 53.9376 50.7093 54.1109 50.5413C54.2842 50.3707 54.4922 50.2373 54.7216 50.1467C54.9509 50.056 55.1962 50.008 55.4469 50.0107C60.3136 50.0107 64.2736 46.8053 64.2736 42.9013C64.2736 38.9973 60.3562 35.792 55.5322 35.792C55.0442 35.8373 54.5589 35.6987 54.1776 35.4053C53.7962 35.112 53.5509 34.688 53.4922 34.224C53.1936 31.9547 52.1162 29.8427 50.4336 28.2213C48.7509 26.6 46.5509 25.5547 44.1802 25.2533C41.8096 24.952 39.4016 25.4107 37.3322 26.5547C35.2629 27.7013 33.6469 29.4693 32.7402 31.584C32.5722 31.9867 32.2576 32.3147 31.8549 32.5093C31.4496 32.704 30.9856 32.7493 30.5482 32.6373C29.6069 32.3973 28.6389 32.272 27.6656 32.2667C21.9856 32.2667 17.3509 36.264 17.3509 41.1573C17.4522 43.44 18.4336 45.6053 20.1082 47.2347C21.7829 48.864 24.0282 49.8427 26.4122 49.9813C26.9002 50.032 27.3482 50.2667 27.6549 50.632C27.9616 50.9973 28.1056 51.4667 28.0522 51.9333C27.9989 52.4 27.7536 52.8293 27.3722 53.1227C26.9882 53.416 26.5002 53.5547 26.0122 53.504C18.9242 52.7653 13.6016 47.4613 13.6016 41.1573C13.6016 34.2987 19.8896 28.7173 27.6256 28.7173C28.3962 28.7173 29.1669 28.7733 29.9296 28.888C31.3349 26.4053 33.4949 24.3893 36.1242 23.1093C38.7536 21.8293 41.7296 21.344 44.6549 21.72C47.5802 22.096 50.3162 23.312 52.5002 25.2107H52.4976V25.2133Z" fill="white"/>
<path d="M43.6235 45.8774C44.1381 43.9574 46.1115 42.8161 48.0315 43.3308C49.9515 43.8454 51.0928 45.8188 50.5781 47.7388L48.3008 56.2401C47.7861 58.1601 45.8128 59.3014 43.8928 58.7868C41.9728 58.2721 40.8315 56.2988 41.3461 54.3788L43.6235 45.8774Z" fill="white"/>
<path opacity="0.5" d="M33.1699 48.2773C33.6845 46.3573 35.6579 45.216 37.5779 45.7307C39.4979 46.2453 40.6392 48.2187 40.1245 50.1387L39.0899 54.0027C38.5752 55.9227 36.6019 57.064 34.6819 56.5493C32.7619 56.0347 31.6205 54.0613 32.1352 52.1413L33.1699 48.2773Z" fill="white"/>
</g>
</g>
<defs>
<clipPath id="clip0_1431_11647">
<rect width="80" height="80" fill="white"/>
</clipPath>
</defs>
</svg>
