<svg width="202" height="38" viewBox="0 0 202 38" fill="none" xmlns="http://www.w3.org/2000/svg">
<g clip-path="url(#clip0_13527_52568)">
<mask id="mask0_13527_52568" style="mask-type:luminance" maskUnits="userSpaceOnUse" x="0" y="0" width="202" height="38">
<path d="M201.4 0H0V38H201.4V0Z" fill="white"/>
</mask>
<g mask="url(#mask0_13527_52568)">
<path d="M-7.16187e-06 14.592C-7.16187e-06 9.48417 -7.16482e-06 6.92867 0.994326 4.978C1.86833 3.26167 3.26483 1.86833 4.98116 0.991167C6.92866 0 9.48416 0 14.592 0H23.408C28.5158 0 31.0713 0 33.022 0.994333C34.7383 1.86833 36.1317 3.26483 37.0088 4.98117C38.0032 6.93183 38.0032 9.48417 38.0032 14.5952V23.4112C38.0032 28.519 38.0032 31.0745 37.0088 33.0252C36.1348 34.7415 34.7383 36.1348 33.022 37.012C31.0713 38.0063 28.519 38.0063 23.408 38.0063H14.592C9.48416 38.0063 6.92866 38.0063 4.97799 37.012C3.26166 36.138 1.86833 34.7415 0.991159 33.0252C-0.00317383 31.0745 -0.00317383 28.519 -0.00317383 23.4112V14.5952H-7.16187e-06V14.592Z" fill="#0331FC"/>
<path d="M27.0212 15.3647L26.6539 15.4533L26.7172 15.713L26.9832 15.7383L27.0212 15.3583V15.3647ZM25.4537 24.6208L25.8337 24.6145V24.6082L25.4537 24.6208ZM26.3752 17.0018V16.6218H26.3404L26.3752 17.0018ZM15.5484 15.0037L15.2001 14.8548V14.8612L15.5516 15.0068H15.5484V15.0037ZM8.23974 19.551H7.85974V19.5668L8.23974 19.551ZM12.5432 23.7437L12.5812 23.3668H12.5622L12.5401 23.7437H12.5432ZM14.2152 13.7243L14.1582 14.1012L14.4179 14.1392L14.5477 13.9112L14.2184 13.7243H14.2152ZM27.3886 15.276C27.0497 13.8922 26.2802 12.6413 25.1846 11.6913L24.6874 12.2645C25.6691 13.1163 26.3531 14.2278 26.6507 15.4565L27.3886 15.276ZM32.6769 20.3933C32.6484 17.537 30.1499 15.295 27.0561 14.9878L26.9801 15.7447C29.7921 16.0233 31.8947 18.031 31.9169 20.4028L32.6769 20.3965V20.3933ZM26.3436 25.84C29.7667 25.84 32.6769 23.4587 32.6769 20.3965H31.9169C31.9169 22.9267 29.4691 25.08 26.3436 25.08V25.84ZM25.4569 25.4917C25.6976 25.7165 26.0142 25.84 26.3436 25.84V25.08C26.2042 25.08 26.0744 25.0262 25.9794 24.9375L25.4569 25.4917ZM25.0706 24.6272C25.0769 24.9565 25.2162 25.2668 25.4569 25.4917L25.9794 24.9375C25.8844 24.8488 25.8337 24.7317 25.8337 24.6145L25.0737 24.6272H25.0706ZM25.1592 24.1458C25.0959 24.301 25.0674 24.4657 25.0706 24.6335L25.8306 24.6082C25.8306 24.548 25.8401 24.4878 25.8622 24.434L25.1592 24.1458ZM25.4347 23.7342C25.3144 23.8513 25.2226 23.9907 25.1592 24.1458L25.8622 24.434C25.8844 24.377 25.9192 24.3263 25.9667 24.282L25.4347 23.7373V23.7342ZM25.8496 23.465C25.6944 23.5283 25.5519 23.617 25.4347 23.7342L25.9667 24.2788C26.0111 24.2345 26.0681 24.1965 26.1314 24.1712L25.8496 23.465ZM26.3372 23.3732C26.1694 23.3732 26.0047 23.4017 25.8496 23.465L26.1314 24.1712C26.1947 24.1458 26.2644 24.1332 26.3309 24.1332L26.3372 23.3732ZM30.1467 20.3775C30.1467 21.9513 28.5159 23.3732 26.3341 23.3732V24.1332C28.7756 24.1332 30.9067 22.5118 30.9067 20.3775H30.1467ZM26.3752 17.3818C28.5349 17.3818 30.1467 18.8037 30.1467 20.3775H30.9067C30.9067 18.2432 28.8009 16.6218 26.3752 16.6218V17.3818ZM25.5012 17.119C25.7609 17.3185 26.0871 17.4103 26.4101 17.3787L26.3404 16.6218C26.2011 16.6345 26.0681 16.5965 25.9636 16.5142L25.5012 17.1158V17.119ZM25.0294 16.3052C25.0706 16.6282 25.2416 16.9195 25.5012 17.119L25.9636 16.5173C25.8591 16.4382 25.7989 16.3273 25.7831 16.2102L25.0294 16.3052ZM23.6899 13.68C24.4309 14.3925 24.8996 15.3172 25.0294 16.3083L25.7831 16.2102C25.6311 15.0448 25.0769 13.965 24.2156 13.1353L23.6899 13.6832V13.68ZM20.9349 12.3753C21.9799 12.5083 22.9489 12.9707 23.6899 13.68L24.2156 13.1322C23.3542 12.3025 22.2332 11.7737 21.0299 11.6185L20.9349 12.3722V12.3753ZM17.9139 12.9485C18.8259 12.445 19.8867 12.2423 20.9349 12.3753L21.0299 11.6217C19.8266 11.4697 18.6011 11.7008 17.5466 12.2835L17.9139 12.9485ZM15.8967 15.1557C16.2957 14.231 17.0019 13.452 17.9139 12.9485L17.5466 12.2835C16.4921 12.8662 15.6656 13.7718 15.2001 14.8548L15.8967 15.1557ZM15.2919 15.789C15.5642 15.656 15.7827 15.4312 15.8999 15.1525L15.1969 14.8612C15.1557 14.9625 15.0734 15.0512 14.9626 15.105L15.2919 15.789ZM14.4116 15.8777C14.7061 15.9537 15.0164 15.922 15.2919 15.789L14.9626 15.105C14.8517 15.1588 14.7219 15.1715 14.6016 15.1398L14.4147 15.8745L14.4116 15.8777ZM13.1354 15.713C13.5661 15.713 13.9967 15.77 14.4116 15.8777L14.5984 15.143C14.1234 15.0227 13.6294 14.9593 13.1386 14.9562V15.7162L13.1354 15.713ZM8.61974 19.5573C8.61974 17.4927 10.5957 15.713 13.1386 15.713V14.953C10.2854 14.953 7.85974 16.9702 7.85974 19.5573H8.61974ZM9.81357 22.173C9.08524 21.4637 8.6609 20.5263 8.61657 19.5415L7.85657 19.5763C7.90724 20.7607 8.41707 21.8785 9.28157 22.7177L9.81357 22.173ZM12.5654 23.37C11.5204 23.3098 10.5419 22.8823 9.81357 22.173L9.28157 22.7177C10.1429 23.5568 11.2956 24.0603 12.5179 24.13L12.5622 23.37H12.5654ZM13.4236 23.8133C13.2114 23.56 12.9074 23.4048 12.5812 23.37L12.5021 24.1268C12.6382 24.1395 12.7617 24.206 12.8409 24.3042L13.4236 23.8165V23.8133ZM13.6991 24.719C13.7371 24.3897 13.6357 24.0667 13.4236 23.8133L12.8409 24.301C12.9201 24.396 12.9549 24.5163 12.9422 24.6303L13.6959 24.7158L13.6991 24.719ZM13.2304 25.5423C13.4901 25.3428 13.6611 25.0452 13.6991 24.719L12.9454 24.6335C12.9327 24.7507 12.8694 24.8615 12.7681 24.9407L13.2304 25.5423ZM12.3121 25.7988C12.6382 25.8337 12.9676 25.7418 13.2304 25.5423L12.7681 24.9407C12.6636 25.0198 12.5306 25.0578 12.3944 25.0452L12.3152 25.802H12.3121V25.7988ZM6.0769 19.5542C6.0769 22.781 8.79074 25.4315 12.3121 25.7988L12.3912 25.042C9.18024 24.7063 6.8369 22.3187 6.8369 19.5542H6.0769ZM13.1196 13.2652C9.2784 13.2652 6.0769 16.0455 6.0769 19.5542H6.8369C6.8369 16.5458 9.6109 14.0252 13.1196 14.0252V13.2652ZM14.2722 13.3507C13.8922 13.2937 13.5059 13.262 13.1196 13.2652V14.0252C13.4679 14.0252 13.8162 14.0505 14.1582 14.1012L14.2722 13.3507ZM16.9924 10.64C15.6751 11.2797 14.5921 12.2898 13.8859 13.5407L14.5477 13.9143C15.1747 12.8028 16.1437 11.9003 17.3281 11.324L16.9956 10.64H16.9924ZM21.2579 9.94334C19.7949 9.75651 18.3066 9.99718 16.9924 10.64L17.3249 11.324C18.5061 10.7477 19.8456 10.5292 21.1629 10.7002L21.2579 9.94651V9.94334ZM25.1846 11.6913C24.0889 10.7413 22.7177 10.1302 21.2579 9.94334L21.1629 10.697C22.4802 10.8648 23.7089 11.4127 24.6906 12.2645L25.1877 11.6913H25.1846Z" fill="white"/>
<path d="M24.9375 11.9764C25.9761 12.8789 26.7013 14.0601 27.0211 15.3647C29.9756 15.6592 32.2746 17.7841 32.3 20.3966C32.3 23.1896 29.621 25.4601 26.3466 25.4601C26.1123 25.4601 25.8875 25.3714 25.7196 25.2131C25.5518 25.0547 25.4568 24.8426 25.4536 24.6177C25.4505 24.5037 25.4695 24.3929 25.5138 24.2884C25.5581 24.1839 25.6215 24.0857 25.7038 24.0066C25.7861 23.9242 25.8843 23.8609 25.9951 23.8197C26.1028 23.7754 26.22 23.7532 26.3403 23.7564C28.652 23.7564 30.533 22.2332 30.533 20.3807C30.533 18.5282 28.671 17.0051 26.3815 17.0051C26.1503 17.0272 25.9191 16.9607 25.7386 16.8214C25.5581 16.6821 25.441 16.4794 25.4125 16.2609C25.27 15.1842 24.7601 14.1804 23.959 13.4109C23.161 12.6414 22.116 12.1442 20.9886 12.0017C19.8613 11.8592 18.7181 12.0777 17.7365 12.6192C16.7548 13.1639 15.9853 14.0031 15.5546 15.0069C15.4755 15.1969 15.3266 15.3552 15.1335 15.4471C14.9403 15.5389 14.7218 15.5611 14.5128 15.5072C14.0663 15.3932 13.6071 15.3331 13.1448 15.3299C10.4468 15.3299 8.24598 17.2299 8.24598 19.5542C8.29348 20.6372 8.75898 21.6664 9.55698 22.4422C10.355 23.2181 11.419 23.6804 12.5526 23.7469C12.7838 23.7722 12.996 23.8831 13.1416 24.0572C13.2873 24.2314 13.357 24.4531 13.3316 24.6747C13.3063 24.8964 13.1891 25.0991 13.0086 25.2384C12.825 25.3777 12.5938 25.4442 12.3626 25.4189C8.99648 25.0674 6.46631 22.5499 6.46631 19.5542C6.46631 16.2957 9.45248 13.6452 13.129 13.6452C13.4963 13.6452 13.8605 13.6706 14.2246 13.7276C14.8928 12.5496 15.9188 11.5901 17.1665 10.9821C18.4141 10.3741 19.8296 10.1429 21.2198 10.3234C22.61 10.5007 23.9083 11.0802 24.947 11.9827L24.9375 11.9764Z" fill="white"/>
<path d="M20.7227 21.793C20.9666 20.881 21.9039 20.3395 22.8159 20.5833C23.7279 20.8272 24.2694 21.7645 24.0256 22.6765L22.9426 26.714C22.6987 27.626 21.7614 28.1675 20.8494 27.9237C19.9374 27.6798 19.3959 26.7425 19.6397 25.8305L20.7227 21.793Z" fill="white"/>
<path opacity="0.5" d="M15.7541 22.9329C15.9979 22.0209 16.9353 21.4794 17.8473 21.7232C18.7593 21.9671 19.3008 22.9044 19.0569 23.8164L18.5661 25.6531C18.3223 26.5651 17.3849 27.1066 16.4729 26.8627C15.5609 26.6189 15.0194 25.6816 15.2633 24.7696L15.7541 22.9329Z" fill="white"/>
</g>
<mask id="mask1_13527_52568" style="mask-type:luminance" maskUnits="userSpaceOnUse" x="0" y="0" width="202" height="38">
<path d="M201.4 0H0V38H201.4V0Z" fill="white"/>
</mask>
<g mask="url(#mask1_13527_52568)">
<path d="M48.1333 19.1679C48.1333 17.0019 48.5481 15.1019 49.3778 13.4648C50.2296 11.8086 51.4235 10.5324 52.9625 9.63311C54.5205 8.71477 56.335 8.25244 58.3996 8.25244C59.9988 8.25244 61.4365 8.55961 62.7126 9.17077C64.0078 9.78511 65.0623 10.6623 65.873 11.8086C66.6836 12.9328 67.1998 14.2406 67.4215 15.7321H63.9286C63.5835 14.3641 62.9153 13.2906 61.9241 12.5116C60.933 11.7358 59.7075 11.3463 58.2476 11.3463C56.9303 11.3463 55.7776 11.6851 54.7833 12.3596C53.7921 13.0151 53.0321 13.9334 52.5033 15.1178C51.9776 16.2831 51.7148 17.6321 51.7148 19.1648C51.7148 20.6974 51.9776 22.0274 52.5033 23.2118C53.029 24.3961 53.789 25.3271 54.7833 26.0016C55.7745 26.6571 56.9303 26.9833 58.2476 26.9833C59.7075 26.9833 60.9203 26.5938 61.8925 25.8179C62.8836 25.0421 63.5518 23.9686 63.897 22.5974H67.3898C67.1681 24.1111 66.652 25.4284 65.8413 26.5526C65.0528 27.6768 64.0173 28.5444 62.7411 29.1588C61.465 29.7731 60.0178 30.0771 58.3965 30.0771C56.3318 30.0771 54.5173 29.6274 52.9593 28.7281C51.4203 27.8288 50.2265 26.5621 49.3746 24.9249C48.545 23.2688 48.1301 21.3466 48.1301 19.1616V19.1679H48.1333Z" fill="#0F172A"/>
<path d="M76.8139 30.0833C75.2559 30.0833 73.8657 29.7571 72.6529 29.1016C71.459 28.4271 70.5249 27.4866 69.8567 26.2801C69.2075 25.0546 68.8845 23.6423 68.8845 22.0495C68.8845 20.4566 69.2075 19.0855 69.8567 17.879C70.5249 16.6535 71.4559 15.7035 72.6529 15.029C73.8689 14.3545 75.2559 14.0156 76.8139 14.0156C78.3719 14.0156 79.7494 14.3545 80.9464 15.029C82.1624 15.7035 83.0934 16.6535 83.7425 17.879C84.4107 19.0855 84.7464 20.4756 84.7464 22.0495C84.7464 23.6233 84.4107 25.0546 83.7425 26.2801C83.0934 27.4866 82.1624 28.4271 80.9464 29.1016C79.7525 29.7571 78.375 30.0833 76.8139 30.0833ZM76.8139 27.2618C78.1914 27.2618 79.2934 26.7805 80.1262 25.821C80.978 24.8393 81.4024 23.5821 81.4024 22.0495C81.4024 20.5168 80.978 19.2691 80.1262 18.3096C79.2965 17.328 78.1914 16.8371 76.8139 16.8371C75.4364 16.8371 74.3344 17.328 73.5015 18.3096C72.6719 19.2691 72.257 20.5168 72.257 22.0495C72.257 23.5821 72.6719 24.8393 73.5015 25.821C74.3312 26.7805 75.4364 27.2618 76.8139 27.2618Z" fill="#0F172A"/>
<path d="M94.9778 14.0188C96.8208 14.0188 98.3186 14.592 99.4745 15.7351C100.649 16.8783 101.235 18.7181 101.235 21.2546V29.8996H97.9228V21.4383C97.9228 19.9468 97.6093 18.8131 96.9823 18.0341C96.3553 17.2583 95.4338 16.8688 94.2178 16.8688C92.9226 16.8688 91.8998 17.328 91.1493 18.2495C90.421 19.1488 90.0568 20.3965 90.0568 21.9893V29.8996H86.7761V14.2025H89.6325L89.9966 16.2576C91.1715 14.7661 92.8308 14.0188 94.9778 14.0188Z" fill="#0F172A"/>
<path d="M104.614 17.1158H101.91V14.2025H104.614V9.81665H107.926V14.2025H111.663V17.1158H107.926V25.3017C107.926 25.916 108.047 26.353 108.29 26.619C108.534 26.8628 108.949 26.9863 109.535 26.9863H112.027V29.8997H108.867C107.388 29.8997 106.305 29.5513 105.615 28.8578C104.946 28.1643 104.611 27.0908 104.611 25.6373V17.1127H104.614V17.1158Z" fill="#0F172A"/>
<path d="M112.274 22.0811C112.274 20.4661 112.588 19.057 113.215 17.8505C113.864 16.625 114.754 15.6845 115.887 15.029C117.043 14.3545 118.357 14.0156 119.836 14.0156C121.315 14.0156 122.651 14.3228 123.785 14.934C124.941 15.5483 125.84 16.416 126.489 17.5401C127.157 18.6643 127.503 19.9816 127.522 21.4953C127.522 21.9038 127.49 22.3218 127.43 22.7525H115.704V22.9361C115.786 24.3041 116.21 25.3903 116.98 26.1851C117.749 26.9831 118.772 27.3821 120.048 27.3821C121.062 27.3821 121.91 27.1478 122.601 26.676C123.288 26.1851 123.744 25.5011 123.969 24.6208H127.249C126.964 26.2136 126.195 27.5246 124.941 28.5443C123.706 29.5671 122.157 30.077 120.292 30.077C118.671 30.077 117.255 29.7508 116.039 29.0953C114.845 28.4208 113.911 27.4803 113.243 26.2738C112.594 25.0673 112.271 23.6676 112.271 22.0748V22.0811H112.274ZM124.184 20.3331C124.041 19.19 123.585 18.3001 122.816 17.6668C122.065 17.0113 121.115 16.6851 119.96 16.6851C118.886 16.6851 117.955 17.024 117.163 17.6985C116.394 18.354 115.947 19.2311 115.827 20.3363H124.184V20.3331Z" fill="#0F172A"/>
<path d="M137.775 14.0188C139.618 14.0188 141.116 14.592 142.272 15.7351C143.447 16.8783 144.033 18.7181 144.033 21.2546V29.8996H140.72V21.4383C140.72 19.9468 140.407 18.8131 139.78 18.0341C139.153 17.2583 138.231 16.8688 137.015 16.8688C135.72 16.8688 134.697 17.328 133.947 18.2495C133.219 19.1488 132.854 20.3965 132.854 21.9893V29.8996H129.574V14.2025H132.43L132.794 16.2576C133.969 14.7661 135.628 14.0188 137.775 14.0188Z" fill="#0F172A"/>
<path d="M147.411 17.1158H144.707V14.2025H147.411V9.81665H150.724V14.2025H154.46V17.1158H150.724V25.3017C150.724 25.916 150.844 26.353 151.088 26.619C151.332 26.8628 151.747 26.9863 152.332 26.9863H154.825V29.8997H151.664C150.185 29.8997 149.102 29.5513 148.412 28.8578C147.744 28.1643 147.408 27.0908 147.408 25.6373V17.1127H147.411V17.1158Z" fill="#0F172A"/>
<path d="M164.575 14.2026V17.2996H163.115C161.756 17.2996 160.775 17.7493 160.167 18.6486C159.559 19.529 159.255 20.6531 159.255 22.0211V29.8998H155.974V14.2026H158.891L159.255 16.565C159.701 15.8303 160.278 15.2571 160.987 14.8486C161.696 14.418 162.646 14.2058 163.843 14.2058H164.575V14.2026Z" fill="#0F172A"/>
<path d="M172.143 14.0188C174.23 14.0188 175.839 14.5096 176.972 15.4913C178.106 16.473 178.673 17.8726 178.673 19.6903V29.8996H175.817L175.544 27.6608C174.958 28.4366 174.258 29.0415 173.448 29.469C172.659 29.8775 171.687 30.0833 170.531 30.0833C168.809 30.0833 167.431 29.6748 166.399 28.8578C165.366 28.0408 164.85 26.9166 164.85 25.4853C164.85 23.8703 165.417 22.6353 166.551 21.774C167.707 20.8936 169.366 20.4566 171.532 20.4566H175.421V19.5066C175.421 18.6263 175.117 17.9423 174.509 17.4515C173.901 16.9416 173.062 16.6851 171.988 16.6851C171.035 16.6851 170.246 16.891 169.619 17.2995C169.011 17.708 168.647 18.2716 168.527 18.9873H165.306C165.468 17.4135 166.158 16.1975 167.371 15.3393C168.587 14.459 170.177 14.022 172.14 14.022H172.143V14.0188ZM171.079 27.5088C172.438 27.5088 173.489 27.1415 174.239 26.4036C175.009 25.669 175.405 24.6873 175.424 23.4618V22.9108H171.351C170.338 22.9108 169.559 23.1166 169.011 23.5251C168.463 23.9146 168.191 24.4973 168.191 25.2731C168.191 25.9476 168.445 26.4891 168.951 26.8976C169.477 27.3061 170.186 27.512 171.079 27.512V27.5088Z" fill="#0F172A"/>
<path d="M182.688 7.91675C183.255 7.91675 183.73 8.10991 184.116 8.49941C184.503 8.86675 184.693 9.33858 184.693 9.90858C184.693 10.4786 184.499 10.9599 184.116 11.3494C183.73 11.7167 183.255 11.9004 182.688 11.9004C182.121 11.9004 181.646 11.7167 181.26 11.3494C180.874 10.9599 180.684 10.4817 180.684 9.90858C180.684 9.33542 180.877 8.86675 181.26 8.49941C181.646 8.10991 182.121 7.91675 182.688 7.91675ZM181.048 14.2026H184.328V29.8997H181.048V14.2026Z" fill="#0F172A"/>
<path d="M195.143 14.0188C196.986 14.0188 198.483 14.592 199.639 15.7351C200.814 16.8783 201.4 18.7181 201.4 21.2546V29.8996H198.088V21.4383C198.088 19.9468 197.774 18.8131 197.147 18.0341C196.52 17.2583 195.599 16.8688 194.383 16.8688C193.087 16.8688 192.065 17.328 191.314 18.2495C190.586 19.1488 190.222 20.3965 190.222 21.9893V29.8996H186.941V14.2025H189.797L190.161 16.2576C191.336 14.7661 192.996 14.0188 195.143 14.0188Z" fill="#0F172A"/>
</g>
</g>
<defs>
<clipPath id="clip0_13527_52568">
<rect width="201.4" height="38" fill="white"/>
</clipPath>
</defs>
</svg>
