<svg width="144" height="144" viewBox="0 0 144 144" fill="none" xmlns="http://www.w3.org/2000/svg">
<g clip-path="url(#clip0_13449_30753)">
<mask id="mask0_13449_30753" style="mask-type:luminance" maskUnits="userSpaceOnUse" x="0" y="0" width="144" height="144">
<path d="M144 0H0V144H144V0Z" fill="white"/>
</mask>
<g mask="url(#mask0_13449_30753)">
<path d="M0 55.296C0 35.9424 0 26.2608 3.768 18.8688C7.08 12.3648 12.3696 7.08 18.8736 3.7632C26.2608 0 35.9424 0 55.296 0H88.704C108.058 0 117.739 0 125.131 3.768C131.635 7.08 136.92 12.3696 140.237 18.8736C144.005 26.2656 144.005 35.9424 144.005 55.3008V88.7088C144.005 108.062 144.005 117.744 140.237 125.136C136.925 131.64 131.635 136.925 125.131 140.242C117.739 144.01 108.062 144.01 88.704 144.01H55.296C35.9424 144.01 26.2608 144.01 18.8688 140.242C12.3648 136.93 7.08 131.64 3.7632 125.136C0 117.739 0 108.058 0 88.704V55.296Z" fill="#0331FC"/>
<path d="M95.4432 44.2953C91.2912 40.6905 86.0976 38.3817 80.5584 37.6713L80.1936 40.5273C85.1808 41.1657 89.8416 43.2441 93.5568 46.4649L95.4432 44.2905V44.2953ZM80.5584 37.6713C75.0192 36.9609 69.3792 37.8777 64.392 40.3065L65.6544 42.8937C70.1328 40.7145 75.2064 39.8841 80.1936 40.5273L80.5584 37.6713ZM64.392 40.3065C59.4048 42.7353 55.2912 46.5609 52.6176 51.2937L55.1232 52.7145C57.504 48.5049 61.176 45.0825 65.6544 42.8985L64.392 40.3113V40.3065ZM54.0864 50.5785C52.6416 50.3577 51.1824 50.2473 49.7184 50.2521L49.728 53.1321C51.0432 53.1321 52.3536 53.2281 53.6544 53.4249L54.0864 50.5785ZM49.7232 50.2521C35.1696 50.2521 23.04 60.7833 23.04 74.0841H25.92C25.92 62.6889 36.4272 53.1321 49.7232 53.1321V50.2521ZM23.04 74.0841C23.04 86.3097 33.3216 96.3513 46.6704 97.7433L46.968 94.8777C34.8 93.6105 25.92 84.5625 25.92 74.0841H23.04ZM46.6704 97.7433C47.9088 97.8729 49.1568 97.5273 50.1456 96.7689L48.3888 94.4841C47.9952 94.7865 47.4864 94.9305 46.968 94.8777L46.6704 97.7433ZM50.1456 96.7689C51.1344 96.0105 51.7824 94.8873 51.9216 93.6489L49.0608 93.3225C49.0128 93.7641 48.7776 94.1865 48.3888 94.4841L50.1456 96.7689ZM51.9216 93.6489C52.0608 92.4057 51.6816 91.1721 50.8752 90.2169L48.672 92.0697C48.9744 92.4345 49.1088 92.8809 49.0608 93.3225L51.9216 93.6489ZM50.8752 90.2169C50.0736 89.2617 48.9216 88.6665 47.6832 88.5369L47.3856 91.4025C47.904 91.4553 48.3648 91.7049 48.672 92.0697L50.8752 90.2169ZM47.6208 88.5321C43.6656 88.3017 39.9552 86.6793 37.1952 83.9913L35.184 86.0553C38.448 89.2377 42.8208 91.1385 47.448 91.4073L47.616 88.5321H47.6208ZM37.1952 83.9913C34.44 81.3081 32.832 77.7513 32.664 74.0169L29.7888 74.1465C29.9856 78.6297 31.9152 82.8729 35.184 86.0553L37.1952 83.9913ZM32.6688 74.0793C32.6688 66.2601 40.1568 59.5161 49.7952 59.5161V56.6361C38.9808 56.6361 29.7888 64.2825 29.7888 74.0793H32.6688ZM49.7856 59.5161C51.4224 59.5257 53.0448 59.7321 54.624 60.1353L55.3344 57.3465C53.5296 56.8857 51.6672 56.6457 49.8 56.6361L49.7856 59.5161ZM54.624 60.1353C55.7376 60.4185 56.9184 60.3033 57.9552 59.8041L56.7072 57.2073C56.2848 57.4089 55.7952 57.4569 55.3344 57.3417L54.624 60.1305V60.1353ZM57.9552 59.8041C58.992 59.3049 59.8176 58.4505 60.2544 57.3897L57.5952 56.2857C57.4368 56.6745 57.1248 57.0057 56.7024 57.2073L57.9504 59.8041H57.9552ZM60.2496 57.4089C61.7568 53.9049 64.4352 50.9577 67.8912 49.0473L66.4944 46.5273C62.496 48.7401 59.3664 52.1625 57.6 56.2713L60.2448 57.4089H60.2496ZM67.8912 49.0473C71.3472 47.1369 75.3696 46.3689 79.3392 46.8729L79.704 44.0169C75.1392 43.4361 70.4976 44.3193 66.4992 46.5273L67.896 49.0473H67.8912ZM79.3392 46.8729C83.304 47.3769 86.976 49.1241 89.7792 51.8217L91.776 49.7481C88.5168 46.6089 84.2688 44.5977 79.6992 44.0169L79.3344 46.8729H79.3392ZM89.7792 51.8217C92.5824 54.5241 94.3632 58.0233 94.8576 61.7769L97.7136 61.4025C97.1328 56.9865 95.04 52.8921 91.776 49.7481L89.7792 51.8217ZM94.8576 61.7721C95.0112 63.0009 95.664 64.1049 96.6432 64.8585L98.4 62.5737C98.0064 62.2713 97.7712 61.8489 97.7136 61.4073L94.8576 61.7673V61.7721ZM96.6432 64.8585C97.6224 65.6121 98.8608 65.9625 100.09 65.8473L99.8256 62.9817C99.3024 63.0297 98.7888 62.8809 98.3952 62.5785L96.6384 64.8633H96.6432V64.8585ZM99.96 65.8569C108.139 65.8569 114.254 71.2425 114.254 77.2137H117.134C117.134 69.1305 109.152 62.9769 99.96 62.9769V65.8569ZM114.254 77.2137C114.254 83.1753 108.077 88.5705 99.8064 88.5705V91.4505C109.061 91.4505 117.134 85.3065 117.134 77.2137H114.254ZM99.8208 88.5705C99.1872 88.5705 98.5584 88.6809 97.9728 88.9161L99.0384 91.5897C99.2784 91.4937 99.5376 91.4457 99.7968 91.4457L99.8208 88.5657V88.5705ZM97.9728 88.9161C97.3872 89.1513 96.8496 89.4969 96.3984 89.9385L98.4144 91.9977C98.5872 91.8249 98.8032 91.6905 99.0384 91.5945L97.9728 88.9209V88.9161ZM96.3984 89.9385C95.9472 90.3801 95.592 90.9081 95.352 91.4937L98.0208 92.5833C98.1072 92.3721 98.2416 92.1705 98.4144 92.0025L96.3984 89.9433V89.9385ZM95.352 91.4937C95.112 92.0793 95.0016 92.7033 95.0208 93.3369L97.9008 93.2457C97.9008 93.0201 97.9344 92.7945 98.0208 92.5833L95.352 91.4937ZM95.0208 93.3129C95.04 94.5609 95.5728 95.7369 96.48 96.5913L98.4576 94.4937C98.1024 94.1577 97.9104 93.7161 97.9056 93.2649L95.0256 93.3081L95.0208 93.3129ZM96.48 96.5913C97.3872 97.4457 98.592 97.9113 99.8352 97.9113V95.0313C99.3072 95.0313 98.8128 94.8297 98.4528 94.4937L96.4752 96.5913H96.48ZM99.8352 97.9113C112.81 97.9113 123.84 88.8825 123.84 77.2857H120.96C120.96 86.8713 111.682 95.0313 99.8352 95.0313V97.9113ZM123.84 77.2713C123.73 66.4521 114.269 57.9561 102.538 56.7849L102.25 59.6505C112.91 60.7113 120.869 68.3145 120.96 77.3001L123.84 77.2713ZM103.795 57.8745C102.514 52.6281 99.5952 47.8953 95.4432 44.2857L93.5568 46.4601C97.272 49.6857 99.864 53.9049 100.997 58.5561L103.795 57.8697V57.8745ZM53.8704 51.9945L53.6544 53.4201L54.6336 53.5689L55.1232 52.7049L53.8704 51.9945ZM47.5392 89.9673L47.688 88.5369H47.6208L47.5392 89.9673ZM31.2288 74.0841H29.7888V74.1465L31.2288 74.0841ZM49.7952 58.0809L49.8048 56.6409V58.0809H49.7952ZM58.9296 56.8521L57.6048 56.2857V56.3049L58.9296 56.8569V56.8521ZM96.2832 61.6041L97.7136 61.4217L96.288 61.6041H96.2832ZM99.9552 64.4265V62.9865H99.8256L99.9552 64.4265ZM99.8064 90.0249L99.7968 91.4649H99.8064V90.0249ZM96.456 93.2985L97.896 93.2745V93.2553L96.456 93.2985ZM122.4 77.2953H123.84V77.2809L122.4 77.2953ZM102.394 58.2249L100.997 58.5657L101.237 59.5545L102.25 59.6553L102.394 58.2201V58.2249Z" fill="white"/>
<path d="M94.4975 45.3839C98.4287 48.8015 101.184 53.2799 102.394 58.2239C113.587 59.3423 122.299 67.3919 122.4 77.2895C122.4 87.8783 112.248 96.4751 99.8351 96.4751C98.9471 96.4751 98.0975 96.1391 97.4639 95.5439C96.8303 94.9487 96.4703 94.1375 96.4559 93.2927C96.4415 92.8655 96.5183 92.4383 96.6815 92.0399C96.8447 91.6415 97.0895 91.2767 97.4015 90.9743C97.7135 90.6671 98.0879 90.4271 98.5007 90.2639C98.9135 90.1007 99.3551 90.0143 99.8063 90.0191C108.566 90.0191 115.694 84.2495 115.694 77.2223C115.694 70.1951 108.643 64.4255 99.9599 64.4255C99.0815 64.5071 98.2079 64.2575 97.5215 63.7295C96.8351 63.2015 96.3935 62.4383 96.2879 61.6031C95.7503 57.5183 93.8111 53.7167 90.7823 50.7983C87.7535 47.8799 83.7935 45.9983 79.5263 45.4559C75.2591 44.9135 70.9247 45.7391 67.1999 47.7983C63.4751 49.8623 60.5663 53.0447 58.9343 56.8511C58.6319 57.5759 58.0655 58.1663 57.3407 58.5167C56.6111 58.8671 55.7759 58.9487 54.9887 58.7471C53.2943 58.3151 51.5519 58.0895 49.7999 58.0799C39.5759 58.0799 31.2335 65.2751 31.2335 74.0831C31.4159 78.1919 33.1823 82.0895 36.1967 85.0223C39.2111 87.9551 43.2527 89.7167 47.5439 89.9663C48.4223 90.0575 49.2287 90.4799 49.7807 91.1375C50.3327 91.7951 50.5919 92.6399 50.4959 93.4799C50.3999 94.3199 49.9583 95.0927 49.2719 95.6207C48.5807 96.1487 47.7023 96.3983 46.8239 96.3071C34.0655 94.9775 24.4847 85.4303 24.4847 74.0831C24.4847 61.7375 35.8031 51.6911 49.7279 51.6911C51.1151 51.6911 52.5023 51.7919 53.8751 51.9983C56.4047 47.5295 60.2927 43.9007 65.0255 41.5967C69.7583 39.2927 75.1151 38.4191 80.3807 39.0959C85.6463 39.7727 90.5711 41.9615 94.5023 45.3791H94.4975V45.3839Z" fill="white"/>
<path d="M78.5232 82.5797C79.4496 79.1237 83.0016 77.0693 86.4576 77.9957C89.9136 78.9221 91.968 82.4741 91.0416 85.9301L86.9424 101.232C86.016 104.688 82.464 106.743 79.008 105.816C75.552 104.89 73.4976 101.338 74.424 97.8821L78.5232 82.5797Z" fill="white"/>
<path opacity="0.5" d="M59.7023 86.9C60.6287 83.444 64.1807 81.3896 67.6367 82.316C71.0927 83.2424 73.1471 86.7944 72.2207 90.2504L70.3583 97.2056C69.4319 100.662 65.8799 102.716 62.4239 101.79C58.9679 100.863 56.9135 97.3112 57.8399 93.8552L59.7023 86.9Z" fill="white"/>
</g>
</g>
<defs>
<clipPath id="clip0_13449_30753">
<rect width="144" height="144" fill="white"/>
</clipPath>
</defs>
</svg>
