<svg width="48" height="48" viewBox="0 0 48 48" fill="none" xmlns="http://www.w3.org/2000/svg">
<path d="M18.4367 4.87024C18.8385 4.87024 19.1577 5.09762 19.3298 5.46699C19.4504 5.72588 19.5032 6.05471 19.5057 6.4677L19.5058 6.49883V36.0393C19.5034 36.5868 19.4462 37.0145 19.3208 37.3369C19.147 37.7841 18.8152 38.0728 18.3625 38.0803H18.3448L14.935 38.0761C14.4741 38.0761 14.1424 37.781 13.972 37.3258C13.8523 37.0059 13.7977 36.5808 13.7955 36.035L13.7954 11.3397L12.8773 11.5723L12.5109 11.6642L12.4038 11.6903L12.3496 11.7028L12.324 11.7081L12.3147 11.7097L12.3098 11.7103L12.3058 11.7104L12.3047 11.7101L12.304 11.7098L12.3039 11.7093L12.3041 11.7087L12.3046 11.7079L12.3106 11.7023C12.3127 11.7001 12.3137 11.6979 12.3102 11.6966L12.308 11.696L12.2975 11.6965C11.9106 11.711 11.5887 11.504 11.4126 11.1496C11.2867 10.8964 11.2328 10.5728 11.2303 10.1632L11.2303 10.1331V7.99068C11.2303 7.60707 11.2921 7.28494 11.432 7.02231C11.5915 6.72267 11.847 6.51696 12.1683 6.43351L12.1877 6.42865L12.2099 6.4235L18.106 4.90595C18.1899 4.88509 18.2825 4.87387 18.3832 4.87086L18.4108 4.87024H18.4367ZM28.2828 4C28.7054 4 29.0418 4.23675 29.2267 4.62706C29.3603 4.90914 29.4197 5.27233 29.4223 5.72918L29.4224 5.7612V14.4429L29.4225 14.4636H31.9586C32.357 14.4636 32.6843 14.669 32.8768 15.0193L32.8858 15.0361L32.8947 15.0531C33.034 15.3255 33.0953 15.6733 33.0981 16.1074L33.0982 16.1378V17.3437C33.0982 17.7854 33.0365 18.1386 32.8922 18.4145C32.7041 18.7741 32.3765 18.9864 31.9773 18.9929L31.9586 18.993L29.4183 18.993V30.3766L29.4185 30.4671L29.4191 30.5564L29.4201 30.6445L29.4216 30.7314L29.4225 30.7744L29.4251 30.8805L29.4284 30.9847L29.4323 31.087L29.4369 31.1874L29.4389 31.227L29.4432 31.3054L29.4479 31.3825L29.4531 31.4584L29.4586 31.533L29.4616 31.5699L29.4677 31.6427L29.4709 31.6786L29.4743 31.7143L29.4812 31.7846C29.4836 31.8079 29.4861 31.8309 29.4886 31.8537L29.4925 31.8878L29.5005 31.9551C29.5177 32.095 29.5375 32.2268 29.5601 32.3504L29.5677 32.3912L29.5732 32.4201L29.5841 32.4741C29.5877 32.4919 29.5914 32.5094 29.5952 32.5268L29.6008 32.5527L29.6123 32.6035L29.6241 32.653L29.6301 32.6773L29.6422 32.7249C29.658 32.7855 29.6745 32.8429 29.6914 32.897L29.7061 32.9427C29.7776 33.1594 29.8581 33.3207 29.9431 33.4254C30.101 33.6197 30.2399 33.7371 30.347 33.7838L30.3792 33.7972C30.5056 33.8475 30.6807 33.8762 30.9056 33.8782L30.9308 33.8783H32.5139C32.8924 33.8783 33.2198 34.0289 33.4346 34.3249C33.613 34.5708 33.6913 34.883 33.6948 35.2569L33.6949 35.2831V36.6216C33.6949 37.0354 33.6146 37.3766 33.4273 37.6423C33.2098 37.9507 32.8767 38.112 32.4897 38.1174L32.4693 38.1176L30.1974 38.1217C29.5677 38.1217 29.0182 38.0776 28.5399 37.9874C28.0285 37.8909 27.5084 37.6786 26.9742 37.3534C26.418 37.0148 25.9619 36.5503 25.607 35.9652C25.2622 35.3967 24.9927 34.6296 24.7894 33.6619C24.5915 32.7197 24.4904 31.622 24.487 30.3721L24.4869 30.3061V18.993L23.4385 18.993C23.0434 18.993 22.7166 18.7926 22.5229 18.4478L22.5138 18.4313L22.5049 18.4145C22.3639 18.1451 22.3018 17.8018 22.2989 17.3744V17.3437V16.1378C22.2989 15.6895 22.3598 15.3318 22.5024 15.0531C22.6891 14.688 23.0172 14.4704 23.4196 14.4638L23.4385 14.4636H24.4868L24.4869 14.4295L24.8895 5.73437L24.8918 5.69541C24.9202 5.24602 24.9931 4.89218 25.1262 4.62036C25.3107 4.24342 25.627 4.00723 26.0305 4H26.0492H28.2828ZM47.0386 14.4553C47.4135 14.4553 47.7047 14.6772 47.8552 15.0197C47.9572 15.252 48 15.5429 48 15.9057C48 15.919 48 15.9326 47.9996 15.9464L47.9992 15.9673L47.9977 16.0102L47.9967 16.0322L47.9942 16.0774L47.9927 16.1006L47.9891 16.1483C47.9859 16.1871 47.9821 16.2274 47.9776 16.2695L47.9741 16.3013L47.9677 16.3558L47.9607 16.4121L47.9529 16.4702L47.9468 16.5146L43.9704 37.2171L43.9612 37.268L43.9413 37.3759L43.9214 37.4827L43.8912 37.641L43.871 37.7453L43.8405 37.8998L43.8201 38.0015L43.7995 38.1022L43.7789 38.2019L43.7582 38.3005L43.7373 38.3981L43.7059 38.5426L43.6848 38.6377L43.6636 38.7317L43.6423 38.8247L43.621 38.9167L43.5995 39.0077L43.5779 39.0976L43.5563 39.1866L43.5345 39.2744L43.5126 39.3613L43.4906 39.4471L43.4686 39.532L43.4464 39.6158L43.4241 39.6985L43.4018 39.7803L43.3793 39.861L43.3568 39.9407L43.3341 40.0193L43.3113 40.097L43.2885 40.1736L43.2655 40.2492L43.2424 40.3237L43.2193 40.3973L43.196 40.4698L43.1726 40.5413L43.1492 40.6117L43.1374 40.6466L43.1138 40.7155L43.1019 40.7496L43.0901 40.7834L43.0603 40.8668L43.0303 40.9487L43.0183 40.981L42.9942 41.0447L42.9699 41.1075C42.9592 41.1352 42.9483 41.1626 42.9375 41.1896L42.9091 41.2596L42.8795 41.3308C42.8275 41.4546 42.7746 41.5736 42.7207 41.6878L42.6975 41.7365L42.6665 41.8005L42.6352 41.8634C42.2895 42.5504 41.9023 43.0503 41.4574 43.3642C40.903 43.7587 40.1955 43.9604 39.3403 43.9845L39.3019 43.9855H39.0655C37.7249 43.9855 36.7455 43.6176 36.1813 42.84L36.1644 42.8163L36.1497 42.7954L36.1423 42.7861C35.9815 42.5821 35.9021 42.3012 35.8707 41.9084L35.8687 41.8821L35.8653 41.8317L35.8638 41.8061L35.8624 41.7801L35.8599 41.7274L35.8588 41.7005L35.8579 41.6734L35.8559 41.6041L35.8547 41.533L35.8543 41.5039L35.854 41.4449L35.854 41.38L35.8542 41.3441L35.8549 41.2733L35.8554 41.2384L35.8561 41.2039L35.8578 41.1357L35.8589 41.1021L35.8601 41.0689L35.8628 41.0033L35.866 40.9391L35.8698 40.8761C35.8711 40.8554 35.8725 40.8348 35.874 40.8145L35.8763 40.7841L35.8814 40.7244L35.8869 40.6659C35.9132 40.4056 35.9556 40.1837 36.0157 39.9976C36.1719 39.5146 36.4828 39.1903 36.9518 39.1827L36.9687 39.1826L36.9871 39.1829L37.0022 39.1836L37.0179 39.1847L37.0343 39.1864L37.0564 39.1893L37.0805 39.1932L37.1126 39.1994L37.1427 39.2058L37.1692 39.212L37.2215 39.2249L37.2918 39.2435L37.3866 39.2697L37.4866 39.2983L37.6193 39.3368L37.9368 39.4301L38.027 39.4574L38.1077 39.4814L38.1845 39.5036L38.2573 39.5242L38.326 39.5431L38.3747 39.5562L38.4209 39.5683L38.4786 39.583L38.5316 39.5959L38.5683 39.6045L38.6023 39.6121L38.6335 39.6188L38.6707 39.6262L38.6952 39.6306L38.7168 39.634L38.7294 39.6358L38.7408 39.6371L38.7507 39.6379L38.7552 39.6382L38.763 39.6384C38.7677 39.6384 38.7712 39.6377 38.7781 39.6347C38.7945 39.6275 38.8167 39.6125 38.8444 39.5865C38.931 39.5053 39.0281 39.3576 39.1253 39.1426C39.2487 38.8694 39.3393 38.5165 39.3939 38.0854L39.3985 38.0483L39.406 37.9837L39.4129 37.9181L39.4162 37.8848L39.4193 37.8513L39.4253 37.7834C39.4437 37.5597 39.4537 37.318 39.4549 37.0587L39.4551 37.0028L39.4547 36.985L39.4539 36.9712L39.4522 36.9476L39.4487 36.9108L39.4437 36.8679L39.4373 36.819L39.4336 36.7923L39.4251 36.7344L39.4152 36.6707L39.4008 36.5827L39.3843 36.4857L39.3657 36.3797L39.3448 36.2648L39.317 36.1152L39.2861 35.9531L39.2462 35.7484L39.1955 35.494L39.1468 35.2538L39.0861 34.9596L39.0218 34.6528L34.641 16.445L34.6334 16.3905L34.6264 16.3386L34.6199 16.2886L34.6141 16.2403L34.6075 16.1824L34.6018 16.1271L34.5997 16.1057L34.5961 16.064L34.5929 16.0239L34.5916 16.0043L34.5893 15.9663L34.5876 15.9296L34.587 15.9118L34.5861 15.8771L34.5859 15.8602V15.8131C34.5882 15.49 34.6263 15.2293 34.7145 15.0178C34.8519 14.6883 35.1246 14.4665 35.4845 14.4596L35.5017 14.4595H38.2036C38.5652 14.4595 38.886 14.5917 39.1337 14.8469C39.3616 15.0817 39.4976 15.436 39.5862 15.93L39.5912 15.9581L39.5994 16.0072L41.9764 28.5878L43.8325 16.0948L43.8357 16.0709C43.903 15.5706 44.0172 15.1987 44.2066 14.9421L44.218 14.9269L44.2294 14.9122C44.4587 14.6218 44.7799 14.4611 45.1455 14.4553H45.1655H47.0386ZM7.21057 4.90754C7.61237 4.90754 7.93164 5.13491 8.10372 5.50429C8.22433 5.76318 8.27712 6.09201 8.27963 6.505L8.27972 6.53613V36.0414C8.27972 36.6058 8.22271 37.045 8.09474 37.3742C7.92087 37.8214 7.58912 38.1101 7.13707 38.1176H7.1194H3.70474C3.24383 38.1176 2.91212 37.8224 2.7418 37.3673C2.62208 37.0474 2.56743 36.6222 2.56521 36.0764L2.56514 11.3811L1.90658 11.5477L1.38688 11.6776L1.26378 11.7073L1.20953 11.7197L1.16829 11.7283L1.14471 11.7321L1.12539 11.7341L1.10256 11.736C0.699986 11.7649 0.363751 11.5562 0.182323 11.1911C0.0564955 10.9378 0.0025869 10.6143 9.11589e-05 10.2047L0 10.1746V8.03212C0 7.64851 0.0618728 7.32638 0.201723 7.06375C0.361286 6.76411 0.616726 6.5584 0.938092 6.47495L0.957453 6.47009L0.979767 6.4649L6.87994 4.94325C6.96383 4.92239 7.05643 4.91117 7.15706 4.90816L7.1847 4.90754H7.21057Z" fill="black"/>
</svg>
