<svg width="16" height="16" viewBox="0 0 16 16" fill="none" xmlns="http://www.w3.org/2000/svg">
<path fill-rule="evenodd" clip-rule="evenodd" d="M8.803 2.80366C9.09589 2.51076 9.57077 2.51076 9.86366 2.80365L14.5303 7.47027C14.671 7.61092 14.75 7.80169 14.75 8.0006C14.75 8.19952 14.671 8.39028 14.5303 8.53093L9.86366 13.1976C9.57077 13.4905 9.0959 13.4905 8.803 13.1976C8.51011 12.9047 8.51011 12.4298 8.803 12.1369L12.1893 8.7506H2C1.58579 8.7506 1.25 8.41482 1.25 8.0006C1.25 7.58639 1.58579 7.2506 2 7.2506H12.1893L8.80301 3.86432C8.51011 3.57143 8.51011 3.09655 8.803 2.80366Z" fill="#0F172A"/>
</svg>
