<svg width="20" height="16" viewBox="0 0 20 16" fill="none" xmlns="http://www.w3.org/2000/svg">
<path fill-rule="evenodd" clip-rule="evenodd" d="M8.53033 0.469673C8.82323 0.762567 8.82322 1.23744 8.53033 1.53033L2.81067 7.24993H19C19.4142 7.24993 19.75 7.58572 19.75 7.99993C19.75 8.41414 19.4142 8.74993 19 8.74993H2.81066L8.53033 14.4696C8.82322 14.7625 8.82322 15.2374 8.53033 15.5303C8.23744 15.8232 7.76256 15.8232 7.46967 15.5303L0.46967 8.53026C0.329017 8.38961 0.25 8.19884 0.25 7.99993C0.25 7.80102 0.329019 7.61025 0.469673 7.4696L7.46967 0.469667C7.76257 0.176776 8.23744 0.176778 8.53033 0.469673Z" fill="currentColor"/>
</svg>
