<svg width="48" height="48" viewBox="0 0 48 48" fill="none" xmlns="http://www.w3.org/2000/svg">
<g clip-path="url(#clip0_1224_25872)">
<path fill-rule="evenodd" clip-rule="evenodd" d="M31.0945 1.20213C31.4884 1.68861 31.6893 2.34504 32.091 3.65791L40.8673 32.3387C37.6225 30.6641 34.0949 29.4563 30.3748 28.8047L24.6605 9.59465C24.567 9.28033 24.2769 9.0647 23.9474 9.0647C23.617 9.0647 23.3263 9.28146 23.2335 9.59687L17.5885 28.795C13.8511 29.4437 10.3075 30.6536 7.04883 32.3343L15.8681 3.65125C16.2711 2.34065 16.4726 1.68535 16.8665 1.19976C17.2143 0.771086 17.6666 0.438161 18.1804 0.232712C18.7624 0 19.4513 0 20.829 0H27.1281C28.5076 0 29.1974 0 29.7799 0.2332C30.2941 0.440342 30.7468 0.77267 31.0945 1.20213Z" fill="black"/>
<path fill-rule="evenodd" clip-rule="evenodd" d="M32.1453 33.7034C30.6985 34.9341 27.8108 35.7735 24.4844 35.7735C20.4019 35.7735 16.9801 34.5091 16.072 32.8086C15.7474 33.7832 15.6747 34.8986 15.6747 35.6111C15.6747 35.6111 15.4608 39.11 17.9069 41.5432C17.9069 40.2796 18.9366 39.2555 20.2067 39.2555C22.3838 39.2555 22.3813 41.1449 22.3793 42.6778C22.3793 42.7238 22.3792 42.7693 22.3792 42.8145C22.3792 45.1413 23.8087 47.1359 25.8416 47.9769C25.538 47.3556 25.3677 46.6577 25.3677 45.9206C25.3677 43.7015 26.6773 42.875 28.1993 41.9146C29.4103 41.1505 30.7558 40.3018 31.6831 38.5987C32.167 37.7101 32.4417 36.6926 32.4417 35.6111C32.4417 34.946 32.3378 34.305 32.1453 33.7034Z" fill="#FF5D01"/>
<path fill-rule="evenodd" clip-rule="evenodd" d="M32.1453 33.7034C30.6985 34.9341 27.8108 35.7735 24.4844 35.7735C20.4019 35.7735 16.9801 34.5091 16.072 32.8086C15.7474 33.7832 15.6747 34.8986 15.6747 35.6111C15.6747 35.6111 15.4608 39.11 17.9069 41.5432C17.9069 40.2796 18.9366 39.2555 20.2067 39.2555C22.3838 39.2555 22.3813 41.1449 22.3793 42.6778C22.3793 42.7238 22.3792 42.7693 22.3792 42.8145C22.3792 45.1413 23.8087 47.1359 25.8416 47.9769C25.538 47.3556 25.3677 46.6577 25.3677 45.9206C25.3677 43.7015 26.6773 42.875 28.1993 41.9146C29.4103 41.1505 30.7558 40.3018 31.6831 38.5987C32.167 37.7101 32.4417 36.6926 32.4417 35.6111C32.4417 34.946 32.3378 34.305 32.1453 33.7034Z" fill="url(#paint0_linear_1224_25872)"/>
</g>
<defs>
<linearGradient id="paint0_linear_1224_25872" x1="2314.62" y1="-589.038" x2="1585.26" y2="945.802" gradientUnits="userSpaceOnUse">
<stop stop-color="#FF1639"/>
<stop offset="1" stop-color="#FF1639" stop-opacity="0"/>
</linearGradient>
<clipPath id="clip0_1224_25872">
<rect width="34" height="48" fill="white" transform="translate(7)"/>
</clipPath>
</defs>
</svg>
