<svg width="20" height="20" viewBox="0 0 20 20" fill="none" xmlns="http://www.w3.org/2000/svg">
<path fill-rule="evenodd" clip-rule="evenodd" d="M10.0013 0.916016L9.97624 0.916016C9.14375 0.916012 8.48394 0.91601 7.94844 0.949528C7.40158 0.983756 6.93438 1.05501 6.49478 1.22046C5.21458 1.70229 4.20425 2.71263 3.72241 3.99283C3.68515 4.09183 3.65267 4.19223 3.62431 4.29462C2.0882 4.55331 0.917969 5.88967 0.917969 7.49935V12.4993C0.917969 14.109 2.0882 15.4454 3.62431 15.7041C3.65267 15.8065 3.68515 15.9069 3.72241 16.0059C4.20425 17.2861 5.21458 18.2964 6.49478 18.7782C6.93438 18.9437 7.40158 19.0149 7.94844 19.0492C8.48388 19.0827 9.1436 19.0827 9.97596 19.0827H9.97602H9.97608H9.97614H9.9762H9.97626H10.0013H10.0263H10.0264H10.0265H10.0265H10.0266H10.0266C10.859 19.0827 11.5187 19.0827 12.0542 19.0492C12.601 19.0149 13.0682 18.9437 13.5078 18.7782C14.788 18.2964 15.7984 17.2861 16.2802 16.0059C16.3174 15.9069 16.3499 15.8065 16.3783 15.7041C17.9144 15.4454 19.0846 14.109 19.0846 12.4993V7.49935C19.0846 5.88967 17.9144 4.55332 16.3783 4.29462C16.3499 4.19223 16.3174 4.09183 16.2802 3.99283C15.7984 2.71263 14.788 1.70229 13.5078 1.22046C13.0682 1.05501 12.601 0.983756 12.0542 0.949528C11.5187 0.91601 10.8589 0.916012 10.0264 0.916016L10.0013 0.916016ZM16.5717 5.91168C16.5846 6.35344 16.5846 6.86809 16.5846 7.47431V7.49935V12.4993V12.5244C16.5846 13.1306 16.5846 13.6453 16.5717 14.087C17.1699 13.8088 17.5846 13.2025 17.5846 12.4993V7.49935C17.5846 6.79617 17.1699 6.18986 16.5717 5.91168ZM2.41797 7.49935C2.41797 6.79617 2.8327 6.18986 3.43091 5.91168C3.41796 6.35343 3.41797 6.86806 3.41797 7.47426V7.47428V7.47429V7.49935V12.4994V12.5244V12.5244V12.5244C3.41797 13.1306 3.41796 13.6453 3.43091 14.087C2.8327 13.8088 2.41797 13.2025 2.41797 12.4993V7.49935ZM7.02316 2.62432C7.26473 2.5334 7.56498 2.47646 8.04214 2.4466C8.52528 2.41636 9.13819 2.41602 10.0013 2.41602C10.8644 2.41602 11.4773 2.41636 11.9605 2.4466C12.4376 2.47646 12.7379 2.5334 12.9794 2.62432C13.8554 2.954 14.5467 3.64528 14.8763 4.5212C14.9672 4.76278 15.0242 5.06303 15.0541 5.54018C15.0843 6.02333 15.0846 6.63624 15.0846 7.49935V12.4993C15.0846 13.3625 15.0843 13.9754 15.0541 14.4585C15.0242 14.9357 14.9672 15.2359 14.8763 15.4775C14.5467 16.3534 13.8554 17.0447 12.9794 17.3744C12.7379 17.4653 12.4376 17.5222 11.9605 17.5521C11.4773 17.5823 10.8644 17.5827 10.0013 17.5827C9.13819 17.5827 8.52528 17.5823 8.04214 17.5521C7.56498 17.5222 7.26473 17.4653 7.02316 17.3744C6.14723 17.0447 5.45595 16.3534 5.12627 15.4775C5.03535 15.2359 4.97842 14.9357 4.94855 14.4585C4.91831 13.9754 4.91797 13.3625 4.91797 12.4994V7.49935C4.91797 6.63624 4.91831 6.02333 4.94855 5.54019C4.97842 5.06303 5.03535 4.76278 5.12627 4.5212C5.45595 3.64528 6.14723 2.954 7.02316 2.62432ZM7.5013 5.08268C7.08709 5.08268 6.7513 5.41847 6.7513 5.83268C6.7513 6.2469 7.08709 6.58268 7.5013 6.58268H12.5013C12.9155 6.58268 13.2513 6.2469 13.2513 5.83268C13.2513 5.41847 12.9155 5.08268 12.5013 5.08268H7.5013ZM6.7513 9.16602C6.7513 8.7518 7.08709 8.41602 7.5013 8.41602H12.5013C12.9155 8.41602 13.2513 8.7518 13.2513 9.16602C13.2513 9.58023 12.9155 9.91602 12.5013 9.91602H7.5013C7.08709 9.91602 6.7513 9.58023 6.7513 9.16602ZM7.5013 11.7493C7.08709 11.7493 6.7513 12.0851 6.7513 12.4993C6.7513 12.9136 7.08709 13.2493 7.5013 13.2493H9.16797C9.58218 13.2493 9.91797 12.9136 9.91797 12.4993C9.91797 12.0851 9.58218 11.7493 9.16797 11.7493H7.5013Z" fill="black"/>
</svg>
