<svg width="20" height="20" viewBox="0 0 20 20" fill="none" xmlns="http://www.w3.org/2000/svg">
<path fill-rule="evenodd" clip-rule="evenodd" d="M10.8057 0.669307C10.2758 0.552939 9.72694 0.55294 9.19703 0.669307C8.59592 0.801309 8.04694 1.131 7.25247 1.60812L7.14591 1.67209L3.61258 3.79209L3.51207 3.85236C2.75932 4.30362 2.23897 4.61555 1.85188 5.05578C1.51048 5.44404 1.25305 5.89871 1.09576 6.39123C0.917431 6.94965 0.917662 7.55634 0.917997 8.43398L0.918027 8.55117V11.4491L0.917997 11.5663C0.917662 12.4439 0.917431 13.0506 1.09576 13.609C1.25305 14.1015 1.51048 14.5562 1.85188 14.9445C2.23897 15.3847 2.75932 15.6966 3.51207 16.1479L3.61257 16.2082L7.14591 18.3282L7.25245 18.3921C8.04693 18.8693 8.59592 19.1989 9.19703 19.3309C9.33877 19.3621 9.48187 19.3849 9.6256 19.3993C9.73609 19.4634 9.86444 19.5001 10.0014 19.5001C10.1383 19.5001 10.2666 19.4634 10.3771 19.3993C10.5208 19.3849 10.6639 19.3621 10.8057 19.3309C11.4068 19.1989 11.9558 18.8692 12.7503 18.3921L12.8568 18.3282L16.3901 16.2082L16.4907 16.1479L16.4907 16.1479C17.2434 15.6966 17.7638 15.3847 18.1508 14.9445C18.4922 14.5562 18.7497 14.1015 18.907 13.609C19.0853 13.0506 19.0851 12.4439 19.0847 11.5663V11.5663L19.0847 11.4491V8.55117L19.0847 8.43398V8.43395C19.0851 7.55632 19.0853 6.94964 18.907 6.39123C18.7497 5.89871 18.4922 5.44404 18.1508 5.05578C17.7638 4.61556 17.2434 4.30362 16.4907 3.85237L16.4907 3.85236L16.3901 3.79209L12.8568 1.67209L12.7503 1.60812C11.9558 1.131 11.4068 0.801309 10.8057 0.669307ZM10.7514 17.7819C11.0259 17.6715 11.3865 17.4611 12.0851 17.0419L15.6184 14.9219C16.5107 14.3865 16.8112 14.1964 17.0244 13.954C17.2292 13.721 17.3837 13.4482 17.4781 13.1527C17.5763 12.8452 17.5847 12.4897 17.5847 11.4491V8.55117C17.5847 7.51059 17.5763 7.1551 17.4781 6.84755C17.4673 6.81398 17.4558 6.78069 17.4436 6.74773L10.7514 10.8374V17.7819ZM16.4566 5.59296C16.2544 5.46163 15.9869 5.29942 15.6184 5.07833L12.0851 2.95833C11.142 2.39248 10.8149 2.20707 10.484 2.1344C10.166 2.06458 9.83671 2.06458 9.51876 2.1344C9.18785 2.20707 8.86074 2.39248 7.91765 2.95833L4.38432 5.07833C4.01584 5.29942 3.74828 5.46163 3.54611 5.59296L10.0014 9.53783L16.4566 5.59296ZM2.55915 6.74773C2.54689 6.78069 2.53539 6.81398 2.52467 6.84755C2.42645 7.1551 2.41803 7.51059 2.41803 8.55117V11.4491C2.41803 12.4897 2.42645 12.8452 2.52467 13.1527C2.61904 13.4482 2.7735 13.721 2.97834 13.954C3.19153 14.1964 3.49202 14.3865 4.38432 14.9219L7.91765 17.0419C8.61624 17.4611 8.97684 17.6715 9.25136 17.7819V10.8374L2.55915 6.74773Z" fill="#0F172A"/>
</svg>
