<svg width="20" height="20" viewBox="0 0 20 20" fill="none" xmlns="http://www.w3.org/2000/svg">
<path fill-rule="evenodd" clip-rule="evenodd" d="M7.52845 4.24958C7.84975 3.18849 8.83532 2.41602 10.0013 2.41602C11.1673 2.41602 12.1529 3.18849 12.4742 4.24958C12.3109 4.24935 12.1422 4.24935 11.9676 4.24935H11.9676H11.9346H8.06797H8.03497H8.03495C7.86041 4.24935 7.69166 4.24935 7.52845 4.24958ZM5.98265 4.27151C6.32591 2.36361 7.99456 0.916016 10.0013 0.916016C12.008 0.916016 13.6767 2.36361 14.02 4.27151C14.234 4.27972 14.4345 4.29095 14.6229 4.30634C15.3363 4.36462 15.9399 4.48623 16.4911 4.76707C17.3849 5.22247 18.1115 5.94912 18.5669 6.84289C18.8478 7.39407 18.9694 7.99769 19.0276 8.71108C19.0846 9.4087 19.0846 10.2742 19.0846 11.3663V11.3994V11.9327V11.9657C19.0846 13.0578 19.0846 13.9233 19.0276 14.6209C18.9694 15.3343 18.8478 15.938 18.5669 16.4891C18.1115 17.3829 17.3849 18.1096 16.4911 18.565C15.9399 18.8458 15.3363 18.9674 14.6229 19.0257C13.9253 19.0827 13.0598 19.0827 11.9677 19.0827H11.9346H8.06797H8.03495C6.94282 19.0827 6.07732 19.0827 5.3797 19.0257C4.66631 18.9674 4.06269 18.8458 3.51151 18.565C2.61774 18.1096 1.89109 17.3829 1.43569 16.4891C1.15485 15.938 1.03324 15.3343 0.974957 14.6209C0.917959 13.9233 0.917963 13.0578 0.917969 11.9657L0.917969 11.9327V11.3993L0.917969 11.3663C0.917963 10.2742 0.917959 9.4087 0.974957 8.71108C1.03324 7.99769 1.15485 7.39407 1.43569 6.84289C1.89109 5.94912 2.61774 5.22247 3.51151 4.76707C4.06269 4.48623 4.66631 4.36462 5.3797 4.30634C5.56806 4.29095 5.76866 4.27971 5.98265 4.27151ZM5.50185 5.80135C4.88122 5.85206 4.49697 5.94844 4.1925 6.10358C3.58097 6.41517 3.08379 6.91235 2.7722 7.52388C2.64422 7.77504 2.55623 8.0805 2.50088 8.52815L2.53947 8.54412C2.64333 8.58689 2.79867 8.64906 2.99902 8.72419C3.39998 8.87455 3.97966 9.07625 4.68651 9.27821C5.0649 9.38632 5.47794 9.49398 5.91797 9.59374V9.16602C5.91797 8.7518 6.25376 8.41602 6.66797 8.41602C7.08218 8.41602 7.41797 8.7518 7.41797 9.16602V9.87836C8.23827 10.0029 9.11141 10.0827 10.0013 10.0827C10.8912 10.0827 11.7643 10.0029 12.5846 9.87836V9.16602C12.5846 8.7518 12.9204 8.41602 13.3346 8.41602C13.7488 8.41602 14.0846 8.7518 14.0846 9.16602V9.59374C14.5247 9.49398 14.9377 9.38632 15.3161 9.27821C16.0229 9.07625 16.6026 8.87455 17.0036 8.72419C17.2039 8.64906 17.3593 8.58689 17.4631 8.54412L17.5017 8.52814C17.4464 8.0805 17.3584 7.77504 17.2304 7.52388C16.9188 6.91235 16.4216 6.41517 15.8101 6.10358C15.5056 5.94844 15.1214 5.85206 14.5008 5.80135C13.8714 5.74993 13.0671 5.74935 11.9346 5.74935H8.06797C6.93549 5.74935 6.13123 5.74993 5.50185 5.80135ZM12.5846 11.3943V11.666C12.5846 12.0802 12.9204 12.416 13.3346 12.416C13.7488 12.416 14.0846 12.0802 14.0846 11.666V11.1293C14.6823 11.0028 15.2353 10.8613 15.7282 10.7205C16.4797 10.5058 17.0979 10.2908 17.5303 10.1287L17.5803 10.1098C17.5845 10.4872 17.5846 10.913 17.5846 11.3994V11.9327C17.5846 13.0652 17.5841 13.8694 17.5326 14.4988C17.4819 15.1194 17.3855 15.5037 17.2304 15.8082C16.9188 16.4197 16.4216 16.9169 15.8101 17.2285C15.5056 17.3836 15.1214 17.48 14.5008 17.5307C13.8714 17.5821 13.0671 17.5827 11.9346 17.5827H8.06797C6.93549 17.5827 6.13124 17.5821 5.50185 17.5307C4.88122 17.48 4.49697 17.3836 4.1925 17.2285C3.58097 16.9169 3.08379 16.4197 2.7722 15.8082C2.61706 15.5037 2.52068 15.1194 2.46997 14.4988C2.41855 13.8694 2.41797 13.0652 2.41797 11.9327V11.3993C2.41797 10.913 2.41808 10.4872 2.42227 10.1098L2.47233 10.1287C2.90471 10.2908 3.52294 10.5058 4.27443 10.7205C4.76733 10.8613 5.32028 11.0028 5.91797 11.1293V11.666C5.91797 12.0802 6.25376 12.416 6.66797 12.416C7.08218 12.416 7.41797 12.0802 7.41797 11.666V11.3943C8.23846 11.5098 9.10943 11.5827 10.0013 11.5827C10.8932 11.5827 11.7641 11.5098 12.5846 11.3943Z" fill="#94A3B8"/>
</svg>
