<svg width="20" height="20" viewBox="0 0 20 20" fill="none" xmlns="http://www.w3.org/2000/svg">
<path fill-rule="evenodd" clip-rule="evenodd" d="M8.33203 0.916039L8.19724 0.916027C6.7761 0.91584 5.90953 0.915726 5.17715 1.11197C3.19288 1.64365 1.64298 3.19355 1.11129 5.17783C0.915052 5.9102 0.915166 6.77677 0.915353 8.19791L0.915365 8.33271V8.74937C0.915365 9.16359 1.25115 9.49937 1.66536 9.49937C2.07958 9.49937 2.41536 9.16359 2.41536 8.74937V8.33271C2.41536 6.73447 2.42181 6.08247 2.56018 5.56606C2.95317 4.09942 4.09874 2.95384 5.56538 2.56085C6.0818 2.42248 6.73379 2.41604 8.33203 2.41604H10.332C11.7445 2.41604 12.7588 2.41662 13.5549 2.48167C14.3423 2.546 14.8501 2.66963 15.2615 2.87926C16.0612 3.28672 16.7113 3.93689 17.1188 4.73658C17.3284 5.14801 17.4521 5.65574 17.5164 6.44312C17.5814 7.23926 17.582 8.25353 17.582 9.66604V11.666C17.582 13.2643 17.5756 13.9163 17.4372 14.4327C17.0442 15.8993 15.8987 17.0449 14.432 17.4379C13.9156 17.5763 13.2636 17.5827 11.6654 17.5827H11.2487C10.8345 17.5827 10.4987 17.9185 10.4987 18.3327C10.4987 18.7469 10.8345 19.0827 11.2487 19.0827H11.6654L11.8001 19.0827C13.2213 19.0829 14.0879 19.083 14.8202 18.8868C16.8045 18.3551 18.3544 16.8052 18.8861 14.8209C19.0823 14.0885 19.0822 13.222 19.082 11.8008L19.082 11.666V9.66604V9.63246V9.63241V9.63236V9.63231C19.082 8.26067 19.082 7.18529 19.0114 6.32097C18.9395 5.44083 18.7907 4.71372 18.4553 4.05559C17.904 2.97366 17.0244 2.09402 15.9425 1.54275C15.2843 1.20742 14.5572 1.05856 13.6771 0.98665C12.8127 0.91603 11.7373 0.916034 10.3656 0.916039L10.332 0.916039H8.33203ZM1.66536 19.166C2.1256 19.166 2.4987 18.7929 2.4987 18.3327C2.4987 17.8725 2.1256 17.4994 1.66536 17.4994C1.20513 17.4994 0.832031 17.8725 0.832031 18.3327C0.832031 18.7929 1.20513 19.166 1.66536 19.166ZM0.915365 11.666C0.915365 11.2518 1.25115 10.916 1.66536 10.916C5.70744 10.916 9.08203 14.3311 9.08203 18.3327C9.08203 18.7469 8.74624 19.0827 8.33203 19.0827C7.91782 19.0827 7.58203 18.7469 7.58203 18.3327C7.58203 15.1544 4.87389 12.416 1.66536 12.416C1.25115 12.416 0.915365 12.0803 0.915365 11.666ZM1.66536 14.2494C1.25115 14.2494 0.915365 14.5852 0.915365 14.9994C0.915365 15.4136 1.25115 15.7494 1.66536 15.7494C3.06125 15.7494 4.2487 16.9494 4.2487 18.3327C4.2487 18.7469 4.58448 19.0827 4.9987 19.0827C5.41291 19.0827 5.7487 18.7469 5.7487 18.3327C5.7487 16.1261 3.89481 14.2494 1.66536 14.2494Z" fill="black"/>
</svg>
