<svg width="16" height="16" viewBox="0 0 16 16" fill="none" xmlns="http://www.w3.org/2000/svg">
<path fill-rule="evenodd" clip-rule="evenodd" d="M9.86352 3.46967C10.1564 3.76256 10.1564 4.23744 9.86352 4.53033L8.12626 6.26759C7.7215 6.67236 7.45023 6.94445 7.2581 7.17076C7.07167 7.39038 7.00421 7.51706 6.9728 7.61373C6.89123 7.86478 6.89123 8.13522 6.9728 8.38627C7.00421 8.48294 7.07167 8.60962 7.25811 8.82924C7.45023 9.05555 7.7215 9.32764 8.12627 9.73241L9.86352 11.4697C10.1564 11.7626 10.1564 12.2374 9.86352 12.5303C9.57063 12.8232 9.09576 12.8232 8.80286 12.5303L7.06561 10.7931L7.04408 10.7715C6.66637 10.3939 6.3511 10.0786 6.1146 9.8C5.86792 9.50944 5.66318 9.20979 5.54622 8.8498C5.36676 8.29748 5.36676 7.70252 5.54622 7.1502C5.66318 6.79021 5.86792 6.49056 6.1146 6.2C6.3511 5.9214 6.66637 5.60615 7.04408 5.22845L7.0656 5.20693L8.80286 3.46967C9.09576 3.17678 9.57063 3.17678 9.86352 3.46967Z" fill="#475569"/>
</svg>
