<svg width="16" height="16" viewBox="0 0 16 16" fill="none" xmlns="http://www.w3.org/2000/svg">
<path fill-rule="evenodd" clip-rule="evenodd" d="M6.13617 3.46967C6.42907 3.17678 6.90394 3.17678 7.19683 3.46967L8.93409 5.20693L8.95562 5.22845C9.33333 5.60615 9.64859 5.9214 9.8851 6.2C10.1318 6.49056 10.3365 6.79021 10.4535 7.1502C10.6329 7.70252 10.6329 8.29748 10.4535 8.8498C10.3365 9.20979 10.1318 9.50944 9.8851 9.8C9.6486 10.0786 9.33333 10.3938 8.95562 10.7715L8.93409 10.7931L7.19683 12.5303C6.90394 12.8232 6.42907 12.8232 6.13617 12.5303C5.84328 12.2374 5.84328 11.7626 6.13617 11.4697L7.87343 9.73241C8.2782 9.32764 8.54947 9.05555 8.74159 8.82924C8.92803 8.60962 8.99549 8.48294 9.0269 8.38627C9.10847 8.13522 9.10847 7.86478 9.0269 7.61373C8.99549 7.51706 8.92803 7.39038 8.74159 7.17076C8.54947 6.94445 8.2782 6.67236 7.87343 6.26759L6.13617 4.53033C5.84328 4.23744 5.84328 3.76256 6.13617 3.46967Z" fill="#475569"/>
</svg>
