<svg width="20" height="20" viewBox="0 0 20 20" fill="none" xmlns="http://www.w3.org/2000/svg">
<path fill-rule="evenodd" clip-rule="evenodd" d="M9.63441 0.916016L9.66797 0.916016H10.3346L10.3682 0.916016C11.7399 0.916011 12.8153 0.916007 13.6797 0.986628C14.5598 1.05854 15.287 1.20739 15.9451 1.54273C17.027 2.094 17.9067 2.97364 18.4579 4.05557C18.7933 4.7137 18.9421 5.44081 19.014 6.32095C19.0846 7.18528 19.0846 8.26068 19.0846 9.63234V9.63239V9.63244V9.66601V10.3327V10.3663V10.3663V10.3664C19.0846 11.738 19.0846 12.8134 19.014 13.6777C18.9421 14.5579 18.7933 15.285 18.4579 15.9431C17.9067 17.0251 17.027 17.9047 15.9451 18.456C15.287 18.7913 14.5598 18.9402 13.6797 19.0121C12.8154 19.0827 11.74 19.0827 10.3683 19.0827H10.3683H10.3682H10.3346H9.66797H9.63439H9.63434H9.6343C8.26263 19.0827 7.18723 19.0827 6.32291 19.0121C5.44276 18.9402 4.71565 18.7913 4.05752 18.456C2.97559 17.9047 2.09595 17.0251 1.54468 15.9431C1.20935 15.285 1.06049 14.5579 0.988581 13.6777C0.917961 12.8134 0.917964 11.738 0.917969 10.3662L0.917969 10.3327V9.66602L0.917969 9.63246C0.917964 8.26074 0.917961 7.1853 0.988581 6.32095C1.06049 5.44081 1.20935 4.7137 1.54468 4.05557C2.09595 2.97364 2.97559 2.094 4.05752 1.54273C4.71565 1.20739 5.44276 1.05854 6.32291 0.986628C7.18725 0.916007 8.26269 0.916011 9.63441 0.916016ZM6.44505 2.48165C5.65767 2.54598 5.14994 2.6696 4.73851 2.87924C3.93882 3.2867 3.28865 3.93687 2.88119 4.73656C2.67156 5.14798 2.54793 5.65572 2.4836 6.4431C2.41855 7.23924 2.41797 8.25351 2.41797 9.66602V10.3327C2.41797 11.7452 2.41855 12.7595 2.4836 13.5556C2.54793 14.343 2.67156 14.8507 2.88119 15.2621C3.28865 16.0618 3.93882 16.712 4.73851 17.1195C5.14994 17.3291 5.65767 17.4527 6.44505 17.5171C7.24119 17.5821 8.25546 17.5827 9.66797 17.5827H10.3346C11.7471 17.5827 12.7614 17.5821 13.5576 17.5171C14.3449 17.4527 14.8527 17.3291 15.2641 17.1195C16.0638 16.712 16.714 16.0618 17.1214 15.2621C17.331 14.8507 17.4547 14.343 17.519 13.5556C17.5841 12.7595 17.5846 11.7452 17.5846 10.3327V9.66601C17.5846 8.25351 17.5841 7.23923 17.519 6.4431C17.4547 5.65572 17.331 5.14798 17.1214 4.73656C16.714 3.93687 16.0638 3.2867 15.2641 2.87924C14.8527 2.6696 14.3449 2.54598 13.5576 2.48165C12.7614 2.4166 11.7471 2.41602 10.3346 2.41602H9.66797C8.25546 2.41602 7.24119 2.4166 6.44505 2.48165ZM8.86497 6.13569C9.15786 6.42858 9.15786 6.90345 8.86497 7.19635L7.22869 8.83262C6.92293 9.13839 6.72591 9.33623 6.58792 9.49877C6.45562 9.65461 6.42219 9.728 6.40933 9.76759C6.36039 9.91822 6.36039 10.0805 6.40933 10.2311C6.42219 10.2707 6.45562 10.3441 6.58792 10.4999C6.72591 10.6625 6.92293 10.8603 7.22869 11.1661L8.86497 12.8024C9.15786 13.0952 9.15786 13.5701 8.86497 13.863C8.57207 14.1559 8.0972 14.1559 7.80431 13.863L6.16803 12.2267L6.14759 12.2063L6.14756 12.2063C5.868 11.9267 5.62683 11.6856 5.44442 11.4707C5.25188 11.2439 5.08117 10.9975 4.98275 10.6946C4.83592 10.2427 4.83592 9.75596 4.98275 9.30406C5.08117 9.00115 5.25188 8.75479 5.44442 8.528C5.62683 8.31312 5.86802 8.07196 6.14759 7.7924L6.16803 7.77196L7.80431 6.13569C8.0972 5.84279 8.57207 5.84279 8.86497 6.13569ZM12.1983 6.13569C11.9054 5.84279 11.4305 5.84279 11.1376 6.13569C10.8447 6.42858 10.8447 6.90345 11.1376 7.19635L12.7739 8.83262C13.0797 9.13839 13.2767 9.33623 13.4147 9.49877C13.547 9.65461 13.5804 9.728 13.5933 9.76759C13.6422 9.91822 13.6422 10.0805 13.5933 10.2311C13.5804 10.2707 13.547 10.3441 13.4147 10.4999C13.2767 10.6625 13.0797 10.8603 12.7739 11.1661L11.1376 12.8024C10.8447 13.0952 10.8447 13.5701 11.1376 13.863C11.4305 14.1559 11.9054 14.1559 12.1983 13.863L13.8346 12.2267L13.855 12.2063C14.1346 11.9267 14.3758 11.6856 14.5582 11.4707C14.7507 11.2439 14.9214 10.9975 15.0199 10.6946C15.1667 10.2427 15.1667 9.75596 15.0199 9.30406C14.9214 9.00115 14.7507 8.75479 14.5582 8.528C14.3758 8.31312 14.1346 8.07196 13.855 7.7924L13.8346 7.77196L12.1983 6.13569Z" fill="#94A3B8"/>
</svg>
