<svg width="20" height="20" viewBox="0 0 20 20" fill="none" xmlns="http://www.w3.org/2000/svg">
    <path fill-rule="evenodd" clip-rule="evenodd"
          d="M2.41797 9.99935C2.41797 5.81119 5.81314 2.41602 10.0013 2.41602C14.1895 2.41602 17.5846 5.81119 17.5846 9.99935C17.5846 14.1875 14.1895 17.5827 10.0013 17.5827C5.81314 17.5827 2.41797 14.1875 2.41797 9.99935ZM10.0013 0.916016C4.98472 0.916016 0.917969 4.98276 0.917969 9.99935C0.917969 15.0159 4.98472 19.0827 10.0013 19.0827C15.0179 19.0827 19.0846 15.0159 19.0846 9.99935C19.0846 4.98276 15.0179 0.916016 10.0013 0.916016ZM14.0174 6.97637C14.1468 6.69176 14.086 6.35675 13.865 6.13569C13.6439 5.91462 13.3089 5.85387 13.0243 5.98324L9.53339 7.57001L9.47367 7.59713L9.47366 7.59713C9.12735 7.75433 8.85466 7.8781 8.61523 8.05707C8.40413 8.21486 8.21682 8.40218 8.05903 8.61328C7.88006 8.85271 7.75628 9.1254 7.59909 9.47171L7.59908 9.47172L7.57196 9.53144L5.98519 13.0223C5.85583 13.3069 5.91657 13.6419 6.13764 13.863C6.3587 14.0841 6.69371 14.1448 6.97832 14.0155L10.4692 12.4287L10.5289 12.4016C10.8752 12.2444 11.1479 12.1206 11.3874 11.9416C11.5985 11.7838 11.7858 11.5965 11.9436 11.3854C12.1225 11.146 12.2463 10.8733 12.4035 10.527L12.4306 10.4673L14.0174 6.97637ZM10.1541 8.93556L11.8243 8.1764L11.0651 9.84656C10.868 10.2801 10.8118 10.3942 10.7421 10.4874C10.6704 10.5833 10.5853 10.6685 10.4893 10.7402C10.3962 10.8098 10.2821 10.8661 9.84851 11.0631L8.17835 11.8223L8.93751 10.1521C9.13459 9.71857 9.19085 9.60449 9.26048 9.51134C9.3322 9.41539 9.41734 9.33025 9.51329 9.25852C9.60644 9.1889 9.72052 9.13264 10.1541 8.93556Z"
          fill="currentColor"/>
</svg>
