<svg width="18" height="20" viewBox="0 0 18 20" fill="none" xmlns="http://www.w3.org/2000/svg">
<path fill-rule="evenodd" clip-rule="evenodd" d="M1.5 2.41602L16.5 2.41602C16.9142 2.41602 17.25 2.08023 17.25 1.66602C17.25 1.2518 16.9142 0.916016 16.5 0.916016L1.5 0.916017C1.08579 0.916017 0.75 1.2518 0.75 1.66602C0.75 2.08023 1.08579 2.41602 1.5 2.41602ZM6.36497 5.08265L6.5001 5.08268H11.5001L11.6352 5.08265C12.5899 5.08228 13.2419 5.08203 13.7944 5.25624C14.9613 5.62416 15.8753 6.53817 16.2432 7.70504C16.4174 8.25757 16.4172 8.90958 16.4168 9.86421L16.4168 9.99935L16.4168 10.1345C16.4172 11.0891 16.4174 11.7411 16.2432 12.2937C15.8753 13.4605 14.9613 14.3745 13.7944 14.7425C13.2419 14.9167 12.5899 14.9164 11.6352 14.9161L11.5001 14.916H6.5001L6.36496 14.9161C5.41033 14.9164 4.75832 14.9167 4.20579 14.7425C3.03892 14.3745 2.12491 13.4605 1.757 12.2937C1.58278 11.7411 1.58303 11.0891 1.5834 10.1345L1.58344 9.99935L1.5834 9.86421C1.58303 8.90958 1.58278 8.25757 1.757 7.70504C2.12491 6.53817 3.03892 5.62416 4.20579 5.25624C4.75832 5.08203 5.41033 5.08228 6.36497 5.08265ZM3.08344 9.99935C3.08344 11.1416 3.09219 11.5401 3.18757 11.8426C3.40832 12.5427 3.95673 13.0911 4.65685 13.3119C4.95938 13.4073 5.35782 13.416 6.5001 13.416H11.5001C12.6424 13.416 13.0408 13.4073 13.3434 13.3119C14.0435 13.0911 14.5919 12.5427 14.8126 11.8426C14.908 11.5401 14.9168 11.1416 14.9168 9.99935C14.9168 8.85706 14.908 8.45862 14.8126 8.1561C14.5919 7.45598 14.0435 6.90757 13.3434 6.68682C13.0408 6.59143 12.6424 6.58268 11.5001 6.58268H6.5001C5.35782 6.58268 4.95938 6.59143 4.65685 6.68682C3.95673 6.90757 3.40832 7.45598 3.18757 8.1561C3.09219 8.45862 3.08344 8.85706 3.08344 9.99935ZM16.5 19.0827L1.5 19.0827C1.08579 19.0827 0.75 18.7469 0.75 18.3327C0.75 17.9185 1.08579 17.5827 1.5 17.5827L16.5 17.5827C16.9142 17.5827 17.25 17.9185 17.25 18.3327C17.25 18.7469 16.9142 19.0827 16.5 19.0827Z" fill="#94A3B8"/>
</svg>
