<svg width="48" height="48" viewBox="0 0 48 48" fill="none" xmlns="http://www.w3.org/2000/svg">
<g clip-path="url(#clip0_1224_25832)">
<path d="M44.3078 11.8516H23.6309V20.4511H44.3078V11.8516Z" fill="white"/>
<path d="M4.92308 39.9277C3.10203 39.9277 1.51557 38.9092 0.663877 37.3984C0.244185 38.1431 0 39.0053 0 39.9277C0 42.7216 2.20406 44.9863 4.92308 44.9863H9.84615V39.9277H4.92308Z" fill="#3ECC5F"/>
<path d="M27.0722 13.2117L44.3079 12.1049V9.57556C44.3079 6.78171 42.1036 4.51699 39.3848 4.51699H17.2309L16.6156 3.42181C16.3418 2.93492 15.6583 2.93492 15.3848 3.42181L14.7694 4.51699L14.154 3.42181C13.8803 2.93492 13.1967 2.93492 12.9232 3.42181L12.3079 4.51699L11.6925 3.42181C11.4188 2.93492 10.7352 2.93492 10.4617 3.42181L9.84632 4.51699C9.84091 4.51699 9.83574 4.51775 9.83032 4.51775L8.81075 3.47037C8.42405 3.07302 7.76386 3.25462 7.62208 3.79766L7.28534 5.08861L6.00706 4.73653C5.47857 4.5911 4.99512 5.08785 5.13691 5.63089L5.47931 6.94434L4.22318 7.2901C3.69469 7.43579 3.51771 8.11439 3.90441 8.51174L4.92374 9.55938C4.92374 9.56469 4.92325 9.57 4.92325 9.57556L3.85715 10.2079C3.38355 10.4889 3.38355 11.1915 3.85715 11.4725L4.92325 12.1049L3.85715 12.7372C3.38355 13.0182 3.38355 13.7208 3.85715 14.0018L4.92325 14.6341L3.85715 15.2665C3.38355 15.5475 3.38355 16.2501 3.85715 16.5311L4.92325 17.1634L3.85715 17.7957C3.38355 18.0767 3.38355 18.7794 3.85715 19.0604L4.92325 19.6927L3.85715 20.325C3.38355 20.606 3.38355 21.3087 3.85715 21.5897L4.92325 22.222L3.85715 22.8543C3.38355 23.1353 3.38355 23.838 3.85715 24.119L4.92325 24.7513L3.85715 25.3836C3.38355 25.6646 3.38355 26.3672 3.85715 26.6483L4.92325 27.2806L3.85715 27.9129C3.38355 28.1939 3.38355 28.8965 3.85715 29.1775L4.92325 29.8099L3.85715 30.4422C3.38355 30.7232 3.38355 31.4258 3.85715 31.7068L4.92325 32.3391L3.85715 32.9715C3.38355 33.2525 3.38355 33.9551 3.85715 34.2361L4.92325 34.8684L3.85715 35.5008C3.38355 35.7818 3.38355 36.4844 3.85715 36.7654L4.92325 37.3977L3.85715 38.03C3.38355 38.311 3.38355 39.0137 3.85715 39.2947L4.92325 39.927C4.92325 42.7209 7.12731 44.9856 9.84632 44.9856H39.3848C42.1036 44.9856 44.3079 42.7209 44.3079 39.927V19.6927L27.0722 18.5859C25.6912 18.4971 24.6156 17.3205 24.6156 15.8988C24.6156 14.4771 25.6912 13.3004 27.0722 13.2117Z" fill="#3ECC5F"/>
<path d="M34.4609 44.9863H41.8456V34.8691H34.4609V44.9863Z" fill="#3ECC5F"/>
<path d="M46.77 38.6621C46.7161 38.6621 46.6646 38.6714 46.6127 38.6783C46.6033 38.6403 46.5945 38.6021 46.5841 38.5642C47.0287 38.3735 47.3411 37.9233 47.3411 37.3974C47.3411 36.6989 46.7902 36.1328 46.1103 36.1328C45.8302 36.1328 45.5749 36.233 45.3679 36.3948C45.3406 36.3663 45.3132 36.3379 45.2854 36.3099C45.4398 36.0984 45.5343 35.8389 45.5343 35.5544C45.5343 34.8558 44.9834 34.2897 44.3035 34.2897C43.7952 34.2897 43.359 34.6066 43.1715 35.0589C43.135 35.0482 43.0984 35.0394 43.0619 35.0298C43.0686 34.9764 43.0777 34.9236 43.0777 34.8682C43.0777 34.1696 42.5268 33.6035 41.8469 33.6035C41.167 33.6035 40.6161 34.1696 40.6161 34.8682C40.6161 34.9236 40.6252 34.9764 40.6319 35.0298C40.5955 35.0394 40.5588 35.0482 40.5224 35.0589C40.3348 34.6066 39.8986 34.2897 39.3903 34.2897C38.7104 34.2897 38.1595 34.8558 38.1595 35.5544C38.1595 35.8389 38.254 36.0984 38.4084 36.3099C37.4934 37.2285 36.9238 38.5086 36.9238 39.9267C36.9238 42.7206 39.1279 44.9853 41.8469 44.9853C44.1457 44.9853 46.0709 43.364 46.6127 41.1752C46.6646 41.182 46.7161 41.1914 46.77 41.1914C47.4499 41.1914 48.0008 40.6253 48.0008 39.9267C48.0008 39.2281 47.4499 38.6621 46.77 38.6621Z" fill="#44D860"/>
<path d="M36.9238 29.8105H44.3084V24.752H36.9238V29.8105Z" fill="#3ECC5F"/>
<path d="M46.7688 27.9139C47.1087 27.9139 47.3842 27.6308 47.3842 27.2815C47.3842 26.9322 47.1087 26.6492 46.7688 26.6492C46.7419 26.6492 46.7161 26.654 46.6903 26.6573C46.6853 26.6383 46.6811 26.6194 46.676 26.6004C46.898 26.505 47.0543 26.2797 47.0543 26.0169C47.0543 25.6676 46.7789 25.3846 46.4389 25.3846C46.2989 25.3846 46.1711 25.4344 46.0677 25.5156C46.0542 25.5012 46.0404 25.487 46.0264 25.4731C46.1037 25.3676 46.1509 25.2376 46.1509 25.0952C46.1509 24.7462 45.8755 24.4629 45.5356 24.4629C45.2813 24.4629 45.0632 24.6215 44.9694 24.8476C44.7584 24.7871 44.5371 24.7522 44.3072 24.7522C42.948 24.7522 41.8457 25.8849 41.8457 27.2815C41.8457 28.6782 42.948 29.8108 44.3072 29.8108C44.5371 29.8108 44.7584 29.7759 44.9694 29.7155C45.0632 29.9416 45.2813 30.1002 45.5356 30.1002C45.8755 30.1002 46.1509 29.8169 46.1509 29.4678C46.1509 29.3254 46.1037 29.1954 46.0264 29.09C46.0404 29.0761 46.0542 29.0619 46.0677 29.0475C46.1711 29.1287 46.2989 29.1785 46.4389 29.1785C46.7789 29.1785 47.0543 28.8955 47.0543 28.5462C47.0543 28.2834 46.898 28.058 46.676 27.9627C46.6811 27.9439 46.6853 27.9247 46.6903 27.9058C46.7161 27.909 46.7419 27.9139 46.7688 27.9139Z" fill="#44D860"/>
<path d="M14.7689 12.7373C14.429 12.7373 14.1535 12.4543 14.1535 12.105C14.1535 11.0589 13.3255 10.208 12.3074 10.208C11.2893 10.208 10.4612 11.0589 10.4612 12.105C10.4612 12.4543 10.1858 12.7373 9.84585 12.7373C9.50591 12.7373 9.23047 12.4543 9.23047 12.105C9.23047 10.3615 10.6107 8.94336 12.3074 8.94336C14.0041 8.94336 15.3843 10.3615 15.3843 12.105C15.3843 12.4543 15.1089 12.7373 14.7689 12.7373Z" fill="black"/>
<path d="M24.6152 44.9862H39.3845C42.1035 44.9862 44.3075 42.7215 44.3075 39.9277V22.2227H29.5383C26.8193 22.2227 24.6152 24.4874 24.6152 27.2812V44.9862Z" fill="#FFFF50"/>
<path d="M40.6201 30.0625H28.3028C28.1667 30.0625 28.0566 29.9494 28.0566 29.8096C28.0566 29.6697 28.1667 29.5566 28.3028 29.5566H40.6201C40.7562 29.5566 40.8662 29.6697 40.8662 29.8096C40.8662 29.9494 40.7562 30.0625 40.6201 30.0625Z" fill="black"/>
<path d="M40.6201 35.1211H28.3028C28.1667 35.1211 28.0566 35.008 28.0566 34.8682C28.0566 34.7283 28.1667 34.6152 28.3028 34.6152H40.6201C40.7562 34.6152 40.8662 34.7283 40.8662 34.8682C40.8662 35.008 40.7562 35.1211 40.6201 35.1211Z" fill="black"/>
<path d="M40.6201 40.1797H28.3028C28.1667 40.1797 28.0566 40.0666 28.0566 39.9268C28.0566 39.7869 28.1667 39.6738 28.3028 39.6738H40.6201C40.7562 39.6738 40.8662 39.7869 40.8662 39.9268C40.8662 40.0666 40.7562 40.1797 40.6201 40.1797Z" fill="black"/>
<path d="M40.6201 27.5801H28.3028C28.1667 27.5801 28.0566 27.4668 28.0566 27.3271C28.0566 27.1873 28.1667 27.0742 28.3028 27.0742H40.6201C40.7562 27.0742 40.8662 27.1873 40.8662 27.3271C40.8662 27.4668 40.7562 27.5801 40.6201 27.5801Z" fill="black"/>
<path d="M40.6201 32.5918H28.3028C28.1667 32.5918 28.0566 32.4787 28.0566 32.3389C28.0566 32.199 28.1667 32.0859 28.3028 32.0859H40.6201C40.7562 32.0859 40.8662 32.199 40.8662 32.3389C40.8662 32.4787 40.7562 32.5918 40.6201 32.5918Z" fill="black"/>
<path d="M40.6201 37.6504H28.3028C28.1667 37.6504 28.0566 37.5373 28.0566 37.3975C28.0566 37.2576 28.1667 37.1445 28.3028 37.1445H40.6201C40.7562 37.1445 40.8662 37.2576 40.8662 37.3975C40.8662 37.5373 40.7562 37.6504 40.6201 37.6504Z" fill="black"/>
<path d="M44.3069 14.2825C44.304 14.2825 44.3015 14.281 44.2986 14.2813C43.538 14.3078 43.1781 15.0896 42.8605 15.7794C42.5292 16.5 42.273 16.9689 41.853 16.9547C41.388 16.9375 41.1222 16.3978 40.8406 15.8264C40.5171 15.1706 40.1479 14.4265 39.3728 14.4543C38.623 14.4806 38.2619 15.161 37.9434 15.7612C37.6044 16.4006 37.3738 16.7893 36.929 16.7714C36.4546 16.7537 36.2026 16.3148 35.9109 15.8069C35.5857 15.2414 35.2098 14.6055 34.4497 14.6273C33.7127 14.6533 33.3506 15.2305 33.0311 15.7402C32.6932 16.2789 32.4564 16.6072 32.0059 16.5877C31.5202 16.5698 31.2694 16.2058 30.9792 15.7842C30.6533 15.3104 30.286 14.7742 29.5281 14.8003C28.8074 14.8256 28.4453 15.2983 28.126 15.7154C27.8227 16.111 27.586 16.4241 27.085 16.4044C26.9492 16.3988 26.8352 16.5083 26.8303 16.6482C26.8251 16.7875 26.9314 16.9049 27.0673 16.9102C27.8099 16.9358 28.1861 16.4547 28.5127 16.0283C28.8024 15.6499 29.0525 15.3233 29.5448 15.3061C30.0189 15.2854 30.2412 15.5882 30.5775 16.0763C30.8967 16.5402 31.2591 17.0663 31.9882 17.0933C32.752 17.1196 33.1195 16.5331 33.4449 16.0141C33.7359 15.5502 33.9869 15.1498 34.4664 15.1329C34.9078 15.1159 35.148 15.4743 35.4868 16.0639C35.806 16.6196 36.1676 17.2491 36.9112 17.277C37.6805 17.3043 38.0519 16.614 38.3756 16.0035C38.656 15.4754 38.9206 14.9763 39.3895 14.9599C39.8309 14.9493 40.061 15.3633 40.4015 16.0551C40.7195 16.7008 41.0801 17.4323 41.8353 17.4603C41.8493 17.4608 41.8631 17.4611 41.8769 17.4611C42.6311 17.4611 42.989 16.6833 43.3058 15.9956C43.5862 15.3861 43.8515 14.8117 44.3069 14.7884V14.2825Z" fill="black"/>
<path d="M19.6914 44.9863H29.5376V34.8691H19.6914V44.9863Z" fill="#3ECC5F"/>
<path d="M34.4614 38.6621C34.4075 38.6621 34.356 38.6714 34.3041 38.6783C34.2947 38.6403 34.2859 38.6021 34.2755 38.5642C34.7201 38.3735 35.0325 37.9233 35.0325 37.3974C35.0325 36.6989 34.4816 36.1328 33.8017 36.1328C33.5216 36.1328 33.2663 36.233 33.0593 36.3948C33.032 36.3663 33.0047 36.3379 32.9768 36.3099C33.1312 36.0984 33.2257 35.8389 33.2257 35.5544C33.2257 34.8558 32.6748 34.2897 31.9949 34.2897C31.4866 34.2897 31.0504 34.6066 30.8629 35.0589C30.8264 35.0482 30.7898 35.0394 30.7533 35.0298C30.76 34.9764 30.7691 34.9236 30.7691 34.8682C30.7691 34.1696 30.2182 33.6035 29.5383 33.6035C28.8584 33.6035 28.3075 34.1696 28.3075 34.8682C28.3075 34.9236 28.3167 34.9764 28.3233 35.0298C28.2869 35.0394 28.2502 35.0482 28.2138 35.0589C28.0262 34.6066 27.59 34.2897 27.0817 34.2897C26.4018 34.2897 25.8509 34.8558 25.8509 35.5544C25.8509 35.8389 25.9455 36.0984 26.0998 36.3099C25.1848 37.2285 24.6152 38.5086 24.6152 39.9267C24.6152 42.7206 26.8193 44.9853 29.5383 44.9853C31.8371 44.9853 33.7623 43.364 34.3041 41.1752C34.356 41.182 34.4075 41.1914 34.4614 41.1914C35.1413 41.1914 35.6922 40.6253 35.6922 39.9267C35.6922 39.2281 35.1413 38.6621 34.4614 38.6621Z" fill="#44D860"/>
<path d="M19.6914 29.8105H29.5376V24.752H19.6914V29.8105Z" fill="#3ECC5F"/>
<path d="M31.9992 27.9139C32.3392 27.9139 32.6146 27.6308 32.6146 27.2815C32.6146 26.9322 32.3392 26.6492 31.9992 26.6492C31.9724 26.6492 31.9466 26.654 31.9207 26.6573C31.9158 26.6383 31.9116 26.6194 31.9064 26.6004C32.1285 26.505 32.2848 26.2797 32.2848 26.0169C32.2848 25.6676 32.0093 25.3846 31.6694 25.3846C31.5293 25.3846 31.4016 25.4344 31.2982 25.5156C31.2847 25.5012 31.2709 25.487 31.2568 25.4731C31.3341 25.3676 31.3814 25.2376 31.3814 25.0952C31.3814 24.7462 31.106 24.4629 30.766 24.4629C30.5117 24.4629 30.2936 24.6215 30.1999 24.8476C29.9889 24.7871 29.7676 24.7522 29.5377 24.7522C28.1784 24.7522 27.0762 25.8849 27.0762 27.2815C27.0762 28.6782 28.1784 29.8108 29.5377 29.8108C29.7676 29.8108 29.9889 29.7759 30.1999 29.7155C30.2936 29.9416 30.5117 30.1002 30.766 30.1002C31.106 30.1002 31.3814 29.8169 31.3814 29.4678C31.3814 29.3254 31.3341 29.1954 31.2568 29.09C31.2709 29.0761 31.2847 29.0619 31.2982 29.0475C31.4016 29.1287 31.5293 29.1785 31.6694 29.1785C32.0093 29.1785 32.2848 28.8955 32.2848 28.5462C32.2848 28.2834 32.1285 28.058 31.9064 27.9627C31.9116 27.9439 31.9158 27.9247 31.9207 27.9058C31.9466 27.909 31.9724 27.9139 31.9992 27.9139Z" fill="#44D860"/>
<path d="M34.4611 9.25942C34.4217 9.25942 34.3799 9.25436 34.3405 9.24677C34.3011 9.23918 34.2615 9.22654 34.2248 9.21136C34.1879 9.19618 34.1534 9.17595 34.1187 9.15319C34.0867 9.13042 34.0549 9.1026 34.0251 9.07478C33.9983 9.04443 33.9712 9.01408 33.9491 8.97867C33.9269 8.94326 33.9072 8.90785 33.8922 8.86991C33.8777 8.83197 33.8654 8.7915 33.858 8.75103C33.8506 8.71056 33.8457 8.66756 33.8457 8.62709C33.8457 8.58663 33.8506 8.54363 33.858 8.50316C33.8654 8.46269 33.8777 8.42475 33.8922 8.38428C33.9072 8.34634 33.9269 8.31093 33.9491 8.27552C33.9712 8.24264 33.9983 8.20976 34.0251 8.17941C34.0549 8.15159 34.0867 8.12377 34.1187 8.101C34.1534 8.07824 34.1879 8.058 34.2248 8.04283C34.2615 8.02765 34.3011 8.01501 34.3405 8.00742C34.4192 7.98971 34.5005 7.98971 34.5817 8.00742C34.6208 8.01501 34.6605 8.02765 34.6974 8.04283C34.7341 8.058 34.7688 8.07824 34.8032 8.101C34.8352 8.12377 34.867 8.15159 34.8968 8.17941C34.9239 8.20976 34.9509 8.24264 34.9731 8.27552C34.9952 8.31093 35.0149 8.34634 35.0297 8.38428C35.0445 8.42475 35.0568 8.46269 35.0642 8.50316C35.0713 8.54363 35.0765 8.58663 35.0765 8.62709C35.0765 8.79403 35.0098 8.95843 34.8968 9.07478C34.867 9.1026 34.8352 9.13042 34.8032 9.15319C34.7688 9.17595 34.7341 9.19618 34.6974 9.21136C34.6605 9.22654 34.6208 9.23918 34.5817 9.24677C34.5423 9.25436 34.5005 9.25942 34.4611 9.25942Z" fill="black"/>
<path d="M39.3849 8.94301C39.2225 8.94301 39.0649 8.87472 38.949 8.75837C38.9221 8.72802 38.8951 8.69514 38.8729 8.66226C38.8508 8.62685 38.8311 8.59144 38.8161 8.5535C38.8015 8.51556 38.7892 8.47509 38.7818 8.43462C38.7745 8.39415 38.7695 8.35116 38.7695 8.31069C38.7695 8.14376 38.836 7.98188 38.949 7.863C38.9788 7.83518 39.0105 7.80736 39.0425 7.7846C39.0772 7.76183 39.1117 7.7416 39.1486 7.72642C39.1853 7.71125 39.2249 7.6986 39.2643 7.69101C39.3431 7.67331 39.4268 7.67331 39.5055 7.69101C39.5447 7.6986 39.5843 7.71125 39.6212 7.72642C39.6579 7.7416 39.6926 7.76183 39.7271 7.7846C39.7591 7.80736 39.7908 7.83518 39.8206 7.863C39.9336 7.98188 40.0003 8.14376 40.0003 8.31069C40.0003 8.35116 39.9951 8.39415 39.988 8.43462C39.9806 8.47509 39.9683 8.51556 39.9535 8.5535C39.9363 8.59144 39.9191 8.62685 39.8969 8.66226C39.8748 8.69514 39.8477 8.72802 39.8206 8.75837C39.7908 8.78619 39.7591 8.81402 39.7271 8.83678C39.6926 8.85954 39.6579 8.87978 39.6212 8.89495C39.5843 8.91013 39.5447 8.92278 39.5055 8.93036C39.4661 8.93795 39.4243 8.94301 39.3849 8.94301Z" fill="black"/>
</g>
<defs>
<clipPath id="clip0_1224_25832">
<rect width="48" height="42" fill="white" transform="translate(0 3)"/>
</clipPath>
</defs>
</svg>
