<svg width="20" height="20" viewBox="0 0 20 20" fill="none" xmlns="http://www.w3.org/2000/svg">
<path fill-rule="evenodd" clip-rule="evenodd" d="M9.55204 0.916016L9.58464 0.916016H10.0013C10.4155 0.916016 10.7513 1.2518 10.7513 1.66602C10.7513 2.08023 10.4155 2.41602 10.0013 2.41602H9.58464C8.21178 2.41602 7.22599 2.41657 6.45147 2.47811C5.68534 2.53899 5.19032 2.65602 4.78824 2.85431C3.94915 3.2681 3.27005 3.9472 2.85626 4.78629C2.65798 5.18837 2.54095 5.68339 2.48007 6.44952C2.41852 7.22403 2.41797 8.20983 2.41797 9.58269V10.3327C2.41797 11.7452 2.41855 12.7595 2.4836 13.5556C2.54793 14.343 2.67156 14.8507 2.88119 15.2621C3.28865 16.0618 3.93882 16.712 4.73851 17.1195C5.14994 17.3291 5.65767 17.4527 6.44505 17.5171C7.24119 17.5821 8.25546 17.5827 9.66797 17.5827H10.418C11.7908 17.5827 12.7766 17.5821 13.5511 17.5206C14.3173 17.4597 14.8123 17.3427 15.2144 17.1444C16.0535 16.7306 16.7326 16.0515 17.1463 15.2124C17.3446 14.8103 17.4617 14.3153 17.5225 13.5492C17.5841 12.7747 17.5846 11.7889 17.5846 10.416V9.99935C17.5846 9.58514 17.9204 9.24935 18.3346 9.24935C18.7489 9.24935 19.0846 9.58514 19.0846 9.99935V10.416V10.4486V10.4486V10.4487C19.0846 11.7819 19.0846 12.8271 19.0178 13.668C18.9498 14.5241 18.809 15.2323 18.4917 15.8758C17.9318 17.0111 17.013 17.9299 15.8778 18.4897C15.2343 18.8071 14.5261 18.9478 13.67 19.0159C12.8291 19.0827 11.7838 19.0827 10.4506 19.0827H10.4506H10.4505H10.418H9.66797H9.63439H9.63435H9.6343C8.26263 19.0827 7.18723 19.0827 6.32291 19.0121C5.44276 18.9402 4.71565 18.7913 4.05752 18.456C2.97559 17.9047 2.09595 17.0251 1.54468 15.9431C1.20935 15.285 1.06049 14.5579 0.988581 13.6777C0.917961 12.8134 0.917964 11.738 0.917969 10.3662L0.917969 10.3327V9.58269L0.917969 9.55009C0.917964 8.21685 0.917961 7.17157 0.98478 6.33069C1.05281 5.47458 1.1936 4.76638 1.51095 4.12285C2.07079 2.98762 2.98957 2.06883 4.12481 1.509C4.76833 1.19165 5.47653 1.05086 6.33265 0.982827C7.17352 0.916008 8.2188 0.916011 9.55204 0.916016ZM16.5543 3.44635C16.1568 3.04888 15.5124 3.04888 15.115 3.44635L14.8955 3.66585C14.9043 4.45295 15.5477 5.09631 16.3348 5.10519L16.5543 4.88569C16.9518 4.48822 16.9518 3.84381 16.5543 3.44635ZM17.2037 6.35765L17.615 5.94635C18.5982 4.9631 18.5982 3.36893 17.615 2.38569C16.6317 1.40244 15.0376 1.40244 14.0543 2.38569L13.643 2.79702C13.6391 2.80081 13.6353 2.80463 13.6315 2.80849L10.7245 5.71553L10.6804 5.75963C10.2558 6.18411 9.98197 6.45785 9.75629 6.7718C9.55631 7.04998 9.38702 7.34898 9.25137 7.66358C9.09827 8.01863 9.00442 8.39425 8.85887 8.97673L8.84375 9.03722L8.44036 10.6508C8.37647 10.9064 8.45135 11.1767 8.63764 11.363C8.82392 11.5493 9.09429 11.6242 9.34987 11.5603L10.9634 11.1569L11.0239 11.1418C11.6064 10.9962 11.982 10.9024 12.3371 10.7493C12.6517 10.6136 12.9507 10.4443 13.2289 10.2444C13.5428 10.0187 13.8166 9.74487 14.241 9.32027L14.2851 9.27619L17.1921 6.36919C17.196 6.36538 17.1999 6.36154 17.2037 6.35765ZM15.1087 6.33127C14.4768 6.03642 13.9642 5.52389 13.6694 4.89193L11.7851 6.77619C11.3019 7.25942 11.1202 7.4443 10.9742 7.64734C10.8374 7.83767 10.7216 8.04225 10.6288 8.2575C10.5298 8.48712 10.4647 8.73804 10.299 9.40102L10.1987 9.80191L10.5996 9.70168C11.2626 9.53594 11.5135 9.47088 11.7431 9.37187C11.9584 9.27906 12.163 9.16323 12.3533 9.02641C12.5563 8.88045 12.7412 8.69876 13.2245 8.21553L15.1087 6.33127Z" fill="black"/>
</svg>
