<svg width="20" height="20" viewBox="0 0 20 20" fill="none" xmlns="http://www.w3.org/2000/svg">
<path fill-rule="evenodd" clip-rule="evenodd" d="M4.86797 0.916016L4.83754 0.916016C4.30338 0.916005 3.85753 0.915997 3.4933 0.945756C3.11341 0.976793 2.75676 1.0439 2.4195 1.21575C1.90205 1.4794 1.48135 1.9001 1.2177 2.41754C1.04586 2.7548 0.978747 3.11146 0.947709 3.49135C0.91795 3.85558 0.917958 4.30143 0.917969 4.83558L0.91797 4.86601V5.13268L0.917969 5.16312C0.917958 5.69727 0.91795 6.14312 0.947709 6.50735C0.978747 6.88724 1.04586 7.24389 1.2177 7.58116C1.48135 8.0986 1.90205 8.5193 2.4195 8.78295C2.75676 8.95479 3.11341 9.0219 3.4933 9.05294C3.85753 9.0827 4.30338 9.08269 4.83754 9.08268H4.86797H5.13463H5.16506C5.69922 9.08269 6.14507 9.0827 6.50931 9.05294C6.88919 9.0219 7.24585 8.95479 7.58311 8.78295C8.10055 8.5193 8.52125 8.0986 8.7849 7.58116C8.95675 7.24389 9.02386 6.88724 9.0549 6.50735C9.08466 6.14312 9.08465 5.69727 9.08464 5.16311V5.13268V4.86602V4.83559C9.08465 4.30143 9.08466 3.85558 9.0549 3.49135C9.02386 3.11146 8.95675 2.75481 8.7849 2.41754C8.52125 1.9001 8.10055 1.4794 7.58311 1.21575C7.24585 1.0439 6.88919 0.976793 6.50931 0.945756C6.14507 0.915997 5.69923 0.916005 5.16507 0.916016L5.13464 0.916016H4.86797ZM3.10048 2.55226C3.19104 2.50612 3.32832 2.46423 3.61545 2.44077C3.91133 2.4166 4.29554 2.41602 4.86797 2.41602H5.13464C5.70707 2.41602 6.09128 2.4166 6.38716 2.44077C6.67428 2.46423 6.81156 2.50612 6.90212 2.55226C7.13733 2.6721 7.32855 2.86333 7.44839 3.09853C7.49454 3.18909 7.53642 3.32637 7.55988 3.61349C7.58405 3.90937 7.58464 4.29359 7.58464 4.86602V5.13268C7.58464 5.70511 7.58405 6.08933 7.55988 6.3852C7.53642 6.67233 7.49454 6.80961 7.44839 6.90017C7.32855 7.13537 7.13733 7.3266 6.90212 7.44644C6.81156 7.49258 6.67428 7.53447 6.38716 7.55792C6.09128 7.5821 5.70706 7.58268 5.13463 7.58268H4.86797C4.29554 7.58268 3.91133 7.5821 3.61545 7.55792C3.32832 7.53447 3.19104 7.49258 3.10048 7.44644C2.86528 7.3266 2.67405 7.13537 2.55421 6.90017C2.50807 6.80961 2.46619 6.67233 2.44273 6.3852C2.41855 6.08932 2.41797 5.70511 2.41797 5.13268V4.86601C2.41797 4.29359 2.41855 3.90937 2.44273 3.61349C2.46619 3.32637 2.50807 3.18909 2.55421 3.09853C2.67405 2.86333 2.86528 2.6721 3.10048 2.55226ZM4.86797 10.916H4.83754C4.30338 10.916 3.85753 10.916 3.4933 10.9458C3.11341 10.9768 2.75676 11.0439 2.4195 11.2157C1.90205 11.4794 1.48135 11.9001 1.2177 12.4175C1.04586 12.7548 0.978747 13.1115 0.947709 13.4913C0.91795 13.8556 0.917958 14.3014 0.917969 14.8356L0.91797 14.866V15.1327L0.917969 15.1631C0.917958 15.6973 0.91795 16.1431 0.947709 16.5074C0.978747 16.8872 1.04586 17.2439 1.2177 17.5812C1.48135 18.0986 1.90205 18.5193 2.4195 18.783C2.75676 18.9548 3.11341 19.0219 3.4933 19.0529C3.85753 19.0827 4.30338 19.0827 4.83754 19.0827H4.86797H5.13463H5.16506C5.69922 19.0827 6.14507 19.0827 6.50931 19.0529C6.88919 19.0219 7.24585 18.9548 7.58311 18.783C8.10055 18.5193 8.52125 18.0986 8.7849 17.5812C8.95675 17.2439 9.02386 16.8872 9.0549 16.5074C9.08466 16.1431 9.08465 15.6973 9.08464 15.1631V15.1327V14.866V14.8356C9.08465 14.3014 9.08466 13.8556 9.0549 13.4913C9.02386 13.1115 8.95675 12.7548 8.7849 12.4175C8.52125 11.9001 8.10055 11.4794 7.58311 11.2157C7.24585 11.0439 6.88919 10.9768 6.50931 10.9458C6.14507 10.916 5.69923 10.916 5.16507 10.916H5.13464H4.86797ZM3.10048 12.5523C3.19104 12.5061 3.32832 12.4642 3.61545 12.4408C3.91133 12.4166 4.29554 12.416 4.86797 12.416H5.13464C5.70707 12.416 6.09128 12.4166 6.38716 12.4408C6.67428 12.4642 6.81156 12.5061 6.90212 12.5523C7.13733 12.6721 7.32855 12.8633 7.44839 13.0985C7.49454 13.1891 7.53642 13.3264 7.55988 13.6135C7.58405 13.9094 7.58464 14.2936 7.58464 14.866V15.1327C7.58464 15.7051 7.58405 16.0893 7.55988 16.3852C7.53642 16.6723 7.49454 16.8096 7.44839 16.9002C7.32855 17.1354 7.13733 17.3266 6.90212 17.4464C6.81156 17.4926 6.67428 17.5345 6.38716 17.5579C6.09128 17.5821 5.70706 17.5827 5.13463 17.5827H4.86797C4.29554 17.5827 3.91133 17.5821 3.61545 17.5579C3.32832 17.5345 3.19104 17.4926 3.10048 17.4464C2.86528 17.3266 2.67405 17.1354 2.55421 16.9002C2.50807 16.8096 2.46619 16.6723 2.44273 16.3852C2.41855 16.0893 2.41797 15.7051 2.41797 15.1327V14.866C2.41797 14.2936 2.41855 13.9094 2.44273 13.6135C2.46619 13.3264 2.50807 13.1891 2.55421 13.0985C2.67405 12.8633 2.86528 12.6721 3.10048 12.5523ZM14.8375 10.916H14.868H15.1346H15.1651C15.6992 10.916 16.1451 10.916 16.5093 10.9458C16.8892 10.9768 17.2458 11.0439 17.5831 11.2157C18.1006 11.4794 18.5213 11.9001 18.7849 12.4175C18.9567 12.7548 19.0239 13.1115 19.0549 13.4913C19.0847 13.8556 19.0846 14.3014 19.0846 14.8356V14.866V15.1327V15.1631C19.0846 15.6973 19.0847 16.1431 19.0549 16.5074C19.0239 16.8872 18.9567 17.2439 18.7849 17.5812C18.5213 18.0986 18.1006 18.5193 17.5831 18.783C17.2458 18.9548 16.8892 19.0219 16.5093 19.0529C16.1451 19.0827 15.6992 19.0827 15.1651 19.0827H15.1346H14.868H14.8375C14.3034 19.0827 13.8575 19.0827 13.4933 19.0529C13.1134 19.0219 12.7568 18.9548 12.4195 18.783C11.902 18.5193 11.4814 18.0986 11.2177 17.5812C11.0459 17.2439 10.9787 16.8872 10.9477 16.5074C10.9179 16.1431 10.918 15.6973 10.918 15.1631V15.1327V14.866V14.8356C10.918 14.3014 10.9179 13.8556 10.9477 13.4913C10.9787 13.1115 11.0459 12.7548 11.2177 12.4175C11.4814 11.9001 11.902 11.4794 12.4195 11.2157C12.7568 11.0439 13.1134 10.9768 13.4933 10.9458C13.8575 10.916 14.3034 10.916 14.8375 10.916ZM13.6154 12.4408C13.3283 12.4642 13.191 12.5061 13.1005 12.5523C12.8653 12.6721 12.6741 12.8633 12.5542 13.0985C12.5081 13.1891 12.4662 13.3264 12.4427 13.6135C12.4186 13.9094 12.418 14.2936 12.418 14.866V15.1327C12.418 15.7051 12.4186 16.0893 12.4427 16.3852C12.4662 16.6723 12.5081 16.8096 12.5542 16.9002C12.6741 17.1354 12.8653 17.3266 13.1005 17.4464C13.191 17.4926 13.3283 17.5345 13.6154 17.5579C13.9113 17.5821 14.2955 17.5827 14.868 17.5827H15.1346C15.7071 17.5827 16.0913 17.5821 16.3872 17.5579C16.6743 17.5345 16.8116 17.4926 16.9021 17.4464C17.1373 17.3266 17.3286 17.1354 17.4484 16.9002C17.4945 16.8096 17.5364 16.6723 17.5599 16.3852C17.5841 16.0893 17.5846 15.7051 17.5846 15.1327V14.866C17.5846 14.2936 17.5841 13.9094 17.5599 13.6135C17.5364 13.3264 17.4945 13.1891 17.4484 13.0985C17.3286 12.8633 17.1373 12.6721 16.9021 12.5523C16.8116 12.5061 16.6743 12.4642 16.3872 12.4408C16.0913 12.4166 15.7071 12.416 15.1346 12.416H14.868C14.2955 12.416 13.9113 12.4166 13.6154 12.4408ZM15.7513 1.66602C15.7513 1.2518 15.4155 0.916016 15.0013 0.916016C14.5871 0.916016 14.2513 1.2518 14.2513 1.66602V4.24935H11.668C11.2538 4.24935 10.918 4.58514 10.918 4.99935C10.918 5.41356 11.2538 5.74935 11.668 5.74935H14.2513V8.33268C14.2513 8.7469 14.5871 9.08268 15.0013 9.08268C15.4155 9.08268 15.7513 8.7469 15.7513 8.33268V5.74935H18.3346C18.7488 5.74935 19.0846 5.41356 19.0846 4.99935C19.0846 4.58514 18.7488 4.24935 18.3346 4.24935H15.7513V1.66602Z" fill="black"/>
</svg>
