<svg width="24" height="24" viewBox="0 0 24 24" fill="none" xmlns="http://www.w3.org/2000/svg">
<path fill-rule="evenodd" clip-rule="evenodd" d="M12 1.25C6.06294 1.25 1.25 6.06294 1.25 12C1.25 17.9371 6.06294 22.75 12 22.75C17.9371 22.75 22.75 17.9371 22.75 12C22.75 6.06294 17.9371 1.25 12 1.25ZM21.25 12C21.25 17.1086 17.1086 21.25 12 21.25C6.89137 21.25 2.75 17.1086 2.75 12C2.75 6.89137 6.89137 2.75 12 2.75C17.1086 2.75 21.25 6.89137 21.25 12ZM8.59919 14.5496C8.35042 14.2184 7.88027 14.1516 7.54908 14.4003C7.21789 14.6491 7.15107 15.1192 7.39984 15.4504C8.4476 16.8454 10.1182 17.75 11.9999 17.75C13.8816 17.75 15.5522 16.8454 16.5999 15.4504C16.8487 15.1192 16.7819 14.6491 16.4507 14.4003C16.1195 14.1516 15.6493 14.2184 15.4006 14.5496C14.6239 15.5835 13.3898 16.25 11.9999 16.25C10.6099 16.25 9.37583 15.5835 8.59919 14.5496ZM10 10C10 10.5523 9.55229 11 9 11C8.44772 11 8 10.5523 8 10C8 9.44771 8.44772 9 9 9C9.55229 9 10 9.44771 10 10ZM15 11C15.5523 11 16 10.5523 16 10C16 9.44771 15.5523 9 15 9C14.4477 9 14 9.44771 14 10C14 10.5523 14.4477 11 15 11Z" fill="black"/>
</svg>
