<svg width="24" height="24" viewBox="0 0 24 24" fill="none" xmlns="http://www.w3.org/2000/svg">
<path fill-rule="evenodd" clip-rule="evenodd" d="M12 1.25C6.06294 1.25 1.25 6.06294 1.25 12C1.25 17.9371 6.06294 22.75 12 22.75C17.9371 22.75 22.75 17.9371 22.75 12C22.75 6.06294 17.9371 1.25 12 1.25ZM21.25 12C21.25 17.1086 17.1086 21.25 12 21.25C6.89137 21.25 2.75 17.1086 2.75 12C2.75 6.89137 6.89137 2.75 12 2.75C17.1086 2.75 21.25 6.89137 21.25 12ZM9 10C9.55229 10 10 9.55229 10 9C10 8.44772 9.55229 8 9 8C8.44772 8 8 8.44772 8 9C8 9.55229 8.44772 10 9 10ZM16 9C16 9.55229 15.5523 10 15 10C14.4477 10 14 9.55229 14 9C14 8.44772 14.4477 8 15 8C15.5523 8 16 8.44772 16 9ZM12 11.25C10.4812 11.25 9.25 12.4812 9.25 14V16C9.25 17.5188 10.4812 18.75 12 18.75C13.5188 18.75 14.75 17.5188 14.75 16V14C14.75 12.4812 13.5188 11.25 12 11.25ZM13.25 16C13.25 16.6904 12.6904 17.25 12 17.25C11.3096 17.25 10.75 16.6904 10.75 16V14C10.75 13.3096 11.3096 12.75 12 12.75C12.6904 12.75 13.25 13.3096 13.25 14V16Z" fill="black"/>
</svg>
