<svg width="20" height="20" viewBox="0 0 20 20" fill="none" xmlns="http://www.w3.org/2000/svg">
<path fill-rule="evenodd" clip-rule="evenodd" d="M10.0013 0.916016C4.98472 0.916016 0.917969 4.98276 0.917969 9.99935C0.917969 15.0159 4.98472 19.0827 10.0013 19.0827C15.0179 19.0827 19.0846 15.0159 19.0846 9.99935C19.0846 4.98276 15.0179 0.916016 10.0013 0.916016ZM2.41797 9.99935C2.41797 5.81119 5.81314 2.41602 10.0013 2.41602C14.1895 2.41602 17.5846 5.81119 17.5846 9.99935C17.5846 14.1875 14.1895 17.5827 10.0013 17.5827C5.81314 17.5827 2.41797 14.1875 2.41797 9.99935ZM5.83464 10.0827C5.59604 10.0827 5.37168 10.1962 5.23036 10.3884C5.08903 10.5807 5.04761 10.8287 5.11879 11.0564L5.83464 10.8327C5.11879 11.0564 5.11888 11.0567 5.11898 11.0571L5.11921 11.0578L5.11973 11.0594L5.12108 11.0637L5.12501 11.0758C5.12817 11.0854 5.13244 11.0982 5.13784 11.114C5.14865 11.1454 5.16405 11.1887 5.1843 11.242C5.22476 11.3486 5.28494 11.4965 5.36716 11.6719C5.53073 12.0208 5.78631 12.489 6.15514 12.9611C6.89452 13.9075 8.13279 14.916 10.0013 14.916C11.8698 14.916 13.1081 13.9075 13.8475 12.9611C14.2163 12.489 14.4719 12.0208 14.6354 11.6719C14.7177 11.4965 14.7778 11.3486 14.8183 11.242C14.8386 11.1887 14.854 11.1454 14.8648 11.114C14.8702 11.0982 14.8744 11.0854 14.8776 11.0758L14.8815 11.0637L14.8829 11.0594L14.8834 11.0578L14.8836 11.0571C14.8837 11.0567 14.8838 11.0564 14.168 10.8327L14.8838 11.0564C14.955 10.8287 14.9136 10.5807 14.7722 10.3884C14.6309 10.1962 14.4066 10.0827 14.168 10.0827H5.83464ZM7.33717 12.0376C7.21739 11.8843 7.11239 11.7303 7.0213 11.5827H12.9813C12.8902 11.7303 12.7852 11.8843 12.6654 12.0376C12.1027 12.7579 11.2576 13.416 10.0013 13.416C8.74498 13.416 7.89992 12.7579 7.33717 12.0376ZM8.33464 7.49935C8.33464 7.95959 7.96154 8.33268 7.5013 8.33268C7.04106 8.33268 6.66797 7.95959 6.66797 7.49935C6.66797 7.03911 7.04106 6.66602 7.5013 6.66602C7.96154 6.66602 8.33464 7.03911 8.33464 7.49935ZM12.5013 8.33268C12.9615 8.33268 13.3346 7.95959 13.3346 7.49935C13.3346 7.03911 12.9615 6.66602 12.5013 6.66602C12.0411 6.66602 11.668 7.03911 11.668 7.49935C11.668 7.95959 12.0411 8.33268 12.5013 8.33268Z" fill="black"/>
</svg>
