<svg width="24" height="24" viewBox="0 0 24 24" fill="none" xmlns="http://www.w3.org/2000/svg">
<rect width="24" height="24" rx="12" fill="#3C5B9A"/>
<path fill-rule="evenodd" clip-rule="evenodd" d="M10.1146 15.5754C10.1146 14.4516 10.1083 13.3278 10.121 12.2039C10.121 12.0135 10.0702 11.9563 9.87968 11.9627C9.53048 11.9754 9.18127 11.9627 8.82572 11.969C8.68603 11.9754 8.62889 11.9309 8.63524 11.7849C8.64159 11.0865 8.64159 10.3817 8.63524 9.68331C8.63524 9.54998 8.67333 9.50554 8.81302 9.50554C9.16857 9.51189 9.53048 9.49284 9.88603 9.51189C10.0956 9.52458 10.1337 9.44839 10.1337 9.25792C10.121 8.72458 10.121 8.19125 10.1337 7.65792C10.1463 7.00395 10.3241 6.39443 10.7114 5.86744C11.2003 5.19443 11.8987 4.88966 12.7051 4.85157C13.5305 4.81347 14.3622 4.83252 15.194 4.82617C15.3083 4.82617 15.3463 4.86427 15.3463 4.97855C15.34 5.68966 15.34 6.39443 15.3463 7.10554C15.3463 7.23252 15.3083 7.27062 15.1813 7.27062C14.7813 7.26427 14.3813 7.27062 13.9876 7.27062C13.4543 7.27062 13.1368 7.54363 13.1051 8.07062C13.0797 8.48966 13.0987 8.91506 13.086 9.34046C13.0797 9.49284 13.1749 9.48014 13.2702 9.48014C13.8733 9.48014 14.4829 9.48649 15.086 9.47379C15.2638 9.47379 15.321 9.51189 15.3019 9.69601C15.2257 10.4008 15.1622 11.1055 15.0987 11.8166C15.086 11.9754 15.0098 12.0071 14.8702 12.0071C14.394 12.0008 13.9114 12.0008 13.4352 12.0071C13.0924 12.0071 13.1241 11.9563 13.1241 12.3055C13.1241 14.5087 13.1178 16.7055 13.1305 18.9087C13.1305 19.1436 13.0733 19.2008 12.8448 19.1944C12.0257 19.1817 11.2003 19.1817 10.3813 19.1944C10.1527 19.2008 10.1146 19.1182 10.1146 18.9151C10.1146 17.7913 10.1146 16.6865 10.1146 15.5754Z" fill="#FEFEFE"/>
</svg>
