<svg width="16" height="20" viewBox="0 0 16 20" fill="none" xmlns="http://www.w3.org/2000/svg">
<path fill-rule="evenodd" clip-rule="evenodd" d="M7.81387 0.916034L7.69405 0.916025C6.43086 0.915877 5.66087 0.915786 5.00572 1.07109C2.8903 1.57258 1.2386 3.22428 0.737115 5.3397C0.581807 5.99485 0.581897 6.76484 0.582045 8.02803L0.582054 8.14785V11.666L0.582043 11.8008C0.581856 13.222 0.581742 14.0885 0.777981 14.8209C1.30967 16.8052 2.85957 18.3551 4.84384 18.8868C5.57622 19.083 6.4428 19.0829 7.86394 19.0827L7.99872 19.0827L8.1335 19.0827C9.55464 19.0829 10.4212 19.083 11.1536 18.8868C13.1379 18.3551 14.6878 16.8052 15.2195 14.8209C15.4157 14.0885 15.4156 13.222 15.4154 11.8008V11.8008L15.4154 11.666V8.77898L15.4154 8.70927C15.4155 7.91494 15.4155 7.42621 15.3364 6.95393C15.1922 6.09297 14.8539 5.27615 14.347 4.5654C14.069 4.17552 13.7234 3.82997 13.1617 3.26834L13.1617 3.26833L13.1124 3.21904L12.9275 3.03418L12.893 2.99962L12.8929 2.99959C12.4992 2.6058 12.257 2.36359 11.9939 2.15555C11.1577 1.4944 10.1541 1.07871 9.09534 0.954931C8.76217 0.915981 8.41965 0.916 7.86274 0.916032L7.81387 0.916034ZM5.35172 2.53064C5.81368 2.42113 6.39351 2.41603 7.81387 2.41603C8.42961 2.41603 8.68123 2.41719 8.91539 2.44411V3.46606L8.91539 3.49649V3.49651C8.91538 4.03066 8.91537 4.4765 8.94513 4.84073C8.97616 5.22061 9.04328 5.57727 9.21512 5.91453C9.47877 6.43198 9.89947 6.85267 10.4169 7.11633C10.7542 7.28817 11.1108 7.35528 11.4907 7.38632C11.855 7.41608 12.3008 7.41607 12.835 7.41606H12.8654H13.8853C13.9139 7.70599 13.9154 8.07611 13.9154 8.77898V11.666C13.9154 13.2643 13.9089 13.9163 13.7706 14.4327C13.3776 15.8993 12.232 17.0449 10.7654 17.4379C10.249 17.5763 9.59696 17.5827 7.99872 17.5827C6.40048 17.5827 5.74849 17.5763 5.23207 17.4379C3.76543 17.0449 2.61986 15.8993 2.22687 14.4327C2.0885 13.9163 2.08205 13.2643 2.08205 11.666V8.14785C2.08205 6.72749 2.08715 6.14766 2.19666 5.6857C2.56732 4.12213 3.78815 2.9013 5.35172 2.53064ZM13.4219 5.91606C13.3342 5.75019 13.2353 5.58989 13.1257 5.43628C12.9289 5.16031 12.678 4.90594 12.0517 4.2797L11.8669 4.09484C11.4279 3.65587 11.2498 3.47945 11.0636 3.3322C10.8599 3.1712 10.6429 3.0299 10.4154 2.90952V3.46606C10.4154 4.03849 10.416 4.4227 10.4401 4.71858C10.4636 5.0057 10.5055 5.14299 10.5516 5.23355C10.6715 5.46875 10.8627 5.65997 11.0979 5.77982C11.1885 5.82596 11.3257 5.86784 11.6129 5.8913C11.9087 5.91547 12.293 5.91606 12.8654 5.91606H13.4219ZM5.49872 9.24937C5.08451 9.24937 4.74872 9.58515 4.74872 9.99937C4.74872 10.4136 5.08451 10.7494 5.49872 10.7494H10.4987C10.9129 10.7494 11.2487 10.4136 11.2487 9.99937C11.2487 9.58515 10.9129 9.24937 10.4987 9.24937H5.49872ZM5.49872 12.5827C5.08451 12.5827 4.74872 12.9185 4.74872 13.3327C4.74872 13.7469 5.08451 14.0827 5.49872 14.0827H8.83205C9.24627 14.0827 9.58205 13.7469 9.58205 13.3327C9.58205 12.9185 9.24627 12.5827 8.83205 12.5827H5.49872Z" fill="#94A3B8"/>
</svg>
