<svg width="30" height="30" viewBox="0 0 30 30" fill="none" xmlns="http://www.w3.org/2000/svg">
<path fill-rule="evenodd" clip-rule="evenodd" d="M11.2236 0.666016L11.268 0.666016H18.7346L18.7791 0.666016C20.4216 0.666009 21.7155 0.666004 22.7569 0.751082C23.8192 0.83788 24.7064 1.01819 25.5126 1.42897C26.8297 2.10008 27.9006 3.17095 28.5717 4.48808C28.9825 5.29429 29.1628 6.18144 29.2496 7.2438C29.3346 8.28513 29.3346 9.5791 29.3346 11.2217V11.266V19.2281L29.3346 19.3391C29.3348 20.4983 29.3349 21.2266 29.1906 21.9267C29.0116 22.7954 28.6691 23.6223 28.1814 24.3631C27.7884 24.9602 27.2733 25.4751 26.4535 26.2947L26.3751 26.3731L26.2966 26.4516C25.477 27.2714 24.9621 27.7864 24.3651 28.1794C23.6242 28.6672 22.7974 29.0097 21.9286 29.1887C21.2285 29.3329 20.5002 29.3328 19.341 29.3327L19.2301 29.3327H11.268H11.2236C9.58106 29.3327 8.28708 29.3327 7.24575 29.2476C6.1834 29.1608 5.29624 28.9805 4.49004 28.5697C3.1729 27.8986 2.10204 26.8278 1.43092 25.5106C1.02014 24.7044 0.839833 23.8173 0.753035 22.7549C0.667957 21.7136 0.667962 20.4196 0.667969 18.7771L0.667969 18.7327V11.266L0.667969 11.2216V11.2216C0.667962 9.57905 0.667957 8.2851 0.753035 7.24379C0.839833 6.18144 1.02014 5.29429 1.43092 4.48808C2.10204 3.17095 3.1729 2.10008 4.49004 1.42897C5.29624 1.01819 6.18339 0.83788 7.24575 0.751082C8.28706 0.666004 9.58101 0.666009 11.2235 0.666016H11.2236ZM7.40861 2.74444C6.46994 2.82113 5.87528 2.9678 5.39802 3.21098C4.45721 3.69035 3.6923 4.45525 3.21294 5.39606C2.96976 5.87333 2.82309 6.46799 2.74639 7.40666C2.66875 8.357 2.66797 9.56935 2.66797 11.266V18.7327C2.66797 20.4293 2.66875 21.6417 2.74639 22.592C2.82309 23.5307 2.96976 24.1254 3.21294 24.6026C3.6923 25.5434 4.45721 26.3083 5.39802 26.7877C5.87528 27.0309 6.46994 27.1776 7.40861 27.2543C8.35896 27.3319 9.57131 27.3327 11.268 27.3327H19.2301L19.3346 27.3327V23.5326V23.4941C19.3346 22.967 19.3346 22.5122 19.3652 22.1376C19.3975 21.7423 19.4688 21.3491 19.6616 20.9707C19.9492 20.4062 20.4082 19.9472 20.9727 19.6596C21.351 19.4668 21.7443 19.3955 22.1396 19.3632C22.5142 19.3326 22.9689 19.3326 23.4961 19.3326H23.5346H27.3346L27.3346 19.2281V11.266C27.3346 9.56936 27.3339 8.35701 27.2562 7.40666C27.1795 6.46799 27.0328 5.87333 26.7897 5.39606C26.3103 4.45525 25.5454 3.69035 24.6046 3.21098C24.1273 2.9678 23.5327 2.82113 22.594 2.74444C21.6437 2.66679 20.4313 2.66602 18.7346 2.66602H11.268C9.57131 2.66602 8.35896 2.66679 7.40861 2.74444ZM21.525 27.2298C21.4627 27.2426 21.3999 27.2539 21.3346 27.2637V23.5326C21.3346 22.9561 21.3354 22.5838 21.3586 22.3005C21.3808 22.0288 21.4184 21.9281 21.4436 21.8787C21.5395 21.6905 21.6925 21.5375 21.8806 21.4416C21.9301 21.4164 22.0308 21.3788 22.3025 21.3566C22.5858 21.3334 22.9581 21.3326 23.5346 21.3326H27.2657C27.2558 21.3979 27.2446 21.4608 27.2318 21.5231C27.1039 22.1436 26.8593 22.7342 26.5109 23.2634C26.2436 23.6694 25.8843 24.0354 24.9609 24.9589C24.0374 25.8824 23.6713 26.2417 23.2654 26.5089C22.7362 26.8573 22.1456 27.102 21.525 27.2298ZM8.33464 7.33268C7.78235 7.33268 7.33464 7.7804 7.33464 8.33268C7.33464 8.88497 7.78235 9.33268 8.33464 9.33268H19.0013C19.5536 9.33268 20.0013 8.88497 20.0013 8.33268C20.0013 7.7804 19.5536 7.33268 19.0013 7.33268H8.33464ZM7.33464 13.666C7.33464 13.1137 7.78235 12.666 8.33464 12.666H16.3346C16.8869 12.666 17.3346 13.1137 17.3346 13.666C17.3346 14.2183 16.8869 14.666 16.3346 14.666H8.33464C7.78235 14.666 7.33464 14.2183 7.33464 13.666ZM8.33464 17.9993C7.78235 17.9993 7.33464 18.4471 7.33464 18.9993C7.33464 19.5516 7.78235 19.9993 8.33464 19.9993H11.0013C11.5536 19.9993 12.0013 19.5516 12.0013 18.9993C12.0013 18.4471 11.5536 17.9993 11.0013 17.9993H8.33464Z" fill="white"/>
</svg>
