<svg width="31" height="30" viewBox="0 0 31 30" fill="none" xmlns="http://www.w3.org/2000/svg">
<path fill-rule="evenodd" clip-rule="evenodd" d="M9.36807 2.41608C10.4993 2.41608 10.886 2.42587 11.2142 2.53906C11.5295 2.6478 11.8166 2.82528 12.0549 3.05864C12.3028 3.30141 12.4865 3.6468 12.9971 4.66816L13.0552 4.78435C13.4845 5.64392 13.7809 6.23716 14.2315 6.67848C14.6286 7.06742 15.1072 7.36322 15.6326 7.54446C16.2289 7.75011 16.8871 7.74984 17.8398 7.74945L17.9679 7.74942H20.868C21.7204 7.74942 22.3147 7.75 22.7773 7.7878C23.2312 7.82488 23.4919 7.89401 23.6894 7.99465C24.1128 8.21037 24.457 8.55457 24.6727 8.97794C24.7734 9.17546 24.8425 9.43622 24.8796 9.8901C24.9141 10.3125 24.9176 10.8447 24.9179 11.5831H13.7342H13.7051H13.7051C13.0075 11.5831 12.442 11.5831 11.9792 11.6181C11.5006 11.6543 11.0777 11.7307 10.6744 11.9116C10.0289 12.2012 9.47851 12.6674 9.08675 13.2566C8.84201 13.6246 8.6971 14.0292 8.58272 14.4953C8.47212 14.9461 8.37916 15.5038 8.26447 16.192L8.25969 16.2207L6.36601 27.5827C5.56776 27.5826 5.00261 27.5806 4.55865 27.5444C4.10477 27.5073 3.84401 27.4382 3.64649 27.3375C3.22313 27.1218 2.87892 26.7776 2.6632 26.3542C2.56256 26.1567 2.49343 25.8959 2.45635 25.4421C2.41855 24.9794 2.41797 24.3852 2.41797 23.5327V6.46608C2.41797 5.61363 2.41855 5.01939 2.45635 4.55676C2.49343 4.10289 2.56256 3.84212 2.6632 3.64461C2.87892 3.22124 3.22313 2.87703 3.64649 2.66132C3.84401 2.56068 4.10477 2.49155 4.55865 2.45447C5.02128 2.41667 5.61551 2.41608 6.46797 2.41608H9.36807ZM19.0237 27.5831C19.0163 27.5829 19.0088 27.5827 19.0013 27.5827H7.8867L9.73928 16.4673C9.85988 15.7437 9.944 15.242 10.0395 14.8528C10.1328 14.4728 10.225 14.2538 10.3358 14.0872C10.5708 13.7337 10.9011 13.4539 11.2884 13.2802C11.471 13.1983 11.7022 13.1433 12.0923 13.1138C12.4919 13.0836 13.0006 13.0831 13.7342 13.0831L25.668 13.0831L25.8905 13.0831C26.5537 13.0831 27.0029 13.0837 27.3456 13.1134C27.6814 13.1425 27.8345 13.1946 27.929 13.2488C28.1825 13.3942 28.3771 13.6239 28.4788 13.8978C28.5168 14 28.543 14.1595 28.5165 14.4955C28.4894 14.8385 28.4162 15.2817 28.3072 15.9359L26.93 24.1989C26.8094 24.9225 26.7253 25.4242 26.6298 25.8134C26.5365 26.1934 26.4443 26.4124 26.3335 26.579C26.0984 26.9325 25.7682 27.2122 25.3809 27.386C25.1983 27.4679 24.9671 27.5229 24.5769 27.5524C24.1774 27.5826 23.6687 27.5831 22.9351 27.5831H19.0237ZM6.9791 29.0827H6.46797H6.43584C5.62301 29.0828 4.96741 29.0828 4.4365 29.0394C3.88986 28.9947 3.40972 28.9004 2.9655 28.674C2.2599 28.3145 1.68622 27.7408 1.32669 27.0352C1.10035 26.591 1.00599 26.1109 0.961333 25.5642C0.917956 25.0333 0.917962 24.3777 0.917969 23.5649L0.917969 23.5327V6.46608L0.917969 6.43397C0.917962 5.62114 0.917956 4.96552 0.961333 4.43461C1.00599 3.88798 1.10035 3.40784 1.32669 2.96362C1.68622 2.25801 2.2599 1.68433 2.9655 1.32481C3.40972 1.09847 3.88986 1.00411 4.4365 0.959447C4.96741 0.91607 5.62302 0.916076 6.43586 0.916084L6.46797 0.916084H9.36807L9.49614 0.916049C10.4489 0.915658 11.1071 0.915387 11.7033 1.12104C12.2288 1.30229 12.7074 1.59808 13.1045 1.98702C13.5551 2.42834 13.8514 3.02158 14.2807 3.88115L14.3388 3.99734C14.8495 5.0187 15.0332 5.36409 15.281 5.60686C15.5193 5.84022 15.8065 6.0177 16.1217 6.12644C16.4499 6.23963 16.8366 6.24942 17.9679 6.24942H20.868H20.9001C21.7129 6.24941 22.3685 6.2494 22.8994 6.29278C23.4461 6.33744 23.9262 6.4318 24.3704 6.65814C25.076 7.01767 25.6497 7.59134 26.0092 8.29695C26.2356 8.74117 26.3299 9.22131 26.3746 9.76795C26.4147 10.2583 26.4177 10.8551 26.418 11.5838C26.824 11.5858 27.1754 11.5931 27.4751 11.619C27.9047 11.6562 28.3076 11.7367 28.6753 11.9476C29.2331 12.2676 29.6611 12.7728 29.885 13.3756C30.0326 13.773 30.0457 14.1837 30.0118 14.6135C29.979 15.029 29.8944 15.5365 29.7922 16.1496L29.7922 16.1497L29.7868 16.1825L28.4096 24.4455L28.4048 24.4743L28.4048 24.4744C28.2901 25.1624 28.1971 25.7202 28.0866 26.1708C27.9722 26.637 27.8273 27.0416 27.5825 27.4096C27.1908 27.9987 26.6403 28.465 25.9948 28.7546C25.5916 28.9355 25.1687 29.0119 24.6901 29.0481C24.2273 29.0831 23.6618 29.0831 22.9642 29.0831H22.9351H7.0013C6.99389 29.0831 6.98649 29.083 6.9791 29.0827Z" fill="white"/>
</svg>
