<svg width="48" height="48" viewBox="0 0 48 48" fill="none" xmlns="http://www.w3.org/2000/svg">
<path fill-rule="evenodd" clip-rule="evenodd" d="M43.3795 30.7886V15.6219C43.3795 13.6496 42.3533 11.825 40.6827 10.8258C37.0972 8.6817 30.7629 4.89356 26.8836 2.57341C24.8347 1.3487 22.2898 1.37624 20.2677 2.64536C16.8342 4.80027 11.4774 8.16226 8.01954 10.3329C5.9341 11.6417 4.66406 13.9567 4.66406 16.4503V31.979C4.66406 34.4525 5.9536 36.7399 8.05123 37.988L20.815 45.5819C22.5116 46.5917 24.6068 46.6137 26.3241 45.6402C30.0513 43.5267 36.6526 39.7851 40.4554 37.6291C42.2593 36.6056 43.377 34.6691 43.377 32.5675V30.7885L43.3795 30.7886Z" fill="#FF4088"/>
<path fill-rule="evenodd" clip-rule="evenodd" d="M23.6521 0H23.6858L23.7159 0.000372168H23.8883L23.9184 0.00161276H23.9221L23.9522 0.00285335H23.9555L23.9859 0.00409394H23.9884L24.0188 0.00533453H24.0225L24.0517 0.00657512H24.0554L24.0846 0.0078157H24.0871L24.1176 0.0090563H24.1212L24.1517 0.0115375H24.1553L24.1846 0.0140186H24.187L24.2163 0.0164998H24.2199L24.2504 0.018981H24.2528L24.2821 0.0214622H24.2858L24.3162 0.0239434H24.3199L24.3504 0.0264245H24.354L24.3845 0.0289057H24.3881L24.4174 0.0313869H24.421L24.4503 0.0338681H24.454L24.4844 0.0363493H24.4881L24.5186 0.040071H24.5222L24.5527 0.0437928H24.5551L24.5844 0.0475146H24.588L24.6173 0.0512363H24.6209L24.6514 0.0549581H24.6551L24.6855 0.0586799H24.688L24.7172 0.0624016H24.7209L24.7514 0.0661234H24.755L24.7843 0.0710857L24.7879 0.0723263L24.8184 0.0772887H24.822L24.8513 0.082251H24.8537L24.8842 0.0872134H24.8879L24.9171 0.0921758H24.9208L24.95 0.0971381H24.9525L24.9829 0.1021H24.9866L25.0158 0.107063L25.0195 0.108303L25.0488 0.113266L25.0524 0.114506L25.0817 0.120709H25.0853L25.1146 0.125672H25.1182L25.1475 0.131875H25.1511L25.1816 0.138078H25.184L25.2133 0.14428H25.217L25.2462 0.150483H25.2486L25.2791 0.156686L25.2828 0.157927L25.3132 0.16413H25.3157L25.3449 0.171573L25.3486 0.172814L25.3778 0.180258H25.3815L25.412 0.187701L25.4144 0.188942L25.4437 0.195145L25.4473 0.196385L25.4766 0.202588L25.479 0.203829L25.5083 0.211272H25.5119L25.5412 0.218716L25.5448 0.219956L25.5741 0.2274L25.5765 0.228641L25.607 0.236084L25.6094 0.237325L25.6387 0.244768L25.6423 0.246009L25.6716 0.253452H25.674L25.7033 0.262136H25.7069L25.7374 0.26958L25.7411 0.270821L25.7703 0.278264H25.774L25.8032 0.286948L25.8069 0.288189L25.8361 0.296873L25.8398 0.298114L25.869 0.306798L25.8727 0.308038L25.9019 0.316722L25.9044 0.317963L25.9336 0.326647L25.9373 0.327888L25.9665 0.336572L25.9702 0.337812L25.9994 0.346496L26.0031 0.347737L26.0324 0.357662L26.0348 0.358902L26.064 0.368827H26.0677L26.097 0.378752H26.1006L26.1299 0.388676L26.1335 0.389917L26.1628 0.399842L26.1664 0.401082L26.1957 0.411007L26.1981 0.412248L26.2274 0.422172L26.231 0.423413L26.2603 0.433338L26.2627 0.434578L26.292 0.444503L26.2944 0.445744L26.3224 0.455668L26.3261 0.456909L26.3541 0.466834L26.3578 0.468074L26.3858 0.47924L26.3895 0.48048L26.4187 0.491645L26.4224 0.492886L26.4504 0.504051L26.4529 0.505292L26.4821 0.515217L26.4845 0.516457L26.5138 0.527622L26.5175 0.528863L26.5467 0.540028L26.5504 0.541269L26.5784 0.552434L26.5821 0.553675L26.6101 0.566081L26.6125 0.567321L26.6418 0.578487L26.6454 0.579727L26.6735 0.592133L26.6771 0.593374L26.7064 0.60578L26.71 0.60702L26.7393 0.619426L26.7417 0.620667L26.771 0.633073L26.7734 0.634313L26.8015 0.646719L26.8039 0.64796L26.8319 0.660366L26.8344 0.661606L26.8636 0.674012L26.866 0.675253L26.8941 0.687658L26.8977 0.688899L26.9258 0.701305L26.9294 0.702546L26.9575 0.714951L26.9599 0.716192L26.9879 0.729839L26.9916 0.731079L27.0196 0.744726L27.0233 0.745966L27.0513 0.759613L27.0537 0.760853L27.0818 0.7745L27.0842 0.77574L27.1123 0.789387L27.1159 0.790627L27.1439 0.804274L27.1476 0.805515L27.1756 0.819161L27.1793 0.820402L27.2073 0.834048L27.2098 0.835289L27.2378 0.850176L27.2402 0.852657L27.2683 0.866303L27.2707 0.867544L27.2975 0.882431L27.3012 0.883672L27.3292 0.897318L27.3316 0.898559L27.3597 0.913446L27.3633 0.914686L27.3902 0.929573L27.3938 0.932055L27.4218 0.946942L27.4255 0.948182L27.4535 0.963069L27.456 0.96431L27.4828 0.979197L27.4864 0.981678L27.5145 0.996565L27.5169 0.999046L27.5437 1.01517L27.5462 1.01766L27.573 1.03378L27.5766 1.03502L27.6034 1.05115L27.6059 1.05239L27.6327 1.06852L27.6351 1.071L27.662 1.08713L27.6656 1.08961L27.6912 1.10574H27.6936L41.5031 9.36434L41.5263 9.37799L41.5287 9.38047L41.5519 9.39411L41.5555 9.39535L41.5775 9.41024L41.5799 9.41272L41.6019 9.42637L41.6043 9.42885L41.6262 9.4425L41.6287 9.44374L41.6506 9.45738L41.6531 9.45862L41.675 9.47227L41.6774 9.47351L41.6994 9.48716L41.703 9.4884L41.725 9.50328L41.7274 9.50453L41.7493 9.51941L41.753 9.52065L41.7749 9.5343L41.7774 9.53554L41.7993 9.55043L41.8018 9.55291L41.8237 9.56779L41.8261 9.57028L41.8469 9.58392L41.8505 9.58516L41.8724 9.60005L41.8749 9.60129L41.8968 9.61618L41.8993 9.61742L41.92 9.63231L41.9224 9.63355L41.9431 9.64843L41.9456 9.64967L41.9663 9.66456L41.9687 9.66704L41.9895 9.68193L41.9919 9.68317L42.0126 9.6993L42.0163 9.70178L42.037 9.71667L42.0394 9.71791L42.0602 9.73279L42.0626 9.73403L42.0833 9.74892L42.0857 9.7514L42.1065 9.76629L42.1089 9.76753L42.1296 9.78242L42.1321 9.7849L42.1528 9.79978L42.1552 9.80227L42.1759 9.81839L42.1796 9.82087L42.1991 9.837L42.2028 9.83948L42.2235 9.85561L42.2271 9.85685L42.2478 9.87298L42.2503 9.87546L42.271 9.89159L42.2734 9.89407L42.2929 9.9102L42.2966 9.91268L42.3173 9.93005L42.321 9.93377L42.36 9.96602L42.3649 9.96975L42.4039 10.0032L42.4087 10.007L42.449 10.0405L42.4538 10.0442L42.4941 10.0777L42.4989 10.0814L42.5379 10.1149L42.5428 10.1199L42.5818 10.1534L42.5867 10.1571L42.6245 10.1918L42.6293 10.1955L42.6671 10.2303L42.672 10.234L42.7098 10.27L42.7147 10.2737L42.7512 10.3084L42.7561 10.3121L42.7939 10.3481L42.7988 10.3531L42.8353 10.3891L42.8402 10.394L42.8768 10.43L42.8816 10.435L42.917 10.4709L42.9219 10.4759L42.9572 10.5131L42.9621 10.5181L42.9974 10.5553L43.0011 10.5603L43.0364 10.5975L43.0413 10.6024L43.0754 10.6397L43.0803 10.6446L43.1144 10.6818L43.1193 10.6868L43.1535 10.724L43.1583 10.729L43.1925 10.7674L43.1973 10.7724L43.2302 10.8121L43.2339 10.8171L43.268 10.8555L43.2729 10.8605L43.3058 10.9002L43.3107 10.9052L43.3436 10.9448L43.3472 10.9498L43.3802 10.9895L43.385 10.9945L43.4167 11.0342L43.4204 11.0391L43.4521 11.0788L43.4569 11.0838L43.4886 11.1247L43.4923 11.1297L43.5228 11.1706L43.5264 11.1756L43.5569 11.2165L43.5605 11.2215L43.591 11.2624L43.5947 11.2686L43.6251 11.3108L43.6288 11.3158L43.6593 11.3567L43.6629 11.3629L43.6922 11.4051L43.6958 11.4101L43.7251 11.4522L43.7287 11.4572L43.758 11.4994L43.7617 11.5056L43.7897 11.5478L43.7933 11.554L43.8214 11.5974L43.825 11.6036L43.8518 11.6458L43.8555 11.6507L43.8823 11.6929L43.886 11.6979L43.914 11.7413L43.9177 11.7463L43.9445 11.7897L43.9481 11.7959L43.9737 11.8393L43.9774 11.8455L44.0042 11.8889L44.0079 11.8951L44.0335 11.9386L44.0371 11.9448L44.0627 11.9894L44.0664 11.9944L44.0907 12.039L44.0944 12.0453L44.1188 12.0899L44.1224 12.0961L44.1468 12.1408L44.1505 12.147L44.1748 12.1916L44.1773 12.1978L44.2017 12.2437L44.2041 12.2499L44.2273 12.2958L44.2297 12.3021L44.2528 12.348L44.2565 12.3529L44.2784 12.4001L44.2809 12.4063L44.304 12.4522L44.3065 12.4584L44.3284 12.5043L44.3321 12.5105L44.3528 12.5576L44.3552 12.5638L44.3759 12.611L44.3784 12.6172L44.3991 12.6643L44.4015 12.6705L44.4223 12.7177L44.4247 12.7239L44.4442 12.771L44.4466 12.7772L44.4661 12.8243L44.4686 12.8305L44.4869 12.8789L44.4893 12.8851L44.5076 12.9323L44.51 12.9385L44.5283 12.9869L44.5307 12.9931L44.549 13.0414L44.5515 13.0476L44.5697 13.096L44.5722 13.1022L44.5892 13.1506L44.5917 13.1568L44.6075 13.2052L44.61 13.2114L44.6258 13.2598L44.6283 13.266L44.6441 13.3144L44.6465 13.3206L44.6624 13.3702L44.6636 13.3764L44.6782 13.4248L44.6807 13.431L44.6953 13.4806L44.6965 13.4868L44.7111 13.5364L44.7136 13.5426L44.7282 13.5923L44.7306 13.5985L44.744 13.6481L44.7465 13.6543L44.7599 13.7039L44.7611 13.7101L44.7733 13.7597L44.7757 13.7672L44.7891 13.8181L44.7904 13.8243L44.8025 13.8751L44.805 13.8813L44.816 13.9322L44.8184 13.9384L44.8306 13.9893L44.8318 13.9967L44.8428 14.0476L44.844 14.0538L44.855 14.1046L44.8562 14.1108L44.8659 14.1617L44.8671 14.1679L44.8769 14.2188L44.8781 14.225L44.8879 14.2758L44.8891 14.282L44.8976 14.3341L44.8988 14.3403L44.9074 14.3912L44.9086 14.3986L44.9171 14.4508L44.9183 14.4582L44.9256 14.5103L44.9269 14.5177L44.9342 14.5686V14.5736L44.9378 14.6009V14.6033L44.9403 14.6294V14.6331L44.9439 14.6592V14.6617L44.9476 14.6877V14.6914L44.9512 14.7175L44.9525 14.7212L44.9561 14.7473V14.751L44.9586 14.777L44.9598 14.7795L44.9622 14.8056L44.9634 14.8093L44.9659 14.8353V14.8391L44.9683 14.8651L44.9695 14.8688L44.972 14.8949L44.9732 14.8986L44.9756 14.9247V14.9284L44.9781 14.9544V14.9582L44.9805 14.9842V14.9879L44.9829 15.014V15.0177L44.9854 15.0438V15.0475L44.9866 15.0735V15.0773L44.9878 15.1045V15.1083L44.9902 15.1356V15.138L44.9915 15.1641V15.1678L44.9927 15.1939V15.1976L44.9939 15.2236V15.2274L44.9951 15.2534V15.2571L44.9963 15.2844V15.2881L44.9976 15.3142V15.3179L44.9988 15.344V15.3465L45 15.3725V32.6911L44.9988 32.7197V32.7556L44.9976 32.7842V32.7879L44.9963 32.8152V32.8177L44.9951 32.8462V32.8499L44.9939 32.8772V32.8797L44.9927 32.907V32.9107L44.9915 32.938L44.9902 32.9417L44.989 32.969V32.9727L44.9878 33V33.0025L44.9866 33.0311V33.0348L44.9842 33.0633V33.0658L44.9817 33.0943V33.098L44.9793 33.1253V33.1291L44.9781 33.1564V33.1601L44.9756 33.1874V33.1911L44.9732 33.2184V33.2221L44.9707 33.2494V33.2531L44.9683 33.2804L44.9671 33.2829L44.9647 33.3114L44.9634 33.3151L44.961 33.3424V33.3462L44.9586 33.3735L44.9573 33.3772L44.9537 33.4045V33.4082L44.95 33.4355V33.438L44.9464 33.4653V33.469L44.9427 33.4963L44.9415 33.5L44.9378 33.5285L44.9366 33.5323L44.933 33.5595L44.9317 33.5633L44.9281 33.5906V33.5943L44.9244 33.6216V33.6253L44.9208 33.6526L44.9196 33.6563L44.9159 33.6836L44.9147 33.6873L44.9098 33.7146V33.7171L44.9061 33.7444V33.7469L44.9013 33.7742L44.9001 33.7779L44.8964 33.8052L44.8952 33.8089L44.8915 33.8362V33.8387L44.8866 33.866V33.8685L44.8818 33.8957V33.8982L44.8769 33.9255V33.9292L44.872 33.9553L44.8708 33.959L44.8659 33.9851L44.8647 33.9888L44.8598 34.0161L44.8586 34.0198L44.8525 34.0471V34.0496L44.8464 34.0769V34.0793L44.8415 34.1054V34.1091L44.8355 34.1364V34.1389L44.8306 34.1662L44.8294 34.1687L44.8233 34.1947V34.1972L44.8172 34.2233V34.227L44.8111 34.253L44.8099 34.2568L44.8038 34.2828L44.8025 34.2865L44.7965 34.3126L44.7952 34.3151L44.7891 34.3411L44.7879 34.3436L44.7818 34.3697L44.7806 34.3734L44.7733 34.3994L44.7721 34.4031L44.766 34.4292L44.7648 34.4329L44.7574 34.459V34.4627L44.7501 34.49L44.7489 34.4937L44.7416 34.5198V34.5235L44.7343 34.5495L44.7331 34.5533L44.7258 34.5793L44.7245 34.583L44.7172 34.6103L44.716 34.6128L44.7087 34.6389L44.7075 34.6413L44.7002 34.6674L44.6989 34.6711L44.6904 34.6972L44.6892 34.7009L44.6819 34.7269L44.6807 34.7294L44.6733 34.7555L44.6721 34.7592L44.6648 34.7852L44.6636 34.7877L44.6551 34.8138L44.6538 34.8175L44.6453 34.8436L44.6441 34.8473L44.6356 34.8733L44.6343 34.877L44.6258 34.9031L44.6246 34.9068L44.6161 34.9329L44.6148 34.9354L44.6063 34.9614L44.6051 34.9651L44.5966 34.9912L44.5953 34.9949L44.5868 35.021L44.5856 35.0234L44.5771 35.0495L44.5758 35.0532L44.5673 35.0793L44.5661 35.083L44.5563 35.1078L44.5551 35.1115L44.5466 35.1363L44.5454 35.1401L44.5368 35.1649L44.5356 35.1686L44.5271 35.1946L44.5259 35.1984L44.5161 35.2244L44.5149 35.2281L44.5051 35.2529L44.5039 35.2567L44.4942 35.2815L44.493 35.2852L44.4832 35.31L44.482 35.3137L44.4722 35.3385L44.471 35.3423L44.4613 35.3671L44.4601 35.3708L44.4503 35.3956L44.4491 35.3981L44.4381 35.4229L44.4369 35.4266L44.4259 35.4527L44.4247 35.4564L44.415 35.4812L44.4137 35.4849L44.4028 35.5098L44.4015 35.5135L44.3906 35.5383L44.3894 35.542L44.3784 35.5668L44.3772 35.5693L44.3662 35.5941L44.365 35.5978L44.354 35.6226L44.3528 35.6251L44.3418 35.6499L44.3406 35.6524L44.3296 35.6772L44.3284 35.6797L44.3174 35.7045L44.3162 35.707L44.304 35.7318L44.3028 35.7343L44.2906 35.7579L44.2894 35.7616L44.2784 35.7864L44.2772 35.7889L44.265 35.8125L44.2638 35.8162L44.2528 35.841L44.2516 35.8435L44.2394 35.8683L44.2382 35.872L44.226 35.8968L44.2248 35.8993L44.2126 35.9229L44.2114 35.9253L44.1992 35.9502L44.198 35.9539L44.1858 35.9787L44.1846 35.9824L44.1724 36.0072L44.17 36.0109L44.1578 36.0345L44.1566 36.037L44.1444 36.0618L44.1432 36.0655L44.131 36.0903L44.1297 36.0941L44.1163 36.1176L44.1139 36.1201L44.1005 36.1437L44.0993 36.1462L44.0859 36.1697L44.0846 36.1722L44.0712 36.1958L44.07 36.1983L44.0566 36.2218L44.0554 36.2243L44.042 36.2479L44.0408 36.2516L44.0274 36.2752L44.0261 36.2777L44.0127 36.3012L44.0115 36.305L43.9981 36.3285L43.9957 36.331L43.9823 36.3546L43.9798 36.3571L43.9664 36.3806L43.9652 36.3831L43.9518 36.4067L43.9506 36.4104L43.9359 36.434L43.9347 36.4365L43.9213 36.4588L43.9201 36.4625L43.9067 36.4849L43.9043 36.4873L43.8896 36.5109L43.8884 36.5146L43.8738 36.537L43.8713 36.5394L43.8567 36.5618L43.8555 36.5643L43.8409 36.5878L43.8384 36.5915L43.8238 36.6139L43.8214 36.6164L43.8068 36.6387L43.8055 36.6412L43.7909 36.6647L43.7897 36.6672L43.7751 36.6895L43.7726 36.692L43.7568 36.7144L43.7556 36.7168L43.7409 36.7392L43.7397 36.7417L43.7239 36.764L43.7226 36.7665L43.708 36.7888L43.7056 36.7913L43.691 36.8136L43.6885 36.8161L43.6727 36.8384L43.6702 36.8409L43.6556 36.8632L43.6544 36.8657L43.6385 36.888L43.6361 36.8918L43.6215 36.9141L43.619 36.9166L43.6032 36.9389L43.6008 36.9414L43.5849 36.9637L43.5825 36.9662L43.5666 36.9885L43.5642 36.991L43.5484 37.0133L43.5471 37.0158L43.5313 37.0369L43.5289 37.0394L43.513 37.0605L43.5118 37.063L43.4947 37.0841L43.4923 37.0865L43.4764 37.1076L43.4752 37.1101L43.4594 37.1324L43.4569 37.1349L43.4399 37.1573L43.4374 37.1597L43.4204 37.1808L43.4179 37.1833L43.4009 37.2044L43.3997 37.2069L43.3826 37.228L43.3802 37.2304L43.3631 37.2515L43.3607 37.254L43.3436 37.2751L43.3412 37.2776L43.3241 37.2987L43.3217 37.3012L43.3046 37.3223L43.3034 37.3247L43.2863 37.3458L43.2839 37.3483L43.2656 37.3694L43.2631 37.3719L43.2461 37.393L43.2436 37.3954L43.2266 37.4165L43.2241 37.419L43.2071 37.4401L43.2046 37.4426L43.1876 37.4637L43.1851 37.4662L43.1681 37.486L43.1656 37.4885L43.1474 37.5096L43.1449 37.5121L43.1279 37.5331L43.1254 37.5356L43.1071 37.5567L43.1047 37.5592L43.0876 37.5803L43.0852 37.5828L43.0669 37.6026L43.0645 37.6051L43.0462 37.625L43.0438 37.6274L43.0255 37.6473L43.023 37.6498L43.0048 37.6696L43.0023 37.6721L42.984 37.6919L42.9816 37.6944L42.9633 37.7143L42.9609 37.7168L42.9426 37.7366L42.9402 37.7391L42.9219 37.7589L42.9194 37.7614L42.8999 37.7813L42.8975 37.7837L42.8792 37.8036L42.8768 37.8061L42.8585 37.8247L42.8561 37.8272L42.8366 37.847L42.8329 37.8495L42.8134 37.8694L42.811 37.8718L42.7915 37.8904L42.789 37.8929L42.7695 37.9128L42.7671 37.9153L42.7476 37.9339L42.7451 37.9363L42.7256 37.955L42.7232 37.9574L42.7037 37.976L42.7013 37.9785L42.6818 37.9971L42.6793 37.9996L42.6598 38.0182L42.6574 38.0207L42.6379 38.0393L42.6354 38.0418L42.6147 38.0604L42.6123 38.0616L42.5928 38.0802L42.5903 38.0827L42.5696 38.1013L42.5672 38.1038L42.5465 38.1224L42.544 38.1237L42.5233 38.1423L42.5209 38.1448L42.5002 38.1621L42.4965 38.1646L42.4758 38.182L42.4733 38.1845L42.4526 38.2031L42.4502 38.2056L42.4295 38.2242L42.427 38.2266L42.4063 38.2453L42.4039 38.2477L42.3831 38.2651L42.3807 38.2676L42.3588 38.2849L42.3563 38.2862L42.3356 38.3036L42.3332 38.306L42.3124 38.3234L42.3088 38.3259L42.2881 38.3433L42.2856 38.3457L42.2649 38.3631L42.2625 38.3656L42.2418 38.383L42.2393 38.3854L42.2174 38.4028L42.2149 38.4053L42.1942 38.4214L42.1918 38.4239L42.1698 38.4413L42.1674 38.4437L42.1455 38.4611L42.143 38.4636L42.1211 38.481L42.1187 38.4834L42.0967 38.5008L42.0943 38.5021L42.0723 38.5182L42.0699 38.5194L42.048 38.5355L42.0455 38.5368L42.0236 38.5529L42.0199 38.5542L41.998 38.5703L41.9955 38.5728L41.9736 38.5889L41.9712 38.5914L41.9492 38.6075L41.9468 38.61L41.9249 38.6261L41.9212 38.6286L41.8993 38.6447L41.8968 38.646L41.8737 38.6621L41.87 38.6633L41.8469 38.6795L41.8444 38.6819L41.8213 38.6981L41.8188 38.7005L41.7957 38.7154L41.7932 38.7179L41.7701 38.734L41.7676 38.7365L41.7457 38.7527L41.742 38.7551L41.7189 38.77L41.7164 38.7713L41.6933 38.7861L41.6896 38.7874L41.6665 38.8023L41.664 38.8048L41.6409 38.8196L41.6384 38.8221L41.6153 38.837L41.6128 38.8383L41.5897 38.8531L41.586 38.8544L41.5629 38.8693L41.5604 38.8717L41.5373 38.8866L41.5336 38.8879L41.5105 38.9028L41.5068 38.9052L41.4836 38.9201L41.48 38.9226L41.4556 38.9375L41.4532 38.94L41.43 38.9536L41.4263 38.9549L41.4032 38.9685L41.4008 38.971L41.3764 38.9859L41.3727 38.9884L41.3483 39.002L41.3459 39.0045L41.3227 39.0181L41.3191 39.0194L41.2947 39.033L41.2911 39.0343L41.2667 39.0479L41.2642 39.0492L41.2411 39.0628L41.2399 39.064L27.1098 47.0782H27.1086L27.0867 47.0919L27.083 47.0931L27.0598 47.1068L27.0562 47.1093L27.033 47.1217L27.0294 47.1229L27.0062 47.1353L27.0038 47.1366L26.9806 47.149L26.977 47.1502L26.9538 47.1626L26.9501 47.1638L26.927 47.1763L26.9233 47.1775L26.9002 47.1899L26.8977 47.1911L26.8746 47.2035L26.8721 47.2048L26.849 47.216L26.8465 47.2172L26.8222 47.2296L26.8197 47.2321L26.7966 47.2445L26.7941 47.2457L26.771 47.2569L26.7685 47.2581L26.7454 47.2693L26.7429 47.2705L26.7198 47.2829L26.7174 47.2842L26.693 47.2953L26.6905 47.2966L26.6674 47.3078L26.6649 47.309L26.6406 47.3202L26.6381 47.3214L26.615 47.3326L26.6125 47.3338L26.5894 47.345L26.5857 47.3475L26.5613 47.3586L26.5589 47.3599L26.5345 47.3698L26.5321 47.371L26.5077 47.3822L26.5053 47.3847L26.4809 47.3958L26.4772 47.3971L26.4541 47.407L26.4516 47.4082L26.4273 47.4194L26.4248 47.4206L26.4005 47.4306L26.398 47.4318L26.3736 47.4417L26.3712 47.443L26.3468 47.4529L26.3432 47.4541L26.3188 47.4641L26.3151 47.4653L26.2908 47.4752L26.2871 47.4765L26.2639 47.4864L26.2615 47.4876L26.2371 47.4963L26.2347 47.4976L26.2103 47.5075L26.2067 47.5087L26.1823 47.5187L26.1786 47.5199L26.1542 47.5298L26.1506 47.5311L26.1262 47.5397L26.1226 47.541L26.0982 47.5509L26.0945 47.5521L26.0701 47.5608L26.0677 47.5621L26.0433 47.5708L26.0397 47.572L26.0153 47.5807L26.0116 47.5819L25.9873 47.5906L25.9836 47.5918L25.9592 47.6005L25.9568 47.6018L25.9324 47.6105L25.908 47.6191L25.9044 47.6204L25.8788 47.6278L25.8751 47.6291L25.8508 47.6365L25.8483 47.6378L25.8239 47.6464L25.8215 47.6477L25.7959 47.6551L25.7922 47.6564L25.7679 47.6638L25.7642 47.665L25.7398 47.6725L25.7362 47.6737L25.7106 47.6824L25.7057 47.6837L25.657 47.6985L25.6509 47.701L25.6009 47.7159L25.5948 47.7172L25.5448 47.732L25.5387 47.7333L25.4888 47.7469L25.4827 47.7494L25.4327 47.7631L25.4266 47.7643L25.3766 47.7779L25.3693 47.7792L25.3193 47.7916L25.3132 47.7928L25.2633 47.8052L25.256 47.8065L25.206 47.8189L25.1999 47.8201L25.1499 47.8313L25.1438 47.8325L25.0926 47.8437L25.0853 47.8449L25.0341 47.8561L25.028 47.8573L24.9768 47.8673L24.9707 47.8685L24.9208 47.8772L24.9147 47.8784L24.8647 47.8883L24.8586 47.8896L24.8074 47.8983L24.8013 47.8995L24.7501 47.9082L24.744 47.9094L24.6929 47.9169L24.6868 47.9181L24.6356 47.9256L24.6295 47.9268L24.5783 47.9343L24.5722 47.9355L24.521 47.9429L24.5137 47.9442L24.4625 47.9504L24.4564 47.9516L24.4052 47.9578L24.3991 47.9591L24.3479 47.9653L24.2967 47.9702H24.2906L24.2394 47.974L24.2333 47.9752L24.1822 47.9789H24.1761L24.1249 47.9826H24.1188L24.0676 47.9864L24.0603 47.9876L24.0091 47.9913H24.003L23.9518 47.9938H23.9457L23.8945 47.9963H23.8872L23.836 47.9975H23.8299L23.7787 47.9988H23.7726L23.7214 48H23.541L23.4899 47.9988L23.4387 47.9975H23.4313L23.3802 47.9963H23.3791L23.3279 47.9938L23.3218 47.9926L23.2706 47.9901H23.2645L23.2133 47.9876L23.2072 47.9864L23.156 47.9839H23.1499L23.0987 47.9802L23.0926 47.9789L23.0414 47.974L23.0341 47.9727L22.9829 47.9677L22.9756 47.9665L22.9244 47.9615L22.9183 47.9603L22.8671 47.9553H22.8611L22.8099 47.9504L22.8038 47.9491L22.7526 47.9429H22.7453L22.6941 47.9367L22.6868 47.9355L22.6356 47.928L22.6295 47.9268L22.5783 47.9194L22.5722 47.9181L22.521 47.9107L22.5149 47.9094L22.4637 47.902L22.4576 47.9008L22.4076 47.8921H22.404L22.3528 47.8821L22.3462 47.8809L22.2962 47.871L22.2901 47.8697L22.2402 47.8598L22.2341 47.8586L22.1841 47.8486L22.1768 47.8474L22.1261 47.8375L22.12 47.8362L22.07 47.8251L22.0627 47.8226L22.0127 47.8114L22.0066 47.8102L21.9567 47.7978L21.9498 47.7953L21.8999 47.7829L21.8938 47.7804L21.8438 47.7668L21.8377 47.7655L21.7877 47.7519L21.7816 47.7494L21.7317 47.7358L21.7256 47.7333L21.6756 47.7196L21.6695 47.7172L21.6195 47.7023L21.6122 47.6998L21.5623 47.6849L21.5562 47.6824L21.5062 47.6675L21.5001 47.665L21.4501 47.6502L21.444 47.6489L21.3955 47.6328L21.3906 47.6315L21.365 47.6229H21.3618L21.3374 47.6154L21.3337 47.6142L21.3093 47.6055L21.3057 47.6043L21.2813 47.5956L21.2777 47.5943L21.2533 47.5856L21.2496 47.5844L21.2252 47.5757L21.2216 47.5745L21.1972 47.5658L21.1948 47.5646L21.1704 47.5559L21.168 47.5546L21.1436 47.5459L21.1411 47.5447L21.1168 47.5348L21.1131 47.5335L21.0887 47.5236L21.0851 47.5224L21.0607 47.5125L21.0583 47.5112L21.0339 47.5013L21.0302 47.5L21.0058 47.4901L21.0034 47.4889L20.979 47.479L20.9754 47.4777L20.951 47.4678L20.9486 47.4665L20.9242 47.4566L20.9217 47.4554L20.8974 47.4455L20.8937 47.4442L20.8693 47.4343L20.8657 47.4331L20.8413 47.4231L20.8377 47.4219L20.8133 47.412L20.8096 47.4107L20.7852 47.4008L20.7828 47.3996L20.7584 47.3884L20.7548 47.3871L20.7316 47.376L20.7292 47.3747L20.7048 47.3636L20.7024 47.3623L20.678 47.3512L20.6755 47.3499L20.6512 47.34L20.6475 47.3388L20.6244 47.3276L20.6207 47.3264L20.5963 47.3152L20.5927 47.314L20.5695 47.3028L20.5671 47.3003L20.5439 47.2891L20.5415 47.2879L20.5183 47.2767L20.5159 47.2755L20.4915 47.2643L20.4891 47.2619L20.4647 47.2495L20.4622 47.247L20.4391 47.2358L20.4354 47.2346L20.4111 47.2234L20.4086 47.2209L20.3855 47.2085L20.3818 47.2073L20.3574 47.1949L20.355 47.1936L20.3318 47.1812L20.3282 47.18L20.305 47.1676L20.3026 47.1663L20.2794 47.1539L20.2758 47.1514L20.2526 47.139L20.2502 47.1378L20.227 47.1254L20.2246 47.1241L20.2014 47.1117L20.1978 47.1093L20.1746 47.0969L20.1722 47.0956L20.149 47.082L20.1453 47.0795L20.1222 47.0671L20.1185 47.0658L20.0954 47.0534L20.0917 47.0522L20.0686 47.0398L20.0649 47.0385L20.0417 47.0249L20.0381 47.0237L20.0161 47.01L20.0125 47.0088L19.9906 46.9951L19.9893 46.9939L7.21586 39.4052L7.21464 39.404L7.18782 39.3878L7.18539 39.3866L7.15857 39.3705L7.15491 39.3692L7.12688 39.3531L7.12322 39.3519L7.09641 39.3345L7.09397 39.3332L7.06716 39.3159L7.06472 39.3134L7.03791 39.296L7.03547 39.2935L7.00865 39.2762L7.005 39.2749L6.97818 39.2588L6.97453 39.2563L6.94771 39.239L6.94527 39.2365L6.91846 39.2191H6.92467L6.89786 39.2017L6.8942 39.1993L6.86739 39.1819L6.86495 39.1794L6.83814 39.162L6.83472 39.1596L6.80791 39.141L6.80425 39.1385L6.77744 39.1199L6.775 39.1174L6.74819 39.1L6.74575 39.0975L6.71893 39.0789L6.7165 39.0764L6.68968 39.0578L6.68724 39.0554L6.66165 39.0367L6.65799 39.0343L6.63179 39.0157L6.62935 39.0132L6.60375 38.9946L6.60071 38.9921L6.57511 38.9735L6.57182 38.971L6.54622 38.9524L6.54379 38.9511L6.51819 38.9325L6.51575 38.9301L6.49052 38.9114L6.48809 38.909L6.46298 38.8904L6.45932 38.8891L6.43373 38.8705L6.43129 38.868L6.40569 38.8482L6.40325 38.8457L6.37766 38.8271L6.37449 38.8246L6.34889 38.8048L6.34572 38.8023L6.32135 38.7824L6.31891 38.7799L6.29453 38.7601L6.2921 38.7589L6.26772 38.739L6.26528 38.7365L6.2409 38.7167L6.23847 38.7142L6.21409 38.6943L6.21165 38.6919L6.18727 38.672L6.18484 38.6695L6.16046 38.6497L6.15802 38.6472L6.13365 38.6273L6.13121 38.6249L6.10683 38.6038L6.10439 38.6025L6.08002 38.5827L6.07758 38.5802L6.05393 38.5604L6.0515 38.5579L6.02712 38.5368L6.02468 38.5343L6.0003 38.5145L5.99787 38.512L5.97349 38.4909L5.97105 38.4896L5.94716 38.4698L5.94473 38.4673L5.92157 38.4475L5.91913 38.445L5.89597 38.4239L5.89353 38.4214L5.87038 38.4003L5.86794 38.3978L5.84478 38.3768L5.84234 38.3743L5.81918 38.3532L5.81675 38.3507L5.79359 38.3296L5.79115 38.3271L5.76799 38.3048L5.76556 38.3036L5.7424 38.2825L5.73874 38.28L5.71619 38.2577L5.71375 38.2552L5.6906 38.2341L5.68816 38.2316L5.66549 38.2093L5.66305 38.2068L5.64111 38.1845L5.63867 38.182L5.61673 38.1596L5.6143 38.1572L5.59114 38.1348L5.5887 38.1324L5.56554 38.11L5.56311 38.1088L5.54117 38.0865L5.53873 38.084L5.51679 38.0616L5.51435 38.0592L5.49241 38.0368L5.48997 38.0343L5.46804 38.012L5.4656 38.0095L5.44366 37.9872L5.44122 37.9847L5.41928 37.9624L5.41684 37.9599L5.39612 37.9376L5.39369 37.9351L5.37175 37.9128L5.36931 37.9103L5.34737 37.8867L5.34493 37.8842L5.32421 37.8607L5.32177 37.8582L5.30105 37.8346L5.29862 37.8321L5.27668 37.8086L5.27424 37.8061L5.25352 37.7825L5.25108 37.78L5.23036 37.7565L5.22792 37.754L5.2072 37.7304L5.20477 37.7279L5.18405 37.7044L5.18161 37.7019L5.16089 37.6783L5.15967 37.6758L5.14017 37.6522L5.13773 37.6498L5.11701 37.6262L5.11457 37.6237L5.09263 37.5989L5.09019 37.5964L5.06947 37.5728L5.06704 37.5704L5.04632 37.5456L5.04388 37.5431L5.02438 37.5195L5.02316 37.517L5.00366 37.4935L5.00122 37.491L4.98172 37.4662L4.97928 37.4637L4.95856 37.4389L4.95612 37.4364L4.93662 37.4128L4.93418 37.4103L4.91346 37.3868L4.91102 37.3843L4.89152 37.3607L4.88909 37.3582L4.86958 37.3334L4.86715 37.3309L4.84764 37.3061L4.84521 37.3036L4.82571 37.2788L4.82327 37.2763L4.80377 37.2515L4.80133 37.2491L4.78183 37.2242L4.78061 37.2218L4.76233 37.1969L4.75989 37.1945L4.74161 37.1697L4.74039 37.1672L4.7221 37.1424L4.71967 37.1399L4.70138 37.1138L4.69895 37.1114L4.68066 37.0865L4.67823 37.0841L4.65994 37.0592L4.65872 37.0568L4.64044 37.0307L4.63922 37.0282L4.62094 37.0022L4.61972 36.9997L4.60144 36.9749L4.60022 36.9724L4.58194 36.9476L4.5795 36.9451L4.56122 36.9191L4.55878 36.9166L4.5405 36.8905L4.53806 36.8868L4.52099 36.8608L4.51856 36.8583L4.50149 36.8322L4.49906 36.8297L4.48199 36.8037L4.47955 36.8012L4.46249 36.7752L4.46127 36.7727L4.44421 36.7466L4.44177 36.7429L4.42471 36.7168L4.42227 36.7144L4.4052 36.6883L4.40277 36.6858L4.3857 36.6598L4.38327 36.6573L4.3662 36.6312L4.36376 36.6288L4.34792 36.6027L4.3467 36.6002L4.33086 36.5742L4.32842 36.5705L4.31135 36.5444L4.30892 36.5407L4.29185 36.5146L4.29063 36.5121L4.27357 36.4849L4.27235 36.4811L4.25651 36.4551L4.25407 36.4526L4.23822 36.4265L4.23579 36.4241L4.21994 36.3968L4.2175 36.3931L4.20166 36.367L4.20044 36.3645L4.18459 36.3372L4.18337 36.3347L4.16753 36.3087L4.16509 36.305L4.14925 36.2777L4.14681 36.274L4.13096 36.2467L4.12853 36.2429L4.1139 36.2156L4.11146 36.2132L4.09562 36.1859L4.0944 36.1834L4.07977 36.1561L4.07855 36.1536L4.06393 36.1263L4.06271 36.1226L4.04808 36.0953L4.04565 36.0916L4.03102 36.0643L4.0298 36.0606L4.01517 36.032L4.01396 36.0296L3.99933 36.0023L3.99811 35.9985L3.98348 35.9712L3.98227 35.9675L3.96764 35.9402L3.96642 35.9365L3.95301 35.908L3.95179 35.9055L3.93717 35.877L3.93595 35.8732L3.92132 35.8447L3.91889 35.8422L3.90548 35.8137L3.90426 35.8112L3.89085 35.7839L3.88963 35.7802L3.87623 35.7517V35.7529L3.86282 35.7244L3.86038 35.7206L3.84697 35.6921L3.84576 35.6884L3.83235 35.6611L3.83113 35.6574L3.81772 35.6288L3.8165 35.6264L3.8031 35.5978L3.80188 35.5954L3.78969 35.5668L3.78847 35.5643L3.77506 35.5358L3.77384 35.5333L3.76044 35.5048L3.75922 35.5023L3.74581 35.4738L3.74459 35.4701L3.7324 35.4415L3.73118 35.439L3.71778 35.4105L3.71656 35.4068L3.70315 35.3782L3.70193 35.3758L3.68974 35.3472L3.68852 35.3448L3.67634 35.3162L3.67512 35.3125L3.66293 35.284L3.66171 35.2815L3.65074 35.2529L3.64952 35.2505L3.63733 35.2219L3.63611 35.2182L3.62514 35.1884L3.62393 35.186L3.61174 35.1574L3.61052 35.1537L3.59955 35.1264L3.59833 35.1227L3.58614 35.0929L3.58492 35.0904L3.57395 35.0607L3.57273 35.0569L3.56176 35.0272L3.56055 35.0247L3.54958 34.9949L3.54836 34.9912L3.53739 34.9614L3.53617 34.9589L3.5252 34.9292L3.52398 34.9267L3.51423 34.8969L3.51301 34.8932L3.50204 34.8634L3.50082 34.8609L3.49107 34.8312L3.48985 34.8274L3.4801 34.7977L3.47888 34.7939L3.46791 34.7642L3.4667 34.7604L3.45694 34.7307L3.45573 34.7282L3.44597 34.6984L3.44476 34.6959L3.43501 34.6661L3.43379 34.6624L3.42404 34.6327L3.42282 34.6289L3.41307 34.5992L3.41185 34.5954L3.4021 34.5657L3.40088 34.5619L3.39113 34.5322L3.39003 34.5286L3.3815 34.4988L3.38028 34.4963L3.37053 34.4653L3.36931 34.4616L3.36078 34.4306L3.35956 34.4268L3.35103 34.3971L3.34981 34.3933L3.34128 34.3636L3.34006 34.3598L3.33153 34.3288L3.33031 34.3251L3.32177 34.2941L3.32056 34.2916L3.31202 34.2606L3.31081 34.2594L3.30227 34.2283L3.30105 34.2259L3.29374 34.1961L3.29252 34.1936L3.28521 34.1638V34.1614L3.27668 34.1303V34.1266L3.26936 34.0968L3.26815 34.0931L3.26083 34.0634L3.25961 34.0596L3.2523 34.0286H3.25352L3.24621 33.9976L3.24499 33.9951L3.23767 33.9641L3.23646 33.9616L3.22914 33.9306L3.22792 33.9281L3.22061 33.8971L3.22183 33.8959L3.21452 33.8649L3.2133 33.8611L3.20598 33.8301L3.20477 33.8264L3.19867 33.7954L3.19745 33.7917L3.19014 33.7606L3.18892 33.7582L3.18283 33.7271L3.18161 33.7234L3.17551 33.6924L3.17429 33.6887L3.1682 33.6577L3.16211 33.6267V33.6229L3.15601 33.5907V33.587L3.14992 33.5559L3.1487 33.5522L3.14139 33.5224V33.5187L3.13529 33.4852L3.13407 33.4815L3.12798 33.4493L3.12676 33.4455L3.12188 33.4145L3.12067 33.4108L3.11579 33.3798V33.3761L3.11091 33.345V33.3413L3.10604 33.3103L3.10482 33.3066L3.09995 33.2756V33.2768L3.09507 33.2458V33.2433L3.09019 33.2123V33.2086L3.08532 33.1776V33.1738L3.08044 33.1428V33.1404L3.07679 33.1081V33.1044L3.07313 33.0734V33.0709L3.06826 33.0386L3.06704 33.0349L3.06338 33.0039V33.0002L3.05972 32.9679L3.0585 32.9642L3.05485 32.9319V32.9282L3.05119 32.896L3.04997 32.8922L3.04632 32.86V32.8563L3.04266 32.824L3.04144 32.8215L3.03778 32.7893L3.03535 32.757V32.7533L3.03169 32.721L3.03047 32.7173L3.02681 32.6851V32.6813L3.02438 32.6491L3.02316 32.6454L3.02072 32.6131V32.6094L3.01828 32.5771V32.5734L3.01584 32.5411L3.01341 32.5089V32.5052L3.01097 32.4729V32.4692L3.00853 32.4369V32.3969L3.00731 32.3646V32.3609L3.00609 32.3286V32.3249L3.00488 32.2927L3.00366 32.2889L3.00244 32.2567V32.2219L3.00122 32.1897V32.186L3 32.1537V16.4479L3.00122 16.4168V16.3771L3.00244 16.3449V16.2308L3.00366 16.1985V16.196L3.00488 16.1638V16.16L3.00609 16.1278V16.1241L3.00731 16.0918V16.0893L3.00853 16.0571V16.0533L3.00975 16.0211V16.0174L3.01219 15.9839V15.9802L3.01463 15.9479V15.9454L3.01584 15.9132V15.9094L3.01828 15.8772V15.8735L3.0195 15.8412V15.8375L3.02072 15.8052V15.8015L3.02316 15.7693V15.7655L3.0256 15.7333V15.7296L3.02925 15.6973V15.6936L3.03169 15.6613L3.03291 15.6588L3.03535 15.6266V15.6241L3.039 15.5918V15.5894L3.04266 15.5571L3.04388 15.5534L3.04753 15.5211V15.5174L3.05119 15.4852V15.4827L3.05485 15.4504V15.4479L3.0585 15.4157L3.05972 15.412L3.06338 15.3797V15.376L3.06704 15.345V15.3412L3.07069 15.309V15.3053L3.07435 15.273L3.07557 15.2693L3.07922 15.2383V15.2346L3.0841 15.2023V15.1986L3.08776 15.1663L3.08898 15.1626L3.09263 15.1316L3.09385 15.1279L3.09873 15.0956L3.09995 15.0931L3.10482 15.0609V15.0584L3.1097 15.0261V15.0237L3.11457 14.9926L3.11579 14.9889L3.12067 14.9579V14.9542L3.1292 14.9219L3.13042 14.9182L3.13529 14.8872V14.8835L3.14139 14.8525V14.85L3.14748 14.819V14.8165L3.15357 14.7842L3.15479 14.7817L3.16089 14.7507L3.16211 14.7482L3.1682 14.7172L3.16942 14.7135L3.17551 14.6825L3.17673 14.6788L3.18283 14.6478V14.644L3.18892 14.613V14.6105L3.19501 14.5795L3.19623 14.577L3.20233 14.546L3.20355 14.5435L3.21086 14.5125V14.5088L3.21817 14.4778L3.21939 14.4741L3.22549 14.4431L3.2267 14.4393L3.23402 14.4083V14.4046L3.24133 14.3736L3.24255 14.3699L3.24986 14.3389V14.3351L3.25718 14.3041L3.25839 14.3016L3.26571 14.2706V14.2681L3.27302 14.2371L3.27424 14.2334L3.28277 14.2024V14.1999L3.2913 14.1689V14.1664L3.29984 14.1354L3.30105 14.1317L3.30959 14.1007V14.0969L3.31812 14.0659L3.31934 14.0622L3.32787 14.0324L3.32909 14.0299L3.33762 13.9989L3.33884 13.9958L3.34737 13.9648L3.34859 13.9611L3.35712 13.9308L3.35834 13.9283L3.36809 13.8973L3.36931 13.8948L3.37784 13.8651L3.37906 13.8626L3.38759 13.8324L3.38881 13.83L3.39734 13.7992L3.39856 13.7955L3.40831 13.7652L3.40953 13.7615L3.41928 13.7317V13.7292L3.42903 13.6995V13.6957L3.43878 13.666L3.44 13.6635L3.44975 13.6337L3.45097 13.63L3.46072 13.6002L3.46194 13.5965L3.47169 13.5667L3.47291 13.563L3.48266 13.5332L3.48388 13.5307L3.49485 13.501L3.49607 13.4985L3.50582 13.4687L3.50704 13.4656L3.51679 13.4358L3.51801 13.4333L3.52898 13.4036L3.5302 13.4011L3.54117 13.3713V13.3688L3.55214 13.3391L3.55335 13.3366L3.56432 13.3068L3.56554 13.3031L3.57651 13.2733L3.57773 13.2708L3.5887 13.2411L3.58992 13.2373L3.60211 13.2088L3.60333 13.2063L3.61552 13.1765L3.61673 13.1741L3.62892 13.1443L3.63014 13.1406L3.64233 13.1108L3.64355 13.1071L3.65574 13.0773L3.65696 13.0736L3.66914 13.0438L3.67036 13.0401L3.68255 13.0103L3.68377 13.0066L3.69596 12.9768L3.69718 12.9737L3.70937 12.9452L3.71059 12.9415L3.72277 12.9129L3.72399 12.9092L3.73618 12.8794L3.7374 12.8769L3.75081 12.8472L3.75203 12.8447L3.76543 12.8162L3.76665 12.8137L3.77884 12.7851L3.78006 12.7814L3.79347 12.7529L3.79469 12.7504L3.80809 12.7219L3.80931 12.7194L3.82272 12.6909L3.82394 12.6884L3.83735 12.6598L3.83856 12.6561L3.85197 12.6276L3.85319 12.6251L3.8666 12.5966L3.86782 12.5928L3.88122 12.5643L3.88244 12.5618L3.89585 12.5333L3.89707 12.5308L3.91048 12.5023L3.91169 12.4998L3.9251 12.4713L3.92632 12.4688L3.94095 12.4415L3.94217 12.439L3.95679 12.4105L3.95923 12.4068L3.97386 12.3782L3.97507 12.3757L3.9897 12.3472L3.99092 12.3435L4.00555 12.3162L4.00676 12.3137L4.02139 12.2864L4.02261 12.2839L4.03724 12.2566L4.03845 12.2529L4.05308 12.2256L4.05552 12.2232L4.07014 12.1959L4.07136 12.1921L4.08599 12.1648L4.08843 12.1624L4.10305 12.1351L4.10427 12.1326L4.1189 12.1053L4.12134 12.1016L4.13718 12.0743L4.1384 12.0718L4.15303 12.0445L4.15424 12.042L4.17009 12.0147L4.17131 12.0123L4.18715 11.985L4.18837 11.9825L4.20422 11.9552L4.20665 11.9527L4.2225 11.9254L4.22372 11.9229L4.23956 11.8956L4.242 11.8932L4.25785 11.8659L4.25907 11.8634L4.27491 11.8361L4.27735 11.8336L4.29319 11.8063L4.29441 11.8038L4.31148 11.7765L4.31391 11.7728L4.33098 11.7455L4.3322 11.743L4.34804 11.717L4.35048 11.7145L4.36754 11.6885L4.36998 11.686L4.38582 11.6587L4.38704 11.6562L4.40411 11.6301L4.40533 11.6277L4.42239 11.6016L4.42483 11.5991L4.44189 11.5718L4.44433 11.5694L4.46139 11.5433L4.46261 11.5396L4.47968 11.5135L4.48089 11.5111L4.49796 11.485L4.49918 11.4825L4.51746 11.4565L4.5199 11.454L4.53696 11.4279L4.5394 11.4255L4.55768 11.3994L4.5589 11.3969L4.57718 11.3709L4.5784 11.3684L4.59668 11.3423L4.5979 11.3399L4.61619 11.3138L4.61862 11.3113L4.63691 11.2853L4.63813 11.2828L4.65641 11.2567L4.65885 11.2543L4.67713 11.2294L4.67835 11.227L4.69663 11.2009L4.69907 11.1984L4.71735 11.1736L4.71979 11.1711L4.73807 11.1463L4.74051 11.1438L4.75879 11.119L4.76123 11.1165L4.77951 11.0917L4.78073 11.0893L4.79901 11.0644L4.80145 11.062L4.82095 11.0371L4.82339 11.0347L4.84289 11.0099L4.84533 11.0074L4.86483 10.9826L4.86727 10.9801L4.88677 10.9553L4.88921 10.9528L4.90871 10.928L4.91115 10.9243L4.93065 10.8994L4.93187 10.897L4.95137 10.8722L4.95381 10.8697L4.97331 10.8449L4.97574 10.8424L4.99525 10.8188L4.99768 10.8163L5.01719 10.7915L5.01962 10.789L5.03912 10.7642L5.04156 10.7617L5.06228 10.7382L5.06472 10.7357L5.08422 10.7109L5.08666 10.7084L5.10616 10.6848L5.1086 10.6823L5.1281 10.6575L5.13054 10.655L5.15126 10.6302L5.15248 10.6278L5.1732 10.6042L5.17564 10.6017L5.19636 10.5781L5.19879 10.5756L5.21951 10.5521L5.22195 10.5496L5.24267 10.526L5.24389 10.5235L5.26461 10.5L5.26705 10.4975L5.28777 10.4739L5.29021 10.4714L5.31093 10.4479L5.31215 10.4454L5.33287 10.4218L5.3353 10.4193L5.35724 10.3958L5.35846 10.3933L5.3804 10.3697L5.38284 10.3672L5.406 10.3449L5.40843 10.3424L5.43037 10.3188L5.43281 10.3164L5.45475 10.2928L5.45719 10.2903L5.47913 10.268L5.48156 10.2655L5.5035 10.2432L5.50594 10.2407L5.52788 10.2184L5.53032 10.2159L5.55348 10.1935L5.55591 10.1911L5.57785 10.1687L5.58029 10.1663L5.60223 10.1439L5.60467 10.1414L5.62661 10.1191L5.62905 10.1166L5.65098 10.0943L5.65342 10.0918L5.67536 10.0695L5.6778 10.067L5.69974 10.0447L5.70218 10.0422L5.72411 10.0199L5.72655 10.0174L5.74971 9.99629L5.75215 9.99381L5.77531 9.97272L5.77774 9.97024L5.8009 9.94791L5.80334 9.94543L5.8265 9.9231L5.82894 9.92186L5.85209 9.90077L5.85453 9.89953L5.87769 9.87844L5.88013 9.87596L5.90328 9.85487L5.90572 9.85239L5.92888 9.8313L5.93132 9.82881L5.95448 9.80772L5.95691 9.80648L5.98129 9.78539L5.98373 9.78291L6.00811 9.76182L6.01054 9.75934L6.03492 9.73825L6.03736 9.73577L6.06173 9.71592L6.06417 9.71344L6.08855 9.69359L6.09099 9.69111L6.11414 9.67126L6.11658 9.66878L6.14096 9.64893L6.1434 9.64645L6.16777 9.6266L6.17021 9.62536L6.19459 9.60551L6.19703 9.60303L6.2214 9.58318L6.22384 9.5807L6.24822 9.56085L6.25065 9.55837L6.27625 9.53852L6.27869 9.53604L6.30307 9.51619L6.3055 9.51371L6.3311 9.49386L6.33354 9.49137L6.35913 9.47153L6.36157 9.46904L6.38595 9.44919L6.38838 9.44795L6.41398 9.4281L6.41642 9.42562L6.44079 9.40577L6.44323 9.40329L6.46883 9.38468L6.47127 9.3822L6.49686 9.36235L6.4993 9.35987L6.52489 9.34126L6.52733 9.34002L6.55293 9.32141L6.55658 9.31893L6.58218 9.30032L6.58462 9.29908L6.61021 9.28047L6.61265 9.27799L6.63825 9.25814L6.64068 9.2569L6.6675 9.23829L6.66994 9.23581L6.69553 9.2172L6.69919 9.21596L6.72478 9.19736L6.72722 9.19611L6.75282 9.17751L6.75526 9.17626L6.78207 9.15766L6.78451 9.15518L6.8101 9.13657L6.81254 9.13533L6.83936 9.11796L6.84179 9.11672L6.86739 9.09811L6.87105 9.09563L6.89786 9.07826L6.9003 9.07578L6.92711 9.05717L6.92955 9.05469L6.95637 9.03732L6.96002 9.03608L6.98684 9.01871L6.98927 9.01623L7.01609 8.99886L7.01853 8.99762L7.04534 8.98025L7.04778 8.97901L7.07459 8.96164L7.07703 8.9604L7.10385 8.94303L7.1075 8.94179L7.13432 8.92567H7.13553L19.3861 1.23401L19.3873 1.23277L19.4129 1.21665L19.4154 1.21541L19.4422 1.19804L19.4459 1.19556L19.4727 1.17943L19.4763 1.17695L19.5031 1.16082L19.5068 1.15834L19.5336 1.14221L19.5373 1.14097L19.5653 1.12484L19.5677 1.12236L19.5946 1.10623L19.5982 1.10499L19.625 1.08887L19.6275 1.08762L19.6555 1.07274L19.6579 1.07026L19.686 1.05537L19.6884 1.05289L19.7152 1.038L19.7189 1.03676L19.7469 1.02187L19.7493 1.01939L19.7762 1.0045L19.7798 1.00202L19.8066 0.987137L19.8103 0.984655L19.8371 0.969768L19.8395 0.967287L19.8676 0.9524L19.87 0.95116L19.8968 0.936273L19.9005 0.935032L19.9273 0.920145L19.931 0.918904L19.959 0.904017L19.9626 0.902777L19.9907 0.88789L19.9931 0.886649L20.0211 0.873003L20.0248 0.871762L20.0528 0.858115L20.0565 0.856875L20.0833 0.843228L20.087 0.841988L20.115 0.828341L20.1174 0.827101L20.1455 0.813454L20.1491 0.812214L20.1772 0.798567L20.1808 0.796086L20.2088 0.782439L20.2125 0.781199L20.2405 0.767552L20.2442 0.766312L20.2722 0.753906L20.2759 0.752665L20.3039 0.740259L20.3064 0.737778L20.3344 0.725372L20.3368 0.724132L20.3649 0.711726L20.3685 0.709245L20.3965 0.696839L20.4002 0.695598L20.4282 0.683192L20.4319 0.681952L20.4599 0.669546L20.4636 0.668305L20.4916 0.655899L20.4953 0.654659L20.5233 0.642253L20.527 0.641012L20.555 0.629847L20.5587 0.628606L20.5867 0.616201L20.5903 0.61496L20.6196 0.602554L20.6233 0.601313L20.6525 0.588908L20.6562 0.586426L20.6842 0.575261L20.6866 0.574021L20.7159 0.562855L20.7195 0.561615L20.7476 0.550449L20.75 0.549209L20.7793 0.538043L20.7829 0.536803L20.8122 0.526878L20.8158 0.525638L20.8451 0.514472L20.8487 0.513232L20.878 0.502066L20.8816 0.500826L20.9109 0.490901L20.9146 0.48966L20.9438 0.479736L20.9475 0.478495L20.9755 0.46857L20.9792 0.46733L21.0084 0.457405L21.0121 0.456165L21.0401 0.44624L21.0438 0.444999L21.073 0.435075L21.0754 0.433834L21.1047 0.423909L21.1084 0.422669L21.1376 0.412744L21.1413 0.411503L21.1705 0.401579L21.1742 0.400338L21.2034 0.391654L21.2059 0.390413L21.2351 0.381729L21.2388 0.380489L21.268 0.371805H21.2717L21.3009 0.36312L21.3046 0.36188L21.3338 0.353196L21.3363 0.351955L21.3655 0.343271L21.368 0.34203L21.3972 0.333346L21.4009 0.332106L21.4301 0.323422L21.4338 0.322181L21.463 0.313497L21.4667 0.312256L21.4959 0.304813L21.4996 0.303572L21.5289 0.296129L21.5313 0.294888L21.5605 0.286204L21.5635 0.284963L21.5939 0.27752H21.5964L21.6256 0.268836H21.6293L21.6594 0.261392L21.6631 0.260152L21.6935 0.252708L21.6972 0.251467L21.7264 0.244024H21.7301L21.7606 0.23658H21.7642L21.7935 0.229137L21.7971 0.227896L21.8264 0.221693L21.83 0.220453L21.8593 0.213009L21.8629 0.211769L21.8922 0.205566H21.8958L21.9251 0.199363L21.9288 0.198122L21.958 0.191919H21.9604L21.9897 0.185716L21.9934 0.184476L22.0238 0.178273H22.0263L22.0567 0.17207L22.0592 0.170829L22.0896 0.164626L22.0933 0.163386L22.1238 0.157183L22.1274 0.155942L22.1579 0.15098H22.1616L22.1908 0.146017L22.1945 0.144777L22.2249 0.138574L22.2286 0.137333L22.2591 0.132371H22.2627L22.292 0.127408L22.2956 0.126168L22.3261 0.121206L22.3298 0.119965L22.359 0.115003H22.3614L22.3907 0.11004H22.3944L22.4248 0.105078L22.4285 0.103837L22.459 0.0988749H22.4626L22.4931 0.0939126H22.4967L22.5272 0.0889502H22.5309L22.5613 0.0852285H22.565L22.5942 0.0815067H22.5979L22.6284 0.0777849L22.632 0.0765443L22.6625 0.0728226L22.6649 0.071582L22.6954 0.0691008H22.6991L22.7283 0.065379H22.732L22.7612 0.0616573H22.7649L22.7954 0.0579355H22.799L22.8295 0.0542137H22.8331L22.8624 0.0517326H22.866L22.8965 0.0480108L22.9002 0.0467702L22.9306 0.044289L22.9343 0.0430484L22.9648 0.0405673H22.9684L22.9984 0.0380861H23.0021L23.0325 0.0356049H23.0362L23.0667 0.0343643L23.0703 0.0331237L23.1008 0.0306425L23.1032 0.029402L23.1337 0.0281614H23.1374L23.1678 0.0256802H23.1703L23.2007 0.0244396H23.2044L23.2349 0.023199H23.2385L23.269 0.0219584H23.2727L23.3031 0.0207178L23.3068 0.0194772L23.3373 0.0182367H23.3409L23.3714 0.0169961H23.375L23.4055 0.0157555H23.4092L23.4396 0.0145149H23.4433L23.4738 0.0132743H23.4762L23.5067 0.0120337H23.5445L23.5749 0.0107931H23.6456L23.6521 0ZM23.624 3.34959H23.6041L23.5841 3.34984H23.5642L23.5435 3.35033L23.5228 3.35083L23.502 3.35145L23.4813 3.35269L23.4606 3.35393L23.4399 3.35517L23.4204 3.35641L23.3997 3.35765L23.3802 3.3589L23.3607 3.36014L23.3412 3.36138L23.3204 3.36262L23.3009 3.36386L23.2802 3.36634L23.2595 3.36882L23.24 3.3713L23.2193 3.37378L23.1985 3.37626L23.1778 3.37874L23.1583 3.38123L23.1376 3.38371L23.1181 3.38619L23.0986 3.38867L23.0779 3.39115L23.0584 3.39363L23.0389 3.39611L23.0194 3.39859L22.9999 3.40107L22.9792 3.40356L22.9597 3.40728L22.9402 3.40976L22.9194 3.41348L22.8999 3.4172L22.8804 3.42092L22.8609 3.42465L22.8414 3.42837L22.8219 3.43209L22.8024 3.43581L22.7829 3.43829L22.7622 3.44201L22.7427 3.44574L22.722 3.44946L22.7025 3.45318L22.683 3.4569L22.6635 3.46062L22.644 3.46559L22.6245 3.47055L22.605 3.47551L22.5855 3.47923L22.566 3.48295L22.5465 3.48792L22.527 3.49288L22.5075 3.49784L22.488 3.5028L22.4685 3.50777L22.449 3.51273L22.4295 3.51769L22.41 3.52265L22.3905 3.52762L22.371 3.53258L22.3515 3.53878L22.332 3.54374L22.3125 3.54995L22.2942 3.55615L22.2747 3.56235L22.2552 3.56855L22.2357 3.57476L22.2162 3.58096L22.1967 3.58716L22.1784 3.59337L22.1589 3.59957L22.1394 3.60701L22.1199 3.61322L22.1004 3.61942L22.0809 3.62686L22.0614 3.63306L22.0419 3.63927L22.0236 3.64547L22.0041 3.65291L21.9846 3.66036L21.9651 3.6678L21.9468 3.67524L21.9273 3.68269L21.909 3.69013L21.8907 3.69758L21.8712 3.70626L21.8517 3.7137L21.8322 3.72115L21.8127 3.72859L21.7944 3.73727L21.7762 3.74472L21.7567 3.7534L21.7384 3.76209L21.7201 3.77077L21.7018 3.77945L21.6823 3.78814L21.664 3.79682L21.6445 3.80551L21.6262 3.81419L21.608 3.82288L21.5897 3.83156L21.5702 3.84024L21.5519 3.84893L21.5336 3.85761L21.5153 3.86754L21.497 3.87746L21.4788 3.88615L21.4605 3.89607L21.4422 3.90475L21.4239 3.91468L21.4056 3.9246L21.3873 3.93453L21.3691 3.94445L21.3508 3.95438L21.3325 3.96554L21.3154 3.97547L21.2972 3.98539L21.2801 3.99532L21.2618 4.00648L21.2435 4.01765L21.2252 4.02881L21.2082 4.03874L21.1899 4.0499L21.1728 4.06107L21.1545 4.07223L21.1363 4.0834L21.1168 4.0958L8.87958 11.7726L8.85886 11.7862L8.83936 11.7986L8.82107 11.811L8.80279 11.8234L8.78451 11.8358L8.76623 11.8482L8.74794 11.8607L8.72966 11.8731L8.71138 11.8855L8.69309 11.8979L8.67481 11.9103L8.65653 11.9227L8.63825 11.9363L8.62118 11.9487L8.60412 11.9611L8.58584 11.9735L8.56877 11.986L8.55171 11.9984L8.53465 12.0108L8.51758 12.0232L8.50052 12.0356L8.48345 12.048L8.46639 12.0616L8.44933 12.074L8.43226 12.0877L8.4152 12.1013L8.39813 12.115L8.38107 12.1286L8.36401 12.1423L8.34694 12.1559L8.3311 12.1696L8.31403 12.1832L8.29697 12.1969L8.28113 12.2105L8.26406 12.2241L8.247 12.2378L8.23115 12.2514L8.21409 12.2651L8.19824 12.2787L8.1824 12.2924L8.16655 12.3073L8.15071 12.3222L8.13486 12.3358L8.11902 12.3494L8.10317 12.3643L8.08733 12.3792L8.07149 12.3941L8.05564 12.409L8.03979 12.4239L8.02395 12.4388L8.0081 12.4537L7.99226 12.4685L7.97642 12.4834L7.96057 12.4983L7.94473 12.5132L7.9301 12.5281L7.91425 12.543L7.89963 12.5591L7.88378 12.574L7.86916 12.5901L7.85453 12.605L7.8399 12.6211L7.82528 12.636L7.81065 12.6521L7.79603 12.6683L7.78018 12.6844L7.76556 12.6993L7.75093 12.7154L7.7363 12.7315L7.72168 12.7477L7.70827 12.7638L7.69364 12.7799L7.67902 12.7961L7.66439 12.8122L7.64977 12.8296L7.63514 12.8457L7.62173 12.8618L7.60832 12.8779L7.5937 12.8953L7.58029 12.9114L7.56566 12.9276L7.55226 12.9449L7.53885 12.9611L7.52544 12.9784L7.51204 12.9958L7.49863 13.0132L7.48522 13.0305L7.47181 13.0479L7.45841 13.0653L7.44622 13.0826L7.43281 13.1L7.4194 13.1174L7.406 13.1347L7.39259 13.1521L7.3804 13.1695L7.36821 13.1868L7.35602 13.2042L7.34384 13.2228L7.33165 13.2402L7.31946 13.2576L7.30727 13.2762L7.29508 13.2935L7.28289 13.3109L7.2707 13.3283L7.25852 13.3456L7.24755 13.3642L7.23536 13.3829L7.22317 13.4002L7.21098 13.4188L7.20001 13.4374L7.18904 13.4548L7.17807 13.4734L7.1671 13.492L7.15613 13.5106L7.14516 13.5292L7.13298 13.5479L7.12079 13.5665L7.10982 13.5851L7.09885 13.6037L7.08788 13.6223L7.07691 13.6409L7.06594 13.6595L7.05497 13.6781L7.044 13.6967L7.03303 13.7153L7.02206 13.7339L7.01109 13.7526L7.00012 13.7724L6.98915 13.791L6.97818 13.8096L6.96721 13.8295L6.95746 13.8481L6.94771 13.8679L6.93796 13.8878L6.92821 13.9076L6.91846 13.9262L6.90871 13.9448L6.89896 13.9647L6.88921 13.9833L6.87946 14.0031L6.87092 14.0218L6.86117 14.0416L6.85142 14.0615L6.84167 14.0813L6.83192 14.1012L6.82217 14.121L6.81364 14.1409L6.80511 14.1607L6.79657 14.1806L6.78804 14.2004L6.77951 14.2203L6.77098 14.2401L6.76245 14.26L6.75392 14.2798L6.74538 14.2996L6.73807 14.3195L6.72954 14.3393L6.72101 14.3604L6.71247 14.3803L6.70394 14.4001L6.69541 14.42L6.6881 14.4398L6.67957 14.4609L6.67103 14.4808L6.66372 14.5006L6.65641 14.5217L6.64909 14.5416L6.64178 14.5627L6.63447 14.5825L6.62716 14.6036L6.61984 14.6247L6.61253 14.6458L6.60644 14.6669L6.59912 14.6867L6.59181 14.7078L6.58571 14.7289L6.57962 14.7487L6.57353 14.7698L6.56621 14.7909L6.56012 14.8108L6.55402 14.8306L6.54793 14.8517L6.54062 14.8728L6.53452 14.8939L6.52843 14.9137L6.52234 14.9348L6.51624 14.9559L6.51015 14.977L6.50405 14.9981L6.49796 15.0192L6.49308 15.0403L6.48821 15.0614L6.48211 15.0825L6.47724 15.1036L6.47114 15.1246L6.46627 15.1457L6.46139 15.1668L6.45652 15.1892L6.45164 15.2102L6.44677 15.2313L6.44189 15.2524L6.43702 15.2735L6.43214 15.2946L6.42727 15.3157L6.42361 15.3368L6.41873 15.3579L6.41508 15.379L6.41142 15.4013L6.40776 15.4236L6.40411 15.446L6.40045 15.4683L6.39679 15.4894L6.39314 15.5105L6.38948 15.5328L6.38582 15.5551L6.38217 15.5762L6.37851 15.5973L6.37486 15.6184L6.3712 15.6407L6.36876 15.6631L6.36632 15.6854L6.36389 15.7065L6.36023 15.7288L6.35657 15.7499L6.35413 15.7722L6.3517 15.7946L6.34926 15.8169L6.34682 15.8392L6.34438 15.8616L6.34195 15.8839L6.33951 15.905L6.33707 15.9273L6.33463 15.9496L6.33341 15.972L6.33098 15.9943L6.32854 16.0166L6.32732 16.039L6.3261 16.0613L6.32488 16.0836L6.32366 16.1059L6.32244 16.1283L6.32123 16.1506L6.32001 16.1729L6.31879 16.1953L6.31757 16.2176L6.31635 16.2399V16.2623L6.31513 16.2846L6.31391 16.3069V16.3293L6.31269 16.3516V32.0823L6.31391 32.1046V32.1716L6.31513 32.1927L6.31635 32.215L6.31757 32.2373L6.31879 32.2597L6.32001 32.282L6.32123 32.3043L6.32244 32.3266L6.32366 32.349L6.32488 32.3713L6.32732 32.3936L6.32854 32.416L6.32976 32.4383L6.33098 32.4606L6.33341 32.4817L6.33585 32.5041L6.33829 32.5251L6.33951 32.5475L6.34195 32.5686L6.34438 32.5896L6.34682 32.6107L6.34926 32.6318L6.3517 32.6542L6.35413 32.6753L6.35657 32.6963L6.35901 32.7187L6.36145 32.741L6.36389 32.7621L6.36632 32.7844L6.36998 32.8055L6.37364 32.8266L6.37729 32.8477L6.38095 32.8688L6.38461 32.8911L6.38826 32.9122L6.39192 32.9333L6.39558 32.9544L6.39923 32.9755L6.40411 32.9966L6.40776 33.0177L6.41142 33.0387L6.41508 33.0598L6.41995 33.0809L6.42483 33.102L6.42848 33.1231L6.43336 33.1442L6.43823 33.1653L6.44311 33.1864L6.44799 33.2075L6.45286 33.2286L6.45774 33.2496L6.46261 33.2707L6.46749 33.2906L6.47358 33.3104L6.47846 33.3315L6.48333 33.3526L6.48821 33.3737L6.4943 33.3948L6.49918 33.4146L6.50405 33.4357L6.50893 33.4556L6.51502 33.4767L6.5199 33.4965L6.52599 33.5176L6.53209 33.5387L6.53818 33.5586L6.54427 33.5796L6.55037 33.6007L6.55646 33.6206L6.56256 33.6417L6.56987 33.6615L6.57718 33.6814L6.5845 33.7012L6.59181 33.7211L6.5979 33.7409L6.60522 33.762L6.61253 33.7819L6.61984 33.8017L6.62716 33.8216L6.63447 33.8414L6.64178 33.8613L6.64909 33.8811L6.65641 33.901L6.66372 33.9208L6.67103 33.9407L6.67957 33.9605L6.6881 33.9804L6.69541 34.0002L6.70272 34.0201L6.71004 34.0399L6.71735 34.0597L6.72466 34.0796L6.73319 34.0994L6.74173 34.1193L6.75026 34.1391L6.75879 34.159L6.76732 34.1788L6.77585 34.1987L6.78439 34.2185L6.79292 34.2384L6.80145 34.2582L6.80998 34.2781L6.81851 34.2979L6.82705 34.3166L6.8368 34.3364L6.84655 34.355L6.8563 34.3749L6.86605 34.3935L6.8758 34.4121L6.88555 34.4307L6.8953 34.4493L6.90505 34.4679L6.9148 34.4865L6.92577 34.5051L6.93552 34.5237L6.94527 34.5423L6.95502 34.5609L6.96599 34.5796L6.97696 34.5982L6.98671 34.6168L6.99646 34.6354L7.00622 34.654L7.01719 34.6726L7.02694 34.6912L7.03791 34.7086L7.04888 34.7272L7.05984 34.7446L7.07081 34.7632L7.08178 34.7818L7.09275 34.7991L7.10372 34.8165L7.11469 34.8339L7.12566 34.8512L7.13663 34.8699L7.1476 34.8885L7.15979 34.9058L7.17076 34.9232L7.18173 34.9418L7.1927 34.9592L7.20367 34.9765L7.21586 34.9939L7.22805 35.0113L7.24023 35.0299L7.25242 35.0473L7.26461 35.0646L7.2768 35.082L7.28899 35.0994L7.30118 35.1167L7.31336 35.1341L7.32555 35.1515L7.33896 35.1688L7.35237 35.1862L7.36456 35.2036L7.37674 35.2209L7.38893 35.2383L7.40112 35.2557L7.41453 35.2718L7.42794 35.2879L7.44134 35.3053L7.45475 35.3214L7.46816 35.3388L7.48156 35.3549L7.49497 35.3711L7.50838 35.3872L7.52179 35.4033L7.53519 35.4194L7.5486 35.4356L7.56201 35.4517L7.57542 35.4678L7.58882 35.4839L7.60223 35.5001L7.61564 35.5162L7.63026 35.5323L7.64489 35.5485L7.6583 35.5646L7.67292 35.5795L7.68755 35.5956L7.70218 35.6105L7.7168 35.6266L7.73021 35.6427L7.74483 35.6589L7.75946 35.6738L7.77409 35.6886L7.78871 35.7035L7.80334 35.7184L7.81797 35.7345L7.83259 35.7494L7.84722 35.7643L7.86184 35.7792L7.87647 35.7941L7.8911 35.809L7.90694 35.8239L7.92157 35.8388L7.93619 35.8536L7.95204 35.8685L7.96666 35.8834L7.98129 35.8983L7.99714 35.9132L8.01298 35.9268L8.02883 35.9405L8.04467 35.9554L8.06051 35.9703L8.07636 35.9839L8.09221 35.9975L8.10805 36.0124L8.12389 36.0273L8.13974 36.041L8.1568 36.0546L8.17387 36.0683L8.19093 36.0819L8.20678 36.0956L8.22262 36.1092L8.23969 36.1228L8.25553 36.1365L8.27259 36.1489L8.28844 36.1625L8.3055 36.1762L8.32257 36.1898L8.33963 36.2035L8.35547 36.2159L8.37254 36.2295L8.3896 36.2419L8.40667 36.2556L8.42373 36.2692L8.44079 36.2816L8.45786 36.2941L8.47614 36.3065L8.4932 36.3189L8.51027 36.3313L8.52733 36.3437L8.5444 36.3561L8.56146 36.3685L8.57852 36.3809L8.59681 36.3933L8.61509 36.4045L8.63337 36.4169L8.65043 36.4293L8.66872 36.4417L8.687 36.4541L8.70406 36.4653L8.72235 36.4764L8.74063 36.4876L8.75891 36.4987L8.77719 36.5099L8.79548 36.5211L8.81498 36.5322L8.83326 36.5434L8.85154 36.5546L8.87226 36.567L21.6311 44.1594L21.647 44.1693L21.6604 44.1768L21.675 44.1842L21.6896 44.1916L21.7042 44.1991L21.7177 44.2078L21.7323 44.2152L21.7469 44.2227L21.7615 44.2301L21.7762 44.2388L21.7908 44.2462L21.8054 44.2537L21.82 44.2611L21.8347 44.2686L21.8493 44.276L21.8639 44.2834L21.8785 44.2909L21.8932 44.2983L21.9066 44.3058L21.9212 44.3132L21.9358 44.3207L21.9505 44.3269L21.9651 44.3343L21.9797 44.3405L21.9943 44.3467L22.009 44.3529L22.0236 44.3604L22.0382 44.3678L22.0528 44.374L22.0675 44.3815L22.0821 44.3877L22.0967 44.3939L22.1113 44.4001L22.126 44.4063L22.1406 44.4125L22.1552 44.4187L22.1698 44.4249L22.1845 44.4311L22.1991 44.4373L22.2137 44.4422L22.2296 44.4484L22.2442 44.4546L22.2588 44.4608L22.2734 44.4671L22.2881 44.4733L22.3027 44.4782L22.3173 44.4844L22.332 44.4894L22.3466 44.4943L22.3624 44.4993L22.377 44.5043L22.3905 44.5092L22.4221 44.5192L22.4526 44.5291L22.4831 44.5378L22.5136 44.5464L22.544 44.5551L22.5745 44.5638L22.605 44.5725L22.6354 44.5812L22.6659 44.5899L22.6964 44.5973L22.7269 44.6048L22.7573 44.6122L22.7878 44.6184L22.8183 44.6258L22.8487 44.632L22.8792 44.6383L22.9097 44.6445L22.9402 44.6494L22.9706 44.6556L23.0011 44.6606L23.0316 44.6655L23.0633 44.6705L23.0937 44.6755L23.1254 44.6792L23.1571 44.6829L23.1888 44.6866L23.2205 44.6891L23.251 44.6916L23.2826 44.6941L23.3131 44.6966L23.3448 44.699L23.3765 44.7015L23.407 44.704L23.4374 44.7052L23.4679 44.7065L23.4996 44.7077H23.6556L23.6873 44.7065H23.719L23.7507 44.7052L23.7824 44.704L23.8141 44.7015L23.8458 44.699L23.8774 44.6978L23.9091 44.6953L23.9408 44.6928L23.9725 44.6904L24.003 44.6879L24.0347 44.6842L24.0664 44.6804L24.0968 44.6767L24.1285 44.673L24.159 44.668L24.1907 44.6631L24.2212 44.6581L24.2528 44.6531L24.2833 44.6482L24.3138 44.642L24.3443 44.637L24.376 44.6308L24.4064 44.6246L24.4369 44.6172L24.4674 44.611L24.4978 44.6035L24.5283 44.5961L24.5588 44.5886L24.5892 44.5812L24.6197 44.5725L24.6502 44.5638L24.6807 44.5551L24.7111 44.5464L24.7428 44.5365L24.7575 44.5316L24.7721 44.5266L24.7867 44.5216L24.8025 44.5167L24.8172 44.5117L24.833 44.5068L24.8476 44.5018L24.8623 44.4968L24.8781 44.4919L24.8927 44.4869L24.9074 44.4819L24.9232 44.4757L24.9378 44.4708L24.9537 44.4658L24.9683 44.4596L24.9829 44.4546L24.9976 44.4497L25.0122 44.4447L25.028 44.4385L25.0427 44.4336L25.0573 44.4274L25.0719 44.4212L25.0865 44.4149L25.1012 44.4087L25.1158 44.4025L25.1304 44.3963L25.145 44.3901L25.1597 44.3839L25.1743 44.3777L25.1889 44.3715L25.2035 44.3641L25.2182 44.3566L25.2328 44.3504L25.2474 44.343L25.2621 44.3355L25.2767 44.3293L25.2913 44.3219L25.3059 44.3145L25.3206 44.307L25.334 44.2996L25.3486 44.2921L25.3632 44.2847L25.3778 44.2772L25.3925 44.2698L25.4071 44.2624L25.4217 44.2549L25.4363 44.2475L25.451 44.24L25.4644 44.2326L25.479 44.2251L25.4936 44.2177L25.5095 44.209L39.6444 36.1911L39.6615 36.1824L39.6773 36.1737L39.6919 36.165L39.7066 36.1563L39.7212 36.1477L39.7358 36.1377L39.7517 36.1291L39.7663 36.1204L39.7809 36.1117L39.7955 36.103L39.8102 36.0931L39.8248 36.0831L39.8394 36.0745L39.854 36.0658L39.8687 36.0571L39.8833 36.0472L39.8979 36.0372L39.9125 36.0286L39.9272 36.0186L39.9418 36.01L39.9552 36L39.9686 35.9901L39.982 35.9802L39.9954 35.9703L40.0088 35.9603L40.0235 35.9504L40.0369 35.9405L40.0515 35.9306L40.0649 35.9206L40.0783 35.9107L40.0917 35.9008L40.1051 35.8909L40.1185 35.8809L40.1332 35.871L40.1466 35.8598L40.16 35.8499L40.1734 35.8388L40.1868 35.8288L40.2002 35.8177L40.2136 35.8065L40.227 35.7953L40.2404 35.7854L40.2538 35.7755L40.2672 35.7643L40.2794 35.7532L40.2928 35.742L40.3062 35.7308L40.3184 35.7209L40.3318 35.7097L40.3452 35.6973L40.3574 35.6862L40.3708 35.675L40.383 35.6638L40.3952 35.6527L40.4074 35.6403L40.4208 35.6291L40.433 35.6167L40.4452 35.6055L40.4574 35.5931L40.4696 35.5807L40.4817 35.5695L40.4939 35.5571L40.5061 35.546L40.5183 35.5336L40.5305 35.5212L40.5427 35.5088L40.5549 35.4964L40.5658 35.4839L40.578 35.4715L40.589 35.4591L40.6012 35.4467L40.6134 35.4343L40.6256 35.4219L40.6365 35.4095L40.6475 35.3971L40.6585 35.3847L40.6694 35.3723L40.6816 35.3599L40.6926 35.3475L40.7036 35.3351L40.7145 35.3227L40.7255 35.3103L40.7365 35.2979L40.7475 35.2854L40.7584 35.273L40.7694 35.2594L40.7804 35.2458L40.7913 35.2321L40.8023 35.2197L40.8133 35.2073L40.8242 35.1949L40.8352 35.1812L40.8462 35.1688L40.8572 35.1552L40.8669 35.1428L40.8767 35.1291L40.8864 35.1155L40.8962 35.1031L40.9071 35.0894L40.9169 35.0758L40.9266 35.0621L40.9364 35.0485L40.9461 35.0349L40.9559 35.0212L40.9656 35.0076L40.9754 34.9939L40.9851 34.9803L40.9949 34.9666L41.0046 34.953L41.0144 34.9393L41.0241 34.9257L41.0327 34.912L41.0412 34.8971L41.0509 34.8823L41.0607 34.8686L41.0692 34.855L41.0778 34.8413L41.0875 34.8264L41.0973 34.8128L41.1058 34.7991L41.1143 34.7843L41.1229 34.7694L41.1314 34.7545L41.1399 34.7396L41.1485 34.7259L41.157 34.7111L41.1655 34.6962L41.174 34.6825L41.1826 34.6676L41.1911 34.6528L41.1996 34.6379L41.207 34.623L41.2143 34.6081L41.2228 34.5932L41.2313 34.5783L41.2386 34.5634L41.2472 34.5485L41.2557 34.5337L41.263 34.5188L41.2703 34.5039L41.2776 34.4878L41.285 34.4729L41.2935 34.458L41.302 34.4431L41.3093 34.4282L41.3167 34.4133L41.324 34.3984L41.3313 34.3823L41.3386 34.3674L41.3459 34.3525L41.3532 34.3364L41.3605 34.3215L41.3678 34.3066L41.3752 34.2905L41.3825 34.2744L41.3898 34.2582L41.3971 34.2434L41.4032 34.2285L41.4093 34.2123L41.4154 34.1962L41.4215 34.1801L41.4276 34.1652L41.4337 34.1491L41.4398 34.1329L41.4459 34.1168L41.4519 34.1019L41.458 34.0858L41.4641 34.0697L41.4702 34.0535L41.4763 34.0374L41.4824 34.0213L41.4873 34.0052L41.4922 33.989L41.497 33.9729L41.5019 33.9568L41.508 33.9407L41.5141 33.9245L41.5202 33.9084L41.5263 33.8923L41.5312 33.8761L41.5373 33.86L41.5421 33.8439L41.547 33.8278L41.5531 33.8116L41.558 33.7955L41.5629 33.7794L41.5677 33.7632L41.5726 33.7471L41.5763 33.731L41.5811 33.7149L41.586 33.6987L41.5909 33.6826L41.5958 33.6665L41.5994 33.6504L41.6031 33.633L41.608 33.6169L41.6116 33.6007L41.6153 33.5834L41.6201 33.5672L41.6238 33.5511L41.6275 33.535L41.6311 33.5189L41.6348 33.5015L41.6384 33.4854L41.6421 33.4692L41.6445 33.4519L41.6482 33.4345L41.6518 33.4184L41.6543 33.401L41.6579 33.3849L41.6616 33.3675L41.6652 33.3501L41.6689 33.334L41.6726 33.3166L41.675 33.2993L41.6786 33.2819L41.6811 33.2658L41.6847 33.2496L41.6872 33.2323L41.6896 33.2149L41.6921 33.1975L41.6945 33.1802L41.6969 33.1628L41.6994 33.1454L41.7018 33.1281L41.703 33.1107L41.7055 33.0946L41.7067 33.0772L41.7091 33.0598L41.7116 33.0437L41.714 33.0263L41.7152 33.009L41.7164 32.9916L41.7177 32.9742L41.7189 32.9569L41.7213 32.9395L41.7225 32.9221L41.7237 32.9048L41.725 32.8874L41.7262 32.87L41.7274 32.8527L41.7286 32.8353L41.7298 32.8179L41.7311 32.8006L41.7323 32.7832L41.7335 32.7658L41.7347 32.7484V32.7137L41.7359 32.6963V15.5227L41.7347 15.5075L41.7335 15.4914V15.4752L41.7323 15.4591V15.443L41.7311 15.4268V15.4107L41.7298 15.3946L41.7286 15.3797L41.7274 15.3636L41.7262 15.3475L41.725 15.3313L41.7237 15.3164L41.7225 15.3003L41.7213 15.2854L41.7201 15.2693L41.7177 15.2532L41.7164 15.2383L41.7152 15.2234L41.7128 15.2085L41.7116 15.1936L41.7091 15.1775L41.7079 15.1626L41.7055 15.1477L41.703 15.1316L41.7018 15.1155L41.7006 15.1006L41.6982 15.0869L41.6933 15.0543L41.6896 15.0227L41.6847 14.9904L41.6799 14.9594L41.6738 14.9284L41.6677 14.8974L41.6628 14.8664L41.6567 14.8353L41.6494 14.8043L41.6421 14.7733L41.6348 14.7423L41.6275 14.7113L41.6201 14.6803L41.6128 14.6492L41.6055 14.6182L41.597 14.5872L41.5885 14.5562L41.5799 14.5252L41.5702 14.4942L41.5616 14.4644L41.5519 14.4346L41.5421 14.4049L41.5324 14.3751L41.5226 14.3453L41.5117 14.3155L41.5007 14.2858L41.4897 14.2572L41.4788 14.2274L41.4678 14.1977L41.4568 14.1679L41.4446 14.1394L41.4337 14.1096L41.4215 14.0811L41.4093 14.0525L41.3971 14.024L41.3837 13.9955L41.3715 13.9669L41.3581 13.9384L41.3447 13.9099L41.3313 13.8826L41.3167 13.854L41.3032 13.8255L41.2886 13.797L41.274 13.7697L41.2594 13.7424L41.2447 13.7151L41.2301 13.6878L41.2155 13.6605L41.1996 13.6332L41.1838 13.6059L41.168 13.5786L41.1509 13.5513L41.135 13.5253L41.1192 13.4992L41.1021 13.4732L41.0851 13.4471L41.068 13.4211L41.0509 13.395L41.0339 13.369L41.0168 13.3429L40.9985 13.3181L40.9803 13.2933L40.962 13.2685L40.9437 13.2437L40.9254 13.2188L40.9059 13.194L40.8864 13.1692L40.8669 13.1444L40.8474 13.1196L40.8279 13.096L40.8072 13.0725L40.7877 13.0489L40.767 13.0253L40.7462 13.0017L40.7255 12.9782L40.7048 12.9546L40.6841 12.931L40.6621 12.9087L40.6402 12.8864L40.6183 12.864L40.5963 12.8417L40.5744 12.8194L40.5512 12.797L40.5281 12.7747L40.5049 12.7536L40.4817 12.7325L40.4586 12.7114L40.4354 12.6904L40.4123 12.6693L40.3879 12.6482L40.3635 12.6283L40.3391 12.6085L40.316 12.5886L40.2904 12.5675L40.2794 12.5589L40.2672 12.5489L40.255 12.539L40.2429 12.5291L40.2307 12.5192L40.2185 12.5105L40.2063 12.5005L40.1941 12.4906L40.1807 12.4807L40.1673 12.4708L40.1551 12.4608L40.1429 12.4509L40.1307 12.441L40.1185 12.4323L40.1063 12.4224L40.0929 12.4125L40.0807 12.4038L40.0686 12.3951L40.0552 12.3852L40.0417 12.3765L40.0283 12.3678L40.0161 12.3591L40.0027 12.3504L39.9893 12.3418L39.9759 12.3331L39.9625 12.3244L39.9491 12.3157L39.9357 12.307L39.9223 12.2983L39.9089 12.2896L39.8955 12.281L39.8821 12.2735L39.8687 12.2661L39.8528 12.2574L26.0605 4.02125L26.041 4.00909L26.0233 3.99916L26.0051 3.988L25.9868 3.97683L25.9689 3.96654L25.9506 3.95661L25.9329 3.94669L25.9146 3.93676L25.8963 3.92684L25.8781 3.91691L25.8601 3.90699L25.8419 3.89706L25.8236 3.88714L25.8053 3.87721L25.787 3.86729L25.7687 3.85736L25.7504 3.84744L25.7318 3.83875L25.7135 3.82883L25.6952 3.82015L25.6769 3.81146L25.6587 3.80154L25.6398 3.79285L25.6215 3.78417L25.6032 3.77548L25.5842 3.7668L25.5659 3.75812L25.5476 3.75067L25.5287 3.74199L25.5102 3.7333L25.4919 3.72462L25.473 3.71718L25.4548 3.70973L25.4352 3.70229L25.4165 3.69361L25.3972 3.68616L25.3777 3.67748L25.3582 3.67003L25.3393 3.66259L25.3204 3.65515L25.3013 3.6477L25.2818 3.64026L25.2623 3.63282L25.244 3.62537L25.2257 3.61917L25.2074 3.61297L25.1879 3.60552L25.1684 3.59932L25.1502 3.59312L25.1307 3.58692L25.1112 3.58071L25.0929 3.57451L25.0734 3.56831L25.0539 3.5621L25.0344 3.5559L25.0161 3.5497L24.9966 3.54349L24.9771 3.53729L24.9576 3.53109L24.9381 3.52613L24.9186 3.51992L24.8991 3.51496L24.8796 3.50876L24.8601 3.5038L24.8406 3.49883L24.8211 3.49387L24.8016 3.48767L24.7821 3.48271L24.7626 3.47774L24.7431 3.47402L24.7236 3.46906L24.7041 3.4641L24.6846 3.45913L24.6651 3.45541L24.6456 3.45045L24.6261 3.44673L24.6066 3.44301L24.5871 3.43804L24.5676 3.43432L24.5481 3.4306L24.5286 3.42688L24.509 3.42316L24.4895 3.41944L24.47 3.41571L24.4493 3.41199L24.4298 3.40951L24.4103 3.40703L24.3908 3.40455L24.3713 3.40207L24.3518 3.39835L24.3323 3.39462L24.3128 3.39214L24.2921 3.38842L24.2726 3.38594L24.2531 3.38222L24.2336 3.37974L24.2141 3.37726L24.1946 3.37477L24.1751 3.37229L24.1556 3.36981L24.1349 3.36733L24.1154 3.36609L24.0959 3.36361L24.0764 3.36113L24.0569 3.35989L24.0374 3.35865L24.0179 3.35741L23.9984 3.35617L23.9789 3.35493L23.9581 3.35368L23.9374 3.35244L23.9179 3.3512L23.8984 3.34996H23.8789L23.8594 3.34872L23.8399 3.34748H23.8192L23.7997 3.34624L23.7802 3.345L23.7619 3.34376L23.7424 3.34252H23.7022L23.6827 3.34128H23.6437L23.624 3.34959Z" fill="#C9177E"/>
<path d="M14.3496 36.7505V11.043H19.6338V20.4069H28.3992V11.043H33.6987V36.7505H28.3992V25.51H19.6338V36.7505H14.3496Z" fill="white"/>
</svg>
