<svg width="20" height="20" viewBox="0 0 20 20" fill="none" xmlns="http://www.w3.org/2000/svg">
<g clip-path="url(#clip0_1196_64672)">
<path fill-rule="evenodd" clip-rule="evenodd" d="M9.66797 0.916017L9.63441 0.916017C8.26269 0.916013 7.18725 0.916009 6.3229 0.986629C5.44276 1.05854 4.71565 1.2074 4.05752 1.54273C2.97559 2.094 2.09595 2.97364 1.54468 4.05557C1.20935 4.7137 1.06049 5.44081 0.988579 6.32095C0.917959 7.1853 0.917963 8.26074 0.917967 9.63246L0.917967 9.66602L0.917967 10.3327L0.917967 10.3662C0.917963 11.738 0.917959 12.8134 0.988579 13.6777C1.06049 14.5579 1.20935 15.285 1.54468 15.9431C2.09595 17.0251 2.97559 17.9047 4.05752 18.456C4.71565 18.7913 5.44276 18.9402 6.3229 19.0121C7.1872 19.0827 8.26256 19.0827 9.63415 19.0827L9.6342 19.0827L9.63425 19.0827L9.63429 19.0827L9.63434 19.0827L9.63439 19.0827L9.66797 19.0827L10.3346 19.0827L10.3682 19.0827L10.3683 19.0827L10.3683 19.0827L10.3684 19.0827L10.3684 19.0827L10.3685 19.0827C11.74 19.0827 12.8154 19.0827 13.6797 19.0121C14.5598 18.9402 15.2869 18.7913 15.9451 18.456C17.027 17.9047 17.9066 17.0251 18.4579 15.9431C18.7933 15.285 18.9421 14.5579 19.014 13.6777C19.0846 12.8135 19.0846 11.7381 19.0846 10.3665L19.0846 10.3665L19.0846 10.3664L19.0846 10.3664L19.0846 10.3663L19.0846 10.3663L19.0846 10.3327L19.0846 9.66602L19.0846 9.63244L19.0846 9.6323L19.0846 9.63228L19.0846 9.63226L19.0846 9.63223L19.0846 9.63221C19.0846 8.26061 19.0846 7.18525 19.014 6.32095C18.9421 5.44081 18.7933 4.7137 18.4579 4.05557C17.9067 2.97364 17.027 2.094 15.9451 1.54273C15.2869 1.2074 14.5598 1.05854 13.6797 0.986629C12.8153 0.916009 11.7399 0.916013 10.3682 0.916017L10.3346 0.916017L9.66797 0.916017ZM4.73851 2.87924C5.14994 2.66961 5.65767 2.54598 6.44505 2.48165C7.24119 2.4166 8.25546 2.41602 9.66797 2.41602L10.3346 2.41602C11.7471 2.41602 12.7614 2.4166 13.5575 2.48165C14.3449 2.54598 14.8527 2.66961 15.2641 2.87924C16.0638 3.2867 16.7139 3.93687 17.1214 4.73656C17.331 5.14799 17.4547 5.65572 17.519 6.4431C17.5841 7.23924 17.5846 8.25351 17.5846 9.66602L17.5846 10.3327C17.5846 11.7452 17.5841 12.7595 17.519 13.5556C17.4547 14.343 17.331 14.8507 17.1214 15.2621C16.7139 16.0618 16.0638 16.712 15.2641 17.1195C14.8527 17.3291 14.3449 17.4527 13.5576 17.5171C12.7614 17.5821 11.7471 17.5827 10.3346 17.5827L9.66797 17.5827C8.25546 17.5827 7.24119 17.5821 6.44505 17.5171C5.65767 17.4527 5.14994 17.3291 4.73851 17.1195C3.93882 16.712 3.28865 16.0618 2.88119 15.2621C2.67156 14.8507 2.54793 14.343 2.4836 13.5556C2.41855 12.7595 2.41797 11.7452 2.41797 10.3327L2.41797 9.66602C2.41797 8.25351 2.41855 7.23924 2.4836 6.4431C2.54793 5.65572 2.67156 5.14799 2.88119 4.73656C3.28865 3.93687 3.93882 3.2867 4.73851 2.87924ZM5.0013 14.2493C4.58709 14.2493 4.2513 14.5851 4.2513 14.9993C4.2513 15.4136 4.58709 15.7493 5.0013 15.7493L15.0013 15.7494C15.4155 15.7494 15.7513 15.4136 15.7513 14.9994C15.7513 14.5851 15.4155 14.2494 15.0013 14.2494L5.0013 14.2493ZM8.41797 8.33268C8.41797 7.91847 8.75376 7.58268 9.16797 7.58268L15.0013 7.58268C15.4155 7.58268 15.7513 7.91847 15.7513 8.33268C15.7513 8.7469 15.4155 9.08268 15.0013 9.08268L9.16797 9.08268C8.75376 9.08268 8.41797 8.7469 8.41797 8.33268ZM9.16797 4.24935C8.75376 4.24935 8.41797 4.58514 8.41797 4.99935C8.41797 5.41356 8.75376 5.74935 9.16797 5.74935L15.0013 5.74935C15.4155 5.74935 15.7513 5.41356 15.7513 4.99935C15.7513 4.58514 15.4155 4.24935 15.0013 4.24935L9.16797 4.24935ZM4.2513 11.666C4.2513 11.2518 4.58709 10.916 5.0013 10.916L15.0013 10.916C15.4155 10.916 15.7513 11.2518 15.7513 11.666C15.7513 12.0802 15.4155 12.416 15.0013 12.416L5.0013 12.416C4.58709 12.416 4.2513 12.0802 4.2513 11.666ZM5.53161 4.46902C5.23871 4.17613 4.76384 4.17613 4.47095 4.46902C4.17805 4.76191 4.17805 5.23679 4.47095 5.52968L5.60728 6.66602L4.47095 7.80235C4.17805 8.09525 4.17805 8.57012 4.47095 8.86301C4.76384 9.15591 5.23871 9.15591 5.53161 8.86301L7.19827 7.19635C7.49117 6.90345 7.49117 6.42858 7.19827 6.13569L5.53161 4.46902Z" fill="black"/>
</g>
<defs>
<clipPath id="clip0_1196_64672">
<rect width="20" height="20" fill="white"/>
</clipPath>
</defs>
</svg>
