<svg width="16" height="16" viewBox="0 0 16 16" fill="none" xmlns="http://www.w3.org/2000/svg">
<path fill-rule="evenodd" clip-rule="evenodd" d="M8.00016 2.08334C4.73248 2.08334 2.0835 4.73233 2.0835 8.00001C2.0835 11.2677 4.73248 13.9167 8.00016 13.9167C11.2678 13.9167 13.9168 11.2677 13.9168 8.00001C13.9168 4.73233 11.2678 2.08334 8.00016 2.08334ZM0.583496 8.00001C0.583496 3.9039 3.90405 0.583344 8.00016 0.583344C12.0963 0.583344 15.4168 3.9039 15.4168 8.00001C15.4168 12.0961 12.0963 15.4167 8.00016 15.4167C3.90405 15.4167 0.583496 12.0961 0.583496 8.00001ZM8.00016 6.58334C8.41438 6.58334 8.75016 6.91913 8.75016 7.33334V10.6667C8.75016 11.0809 8.41438 11.4167 8.00016 11.4167C7.58595 11.4167 7.25016 11.0809 7.25016 10.6667V7.33334C7.25016 6.91913 7.58595 6.58334 8.00016 6.58334ZM8.00016 6.00001C8.36835 6.00001 8.66683 5.70153 8.66683 5.33334C8.66683 4.96515 8.36835 4.66668 8.00016 4.66668C7.63197 4.66668 7.3335 4.96515 7.3335 5.33334C7.3335 5.70153 7.63197 6.00001 8.00016 6.00001Z" fill="currentColor"/>
</svg>
