<svg width="25" height="24" viewBox="0 0 25 24" fill="none" xmlns="http://www.w3.org/2000/svg">
<path d="M12.0762 0C7.06629 0 5.60109 0.00516967 5.31629 0.0288024C4.28817 0.114287 3.64841 0.276208 2.95144 0.623314C2.41431 0.890106 1.99069 1.19936 1.57262 1.63288C0.811224 2.42347 0.349772 3.3961 0.182727 4.55226C0.101511 5.11354 0.0778851 5.22801 0.073086 8.09496C0.0712402 9.05061 0.073086 10.3083 0.073086 11.9953C0.073086 17.0025 0.0786234 18.4666 0.102619 18.7509C0.18568 19.7516 0.342574 20.3812 0.674819 21.0699C1.30978 22.3882 2.52247 23.3778 3.95113 23.7471C4.4458 23.8745 4.99216 23.9446 5.69357 23.9778C5.99074 23.9908 9.01971 24 12.0505 24C15.0813 24 18.1122 23.9963 18.4019 23.9815C19.2141 23.9433 19.6857 23.88 20.2071 23.7452C20.9155 23.5635 21.5757 23.2293 22.1416 22.7659C22.7075 22.3026 23.1654 21.7212 23.4835 21.0625C23.8092 20.3905 23.9744 19.7369 24.0492 18.7884C24.0654 18.5816 24.0723 15.2847 24.0723 11.9922C24.0723 8.69907 24.0649 5.40821 24.0486 5.20143C23.973 4.23765 23.8078 3.5896 23.4715 2.90462C23.1955 2.34389 22.8891 1.92515 22.4443 1.49699C21.6506 0.738524 20.6797 0.276947 19.5225 0.11004C18.962 0.0289871 18.8503 0.00498504 15.9819 0H12.0762Z" fill="url(#paint0_radial_1196_70310)"/>
<path d="M12.0762 0C7.06629 0 5.60109 0.00516967 5.31629 0.0288024C4.28817 0.114287 3.64841 0.276208 2.95144 0.623314C2.41431 0.890106 1.99069 1.19936 1.57262 1.63288C0.811224 2.42347 0.349772 3.3961 0.182727 4.55226C0.101511 5.11354 0.0778851 5.22801 0.073086 8.09496C0.0712402 9.05061 0.073086 10.3083 0.073086 11.9953C0.073086 17.0025 0.0786234 18.4666 0.102619 18.7509C0.18568 19.7516 0.342574 20.3812 0.674819 21.0699C1.30978 22.3882 2.52247 23.3778 3.95113 23.7471C4.4458 23.8745 4.99216 23.9446 5.69357 23.9778C5.99074 23.9908 9.01971 24 12.0505 24C15.0813 24 18.1122 23.9963 18.4019 23.9815C19.2141 23.9433 19.6857 23.88 20.2071 23.7452C20.9155 23.5635 21.5757 23.2293 22.1416 22.7659C22.7075 22.3026 23.1654 21.7212 23.4835 21.0625C23.8092 20.3905 23.9744 19.7369 24.0492 18.7884C24.0654 18.5816 24.0723 15.2847 24.0723 11.9922C24.0723 8.69907 24.0649 5.40821 24.0486 5.20143C23.973 4.23765 23.8078 3.5896 23.4715 2.90462C23.1955 2.34389 22.8891 1.92515 22.4443 1.49699C21.6506 0.738524 20.6797 0.276947 19.5225 0.11004C18.962 0.0289871 18.8503 0.00498504 15.9819 0H12.0762Z" fill="url(#paint1_radial_1196_70310)"/>
<path d="M12.0704 3.13867C9.66419 3.13867 9.36222 3.1492 8.41717 3.19222C7.47396 3.23542 6.83014 3.38479 6.2668 3.60394C5.68408 3.8303 5.18977 4.13309 4.69731 4.62587C4.20448 5.11847 3.90177 5.61291 3.67474 6.19561C3.45508 6.75929 3.30557 7.40346 3.26312 8.34656C3.22104 9.29187 3.20996 9.59411 3.20996 12.001C3.20996 14.4078 3.22067 14.7089 3.26349 15.6543C3.30687 16.5977 3.45619 17.2417 3.6751 17.8052C3.90158 18.3881 4.2043 18.8825 4.69694 19.3751C5.18922 19.8681 5.68353 20.1716 6.26588 20.398C6.82959 20.6171 7.47359 20.7665 8.41661 20.8097C9.36167 20.8527 9.66346 20.8632 12.0695 20.8632C14.4758 20.8632 14.7769 20.8527 15.7219 20.8097C16.6652 20.7665 17.3097 20.6171 17.8734 20.398C18.456 20.1716 18.9495 19.8681 19.4418 19.3751C19.9346 18.8825 20.2373 18.3881 20.4644 17.8054C20.6822 17.2417 20.8317 16.5975 20.876 15.6544C20.9184 14.7091 20.9295 14.4078 20.9295 12.001C20.9295 9.59411 20.9184 9.29205 20.876 8.34674C20.8317 7.40328 20.6822 6.75929 20.4644 6.19579C20.2373 5.61291 19.9346 5.11847 19.4418 4.62587C18.949 4.13291 18.4561 3.83012 17.8729 3.60394C17.308 3.38479 16.6639 3.23542 15.7207 3.19222C14.7756 3.1492 14.4747 3.13867 12.0678 3.13867H12.0704ZM11.2756 4.73573C11.5115 4.73536 11.7747 4.73573 12.0704 4.73573C14.436 4.73573 14.7164 4.74422 15.6505 4.78669C16.5144 4.8262 16.9832 4.97058 17.2955 5.09188C17.709 5.25251 18.0037 5.44453 18.3136 5.75471C18.6237 6.06489 18.8157 6.3603 18.9767 6.77387C19.0979 7.0859 19.2425 7.55486 19.2818 8.41893C19.3242 9.35317 19.3335 9.6338 19.3335 11.9989C19.3335 14.364 19.3242 14.6447 19.2818 15.5789C19.2423 16.443 19.0979 16.912 18.9767 17.224C18.8161 17.6376 18.6237 17.932 18.3136 18.242C18.0035 18.5522 17.7091 18.7442 17.2955 18.9049C16.9836 19.0267 16.5144 19.1707 15.6505 19.2102C14.7165 19.2527 14.436 19.2619 12.0704 19.2619C9.70462 19.2619 9.42424 19.2527 8.49026 19.2102C7.62642 19.1704 7.15759 19.026 6.84509 18.9047C6.43163 18.7441 6.1363 18.552 5.82621 18.2419C5.51611 17.9317 5.32415 17.637 5.16319 17.2232C5.04192 16.9112 4.8974 16.4423 4.85808 15.5782C4.81563 14.644 4.80714 14.3633 4.80714 11.9967C4.80714 9.63011 4.81563 9.35095 4.85808 8.41672C4.89758 7.55265 5.04192 7.08368 5.16319 6.77129C5.32378 6.35771 5.51611 6.0623 5.82621 5.75212C6.1363 5.44194 6.43163 5.24993 6.84509 5.08893C7.1574 4.96707 7.62642 4.82306 8.49026 4.78336C9.30758 4.74644 9.62432 4.73536 11.2756 4.73351V4.73573ZM16.7997 6.20724C16.5894 6.20724 16.3838 6.26962 16.209 6.38649C16.0342 6.50336 15.8979 6.66948 15.8174 6.86382C15.737 7.05817 15.7159 7.27202 15.757 7.47832C15.798 7.68463 15.8993 7.87412 16.0481 8.02283C16.1968 8.17155 16.3863 8.27281 16.5925 8.3138C16.7988 8.35479 17.0126 8.33368 17.2068 8.25313C17.4011 8.17258 17.5671 8.03621 17.6839 7.86128C17.8007 7.68634 17.863 7.48069 17.8629 7.27034C17.8629 6.68322 17.3867 6.20687 16.7997 6.20687V6.20724ZM12.0704 7.4498C9.55769 7.4498 7.52047 9.48758 7.52047 12.001C7.52047 14.5143 9.55769 16.5512 12.0704 16.5512C14.5831 16.5512 16.6197 14.5143 16.6197 12.001C16.6197 9.48758 14.5829 7.4498 12.0702 7.4498H12.0704ZM12.0704 9.04686C13.7013 9.04686 15.0237 10.3694 15.0237 12.001C15.0237 13.6324 13.7013 14.9551 12.0704 14.9551C10.4392 14.9551 9.1171 13.6324 9.1171 12.001C9.1171 10.3694 10.4392 9.04686 12.0704 9.04686Z" fill="white"/>
<defs>
<radialGradient id="paint0_radial_1196_70310" cx="0" cy="0" r="1" gradientUnits="userSpaceOnUse" gradientTransform="translate(6.4473 25.8485) rotate(-90) scale(23.7858 22.1226)">
<stop stop-color="#FFDD55"/>
<stop offset="0.1" stop-color="#FFDD55"/>
<stop offset="0.5" stop-color="#FF543E"/>
<stop offset="1" stop-color="#C837AB"/>
</radialGradient>
<radialGradient id="paint1_radial_1196_70310" cx="0" cy="0" r="1" gradientUnits="userSpaceOnUse" gradientTransform="translate(-3.94786 1.72892) rotate(78.6806) scale(10.6323 43.827)">
<stop stop-color="#3771C8"/>
<stop offset="0.128" stop-color="#3771C8"/>
<stop offset="1" stop-color="#6600FF" stop-opacity="0"/>
</radialGradient>
</defs>
</svg>
