<svg width="20" height="20" viewBox="0 0 20 20" fill="none" xmlns="http://www.w3.org/2000/svg">
<path fill-rule="evenodd" clip-rule="evenodd" d="M8.8987 1.75L8.8657 1.75C7.77355 1.74999 6.90805 1.74999 6.21043 1.80699C5.49704 1.86527 4.89342 1.98688 4.34224 2.26772C3.44847 2.72312 2.72182 3.44978 2.26642 4.34355C1.98558 4.89472 1.86397 5.49835 1.80569 6.21173C1.74869 6.90936 1.74869 7.77486 1.7487 8.867L1.7487 8.9V13.4167H1.2024C0.583638 13.4167 0.0820312 13.9183 0.0820312 14.537C0.0820312 16.5877 1.74438 18.25 3.795 18.25H16.2024C18.253 18.25 19.9154 16.5877 19.9154 14.537C19.9154 13.9183 19.4138 13.4167 18.795 13.4167H18.2487V8.9V8.86698V8.86691C18.2487 7.77481 18.2487 6.90934 18.1917 6.21173C18.1334 5.49834 18.0118 4.89472 17.731 4.34355C17.2756 3.44978 16.5489 2.72312 15.6552 2.26772C15.104 1.98688 14.5004 1.86527 13.787 1.80699C13.0893 1.74999 12.2238 1.74999 11.1317 1.75L11.0987 1.75H8.8987ZM16.7487 13.4167V8.9C16.7487 7.76752 16.7481 6.96326 16.6967 6.33388C16.646 5.71325 16.5496 5.329 16.3945 5.02453C16.0829 4.413 15.5857 3.91582 14.9742 3.60423C14.6697 3.44909 14.2854 3.35271 13.6648 3.30201C13.0354 3.25058 12.2312 3.25 11.0987 3.25H8.8987C7.76622 3.25 6.96196 3.25058 6.33258 3.30201C5.71195 3.35271 5.3277 3.44909 5.02323 3.60423C4.4117 3.91582 3.91452 4.413 3.60293 5.02453C3.44779 5.329 3.35141 5.71325 3.3007 6.33388C3.24928 6.96327 3.2487 7.76752 3.2487 8.9V13.4167H16.7487ZM2.4987 14.9167H1.61447C1.79449 15.958 2.70225 16.75 3.795 16.75H16.2024C17.2951 16.75 18.2029 15.958 18.3829 14.9167H17.4987H2.4987Z" fill="black"/>
</svg>
