<svg width="20" height="20" viewBox="0 0 20 20" fill="none" xmlns="http://www.w3.org/2000/svg">
<path fill-rule="evenodd" clip-rule="evenodd" d="M7.69312 6.63051L5.19551 4.13289C6.50411 3.05943 8.17703 2.41602 10.0013 2.41602C11.8256 2.41602 13.4985 3.05943 14.8071 4.13289L12.3095 6.63051C11.6529 6.17978 10.8579 5.91602 10.0013 5.91602C9.14471 5.91602 8.34972 6.17978 7.69312 6.63051ZM6.63246 7.69117L4.13485 5.19355C3.06138 6.50216 2.41797 8.17508 2.41797 9.99935C2.41797 11.8236 3.06138 13.4965 4.13485 14.8051L6.63246 12.3075C6.18173 11.6509 5.91797 10.8559 5.91797 9.99935C5.91797 9.14276 6.18173 8.34777 6.63246 7.69117ZM7.69312 13.3682L5.19551 15.8658C6.50411 16.9393 8.17703 17.5827 10.0013 17.5827C11.8256 17.5827 13.4985 16.9393 14.8071 15.8658L12.3095 13.3682C11.6529 13.8189 10.8579 14.0827 10.0013 14.0827C9.14471 14.0827 8.34972 13.8189 7.69312 13.3682ZM13.3701 12.3075L15.8678 14.8051C16.9412 13.4965 17.5846 11.8236 17.5846 9.99935C17.5846 8.17508 16.9412 6.50216 15.8678 5.19355L13.3701 7.69117C13.8209 8.34777 14.0846 9.14276 14.0846 9.99935C14.0846 10.8559 13.8209 11.6509 13.3701 12.3075ZM10.0013 0.916016C7.49322 0.916016 5.22135 1.93352 3.57842 3.57646C1.93548 5.2194 0.917969 7.49126 0.917969 9.99935C0.917969 12.5074 1.93548 14.7793 3.57842 16.4222C5.22135 18.0652 7.49322 19.0827 10.0013 19.0827C12.5094 19.0827 14.7812 18.0652 16.4242 16.4222C18.0671 14.7793 19.0846 12.5074 19.0846 9.99935C19.0846 7.49126 18.0671 5.2194 16.4242 3.57646C14.7812 1.93352 12.5094 0.916016 10.0013 0.916016ZM7.41797 9.99935C7.41797 8.57261 8.57457 7.41602 10.0013 7.41602C11.428 7.41602 12.5846 8.57261 12.5846 9.99935C12.5846 11.4261 11.428 12.5827 10.0013 12.5827C8.57457 12.5827 7.41797 11.4261 7.41797 9.99935Z" fill="black"/>
</svg>
