<svg width="20" height="20" viewBox="0 0 20 20" fill="none" xmlns="http://www.w3.org/2000/svg">
<path fill-rule="evenodd" clip-rule="evenodd" d="M9.66797 0.916016L9.63441 0.916016C8.26269 0.916011 7.18725 0.916007 6.3229 0.986628C5.44276 1.05854 4.71565 1.20739 4.05752 1.54273C2.97559 2.094 2.09595 2.97364 1.54468 4.05557C1.20935 4.7137 1.06049 5.44081 0.988581 6.32095C0.917961 7.1853 0.917964 8.26074 0.917969 9.63246L0.917969 9.66602V10.3327L0.917969 10.3662C0.917964 11.738 0.917961 12.8134 0.988581 13.6777C1.06049 14.5579 1.20935 15.285 1.54468 15.9431C2.09595 17.0251 2.97559 17.9047 4.05752 18.456C4.71565 18.7913 5.44276 18.9402 6.32291 19.0121C7.18722 19.0827 8.26261 19.0827 9.63425 19.0827H9.6343H9.63435H9.63439H9.66797H10.3346H10.3682H10.3683H10.3683H10.3684C11.74 19.0827 12.8154 19.0827 13.6797 19.0121C14.5598 18.9402 15.287 18.7913 15.9451 18.456C17.027 17.9047 17.9067 17.0251 18.4579 15.9431C18.7933 15.285 18.9421 14.5579 19.014 13.6777C19.0846 12.8134 19.0846 11.738 19.0846 10.3664V10.3664V10.3663V10.3663V10.3327V9.66601V9.63244V9.63239V9.63234V9.63229C19.0846 8.26065 19.0846 7.18527 19.014 6.32095C18.9421 5.44081 18.7933 4.7137 18.4579 4.05557C17.9067 2.97364 17.027 2.094 15.9451 1.54273C15.287 1.20739 14.5598 1.05854 13.6797 0.986628C12.8153 0.916007 11.7399 0.916011 10.3682 0.916016L10.3346 0.916016H9.66797ZM4.73851 2.87924C5.14994 2.6696 5.65767 2.54598 6.44505 2.48165C7.24119 2.4166 8.25546 2.41602 9.66797 2.41602H10.3346C11.7471 2.41602 12.7614 2.4166 13.5576 2.48165C14.3449 2.54598 14.8527 2.6696 15.2641 2.87924C16.0638 3.2867 16.714 3.93687 17.1214 4.73656C17.331 5.14798 17.4547 5.65572 17.519 6.4431C17.5841 7.23923 17.5846 8.25351 17.5846 9.66601V10.3327C17.5846 11.7452 17.5841 12.7595 17.519 13.5556C17.4547 14.343 17.331 14.8507 17.1214 15.2621C16.714 16.0618 16.0638 16.712 15.2641 17.1195C14.8527 17.3291 14.3449 17.4527 13.5576 17.5171C12.7614 17.5821 11.7471 17.5827 10.3346 17.5827H9.66797C8.25547 17.5827 7.24119 17.5821 6.44505 17.5171C5.65767 17.4527 5.14994 17.3291 4.73851 17.1195C3.93882 16.712 3.28865 16.0618 2.88119 15.2621C2.67156 14.8507 2.54793 14.343 2.4836 13.5556C2.41855 12.7595 2.41797 11.7452 2.41797 10.3327V9.66602C2.41797 8.25351 2.41855 7.23924 2.4836 6.4431C2.54793 5.65572 2.67156 5.14798 2.88119 4.73656C3.28865 3.93687 3.93882 3.2867 4.73851 2.87924ZM5.83464 14.2493C5.42042 14.2493 5.08464 14.5851 5.08464 14.9993C5.08464 15.4136 5.42042 15.7493 5.83464 15.7493H14.168C14.5822 15.7493 14.918 15.4136 14.918 14.9993C14.918 14.5851 14.5822 14.2493 14.168 14.2493H5.83464ZM5.83464 4.24935L14.168 4.24935C14.5822 4.24935 14.918 4.58514 14.918 4.99935C14.918 5.41356 14.5822 5.74935 14.168 5.74935L5.83464 5.74935C5.42042 5.74935 5.08464 5.41356 5.08464 4.99935C5.08464 4.58514 5.42042 4.24935 5.83464 4.24935ZM10.6721 7.16394C10.5451 6.90985 10.2854 6.74935 10.0013 6.74935C9.71722 6.74935 9.45753 6.90985 9.33048 7.16394L7.83048 10.1639L6.83048 12.1639C6.64524 12.5344 6.79541 12.9849 7.16589 13.1702C7.53638 13.3554 7.98688 13.2052 8.17212 12.8348L8.81878 11.5415C9.13094 11.6592 9.52612 11.7493 10.0013 11.7493C10.4765 11.7493 10.8717 11.6592 11.1838 11.5415L11.8305 12.8348C12.0157 13.2052 12.4662 13.3554 12.8367 13.1702C13.2072 12.9849 13.3574 12.5344 13.1721 12.1639L12.1721 10.1639L10.6721 7.16394ZM10.0013 10.2493C9.8016 10.2493 9.63374 10.2227 9.49663 10.1857L10.0013 9.1764L10.506 10.1857C10.3689 10.2227 10.201 10.2493 10.0013 10.2493Z" fill="black"/>
</svg>
