<svg width="21" height="20" viewBox="0 0 21 20" fill="none" xmlns="http://www.w3.org/2000/svg">
<g clip-path="url(#clip0_1333_28704)">
<path d="M11.3833 6.75918L12.5625 7.93834C13.1042 8.48003 13.5339 9.12312 13.8271 9.83089C14.1203 10.5387 14.2712 11.2973 14.2712 12.0633C14.2712 12.8294 14.1203 13.588 13.8271 14.2958C13.5339 15.0036 13.1042 15.6467 12.5625 16.1883L12.2675 16.4825C11.1735 17.5765 9.68964 18.1911 8.14247 18.1911C6.59529 18.1911 5.11149 17.5765 4.01747 16.4825C2.92345 15.3885 2.30884 13.9047 2.30884 12.3575C2.30884 10.8103 2.92345 9.32653 4.01747 8.23251L5.19664 9.41168C4.80694 9.79797 4.49739 10.2574 4.28574 10.7637C4.0741 11.2699 3.96453 11.813 3.96333 12.3617C3.96212 12.9104 4.06931 13.454 4.27874 13.9611C4.48817 14.4683 4.79571 14.9291 5.1837 15.3171C5.5717 15.7051 6.03251 16.0126 6.53968 16.2221C7.04686 16.4315 7.5904 16.5387 8.13911 16.5375C8.68781 16.5363 9.23088 16.4267 9.73713 16.2151C10.2434 16.0034 10.7028 15.6939 11.0891 15.3042L11.3841 15.0092C12.1653 14.2278 12.6041 13.1682 12.6041 12.0633C12.6041 10.9585 12.1653 9.89888 11.3841 9.11751L10.205 7.93834L11.3841 6.76001L11.3833 6.75918ZM16.9816 11.7683L15.8033 10.59C16.193 10.2037 16.5025 9.74426 16.7142 9.23801C16.9258 8.73176 17.0354 8.18869 17.0366 7.63998C17.0378 7.09127 16.9306 6.54773 16.7212 6.04056C16.5118 5.53339 16.2042 5.07258 15.8162 4.68458C15.4282 4.29658 14.9674 3.98904 14.4603 3.77962C13.9531 3.57019 13.4095 3.463 12.8608 3.4642C12.3121 3.4654 11.7691 3.57497 11.2628 3.78662C10.7566 3.99826 10.2971 4.30782 9.9108 4.69751L9.6158 4.99251C8.83467 5.77388 8.39586 6.83349 8.39586 7.93834C8.39586 9.04319 8.83467 10.1028 9.6158 10.8842L10.795 12.0633L9.6158 13.2417L8.43747 12.0633C7.89573 11.5217 7.466 10.8786 7.17281 10.1708C6.87962 9.46303 6.72871 8.70444 6.72871 7.93834C6.72871 7.17225 6.87962 6.41366 7.17281 5.70589C7.466 4.99812 7.89573 4.35503 8.43747 3.81334L8.73247 3.51918C9.82649 2.42516 11.3103 1.81055 12.8575 1.81055C14.4046 1.81055 15.8885 2.42516 16.9825 3.51918C18.0765 4.6132 18.6911 6.097 18.6911 7.64418C18.6911 9.19135 18.0765 10.6752 16.9825 11.7692L16.9816 11.7683Z" fill="#94A3B8"/>
</g>
<defs>
<clipPath id="clip0_1333_28704">
<rect width="20" height="20" fill="white" transform="translate(0.5)"/>
</clipPath>
</defs>
</svg>
