<svg width="24" height="24" viewBox="0 0 24 24" fill="none" xmlns="http://www.w3.org/2000/svg">
<rect width="24" height="24" rx="12" fill="#0172B1"/>
<path fill-rule="evenodd" clip-rule="evenodd" d="M12.844 10.8507C12.9012 10.7872 12.9265 10.7682 12.9456 10.7428C13.7519 9.56182 14.9075 9.21896 16.2535 9.42213C17.8091 9.6634 18.8059 10.7491 19.0599 12.4126C19.117 12.8063 19.1488 13.2063 19.1488 13.6063C19.1488 15.2634 19.1424 16.9205 19.1551 18.5777C19.1551 18.7618 19.1107 18.819 18.9202 18.819C18.0504 18.8063 17.1805 18.8063 16.317 18.819C16.1265 18.819 16.0758 18.7682 16.0821 18.5777C16.0885 17.0285 16.0885 15.4856 16.0821 13.9364C16.0821 13.5872 16.0567 13.238 15.9615 12.8952C15.644 11.8031 14.4059 11.4221 13.517 12.1459C13.0408 12.5396 12.8504 13.0539 12.8567 13.6634C12.8631 15.1237 12.8567 16.5777 12.8567 18.038C12.8567 18.2285 12.844 18.419 12.8631 18.6094C12.8758 18.7745 12.8059 18.8063 12.6599 18.8063C11.7773 18.7999 10.8885 18.7999 10.0059 18.8063C9.84718 18.8063 9.79004 18.7745 9.79004 18.5967C9.80274 17.2825 9.80909 15.9682 9.80909 14.6539C9.80909 13.0348 9.80909 11.4158 9.79639 9.80309C9.79639 9.62531 9.83448 9.57452 10.0123 9.57452C10.8948 9.58721 11.7837 9.58087 12.6662 9.57452C12.825 9.57452 12.8694 9.61896 12.8631 9.77769C12.8377 10.1205 12.844 10.4571 12.844 10.8507Z" fill="#FEFEFE"/>
<path fill-rule="evenodd" clip-rule="evenodd" d="M8.08864 14.2038C8.08864 15.6641 8.08864 17.118 8.09499 18.5784C8.09499 18.7625 8.05689 18.826 7.86007 18.8196C6.98388 18.8069 6.10769 18.8133 5.2315 18.8196C5.06642 18.8196 5.01562 18.7815 5.01562 18.6101C5.02197 15.6704 5.02197 12.7307 5.01562 9.79107C5.01562 9.63868 5.05372 9.58789 5.21245 9.58789C6.10769 9.59424 6.99658 9.59424 7.89182 9.58789C8.06959 9.58789 8.09499 9.65138 8.09499 9.81011C8.08864 11.2704 8.08864 12.7371 8.08864 14.2038Z" fill="#FEFEFE"/>
<path fill-rule="evenodd" clip-rule="evenodd" d="M6.57713 5.14258C7.75173 5.14258 8.51364 6.07591 8.24062 7.16797C8.0311 7.99337 7.17395 8.46956 6.18983 8.30448C5.14221 8.13305 4.55808 7.11718 4.94538 6.12671C5.18665 5.51083 5.80252 5.14258 6.57713 5.14258Z" fill="#FEFEFE"/>
</svg>
