<svg width="21" height="20" viewBox="0 0 21 20" fill="none" xmlns="http://www.w3.org/2000/svg">
<g clip-path="url(#clip0_1333_28702)">
<path d="M15.7792 15.2825H13.5583V11.8017C13.5583 10.9717 13.5417 9.90333 12.4 9.90333C11.2425 9.90333 11.0658 10.8067 11.0658 11.7408V15.2825H8.84417V8.125H10.9775V9.1H11.0067C11.305 8.53833 12.03 7.94417 13.1133 7.94417C15.3633 7.94417 15.78 9.42583 15.78 11.3533V15.2825H15.7792ZM6.33583 7.14583C6.1663 7.14605 5.99838 7.11281 5.84172 7.04801C5.68506 6.9832 5.54272 6.88812 5.42288 6.7682C5.30304 6.64828 5.20804 6.50588 5.14334 6.34918C5.07864 6.19247 5.0455 6.02454 5.04583 5.855C5.046 5.59986 5.12182 5.3505 5.2637 5.13846C5.40558 4.92641 5.60716 4.76119 5.84294 4.66371C6.07872 4.56623 6.33811 4.54085 6.58832 4.59078C6.83852 4.64072 7.0683 4.76373 7.24859 4.94426C7.42888 5.12478 7.5516 5.35472 7.60121 5.60498C7.65082 5.85525 7.62511 6.11461 7.52732 6.35026C7.42953 6.58592 7.26406 6.78728 7.05183 6.92889C6.83959 7.0705 6.59014 7.146 6.335 7.14583H6.33583ZM7.44917 15.2825H5.22167V8.125H7.45V15.2825H7.44917ZM16.8917 2.5H4.1075C3.49417 2.5 3 2.98333 3 3.58083V16.4192C3 17.0167 3.495 17.5 4.10667 17.5H16.8883C17.5 17.5 18 17.0167 18 16.4192V3.58083C18 2.98333 17.5 2.5 16.8883 2.5H16.8908H16.8917Z" fill="#94A3B8"/>
</g>
<defs>
<clipPath id="clip0_1333_28702">
<rect width="20" height="20" fill="white" transform="translate(0.5)"/>
</clipPath>
</defs>
</svg>
