<svg width="24" height="24" viewBox="0 0 24 24" fill="none" xmlns="http://www.w3.org/2000/svg">
<g clip-path="url(#clip0_1196_70335)">
<path d="M6.76884 5C10.5072 5 13.5374 8.12109 13.5374 11.9709C13.5374 15.8207 10.5069 18.9415 6.76884 18.9415C3.03073 18.9415 0 15.8207 0 11.9709C0 8.12109 3.0305 5 6.76884 5ZM17.5782 5.40834C19.4474 5.40834 20.9626 8.3462 20.9626 11.9709H20.9628C20.9628 15.5946 19.4476 18.5334 17.5784 18.5334C15.7092 18.5334 14.194 15.5946 14.194 11.9709C14.194 8.34714 15.709 5.40834 17.5782 5.40834ZM22.8097 6.09188C23.4669 6.09188 24 8.72395 24 11.9709C24 15.2169 23.4672 17.8499 22.8097 17.8499C22.1522 17.8499 21.6196 15.2176 21.6196 11.9709C21.6196 8.72419 22.1524 6.09188 22.8097 6.09188Z" fill="black"/>
</g>
<defs>
<clipPath id="clip0_1196_70335">
<rect width="24" height="14" fill="white" transform="translate(0 5)"/>
</clipPath>
</defs>
</svg>
