<svg width="48" height="48" viewBox="0 0 48 48" fill="none" xmlns="http://www.w3.org/2000/svg">
<g clip-path="url(#clip0_1224_25891)">
<g clip-path="url(#clip1_1224_25891)">
<path d="M22.4282 0.012917C22.3249 0.0222998 21.9965 0.0551395 21.7009 0.0785965C14.8833 0.693169 8.49736 4.37122 4.45279 10.0243C2.20059 13.1676 0.760117 16.733 0.215836 20.5096C0.0234604 21.8279 0 22.2173 0 24.0047C0 25.7921 0.0234604 26.1815 0.215836 27.4998C1.52023 36.512 7.93431 44.0839 16.6334 46.8893C18.1912 47.3913 19.8334 47.7338 21.7009 47.9402C22.4282 48.0199 25.5718 48.0199 26.2991 47.9402C29.5226 47.5836 32.2534 46.7861 34.9466 45.4115C35.3595 45.2004 35.4393 45.1441 35.383 45.0972C35.3455 45.0691 33.5859 42.7093 31.4745 39.8569L27.6364 34.6729L22.827 27.5561C20.1806 23.6435 18.0035 20.4439 17.9848 20.4439C17.966 20.4392 17.9472 23.6012 17.9378 27.4623C17.9238 34.2226 17.9191 34.4947 17.8346 34.6542C17.7126 34.884 17.6188 34.9779 17.4217 35.0811C17.2716 35.1561 17.1402 35.1702 16.4317 35.1702H15.6199L15.4041 35.0342C15.2633 34.945 15.1601 34.8277 15.0897 34.6917L14.9912 34.4806L15.0006 25.0743L15.0147 15.6634L15.1601 15.4804C15.2352 15.3819 15.3947 15.2553 15.5073 15.1943C15.6997 15.1004 15.7748 15.0911 16.5865 15.0911C17.5437 15.0911 17.7032 15.1286 17.9519 15.4007C18.0223 15.4757 20.6264 19.3978 23.7419 24.122C26.8575 28.8462 31.1179 35.2969 33.2106 38.4636L37.0111 44.2199L37.2035 44.0932C38.9067 42.9861 40.7085 41.4098 42.1349 39.7678C45.1707 36.2821 47.1273 32.0317 47.7842 27.4998C47.9765 26.1815 48 25.7921 48 24.0047C48 22.2173 47.9765 21.8279 47.7842 20.5096C46.4798 11.4974 40.0657 3.92554 31.3666 1.12009C29.8323 0.622798 28.1994 0.280326 26.3695 0.0739051C25.9191 0.0269912 22.8176 -0.0246142 22.4282 0.012917ZM32.2534 14.5281C32.4786 14.6407 32.6616 14.8565 32.7273 15.0817C32.7648 15.2036 32.7742 17.8121 32.7648 23.6904L32.7507 32.1255L31.2633 29.8455L29.7713 27.5655V21.4338C29.7713 17.4696 29.79 15.2412 29.8182 15.1333C29.8933 14.8706 30.0575 14.6641 30.2827 14.5422C30.4751 14.4436 30.5455 14.4343 31.2821 14.4343C31.9765 14.4343 32.0985 14.4436 32.2534 14.5281Z" fill="black"/>
</g>
</g>
<defs>
<clipPath id="clip0_1224_25891">
<rect width="48" height="48" fill="white"/>
</clipPath>
<clipPath id="clip1_1224_25891">
<rect width="48" height="48" fill="white"/>
</clipPath>
</defs>
</svg>
