<svg width="48" height="48" viewBox="0 0 48 48" fill="none" xmlns="http://www.w3.org/2000/svg">
<g clip-path="url(#clip0_1224_25898)">
<path d="M26.7518 39.6312H44.4785C45.0415 39.6312 45.5947 39.4851 46.0822 39.2074C46.5698 38.9298 46.9747 38.5305 47.2561 38.0495C47.5375 37.5686 47.6855 37.0231 47.6852 36.4679C47.685 35.9126 47.5365 35.3673 47.2547 34.8866L35.35 14.5523C35.0686 14.0715 34.6638 13.6723 34.1763 13.3947C33.6888 13.1171 33.1358 12.9709 32.5729 12.9709C32.0099 12.9709 31.457 13.1171 30.9694 13.3947C30.482 13.6723 30.0772 14.0715 29.7958 14.5523L26.7518 19.7551L20.8004 9.58118C20.5187 9.10042 20.1138 8.70121 19.6262 8.42366C19.1385 8.14611 18.5854 8 18.0224 8C17.4594 8 16.9063 8.14611 16.4187 8.42366C15.931 8.70121 15.5261 9.10042 15.2445 9.58118L0.430571 34.8866C0.148747 35.3673 0.00024528 35.9126 3.03584e-07 36.4679C-0.000244673 37.0231 0.147776 37.5686 0.429175 38.0495C0.710574 38.5305 1.11543 38.9298 1.60302 39.2074C2.0906 39.4851 2.64374 39.6312 3.20678 39.6312H14.3341C18.7428 39.6312 21.9942 37.7214 24.2313 33.9956L29.6628 24.7194L32.572 19.7551L41.3032 34.6668H29.6628L26.7518 39.6312ZM14.1527 34.6618L6.38723 34.66L18.0276 14.7789L23.8357 24.7194L19.9469 31.3635C18.4612 33.781 16.7734 34.6618 14.1527 34.6618Z" fill="#00DC82"/>
</g>
<defs>
<clipPath id="clip0_1224_25898">
<rect width="48" height="32" fill="white" transform="translate(0 8)"/>
</clipPath>
</defs>
</svg>
