<svg width="20" height="20" viewBox="0 0 20 20" fill="none" xmlns="http://www.w3.org/2000/svg">
<path fill-rule="evenodd" clip-rule="evenodd" d="M4.91797 7.33273C4.91797 4.44976 7.13765 2.41602 10.0013 2.41602C12.865 2.41602 15.0846 4.44976 15.0846 7.33273C15.0846 9.71265 14.0593 11.4441 12.8808 12.5917C12.2886 13.1684 11.662 13.5925 11.119 13.8694C10.5503 14.1593 10.1498 14.2493 10.0013 14.2493C9.85277 14.2493 9.45235 14.1593 8.88362 13.8694C8.34059 13.5925 7.71401 13.1684 7.12177 12.5917C5.94328 11.4441 4.91797 9.71265 4.91797 7.33273ZM10.0013 0.916016C6.38347 0.916016 3.41797 3.54898 3.41797 7.33273C3.41797 10.1874 4.66117 12.2893 6.07528 13.6663C6.77934 14.3519 7.53007 14.863 8.20231 15.2057C8.84886 15.5354 9.50168 15.7493 10.0013 15.7493C10.5009 15.7493 11.1537 15.5354 11.8003 15.2057C12.4725 14.863 13.2233 14.3519 13.9273 13.6663C15.3414 12.2893 16.5846 10.1874 16.5846 7.33273C16.5846 3.54898 13.6191 0.916016 10.0013 0.916016ZM10.0013 5.74935C9.49504 5.74935 9.08463 6.15975 9.08463 6.66602C9.08463 7.17228 9.49504 7.58268 10.0013 7.58268C10.5076 7.58268 10.918 7.17228 10.918 6.66602C10.918 6.15975 10.5076 5.74935 10.0013 5.74935ZM7.58464 6.66602C7.58464 5.33133 8.66661 4.24935 10.0013 4.24935C11.336 4.24935 12.418 5.33133 12.418 6.66602C12.418 8.0007 11.336 9.08268 10.0013 9.08268C8.66661 9.08268 7.58464 8.0007 7.58464 6.66602ZM4.22105 13.9C4.36798 14.2872 4.17315 14.7203 3.78587 14.8672C3.24883 15.071 2.87342 15.2836 2.64585 15.4774C2.53444 15.5723 2.47484 15.6489 2.44511 15.7007C2.41796 15.7481 2.41797 15.77 2.41797 15.7742V15.7742L2.41797 15.7744C2.41795 15.7783 2.41781 15.8086 2.46135 15.8739C2.50918 15.9457 2.6012 16.0454 2.76341 16.1631C3.09163 16.4014 3.61484 16.6471 4.32887 16.8664C5.7477 17.302 7.75338 17.5827 10.0013 17.5827C12.2492 17.5827 14.2549 17.302 15.6737 16.8664C16.3878 16.6471 16.911 16.4014 17.2392 16.1631C17.4014 16.0454 17.4934 15.9457 17.5413 15.8739C17.5848 15.8086 17.5847 15.7783 17.5846 15.7744V15.7742V15.7742C17.5846 15.77 17.5846 15.7481 17.5575 15.7007C17.5278 15.6489 17.4682 15.5723 17.3568 15.4774C17.1292 15.2836 16.7538 15.071 16.2167 14.8672C15.8295 14.7203 15.6346 14.2872 15.7816 13.9C15.9285 13.5127 16.3616 13.3179 16.7488 13.4648C17.3699 13.7004 17.9205 13.9873 18.3293 14.3354C18.7342 14.6802 19.0846 15.1623 19.0846 15.7742C19.0846 16.4832 18.6188 17.0152 18.1203 17.3771C17.6052 17.751 16.908 18.0565 16.114 18.3003C14.5167 18.7907 12.3557 19.0827 10.0013 19.0827C7.64686 19.0827 5.48587 18.7907 3.88863 18.3003C3.09461 18.0565 2.39743 17.751 1.88228 17.3771C1.38379 17.0152 0.917969 16.4832 0.917969 15.7742C0.917969 15.1623 1.2684 14.6802 1.67333 14.3354C2.08215 13.9873 2.63266 13.7004 3.25377 13.4648C3.64105 13.3179 4.07411 13.5127 4.22105 13.9Z" fill="black"/>
</svg>
