<svg width="30" height="30" viewBox="0 0 30 30" fill="none" xmlns="http://www.w3.org/2000/svg">
<path fill-rule="evenodd" clip-rule="evenodd" d="M2.41797 14.9993C2.41797 8.04977 8.05172 2.41602 15.0013 2.41602C21.9509 2.41602 27.5846 8.04977 27.5846 14.9993C27.5846 21.9489 21.9509 27.5827 15.0013 27.5827C8.05172 27.5827 2.41797 21.9489 2.41797 14.9993ZM15.0013 0.916016C7.22329 0.916016 0.917969 7.22134 0.917969 14.9993C0.917969 22.7774 7.22329 29.0827 15.0013 29.0827C22.7793 29.0827 29.0846 22.7774 29.0846 14.9993C29.0846 7.22134 22.7793 0.916016 15.0013 0.916016ZM15.2382 10.7003L15.2093 10.6811L15.2093 10.6811C14.83 10.4282 14.5029 10.2101 14.2286 10.0614C13.9539 9.9126 13.6145 9.76471 13.2303 9.78764C12.7195 9.81814 12.2477 10.0707 11.939 10.4787C11.7068 10.7857 11.6416 11.1501 11.6131 11.4612C11.5846 11.772 11.5846 12.165 11.5846 12.6209L11.5846 12.6556V17.3431L11.5846 17.3778C11.5846 17.8337 11.5846 18.2267 11.6131 18.5375C11.6416 18.8486 11.7068 19.213 11.939 19.52C12.2477 19.928 12.7195 20.1806 13.2303 20.2111C13.6145 20.234 13.9539 20.0861 14.2286 19.9373C14.5029 19.7886 14.83 19.5705 15.2093 19.3176L15.2382 19.2984L18.7537 16.9547L18.7806 16.9367C19.0914 16.7296 19.3659 16.5466 19.5742 16.3786C19.7897 16.2048 20.0184 15.9831 20.1484 15.6697C20.3264 15.2405 20.3264 14.7582 20.1484 14.329C20.0184 14.0156 19.7897 13.7939 19.5742 13.6201C19.366 13.4521 19.0914 13.2691 18.7806 13.062L18.7537 13.044L15.2382 10.7003ZM13.1447 11.372C13.1854 11.3244 13.2426 11.2938 13.3048 11.2863C13.3225 11.2911 13.3844 11.3101 13.5139 11.3802C13.7203 11.4921 13.9897 11.6708 14.4061 11.9484L17.9217 14.2921C18.2675 14.5227 18.4839 14.6678 18.6326 14.7877C18.7241 14.8615 18.7575 14.901 18.7663 14.9125C18.7871 14.9685 18.7871 15.0302 18.7663 15.0862C18.7575 15.0977 18.7241 15.1372 18.6326 15.211C18.4839 15.3309 18.2675 15.476 17.9217 15.7066L14.4061 18.0503C13.9897 18.3279 13.7203 18.5066 13.5139 18.6185C13.3844 18.6886 13.3225 18.7076 13.3048 18.7124C13.2426 18.7049 13.1854 18.6743 13.1447 18.6267C13.1388 18.6093 13.1203 18.5473 13.1068 18.4006C13.0854 18.1668 13.0846 17.8435 13.0846 17.3431V12.6556C13.0846 12.1552 13.0854 11.8319 13.1068 11.5981C13.1203 11.4514 13.1388 11.3894 13.1447 11.372Z" fill="white"/>
</svg>
