<svg width="14" height="14" viewBox="0 0 14 14" fill="none" xmlns="http://www.w3.org/2000/svg">
<path fill-rule="evenodd" clip-rule="evenodd" d="M7.00008 0.416748C7.41429 0.416748 7.75008 0.752534 7.75008 1.16675V6.25008H12.8334C13.2476 6.25008 13.5834 6.58587 13.5834 7.00008C13.5834 7.41429 13.2476 7.75008 12.8334 7.75008H7.75008V12.8334C7.75008 13.2476 7.41429 13.5834 7.00008 13.5834C6.58587 13.5834 6.25008 13.2476 6.25008 12.8334V7.75008H1.16675C0.752534 7.75008 0.416748 7.41429 0.416748 7.00008C0.416748 6.58587 0.752534 6.25008 1.16675 6.25008H6.25008V1.16675C6.25008 0.752534 6.58587 0.416748 7.00008 0.416748Z" fill="currentColor"/>
</svg>
