<svg width="24" height="24" viewBox="0 0 24 24" fill="none" xmlns="http://www.w3.org/2000/svg">
<g clip-path="url(#clip0_1224_26164)">
<mask id="mask0_1224_26164" style="mask-type:luminance" maskUnits="userSpaceOnUse" x="0" y="0" width="24" height="24">
<path d="M24 0H0V24H24V0Z" fill="white"/>
</mask>
<g mask="url(#mask0_1224_26164)">
<path d="M0 9.216C0 5.9904 0 4.3768 0.628 3.1448C1.18 2.0608 2.0616 1.18 3.1456 0.6272C4.3768 0 5.9904 0 9.216 0H14.784C18.0096 0 19.6232 0 20.8552 0.628C21.9392 1.18 22.82 2.0616 23.3728 3.1456C24.0008 4.3776 24.0008 5.9904 24.0008 9.2168V14.7848C24.0008 18.0104 24.0008 19.624 23.3728 20.856C22.8208 21.94 21.9392 22.8208 20.8552 23.3736C19.6232 24.0016 18.0104 24.0016 14.784 24.0016H9.216C5.9904 24.0016 4.3768 24.0016 3.1448 23.3736C2.0608 22.8216 1.18 21.94 0.6272 20.856C0 19.6232 0 18.0096 0 14.784V9.216Z" fill="#0331FC"/>
<path d="M15.907 7.3832C15.215 6.7824 14.3494 6.3976 13.4262 6.2792L13.3654 6.7552C14.1966 6.8616 14.9734 7.208 15.5926 7.7448L15.907 7.3824V7.3832ZM13.4262 6.2792C12.503 6.1608 11.563 6.3136 10.7318 6.7184L10.9422 7.1496C11.6886 6.7864 12.5342 6.648 13.3654 6.7552L13.4262 6.2792ZM10.7318 6.7184C9.90064 7.1232 9.21504 7.7608 8.76944 8.5496L9.18704 8.7864C9.58384 8.0848 10.1958 7.5144 10.9422 7.1504L10.7318 6.7192V6.7184ZM9.01424 8.4304C8.77344 8.3936 8.53024 8.3752 8.28624 8.376L8.28784 8.856C8.50704 8.856 8.72544 8.872 8.94224 8.9048L9.01424 8.4304ZM8.28704 8.376C5.86144 8.376 3.83984 10.1312 3.83984 12.348H4.31984C4.31984 10.4488 6.07104 8.856 8.28704 8.856V8.376ZM3.83984 12.348C3.83984 14.3856 5.55344 16.0592 7.77824 16.2912L7.82784 15.8136C5.79984 15.6024 4.31984 14.0944 4.31984 12.348H3.83984ZM7.77824 16.2912C7.98464 16.3128 8.19264 16.2552 8.35744 16.1288L8.06464 15.748C7.99904 15.7984 7.91424 15.8224 7.82784 15.8136L7.77824 16.2912ZM8.35744 16.1288C8.52224 16.0024 8.63024 15.8152 8.65344 15.6088L8.17664 15.5544C8.16864 15.628 8.12944 15.6984 8.06464 15.748L8.35744 16.1288ZM8.65344 15.6088C8.67664 15.4016 8.61344 15.196 8.47904 15.0368L8.11184 15.3456C8.16224 15.4064 8.18464 15.4808 8.17664 15.5544L8.65344 15.6088ZM8.47904 15.0368C8.34544 14.8776 8.15344 14.7784 7.94704 14.7568L7.89744 15.2344C7.98384 15.2432 8.06064 15.2848 8.11184 15.3456L8.47904 15.0368ZM7.93664 14.756C7.27744 14.7176 6.65904 14.4472 6.19904 13.9992L5.86384 14.3432C6.40784 14.8736 7.13664 15.1904 7.90784 15.2352L7.93584 14.756H7.93664ZM6.19904 13.9992C5.73984 13.552 5.47184 12.9592 5.44384 12.3368L4.96464 12.3584C4.99744 13.1056 5.31904 13.8128 5.86384 14.3432L6.19904 13.9992ZM5.44464 12.3472C5.44464 11.044 6.69264 9.92 8.29904 9.92V9.44C6.49664 9.44 4.96464 10.7144 4.96464 12.3472H5.44464ZM8.29744 9.92C8.57024 9.9216 8.84064 9.956 9.10384 10.0232L9.22224 9.5584C8.92144 9.4816 8.61104 9.4416 8.29984 9.44L8.29744 9.92ZM9.10384 10.0232C9.28944 10.0704 9.48624 10.0512 9.65904 9.968L9.45104 9.5352C9.38064 9.5688 9.29904 9.5768 9.22224 9.5576L9.10384 10.0224V10.0232ZM9.65904 9.968C9.83184 9.8848 9.96944 9.7424 10.0422 9.5656L9.59904 9.3816C9.57264 9.4464 9.52064 9.5016 9.45024 9.5352L9.65824 9.968H9.65904ZM10.0414 9.5688C10.2926 8.9848 10.739 8.4936 11.315 8.1752L11.0822 7.7552C10.4158 8.124 9.89424 8.6944 9.59984 9.3792L10.0406 9.5688H10.0414ZM11.315 8.1752C11.891 7.8568 12.5614 7.7288 13.223 7.8128L13.2838 7.3368C12.523 7.24 11.7494 7.3872 11.083 7.7552L11.3158 8.1752H11.315ZM13.223 7.8128C13.8838 7.8968 14.4958 8.188 14.963 8.6376L15.2958 8.292C14.7526 7.7688 14.0446 7.4336 13.283 7.3368L13.2222 7.8128H13.223ZM14.963 8.6376C15.4302 9.088 15.727 9.6712 15.8094 10.2968L16.2854 10.2344C16.1886 9.4984 15.8398 8.816 15.2958 8.292L14.963 8.6376ZM15.8094 10.296C15.835 10.5008 15.9438 10.6848 16.107 10.8104L16.3998 10.4296C16.3342 10.3792 16.295 10.3088 16.2854 10.2352L15.8094 10.2952V10.296ZM16.107 10.8104C16.2702 10.936 16.4766 10.9944 16.6814 10.9752L16.6374 10.4976C16.5502 10.5056 16.4646 10.4808 16.399 10.4304L16.1062 10.8112H16.107V10.8104ZM16.6598 10.9768C18.023 10.9768 19.0422 11.8744 19.0422 12.8696H19.5222C19.5222 11.5224 18.1918 10.4968 16.6598 10.4968V10.9768ZM19.0422 12.8696C19.0422 13.8632 18.0126 14.7624 16.6342 14.7624V15.2424C18.1766 15.2424 19.5222 14.2184 19.5222 12.8696H19.0422ZM16.6366 14.7624C16.531 14.7624 16.4262 14.7808 16.3286 14.82L16.5062 15.2656C16.5462 15.2496 16.5894 15.2416 16.6326 15.2416L16.6366 14.7616V14.7624ZM16.3286 14.82C16.231 14.8592 16.1414 14.9168 16.0662 14.9904L16.4022 15.3336C16.431 15.3048 16.467 15.2824 16.5062 15.2664L16.3286 14.8208V14.82ZM16.0662 14.9904C15.991 15.064 15.9318 15.152 15.8918 15.2496L16.3366 15.4312C16.351 15.396 16.3734 15.3624 16.4022 15.3344L16.0662 14.9912V14.9904ZM15.8918 15.2496C15.8518 15.3472 15.8334 15.4512 15.8366 15.5568L16.3166 15.5416C16.3166 15.504 16.3222 15.4664 16.3366 15.4312L15.8918 15.2496ZM15.8366 15.5528C15.8398 15.7608 15.9286 15.9568 16.0798 16.0992L16.4094 15.7496C16.3502 15.6936 16.3182 15.62 16.3174 15.5448L15.8374 15.552L15.8366 15.5528ZM16.0798 16.0992C16.231 16.2416 16.4318 16.3192 16.639 16.3192V15.8392C16.551 15.8392 16.4686 15.8056 16.4086 15.7496L16.079 16.0992H16.0798ZM16.639 16.3192C18.8014 16.3192 20.6398 14.8144 20.6398 12.8816H20.1598C20.1598 14.4792 18.6134 15.8392 16.639 15.8392V16.3192ZM20.6398 12.8792C20.6214 11.076 19.0446 9.66 17.0894 9.4648L17.0414 9.9424C18.8182 10.1192 20.1446 11.3864 20.1598 12.884L20.6398 12.8792ZM17.299 9.6464C17.0854 8.772 16.599 7.9832 15.907 7.3816L15.5926 7.744C16.2118 8.2816 16.6438 8.9848 16.8326 9.76L17.299 9.6456V9.6464ZM8.97824 8.6664L8.94224 8.904L9.10544 8.9288L9.18704 8.7848L8.97824 8.6664ZM7.92304 14.9952L7.94784 14.7568H7.93664L7.92304 14.9952ZM5.20464 12.348H4.96464V12.3584L5.20464 12.348ZM8.29904 9.6808L8.30064 9.4408V9.6808H8.29904ZM9.82144 9.476L9.60064 9.3816V9.3848L9.82144 9.4768V9.476ZM16.047 10.268L16.2854 10.2376L16.0478 10.268H16.047ZM16.659 10.7384V10.4984H16.6374L16.659 10.7384ZM16.6342 15.0048L16.6326 15.2448H16.6342V15.0048ZM16.0758 15.5504L16.3158 15.5464V15.5432L16.0758 15.5504ZM20.3998 12.8832H20.6398V12.8808L20.3998 12.8832ZM17.0654 9.7048L16.8326 9.7616L16.8726 9.9264L17.0414 9.9432L17.0654 9.704V9.7048Z" fill="white"/>
<path d="M15.7489 7.56366C16.4041 8.13326 16.8633 8.87966 17.0649 9.70366C18.9305 9.89006 20.3825 11.2317 20.3993 12.8813C20.3993 14.6461 18.7073 16.0789 16.6385 16.0789C16.4905 16.0789 16.3489 16.0229 16.2433 15.9237C16.1377 15.8245 16.0777 15.6893 16.0753 15.5485C16.0729 15.4773 16.0857 15.4061 16.1129 15.3397C16.1401 15.2733 16.1809 15.2125 16.2329 15.1621C16.2849 15.1109 16.3473 15.0709 16.4161 15.0437C16.4849 15.0165 16.5585 15.0021 16.6337 15.0029C18.0937 15.0029 19.2817 14.0413 19.2817 12.8701C19.2817 11.6989 18.1065 10.7373 16.6593 10.7373C16.5129 10.7509 16.3673 10.7093 16.2529 10.6213C16.1385 10.5333 16.0649 10.4061 16.0473 10.2669C15.9577 9.58606 15.6345 8.95246 15.1297 8.46606C14.6249 7.97966 13.9649 7.66606 13.2537 7.57566C12.5425 7.48526 11.8201 7.62286 11.1993 7.96606C10.5785 8.31006 10.0937 8.84046 9.82168 9.47486C9.77128 9.59566 9.67688 9.69406 9.55608 9.75246C9.43448 9.81086 9.29528 9.82446 9.16408 9.79086C8.88168 9.71886 8.59128 9.68126 8.29928 9.67966C6.59528 9.67966 5.20488 10.8789 5.20488 12.3469C5.23528 13.0317 5.52968 13.6813 6.03208 14.1701C6.53448 14.6589 7.20808 14.9525 7.92328 14.9941C8.06968 15.0093 8.20408 15.0797 8.29608 15.1893C8.38808 15.2989 8.43128 15.4397 8.41528 15.5797C8.39928 15.7197 8.32568 15.8485 8.21128 15.9365C8.09608 16.0245 7.94968 16.0661 7.80328 16.0509C5.67688 15.8293 4.08008 14.2381 4.08008 12.3469C4.08008 10.2893 5.96648 8.61486 8.28728 8.61486C8.51848 8.61486 8.74968 8.63166 8.97848 8.66606C9.40008 7.92126 10.0481 7.31646 10.8369 6.93246C11.6257 6.54846 12.5185 6.40286 13.3961 6.51566C14.2737 6.62846 15.0945 6.99326 15.7497 7.56286H15.7489V7.56366Z" fill="white"/>
<path d="M13.0874 13.7639C13.2418 13.1879 13.8338 12.8455 14.4098 12.9999C14.9858 13.1543 15.3282 13.7463 15.1738 14.3223L14.4906 16.8727C14.3362 17.4487 13.7442 17.7911 13.1682 17.6367C12.5922 17.4823 12.2498 16.8903 12.4042 16.3143L13.0874 13.7639Z" fill="white"/>
<path opacity="0.5" d="M9.95096 14.4827C10.1054 13.9067 10.6974 13.5643 11.2734 13.7187C11.8494 13.8731 12.1918 14.4651 12.0374 15.0411L11.727 16.2003C11.5726 16.7763 10.9806 17.1187 10.4046 16.9643C9.82856 16.8099 9.48616 16.2179 9.64056 15.6419L9.95096 14.4827Z" fill="white"/>
</g>
</g>
<defs>
<clipPath id="clip0_1224_26164">
<rect width="24" height="24" fill="white"/>
</clipPath>
</defs>
</svg>
