<svg width="48" height="48" viewBox="0 0 48 48" fill="none" xmlns="http://www.w3.org/2000/svg">
<g clip-path="url(#clip0_1224_25921)">
<path d="M0.140625 23.5151C0.140625 27.1178 3.65859 30.481 9.20495 32.3767C8.09739 37.9526 9.00646 42.4466 12.0428 44.1978C15.1639 45.9976 19.8135 44.7518 24.2267 40.8942C28.5285 44.596 32.8762 46.0529 35.9097 44.2968C39.0277 42.4917 39.9762 37.6928 38.838 31.943C44.6148 30.033 47.8462 27.1652 47.8462 23.5151C47.8462 19.9959 44.3217 16.9514 38.8502 15.0678C40.0755 9.08027 39.0372 4.69525 35.8752 2.87178C32.8266 1.11384 28.4284 2.64607 24.0634 6.44488C19.5223 2.41274 15.1675 1.18168 12.0085 3.01046C8.9629 4.7734 8.09381 9.34914 9.20495 15.0282C3.84587 16.8967 0.140625 20.01 0.140625 23.5151Z" fill="white"/>
<path d="M37.6915 16.9382C37.252 16.7869 36.7966 16.6438 36.3276 16.5084C36.4047 16.1939 36.4754 15.8834 36.5383 15.5782C37.5707 10.5668 36.8957 6.52961 34.5907 5.20039C32.3806 3.92585 28.766 5.25476 25.1154 8.43174C24.7644 8.73723 24.4123 9.06068 24.0604 9.39966C23.826 9.17538 23.5919 8.95864 23.3584 8.75133C19.5325 5.35431 15.6977 3.92275 13.3949 5.25582C11.1869 6.53406 10.533 10.3294 11.4623 15.0787C11.552 15.5375 11.6569 16.0059 11.7755 16.4822C11.2328 16.6363 10.7088 16.8006 10.2075 16.9753C5.72204 18.5391 2.85742 20.99 2.85742 23.5322C2.85742 26.1579 5.93259 28.7914 10.6045 30.3883C10.9732 30.5143 11.3558 30.6335 11.7501 30.7466C11.6221 31.2617 11.5108 31.7665 11.4173 32.2589C10.5312 36.9258 11.2232 40.6315 13.4254 41.9016C15.7001 43.2134 19.5176 41.8651 23.2349 38.6157C23.5287 38.3589 23.8236 38.0865 24.119 37.8009C24.5018 38.1696 24.8841 38.5186 25.2643 38.8459C28.865 41.9443 32.4212 43.1955 34.6214 41.9218C36.8938 40.6063 37.6323 36.6255 36.6735 31.7822C36.6003 31.4123 36.515 31.0344 36.4193 30.6498C36.6874 30.5706 36.9506 30.4887 37.2072 30.4037C42.0642 28.7944 45.2243 26.1929 45.2243 23.5322C45.2243 20.9808 42.2673 18.5134 37.6915 16.9382Z" fill="#53C1DE"/>
<path d="M36.6388 28.6866C36.4071 28.7633 36.1694 28.8374 35.9272 28.9093C35.391 27.2118 34.6673 25.4068 33.7818 23.5419C34.6268 21.7215 35.3225 19.9396 35.8437 18.2531C36.2771 18.3785 36.6977 18.5108 37.1031 18.6504C41.0236 20.0001 43.4151 21.9955 43.4151 23.5331C43.4151 25.1709 40.8324 27.297 36.6388 28.6866ZM34.8987 32.1346C35.3227 34.2762 35.3832 36.2125 35.1024 37.7262C34.8501 39.0863 34.3426 39.9932 33.7152 40.3563C32.38 41.1292 29.5247 40.1246 26.4454 37.4748C26.0924 37.171 25.7368 36.8467 25.3801 36.5034C26.5739 35.1978 27.767 33.6799 28.9315 31.9942C30.9796 31.8125 32.9146 31.5154 34.6694 31.1097C34.7558 31.4584 34.8326 31.8003 34.8987 32.1346ZM17.302 40.2228C15.9975 40.6835 14.9585 40.6967 14.3305 40.3346C12.9941 39.5638 12.4385 36.5884 13.1964 32.5973C13.2832 32.1402 13.3865 31.6707 13.5055 31.1908C15.2411 31.5746 17.1619 31.8507 19.2149 32.0172C20.3872 33.6667 21.6148 35.1828 22.8519 36.5104C22.5816 36.7713 22.3124 37.0197 22.0446 37.2538C20.4009 38.6906 18.7536 39.7101 17.302 40.2228ZM11.1906 28.6766C9.12477 27.9705 7.41871 27.0528 6.24929 26.0514C5.19849 25.1515 4.66797 24.2581 4.66797 23.5331C4.66797 21.9904 6.96797 20.0227 10.804 18.6852C11.2694 18.5229 11.7567 18.37 12.2623 18.2264C12.7924 19.9509 13.4879 21.7539 14.3272 23.5772C13.477 25.4275 12.7717 27.2593 12.2364 29.004C11.8759 28.9004 11.5267 28.7913 11.1906 28.6766ZM13.2392 14.732C12.443 10.6629 12.9718 7.59335 14.3024 6.82309C15.7198 6.00253 18.854 7.17248 22.1574 10.1056C22.3685 10.2931 22.5805 10.4893 22.7931 10.6923C21.5622 12.0141 20.3458 13.5189 19.184 15.1586C17.1914 15.3433 15.2841 15.64 13.5304 16.0373C13.4202 15.5938 13.3225 15.158 13.2392 14.732ZM31.5143 19.2446C31.0951 18.5205 30.6647 17.8135 30.226 17.1259C31.5778 17.2967 32.8729 17.5236 34.0891 17.8012C33.724 18.9714 33.2689 20.195 32.7331 21.4493C32.3488 20.7197 31.9424 19.9841 31.5143 19.2446ZM24.0618 11.9858C24.8966 12.8902 25.7326 13.9 26.5549 14.9956C25.7263 14.9565 24.8874 14.9361 24.0416 14.9361C23.2037 14.9361 22.371 14.956 21.5475 14.9945C22.3707 13.9091 23.2139 12.9007 24.0618 11.9858ZM16.5615 19.2572C16.1427 19.9833 15.7438 20.715 15.3655 21.448C14.8385 20.198 14.3876 18.9689 14.0193 17.782C15.228 17.5115 16.5171 17.2903 17.8602 17.1227C17.4153 17.8167 16.9814 18.5291 16.5615 19.2572ZM17.8989 30.0727C16.5112 29.9178 15.2028 29.708 13.9943 29.445C14.3685 28.237 14.8293 26.9816 15.3676 25.7047C15.7468 26.4372 16.1473 27.1691 16.5686 27.8969C16.9978 28.6382 17.4425 29.3645 17.8989 30.0727ZM24.1118 35.208C23.254 34.2825 22.3984 33.2587 21.5628 32.1574C22.374 32.1893 23.201 32.2056 24.0416 32.2056C24.9051 32.2056 25.7588 32.1861 26.599 32.1487C25.774 33.2698 24.941 34.2952 24.1118 35.208ZM32.7504 25.6396C33.3167 26.9303 33.7941 28.1791 34.1731 29.3666C32.9447 29.6468 31.6184 29.8725 30.221 30.0402C30.6608 29.3433 31.095 28.6241 31.5216 27.8844C31.9532 27.136 32.3629 26.3865 32.7504 25.6396ZM29.9538 26.9802C29.2916 28.1285 28.6116 29.2247 27.9214 30.2595C26.6642 30.3493 25.3654 30.3957 24.0416 30.3957C22.7231 30.3957 21.4407 30.3547 20.2057 30.2745C19.4876 29.2262 18.7929 28.1268 18.1349 26.9901C17.4786 25.8565 16.8747 24.7133 16.3273 23.5766C16.8745 22.4372 17.477 21.2927 18.1295 20.1611L18.1294 20.1614C18.7837 19.0268 19.4723 17.9327 20.1837 16.8909C21.4437 16.7957 22.7357 16.746 24.0415 16.746C25.3531 16.746 26.6469 16.7961 27.9065 16.8922C28.6071 17.9263 29.291 19.0168 29.9479 20.1516C30.6122 21.299 31.2224 22.4359 31.7743 23.5508C31.2241 24.685 30.6152 25.8333 29.9538 26.9802ZM33.6874 6.76925C35.1061 7.58739 35.6579 10.887 34.7665 15.2138C34.7096 15.4899 34.6456 15.7711 34.5761 16.0561C32.8184 15.6505 30.9097 15.3487 28.9113 15.1612C27.7472 13.5034 26.5408 11.9963 25.3299 10.6915C25.6555 10.3783 25.9806 10.0797 26.3043 9.79788C29.4321 7.07587 32.3555 6.00117 33.6874 6.76925Z" fill="white"/>
<path d="M24.041 19.75C26.1304 19.75 27.8242 21.4438 27.8242 23.5332C27.8242 25.6226 26.1304 27.3164 24.041 27.3164C21.9516 27.3164 20.2578 25.6226 20.2578 23.5332C20.2578 21.4438 21.9516 19.75 24.041 19.75Z" fill="#53C1DE"/>
</g>
<defs>
<clipPath id="clip0_1224_25921">
<rect width="48" height="43.125" fill="white" transform="translate(0 2)"/>
</clipPath>
</defs>
</svg>
