<svg width="21" height="20" viewBox="0 0 21 20" fill="none" xmlns="http://www.w3.org/2000/svg">
<g clip-path="url(#clip0_1408_5758)">
<path d="M9.66663 1.66602C13.8066 1.66602 17.1666 5.02602 17.1666 9.16602C17.1666 13.306 13.8066 16.666 9.66663 16.666C5.52663 16.666 2.16663 13.306 2.16663 9.16602C2.16663 5.02602 5.52663 1.66602 9.66663 1.66602ZM9.66663 14.9993C12.8891 14.9993 15.5 12.3885 15.5 9.16602C15.5 5.94268 12.8891 3.33268 9.66663 3.33268C6.44329 3.33268 3.83329 5.94268 3.83329 9.16602C3.83329 12.3885 6.44329 14.9993 9.66663 14.9993ZM16.7375 15.0585L19.095 17.4152L17.9158 18.5943L15.5591 16.2368L16.7375 15.0585Z" fill="#9CA3AF"/>
</g>
<defs>
<clipPath id="clip0_1408_5758">
<rect width="20" height="20" fill="white" transform="translate(0.5)"/>
</clipPath>
</defs>
</svg>
