<svg width="18" height="19" viewBox="0 0 18 19" fill="none" xmlns="http://www.w3.org/2000/svg">
<path fill-rule="evenodd" clip-rule="evenodd" d="M4.83334 0.916021L4.79477 0.916018C4.52236 0.915988 4.33689 0.915968 4.17317 0.930291C2.36025 1.0889 0.922886 2.52626 0.764275 4.33919C0.749952 4.5029 0.749973 4.68837 0.750003 4.96078L0.750006 4.99935L0.750003 5.03793C0.749973 5.31034 0.749952 5.49581 0.764275 5.65952C0.922886 7.47245 2.36025 8.90981 4.17317 9.06842C4.33689 9.08274 4.52235 9.08272 4.79476 9.08269L4.83334 9.08269H13.1667L13.2052 9.08269C13.4777 9.08272 13.6631 9.08274 13.8268 9.06842C15.6398 8.90981 17.0771 7.47245 17.2357 5.65952C17.2501 5.4958 17.25 5.31033 17.25 5.03791L17.25 4.99935L17.25 4.9608C17.25 4.68838 17.2501 4.50291 17.2357 4.33919C17.0771 2.52626 15.6398 1.0889 13.8268 0.930291C13.6631 0.915968 13.4777 0.915988 13.2052 0.916018L13.1667 0.916021H4.83334ZM2.25857 5.52879C2.25072 5.43915 2.25001 5.32475 2.25001 4.99935C2.25001 4.67395 2.25072 4.55956 2.25857 4.46992C2.35373 3.38217 3.21615 2.51975 4.3039 2.42458C4.39355 2.41674 4.50794 2.41602 4.83334 2.41602H13.1667C13.4921 2.41602 13.6065 2.41674 13.6961 2.42458C14.7839 2.51975 15.6463 3.38217 15.7414 4.46992C15.7493 4.55956 15.75 4.67395 15.75 4.99935C15.75 5.32475 15.7493 5.43915 15.7414 5.52879C15.6463 6.61654 14.7839 7.47896 13.6961 7.57413C13.6065 7.58197 13.4921 7.58269 13.1667 7.58269H4.83334C4.50794 7.58269 4.39355 7.58197 4.3039 7.57413C3.21615 7.47896 2.35373 6.61654 2.25857 5.52879ZM4.83334 10.0827L4.79477 10.0827C4.52236 10.0827 4.33689 10.0826 4.17317 10.097C2.36025 10.2556 0.922886 11.6929 0.764275 13.5059C0.749952 13.6696 0.749973 13.855 0.750003 14.1274L0.750006 14.166L0.750003 14.2046C0.749973 14.477 0.749952 14.6625 0.764275 14.8262C0.922886 16.6391 2.36025 18.0765 4.17317 18.2351C4.33687 18.2494 4.52231 18.2494 4.79468 18.2494H4.79476L4.83334 18.2494H13.1667L13.2052 18.2494H13.2053C13.4777 18.2494 13.6631 18.2494 13.8268 18.2351C15.6398 18.0765 17.0771 16.6391 17.2357 14.8262C17.2501 14.6625 17.25 14.477 17.25 14.2046L17.25 14.166L17.25 14.1275C17.25 13.855 17.2501 13.6696 17.2357 13.5059C17.0771 11.6929 15.6398 10.2556 13.8268 10.097C13.6631 10.0826 13.4777 10.0827 13.2052 10.0827L13.1667 10.0827H4.83334ZM2.25857 14.6955C2.25072 14.6058 2.25001 14.4914 2.25001 14.166C2.25001 13.8406 2.25072 13.7262 2.25857 13.6366C2.35373 12.5488 3.21615 11.6864 4.3039 11.5912C4.39355 11.5834 4.50794 11.5827 4.83334 11.5827H13.1667C13.4921 11.5827 13.6065 11.5834 13.6961 11.5912C14.7839 11.6864 15.6463 12.5488 15.7414 13.6366C15.7493 13.7262 15.75 13.8406 15.75 14.166C15.75 14.4914 15.7493 14.6058 15.7414 14.6955C15.6463 15.7832 14.7839 16.6456 13.6961 16.7408C13.6065 16.7486 13.4921 16.7494 13.1667 16.7494H4.83334C4.50794 16.7494 4.39355 16.7486 4.3039 16.7408C3.21615 16.6456 2.35373 15.7832 2.25857 14.6955ZM14 4.99935C14 5.45959 13.6269 5.83269 13.1667 5.83269C12.7064 5.83269 12.3333 5.45959 12.3333 4.99935C12.3333 4.53912 12.7064 4.16602 13.1667 4.16602C13.6269 4.16602 14 4.53912 14 4.99935ZM13.1667 14.9994C13.6269 14.9994 14 14.6263 14 14.166C14 13.7058 13.6269 13.3327 13.1667 13.3327C12.7064 13.3327 12.3333 13.7058 12.3333 14.166C12.3333 14.6263 12.7064 14.9994 13.1667 14.9994Z" fill="#94A3B8"/>
</svg>
