<svg width="20" height="20" viewBox="0 0 20 20" fill="none" xmlns="http://www.w3.org/2000/svg">
<path fill-rule="evenodd" clip-rule="evenodd" d="M9.63441 0.916016L9.66797 0.916016H10.3346L10.3682 0.916016C11.7399 0.916011 12.8153 0.916007 13.6797 0.986628C14.5598 1.05854 15.287 1.20739 15.9451 1.54273C17.027 2.094 17.9067 2.97364 18.4579 4.05557C18.7933 4.7137 18.9421 5.44081 19.014 6.32095C19.0846 7.18528 19.0846 8.26068 19.0846 9.63234V9.63239V9.63244V9.66601V10.3327V10.3663V10.3663V10.3664C19.0846 11.738 19.0846 12.8134 19.014 13.6777C18.9421 14.5579 18.7933 15.285 18.4579 15.9431C17.9067 17.0251 17.027 17.9047 15.9451 18.456C15.287 18.7913 14.5598 18.9402 13.6797 19.0121C12.8154 19.0827 11.74 19.0827 10.3683 19.0827H10.3683H10.3682H10.3346H9.66797H9.63439H9.63435H9.6343C8.26263 19.0827 7.18723 19.0827 6.32291 19.0121C5.44276 18.9402 4.71565 18.7913 4.05752 18.456C2.97559 17.9047 2.09595 17.0251 1.54468 15.9431C1.20935 15.285 1.06049 14.5579 0.988581 13.6777C0.917961 12.8134 0.917964 11.738 0.917969 10.3662L0.917969 10.3327V9.66602L0.917969 9.63246C0.917964 8.26074 0.917961 7.1853 0.988581 6.32095C1.06049 5.44081 1.20935 4.7137 1.54468 4.05557C2.09595 2.97364 2.97559 2.094 4.05752 1.54273C4.71565 1.20739 5.44276 1.05854 6.3229 0.986628C7.18725 0.916007 8.26269 0.916011 9.63441 0.916016ZM6.44505 2.48165C5.65767 2.54598 5.14994 2.6696 4.73851 2.87924C3.93882 3.2867 3.28865 3.93687 2.88119 4.73656C2.67156 5.14798 2.54793 5.65572 2.4836 6.4431C2.41855 7.23924 2.41797 8.25351 2.41797 9.66602V10.3327C2.41797 11.7452 2.41855 12.7595 2.4836 13.5556C2.54793 14.343 2.67156 14.8507 2.88119 15.2621C3.28865 16.0618 3.93882 16.712 4.73851 17.1195C5.14994 17.3291 5.65767 17.4527 6.44505 17.5171C7.24119 17.5821 8.25547 17.5827 9.66797 17.5827H10.3346C11.7471 17.5827 12.7614 17.5821 13.5576 17.5171C14.3449 17.4527 14.8527 17.3291 15.2641 17.1195C16.0638 16.712 16.714 16.0618 17.1214 15.2621C17.331 14.8507 17.4547 14.343 17.519 13.5556C17.5841 12.7595 17.5846 11.7452 17.5846 10.3327V9.66601C17.5846 8.25351 17.5841 7.23923 17.519 6.4431C17.4547 5.65572 17.331 5.14798 17.1214 4.73656C16.714 3.93687 16.0638 3.2867 15.2641 2.87924C14.8527 2.6696 14.3449 2.54598 13.5576 2.48165C12.7614 2.4166 11.7471 2.41602 10.3346 2.41602H9.66797C8.25546 2.41602 7.24119 2.4166 6.44505 2.48165ZM4.2513 5.83268C4.2513 5.41847 4.58709 5.08268 5.0013 5.08268H8.33464H11.668C12.0822 5.08268 12.418 5.41847 12.418 5.83268C12.418 6.2469 12.0822 6.58268 11.668 6.58268H9.08464V14.166C9.08464 14.5802 8.74885 14.916 8.33464 14.916C7.92042 14.916 7.58464 14.5802 7.58464 14.166V6.58268H5.0013C4.58709 6.58268 4.2513 6.2469 4.2513 5.83268ZM11.668 10.0827C11.2538 10.0827 10.918 10.4185 10.918 10.8327C10.918 11.2469 11.2538 11.5827 11.668 11.5827H12.5846V14.166C12.5846 14.5802 12.9204 14.916 13.3346 14.916C13.7488 14.916 14.0846 14.5802 14.0846 14.166V11.5827H15.0013C15.4155 11.5827 15.7513 11.2469 15.7513 10.8327C15.7513 10.4185 15.4155 10.0827 15.0013 10.0827H13.3346H11.668Z" fill="#94A3B8"/>
</svg>
