<svg width="20" height="20" viewBox="0 0 20 20" fill="none" xmlns="http://www.w3.org/2000/svg">
<path fill-rule="evenodd" clip-rule="evenodd" d="M10.7614 0.916039L10.8346 0.916063H15.1346L15.1651 0.916063C15.6992 0.916052 16.1451 0.916043 16.5093 0.945802C16.8892 0.97684 17.2458 1.04395 17.5831 1.21579C18.1006 1.47945 18.5213 1.90014 18.7849 2.41759C18.9567 2.75485 19.0239 3.11151 19.0549 3.49139C19.0847 3.85563 19.0846 4.30149 19.0846 4.83566V4.86606V9.16606L19.0847 9.23934C19.0849 9.63206 19.085 9.93505 19.0318 10.2026C18.8148 11.2935 17.962 12.1462 16.8711 12.3632C16.6036 12.4164 16.3006 12.4163 15.9079 12.4161H15.9079L15.8346 12.4161V10.9161C16.3352 10.9161 16.476 10.9124 16.5785 10.892C17.0744 10.7934 17.462 10.4058 17.5606 9.90993C17.581 9.80744 17.5846 9.66667 17.5846 9.16606V4.86606C17.5846 4.29363 17.5841 3.90942 17.5599 3.61354C17.5364 3.32642 17.4945 3.18914 17.4484 3.09857C17.3286 2.86337 17.1373 2.67215 16.9021 2.5523C16.8116 2.50616 16.6743 2.46428 16.3872 2.44082C16.0913 2.41665 15.7071 2.41606 15.1346 2.41606H10.8346C10.334 2.41606 10.1933 2.4197 10.0908 2.44008C9.59491 2.53871 9.20729 2.92634 9.10865 3.4222C9.08827 3.52469 9.08464 3.66546 9.08464 4.16606C9.08464 4.19423 9.08308 4.22204 9.08006 4.2494H11.8013L11.8317 4.2494C12.3659 4.24939 12.8117 4.24938 13.176 4.27914C13.5559 4.31017 13.9125 4.37728 14.2498 4.54913C14.7672 4.81278 15.1879 5.23348 15.4516 5.75092C15.6234 6.08818 15.6905 6.44484 15.7216 6.82473C15.7513 7.18895 15.7513 7.63478 15.7513 8.16891V8.16899V8.1994V12.4994L15.7513 12.5727V12.5727C15.7515 12.9654 15.7517 13.2684 15.6985 13.5359C15.4815 14.6268 14.6287 15.4796 13.5378 15.6966C13.2703 15.7498 12.9673 15.7496 12.5746 15.7494H12.5746L12.5013 15.7494V14.2494C13.0019 14.2494 13.1427 14.2458 13.2452 14.2254C13.741 14.1267 14.1287 13.7391 14.2273 13.2433C14.2477 13.1408 14.2513 13 14.2513 12.4994V8.1994C14.2513 7.62697 14.2507 7.24275 14.2265 6.94687C14.2031 6.65975 14.1612 6.52247 14.1151 6.43191C13.9952 6.19671 13.804 6.00548 13.5688 5.88564C13.4782 5.8395 13.3409 5.79761 13.0538 5.77415C12.7579 5.74998 12.3737 5.7494 11.8013 5.7494H7.5013C7.0007 5.7494 6.85993 5.75303 6.75744 5.77341C6.26158 5.87205 5.87395 6.25967 5.77532 6.75553C5.75494 6.85802 5.7513 6.99879 5.7513 7.4994C5.7513 7.52756 5.74975 7.55537 5.74673 7.58273H8.46797L8.4984 7.58273H8.49842C9.03257 7.58272 9.47841 7.58271 9.84264 7.61247C10.2225 7.64351 10.5792 7.71062 10.9164 7.88246C11.4339 8.14611 11.8546 8.56681 12.1182 9.08426C12.2901 9.42152 12.3572 9.77817 12.3882 10.1581C12.418 10.5223 12.418 10.9681 12.418 11.5022V11.5023V11.5327V15.1327V15.1632V15.1632C12.418 15.6974 12.418 16.1432 12.3882 16.5074C12.3572 16.8873 12.2901 17.2439 12.1182 17.5812C11.8546 18.0986 11.4339 18.5193 10.9164 18.783C10.5792 18.9548 10.2225 19.022 9.84264 19.053C9.47841 19.0828 9.03257 19.0827 8.49842 19.0827H8.46797H4.86797H4.83752C4.30337 19.0827 3.85753 19.0828 3.4933 19.053C3.11341 19.022 2.75676 18.9548 2.4195 18.783C1.90205 18.5193 1.48135 18.0986 1.2177 17.5812C1.04586 17.2439 0.978747 16.8873 0.947709 16.5074C0.91795 16.1432 0.917958 15.6973 0.917969 15.1632L0.91797 15.1327V11.5327L0.917969 11.5023C0.917958 10.9681 0.91795 10.5223 0.947709 10.1581C0.978747 9.77817 1.04586 9.42152 1.2177 9.08426C1.48135 8.56681 1.90205 8.14611 2.4195 7.88246C2.75676 7.71062 3.11341 7.64351 3.4933 7.61247C3.71642 7.59424 3.97016 7.58718 4.25607 7.58445C4.25292 7.55653 4.2513 7.52815 4.2513 7.4994L4.25128 7.42612C4.25108 7.03339 4.25093 6.7304 4.30414 6.4629C4.52114 5.372 5.37391 4.51923 6.4648 4.30224C6.73231 4.24903 7.0353 4.24918 7.42803 4.24937L7.5013 4.2494H7.58921C7.58619 4.22204 7.58464 4.19423 7.58464 4.16606L7.58461 4.09279C7.58442 3.70006 7.58427 3.39707 7.63748 3.12956C7.85447 2.03867 8.70724 1.1859 9.79814 0.968903C10.0656 0.915693 10.3686 0.915844 10.7614 0.916039ZM3.10048 9.21897C3.19104 9.17283 3.32832 9.13095 3.61545 9.10749C3.91133 9.08331 4.29554 9.08273 4.86797 9.08273H8.46797C9.0404 9.08273 9.42461 9.08331 9.72049 9.10749C10.0076 9.13095 10.1449 9.17283 10.2355 9.21897C10.4707 9.33881 10.6619 9.53004 10.7817 9.76524C10.8279 9.8558 10.8698 9.99308 10.8932 10.2802C10.9174 10.5761 10.918 10.9603 10.918 11.5327V15.1327C10.918 15.7052 10.9174 16.0894 10.8932 16.3853C10.8698 16.6724 10.8279 16.8097 10.7817 16.9002C10.6619 17.1354 10.4707 17.3266 10.2355 17.4465C10.1449 17.4926 10.0076 17.5345 9.72049 17.558C9.42461 17.5821 9.0404 17.5827 8.46797 17.5827H4.86797C4.29554 17.5827 3.91133 17.5821 3.61545 17.558C3.32832 17.5345 3.19104 17.4926 3.10048 17.4465C2.86528 17.3266 2.67405 17.1354 2.55421 16.9002C2.50807 16.8097 2.46619 16.6724 2.44273 16.3853C2.41855 16.0894 2.41797 15.7052 2.41797 15.1327V11.5327C2.41797 10.9603 2.41855 10.5761 2.44273 10.2802C2.46619 9.99308 2.50807 9.8558 2.55421 9.76524C2.67405 9.53004 2.86528 9.33881 3.10048 9.21897Z" fill="black"/>
</svg>
