<svg width="20" height="20" viewBox="0 0 20 20" fill="none" xmlns="http://www.w3.org/2000/svg">
<path fill-rule="evenodd" clip-rule="evenodd" d="M10.0013 0.916016C10.4155 0.916015 10.7513 1.2518 10.7513 1.66602L10.7513 3.33268C10.7513 3.7469 10.4155 4.08268 10.0013 4.08268C9.58709 4.08268 9.2513 3.7469 9.2513 3.33268L9.2513 1.66602C9.2513 1.2518 9.58709 0.916016 10.0013 0.916016ZM10.0013 15.916C10.4155 15.916 10.7513 16.2518 10.7513 16.666L10.7513 18.3327C10.7513 18.7469 10.4155 19.0827 10.0013 19.0827C9.58709 19.0827 9.2513 18.7469 9.2513 18.3327L9.2513 16.666C9.2513 16.2518 9.58709 15.916 10.0013 15.916ZM10.0013 6.58268C8.11433 6.58268 6.58464 8.11238 6.58464 9.99935C6.58464 11.8863 8.11433 13.416 10.0013 13.416C11.8883 13.416 13.418 11.8863 13.418 9.99935C13.418 8.11238 11.8883 6.58268 10.0013 6.58268ZM5.08464 9.99935C5.08464 7.28395 7.2859 5.08268 10.0013 5.08268C12.7167 5.08268 14.918 7.28395 14.918 9.99935C14.918 12.7147 12.7167 14.916 10.0013 14.916C7.2859 14.916 5.08464 12.7147 5.08464 9.99935ZM1.66797 9.24935C1.25376 9.24935 0.917969 9.58514 0.917969 9.99935C0.917969 10.4136 1.25376 10.7493 1.66797 10.7493H3.33463C3.74885 10.7493 4.08463 10.4136 4.08463 9.99935C4.08463 9.58514 3.74885 9.24935 3.33463 9.24935H1.66797ZM16.668 9.24935C16.2538 9.24935 15.918 9.58514 15.918 9.99935C15.918 10.4136 16.2538 10.7493 16.668 10.7493H18.3346C18.7488 10.7493 19.0846 10.4136 19.0846 9.99935C19.0846 9.58514 18.7488 9.24935 18.3346 9.24935H16.668ZM3.22098 3.21859C3.51387 2.9257 3.98875 2.9257 4.28164 3.2186L5.53166 4.46864C5.82455 4.76153 5.82454 5.2364 5.53165 5.5293C5.23875 5.82219 4.76388 5.82218 4.47099 5.52929L3.22097 4.27925C2.92808 3.98635 2.92808 3.51148 3.22098 3.21859ZM14.471 14.4686C14.7639 14.1757 15.2387 14.1757 15.5316 14.4686L16.7816 15.7186C17.0745 16.0115 17.0745 16.4864 16.7816 16.7793C16.4887 17.0722 16.0139 17.0722 15.721 16.7793L14.471 15.5293C14.1781 15.2364 14.1781 14.7615 14.471 14.4686ZM3.22097 15.719C2.92808 16.0119 2.92808 16.4868 3.22097 16.7797C3.51387 17.0726 3.98874 17.0726 4.28163 16.7797L5.53163 15.5297C5.82453 15.2368 5.82453 14.7619 5.53163 14.469C5.23874 14.1761 4.76387 14.1761 4.47097 14.469L3.22097 15.719ZM14.471 4.46902C14.1781 4.76191 14.1781 5.23679 14.471 5.52968C14.7639 5.82257 15.2387 5.82257 15.5316 5.52968L16.7816 4.27968C17.0745 3.98679 17.0745 3.51191 16.7816 3.21902C16.4887 2.92613 16.0139 2.92613 15.721 3.21902L14.471 4.46902Z" fill="#0F172A"/>
</svg>
