<svg width="48" height="48" viewBox="0 0 48 48" fill="none" xmlns="http://www.w3.org/2000/svg">
<path d="M41.4502 6.34391C36.9865 -0.0283463 28.1705 -1.91711 21.7961 2.13367L10.6011 9.25021C7.54313 11.169 5.43685 14.2837 4.79875 17.8305C4.26472 20.7851 4.7341 23.833 6.13256 26.4916C5.1743 27.9415 4.52072 29.5701 4.21133 31.279C3.56706 34.8938 4.40982 38.6151 6.54937 41.6028C11.0141 47.9757 19.8301 49.8636 26.2035 45.8131L37.3985 38.6965C40.4567 36.7779 42.5631 33.6631 43.2009 30.1163C43.7348 27.1616 43.2658 24.1138 41.868 21.4549C42.8261 20.0051 43.4794 18.3765 43.7885 16.6678C44.4332 13.0529 43.5904 9.33141 41.4504 6.34391" fill="#FF3E00"/>
<path d="M20.7022 42.2098C17.0926 43.1459 13.2808 41.7367 11.155 38.6801C9.86771 36.883 9.36061 34.6444 9.74823 32.4698C9.8132 32.1164 9.90262 31.7679 10.0158 31.4268L10.2267 30.7854L10.8004 31.2057C12.1254 32.1767 13.6069 32.915 15.181 33.3887L15.5972 33.5147L15.5588 33.929C15.508 34.5184 15.668 35.1067 16.0105 35.5897C16.6502 36.5103 17.7979 36.9352 18.885 36.6538C19.1284 36.5889 19.3604 36.4872 19.5728 36.3523L30.7714 29.2344C31.3255 28.8865 31.7073 28.3222 31.8236 27.6796C31.9396 27.0242 31.7869 26.3497 31.3996 25.8077C30.7595 24.8868 29.6115 24.4618 28.524 24.743C28.2809 24.8079 28.0493 24.9095 27.837 25.0443L23.5638 27.7613C22.8611 28.2069 22.0942 28.5428 21.2898 28.7573C17.6802 29.6934 13.8684 28.2841 11.7427 25.2276C10.4553 23.4305 9.94823 21.1919 10.3359 19.0174C10.7197 16.8839 11.9868 15.0105 13.8264 13.8567L25.024 6.73828C25.727 6.29193 26.4944 5.95563 27.2995 5.74108C30.9091 4.80504 34.7208 6.21428 36.8466 9.27075C38.1339 11.0679 38.641 13.3065 38.2533 15.481C38.1881 15.8344 38.0987 16.1829 37.9857 16.5241L37.7748 17.1655L37.2014 16.7458C35.8765 15.7742 34.3949 15.0356 32.8206 14.5619L32.4044 14.4359L32.4427 14.0216C32.4931 13.4322 32.3332 12.8441 31.9911 12.3609C31.3513 11.4402 30.2036 11.0154 29.1166 11.2968C28.8732 11.3617 28.6412 11.4634 28.4287 11.5983L17.2301 18.7164C16.6762 19.0641 16.2946 19.6284 16.1788 20.2709C16.062 20.9263 16.2145 21.601 16.602 22.143C17.2421 23.0638 18.39 23.4889 19.4776 23.2077C19.7209 23.1427 19.9528 23.041 20.1654 22.9062L24.4381 20.1902C25.1405 19.744 25.9073 19.4078 26.7118 19.1934C30.3214 18.2573 34.1332 19.6666 36.2589 22.7231C37.5463 24.5201 38.0534 26.7588 37.6657 28.9333C37.2817 31.0668 36.0146 32.9404 34.1752 34.0948L22.9775 41.2126C22.2746 41.659 21.5072 41.9953 20.7021 42.2098" fill="white"/>
</svg>
