<svg width="20" height="20" viewBox="0 0 20 20" fill="none" xmlns="http://www.w3.org/2000/svg">
<path fill-rule="evenodd" clip-rule="evenodd" d="M9.83745 0.916027L10.0013 0.916039L10.1652 0.916027C12.18 0.915807 13.3724 0.915677 14.3644 1.22845C16.4648 1.89069 18.11 3.53592 18.7722 5.63628C19.085 6.62826 19.0849 7.82073 19.0847 9.83548L19.0847 9.99937L19.0847 10.1633C19.0849 12.178 19.085 13.3705 18.7722 14.3625C18.11 16.4628 16.4648 18.1081 14.3644 18.7703C13.3724 19.0831 12.18 19.0829 10.1652 19.0827L10.0013 19.0827L9.83743 19.0827C7.82268 19.0829 6.63021 19.0831 5.63823 18.7703C3.53787 18.1081 1.89264 16.4628 1.2304 14.3625C0.91763 13.3705 0.91776 12.178 0.91798 10.1633L0.917992 9.99937L0.91798 9.8355C0.91776 7.82073 0.91763 6.62826 1.2304 5.63628C1.89264 3.53592 3.53787 1.89069 5.63823 1.22845C6.63022 0.915677 7.82269 0.915807 9.83745 0.916027ZM2.41799 9.99937C2.41799 12.2273 2.42674 13.1685 2.66098 13.9114C3.17605 15.545 4.45568 16.8246 6.08929 17.3397C6.83219 17.574 7.77343 17.5827 10.0013 17.5827C12.2292 17.5827 13.1705 17.574 13.9134 17.3397C15.547 16.8246 16.8266 15.545 17.3417 13.9114C17.5759 13.1685 17.5847 12.2273 17.5847 9.99937C17.5847 7.77148 17.5759 6.83024 17.3417 6.08733C16.8266 4.45372 15.547 3.1741 13.9134 2.65902C13.1705 2.42479 12.2292 2.41604 10.0013 2.41604C7.77343 2.41604 6.83219 2.42479 6.08929 2.65902C4.45568 3.1741 3.17605 4.45372 2.66098 6.08733C2.42674 6.83024 2.41799 7.77148 2.41799 9.99937ZM8.89021 11.5827C8.07713 11.5827 7.41799 12.2418 7.41799 13.0549C7.41799 13.2544 7.57967 13.416 7.7791 13.416H12.2235C12.423 13.416 12.5847 13.2544 12.5847 13.0549C12.5847 12.2418 11.9255 11.5827 11.1124 11.5827H8.89021ZM14.0847 13.0549C14.0847 14.0828 13.2514 14.916 12.2235 14.916H7.7791C6.75124 14.916 5.91799 14.0828 5.91799 13.0549C5.91799 11.4134 7.2487 10.0827 8.89021 10.0827H11.1124C12.754 10.0827 14.0847 11.4134 14.0847 13.0549ZM9.08466 6.66604C9.08466 6.15978 9.49506 5.74937 10.0013 5.74937C10.5076 5.74937 10.918 6.15978 10.918 6.66604C10.918 7.1723 10.5076 7.58271 10.0013 7.58271C9.49506 7.58271 9.08466 7.1723 9.08466 6.66604ZM10.0013 4.24937C8.66664 4.24937 7.58466 5.33135 7.58466 6.66604C7.58466 8.00073 8.66664 9.08271 10.0013 9.08271C11.336 9.08271 12.418 8.00073 12.418 6.66604C12.418 5.33135 11.336 4.24937 10.0013 4.24937Z" fill="#0331FC"/>
</svg>
