<svg width="20" height="20" viewBox="0 0 20 20" fill="none" xmlns="http://www.w3.org/2000/svg">
<path fill-rule="evenodd" clip-rule="evenodd" d="M7.5013 2.41602C6.07457 2.41602 4.91797 3.57261 4.91797 4.99935C4.91797 6.42608 6.07457 7.58268 7.5013 7.58268C8.92804 7.58268 10.0846 6.42608 10.0846 4.99935C10.0846 3.57261 8.92804 2.41602 7.5013 2.41602ZM3.41797 4.99935C3.41797 2.74419 5.24614 0.916016 7.5013 0.916016C9.75646 0.916016 11.5846 2.74419 11.5846 4.99935C11.5846 7.25451 9.75646 9.08268 7.5013 9.08268C5.24614 9.08268 3.41797 7.25451 3.41797 4.99935ZM0.917969 15.666C0.917969 13.0427 3.04462 10.916 5.66797 10.916H9.33463C11.958 10.916 14.0846 13.0427 14.0846 15.666C14.0846 17.553 12.5549 19.0827 10.668 19.0827H4.33464C2.44767 19.0827 0.917969 17.553 0.917969 15.666ZM5.66797 12.416C3.87304 12.416 2.41797 13.8711 2.41797 15.666C2.41797 16.7246 3.27609 17.5827 4.33464 17.5827H10.668C11.7265 17.5827 12.5846 16.7246 12.5846 15.666C12.5846 13.8711 11.1296 12.416 9.33463 12.416H5.66797ZM17.418 5.83268C17.418 5.41847 17.0822 5.08268 16.668 5.08268C16.2538 5.08268 15.918 5.41847 15.918 5.83268V7.58268H14.168C13.7538 7.58268 13.418 7.91847 13.418 8.33268C13.418 8.7469 13.7538 9.08268 14.168 9.08268H15.918V10.8327C15.918 11.2469 16.2538 11.5827 16.668 11.5827C17.0822 11.5827 17.418 11.2469 17.418 10.8327V9.08268H19.168C19.5822 9.08268 19.918 8.7469 19.918 8.33268C19.918 7.91847 19.5822 7.58268 19.168 7.58268H17.418V5.83268Z" fill="black"/>
</svg>
