<svg width="20" height="20" viewBox="0 0 20 20" fill="none" xmlns="http://www.w3.org/2000/svg">
<path fill-rule="evenodd" clip-rule="evenodd" d="M6.66797 2.41602C5.94396 2.41602 5.32264 2.85569 5.05644 3.48259C5.18276 3.46873 5.31316 3.45799 5.44844 3.44953C5.98394 3.41601 6.64374 3.41601 7.47623 3.41602H7.47624H7.5013H12.5013H12.5264H12.5264C13.3589 3.41601 14.0187 3.41601 14.5542 3.44953C14.6894 3.45799 14.8198 3.46873 14.9462 3.48259C14.68 2.85569 14.0586 2.41602 13.3346 2.41602L6.66797 2.41602ZM6.66797 0.916016C4.93552 0.916016 3.51968 2.27156 3.42321 3.97987C2.4158 4.52003 1.63001 5.40988 1.22242 6.49283C1.05696 6.93243 0.985709 7.39962 0.951481 7.94648C0.917963 8.48199 0.917966 9.14179 0.917969 9.97429L0.917969 9.99935L0.917969 10.0244C0.917966 10.8569 0.917963 11.5167 0.951481 12.0522C0.985709 12.5991 1.05696 13.0663 1.22242 13.5059C1.63001 14.5888 2.4158 15.4787 3.42321 16.0188C3.51968 17.7271 4.93552 19.0827 6.66797 19.0827H13.3346C15.0671 19.0827 16.4829 17.7271 16.5794 16.0188C17.5868 15.4787 18.3726 14.5888 18.7802 13.5059C18.9456 13.0663 19.0169 12.5991 19.0511 12.0522C19.0846 11.5167 19.0846 10.8569 19.0846 10.0244V9.99935V9.97431C19.0846 9.1418 19.0846 8.48199 19.0511 7.94648C19.0169 7.39962 18.9456 6.93243 18.7802 6.49283C18.3726 5.40988 17.5868 4.52003 16.5794 3.97987C16.4829 2.27156 15.0671 0.916016 13.3346 0.916016L6.66797 0.916016ZM14.9462 16.5161C14.8198 16.53 14.6894 16.5407 14.5542 16.5492C14.0187 16.5827 13.3588 16.5827 12.5263 16.5827H12.5013H7.5013H7.47626C6.64376 16.5827 5.98395 16.5827 5.44844 16.5492C5.31316 16.5407 5.18276 16.53 5.05644 16.5161C5.32264 17.143 5.94396 17.5827 6.66797 17.5827H13.3346C14.0586 17.5827 14.68 17.143 14.9462 16.5161ZM4.52316 5.12432C4.76473 5.0334 5.06498 4.97646 5.54214 4.9466C6.02528 4.91636 6.63819 4.91602 7.5013 4.91602H12.5013C13.3644 4.91602 13.9773 4.91636 14.4605 4.9466C14.9376 4.97646 15.2379 5.0334 15.4794 5.12432C16.3554 5.454 17.0467 6.14528 17.3763 7.0212C17.4673 7.26278 17.5242 7.56303 17.5541 8.04019C17.5843 8.52333 17.5846 9.13624 17.5846 9.99935C17.5846 10.8625 17.5843 11.4754 17.5541 11.9585C17.5242 12.4357 17.4673 12.7359 17.3763 12.9775C17.0467 13.8534 16.3554 14.5447 15.4794 14.8744C15.2379 14.9653 14.9376 15.0222 14.4605 15.0521C13.9773 15.0823 13.3644 15.0827 12.5013 15.0827H7.5013C6.6382 15.0827 6.02528 15.0823 5.54214 15.0521C5.06498 15.0222 4.76473 14.9653 4.52316 14.8744C3.64723 14.5447 2.95595 13.8534 2.62627 12.9775C2.53535 12.7359 2.47842 12.4357 2.44855 11.9585C2.41831 11.4754 2.41797 10.8625 2.41797 9.99935C2.41797 9.13624 2.41831 8.52333 2.44855 8.04019C2.47842 7.56303 2.53535 7.26278 2.62627 7.0212C2.95595 6.14528 3.64723 5.454 4.52316 5.12432ZM11.2382 7.70033L11.2093 7.68108C10.83 7.42817 10.5029 7.21012 10.2286 7.06143C9.95394 6.9126 9.61449 6.76471 9.23033 6.78764C8.71955 6.81814 8.2477 7.07067 7.93899 7.47875C7.70681 7.78567 7.64158 8.15014 7.61307 8.46119C7.5846 8.77197 7.58462 9.16504 7.58463 9.62095L7.58464 9.65564V10.3431L7.58463 10.3778C7.58462 10.8337 7.5846 11.2267 7.61307 11.5375C7.64158 11.8486 7.70681 12.213 7.93899 12.5199C8.2477 12.928 8.71955 13.1806 9.23033 13.2111C9.61449 13.234 9.95394 13.0861 10.2286 12.9373C10.5029 12.7886 10.83 12.5705 11.2093 12.3176L11.2382 12.2984L11.7537 11.9547L11.7806 11.9368L11.7806 11.9367C12.0914 11.7296 12.3659 11.5466 12.5742 11.3786C12.7897 11.2048 13.0184 10.9831 13.1484 10.6697C13.3264 10.2405 13.3264 9.75817 13.1484 9.32898C13.0184 9.01558 12.7897 8.79388 12.5742 8.6201C12.3659 8.45212 12.0914 8.26914 11.7806 8.06196L11.7806 8.06195L11.7537 8.04403L11.2382 7.70033ZM9.14466 8.37202C9.1854 8.3244 9.24257 8.2938 9.3048 8.28632C9.32247 8.29107 9.3844 8.31006 9.51386 8.38022C9.72034 8.49211 9.98971 8.67078 10.4061 8.9484L10.9217 9.29211C11.2675 9.52266 11.4839 9.66781 11.6326 9.7877C11.7241 9.86154 11.7575 9.90103 11.7663 9.91249C11.7871 9.96853 11.7871 10.0302 11.7663 10.0862C11.7575 10.0977 11.7241 10.1372 11.6326 10.211C11.4839 10.3309 11.2675 10.476 10.9217 10.7066L10.4061 11.0503C9.98971 11.3279 9.72034 11.5066 9.51386 11.6185C9.3844 11.6886 9.32247 11.7076 9.3048 11.7124C9.24257 11.7049 9.1854 11.6743 9.14466 11.6267C9.13881 11.6093 9.12025 11.5473 9.10682 11.4006C9.08539 11.1668 9.08464 10.8435 9.08464 10.3431V9.65564C9.08464 9.15516 9.08539 8.83193 9.10682 8.59806C9.12025 8.45142 9.13881 8.38936 9.14466 8.37202Z" fill="black"/>
</svg>
