<svg width="21" height="20" viewBox="0 0 21 20" fill="none" xmlns="http://www.w3.org/2000/svg">
<g clip-path="url(#clip0_1444_17998)">
<path d="M2.99935 2.5H17.9993C18.2204 2.5 18.4323 2.5878 18.5886 2.74408C18.7449 2.90036 18.8327 3.11232 18.8327 3.33333V16.6667C18.8327 16.8877 18.7449 17.0996 18.5886 17.2559C18.4323 17.4122 18.2204 17.5 17.9993 17.5H2.99935C2.77834 17.5 2.56637 17.4122 2.41009 17.2559C2.25381 17.0996 2.16602 16.8877 2.16602 16.6667V3.33333C2.16602 3.11232 2.25381 2.90036 2.41009 2.74408C2.56637 2.5878 2.77834 2.5 2.99935 2.5ZM17.166 9.16667H3.83268V15.8333H17.166V9.16667ZM17.166 7.5V4.16667H3.83268V7.5H17.166ZM7.99935 5H9.66602V6.66667H7.99935V5ZM4.66602 5H6.33268V6.66667H4.66602V5Z" fill="#0331FC"/>
</g>
<defs>
<clipPath id="clip0_1444_17998">
<rect width="20" height="20" fill="white" transform="translate(0.5)"/>
</clipPath>
</defs>
</svg>
